<?xml version="1.0" encoding="utf-8"?>
<!-- Generator: Adobe Illustrator 15.0.0, SVG Export Plug-In . SVG Version: 6.00 Build 0)  -->
<!DOCTYPE svg PUBLIC "-//W3C//DTD SVG 1.1//EN" "http://www.w3.org/Graphics/SVG/1.1/DTD/svg11.dtd">
<svg version="1.1" id="Layer_1" xmlns="http://www.w3.org/2000/svg" xmlns:xlink="http://www.w3.org/1999/xlink" x="0px" y="0px"
	 width="90.709px" height="90.709px" viewBox="0 0 90.709 90.709" enable-background="new 0 0 90.709 90.709" xml:space="preserve">
<g>
	<g>
		<path fill="#626466" d="M42.952,64.836c-17.383,0-31.525-14.142-31.525-31.525c0-17.383,14.142-31.525,31.525-31.525
			c17.383,0,31.525,14.143,31.525,31.525C74.477,50.694,60.334,64.836,42.952,64.836z M42.952,3.438
			c-16.472,0-29.872,13.4-29.872,29.872c0,16.473,13.4,29.873,29.872,29.873s29.872-13.4,29.872-29.873
			C72.824,16.839,59.423,3.438,42.952,3.438z"/>
	</g>
	<g>
		<path fill="#626466" d="M42.952,69.641c-8.974,0-17.59-3.298-24.262-9.287l1.399-1.558c6.286,5.643,14.406,8.751,22.863,8.751
			c18.878,0,34.237-15.357,34.237-34.236c0-11.174-5.476-21.673-14.649-28.084l1.199-1.716c9.733,6.803,15.544,17.942,15.544,29.8
			C79.283,53.343,62.985,69.641,42.952,69.641z"/>
	</g>
	<g>
		<g>
			<path fill="#626466" d="M34.829,9.789c-0.224,0-0.498,0.073-0.723,0.099c-0.224,0.026-0.312,0.037-0.385,0.125
				c-0.076,0.087-0.288,0-0.175-0.125c0.113-0.124,0.262-0.137,0.412-0.187c0.148-0.05,0.26-0.261,0.161-0.312
				c-0.1-0.05,0.025-0.137,0.174-0.062c0.149,0.074,0.262,0.36,0.411,0.298c0.149-0.062,0.237-0.012,0.324,0.051
				c0.087,0.062,0.237-0.063,0.162-0.112c-0.075-0.05,0.039-0.162-0.012-0.262c-0.049-0.1-0.037-0.1-0.149-0.026
				c-0.112,0.075,0.038-0.236-0.125-0.236c-0.162,0-0.386-0.1-0.461-0.299c-0.074-0.199-0.074-0.335,0.124-0.224
				c0.2,0.112,0.586,0.286,0.662,0.249c0.074-0.036-0.075-0.211,0.024-0.299c0.099-0.087,0.312-0.162,0.548-0.162
				c0.236,0,0.187-0.174,0.348-0.174s-0.186-0.287,0.112-0.262c0.299,0.023,0.548-0.199,0.374-0.237
				c-0.175-0.037-0.349-0.124-0.224-0.188c0.124-0.062-0.025-0.248,0.075-0.311s0.373-0.286,0.111-0.311
				c-0.261-0.026-0.311-0.052-0.1-0.237c0.213-0.188,0.437-0.25,0.35-0.387c-0.087-0.138-0.199-0.374-0.062-0.36
				c0.136,0.011,0.236-0.188,0.373-0.113s0.137-0.212,0.287-0.086c0.149,0.124,0.236-0.225,0.373-0.2
				c0.138,0.024,0.536-0.037,0.574-0.074c0.038-0.038-0.15-0.125-0.286-0.138c-0.137-0.013-0.524-0.237-0.823-0.111
				c-0.299,0.124-0.461,0.148-0.598,0.148s-0.188-0.063-0.249,0.074c-0.063,0.138-0.249,0.088-0.386,0.188
				c-0.138,0.101-0.499,0.137-0.361,0s0.361-0.211,0.375-0.312c0.011-0.099-0.2,0.013-0.361,0.013c-0.162,0-0.499,0.024-0.424-0.1
				c0.075-0.125,0.25-0.149,0.398-0.137c0.151,0.012,0.399,0.073,0.499-0.013c0.101-0.087,0.05-0.137-0.423-0.212
				c-0.474-0.075-0.661-0.275-0.959-0.176c-0.3,0.101-1.234,0.2-1.421,0.313c-0.187,0.113-0.262-0.1-0.548-0.038
				c-0.287,0.063-0.448,0.138-0.86,0.176c-0.41,0.036-0.423,0.262-0.647,0.262c-0.225,0-0.387,0.349-0.598,0.286
				c-0.213-0.063-0.374-0.149-0.474,0.074c-0.1,0.225-0.212,0.238-0.336,0.149c-0.125-0.087-0.411-0.162-0.536,0.026
				c-0.125,0.186-0.262,0.261-0.536,0.299l-5.37,3.4c0,0-0.249,0.797,0.498,0.349C24.711,9.44,25.36,8.94,25.958,9.34
				c0.598,0.398,0.548,0.849,0.298,1.195c0,0-0.323,0.5,0.026,0.325c0.349-0.175,0.722-0.149,0.697,0.1
				c-0.026,0.249-0.198,0.063-0.436,0.049c-0.237-0.012-0.473,0.075-0.361,0.126c0.113,0.048,0.411,0.037,0.573,0.074
				c0.162,0.036,0.274,0.186,0.162,0.461c-0.112,0.274-0.312,0.075-0.486,0.198c-0.175,0.125-0.623,0.611-0.585,0.761
				c0.037,0.149,0.187,0.1,0.049,0.274c-0.136,0.175-0.125,0.349,0.025,0.498c0.149,0.149-0.075,0.524,0.099,0.724
				c0.175,0.199,0.211,0.211,0.137,0.348s0.15,0.136,0.212,0.374c0.063,0.236,0.262,0.312,0.485,0.212
				c0.225-0.101,0.25-0.273,0.4-0.112c0.149,0.162,0.261-0.063,0.248,0.125c-0.011,0.186,0.049,0.112,0.262,0.075
				c0.212-0.038,0.212-0.163,0.349-0.325c0.137-0.161,0.536-0.485,0.436-0.709c-0.099-0.225-0.187-0.449-0.037-0.474
				c0.149-0.025,0.436-0.037,0.548-0.237c0.113-0.199-0.037-0.187-0.037-0.187l0.162-0.149c0,0-0.137-0.238,0.036-0.299
				c0.176-0.063,0.25-0.013,0.362-0.2s0.561-0.074,0.61-0.299c0.05-0.225,0.212-0.236,0.175-0.111
				c-0.038,0.124,0.373,0.087,0.386-0.013c0.013-0.101,0.038-0.138,0.138-0.125c0.1,0.013,0.398-0.137,0.597-0.486
				s0.45-0.386,0.45-0.386s0.086-0.024,0.099-0.237c0.012-0.211,0.062-0.125,0.199,0.013c0.138,0.137,0.174,0.063,0.324-0.013
				c0.149-0.073,0.361,0,0.437-0.087c0.074-0.087,0.336-0.037,0.573-0.187s0.947-0.562,1.133-0.636
				C34.891,9.925,35.052,9.789,34.829,9.789z"/>
		</g>
		<g>
			<path fill="#626466" d="M19.392,14.41c0.012-0.111,0.1-0.138,0.224-0.074c0.124,0.063,0.374-0.05,0.374-0.05
				s-0.125,0.087-0.3,0.312c-0.174,0.224,0.088,0.175,0.212,0.024c0.125-0.149,0.2-0.223,0.325-0.248
				c0.124-0.025,0.348,0.075,0.323,0.299c-0.024,0.224-0.25,0.423-0.423,0.547c-0.175,0.125-0.349,0.374-0.299,0.55
				c0.05,0.173-0.323,0.298-0.523,0.448c-0.199,0.15-0.623,0.398-0.797,0.572c-0.175,0.176-0.075,0.474,0.075,0.299
				c0.149-0.174,0.598-0.397,0.797-0.573c0.2-0.174,0.375-0.323,0.399-0.147c0.025,0.173,0.249,0.048,0.149,0.223
				c-0.099,0.175,0.125,0.074,0.325,0c0.199-0.075,0.374-0.024,0.598-0.075c0.225-0.049,0.398,0.125,0.548-0.049
				c0.15-0.174-0.05-0.274-0.274-0.324c-0.225-0.05-0.149-0.2,0.074-0.274c0.226-0.074,0.3,0.274,0.425,0.175
				c0.125-0.101,0.224-0.05,0.274-0.299c0.049-0.25,0.249-0.275,0.174-0.449c-0.075-0.174-0.026-0.273-0.324-0.273
				c-0.299,0-0.149-0.299-0.025-0.523c0.125-0.226,0.374-0.025,0.624,0.175c0.249,0.199,0.324-0.224,0.423-0.4
				c0.1-0.174,0.374-0.124,0.624-0.397c0.249-0.273,0.175-0.374,0-0.374c-0.174,0-0.522,0.175-0.498-0.049
				c0.024-0.226-0.35-0.026-0.673,0.074c-0.324,0.099-0.424,0,0-0.248c0.424-0.25,0.299-0.426,0.173-0.649
				c-0.124-0.224-0.173,0-0.449,0.1c-0.273,0.1-0.373-0.124-0.572,0.05c-0.198,0.175-0.125,0.274-0.374,0.05
				c-0.249-0.224-0.449,0.075-0.672,0.2c-0.2,0.112-0.341,0.32-0.333,0.148l-1.507,2.02c0.214-0.099,0.423-0.237,0.58-0.35
				C19.243,14.722,19.379,14.523,19.392,14.41z"/>
		</g>
		<g>
			<path fill="#626466" d="M16.875,17.626c0.175-0.088,0.249-0.188,0.273-0.313c0.025-0.125,0.212-0.225,0.398-0.373
				c0.187-0.15,0.3-0.236,0.412-0.426c0.112-0.186,0.324-0.397,0.199-0.373c-0.124,0.026-0.124-0.024-0.124-0.137
				c0-0.111,0.062-0.199,0.211-0.199c0.149,0,0.187-0.111,0.187-0.236c0-0.124,0.087-0.212,0.087-0.212s-0.089,0.043-0.211,0.08
				l-1.733,2.324C16.576,17.762,16.701,17.711,16.875,17.626z"/>
		</g>
		<g>
			<path fill="#626466" d="M20.551,12.431l-0.303,0.405c0.136-0.06,0.31-0.104,0.477-0.207
				C21.049,12.43,20.551,12.431,20.551,12.431z"/>
		</g>
		<g>
			<path fill="#626466" d="M20.002,13.103c-0.005,0.031-0.007,0.054-0.007,0.074l0.253-0.341
				C20.122,12.891,20.026,12.959,20.002,13.103z"/>
		</g>
		<g>
			<path fill="#626466" d="M18.421,15.232c-0.237,0.1-0.337,0.262-0.175,0.225c0.026-0.006,0.04-0.013,0.063-0.02l0.178-0.241
				C18.465,15.207,18.444,15.223,18.421,15.232z"/>
		</g>
		<g>
			<path fill="#626466" d="M19.841,15.083c0.137-0.199,0.174-0.373,0.174-0.373c-0.149-0.013-0.562,0.386-0.647,0.561
				c-0.088,0.175-0.188,0.299-0.051,0.237C19.455,15.444,19.704,15.283,19.841,15.083z"/>
		</g>
		<g>
			<path fill="#626466" d="M26.238,11.702c0.149-0.207,0.411-0.132,0.542-0.244c0.13-0.111-0.206-0.168-0.449-0.188
				c-0.243-0.018-0.393,0.057-0.449,0.281C25.828,11.774,26.238,11.702,26.238,11.702z"/>
		</g>
		<g>
			<path fill="#626466" d="M15.978,19.363c-0.018,0.095,0.281-0.224,0.45-0.468c0.167-0.242,0.28-0.503,0.485-0.503
				c0.207,0,0.412-0.319,0.505-0.356s0.317-0.206,0.207-0.318c-0.113-0.111-0.356,0.112-0.356,0.112s-0.075-0.167-0.242,0
				c-0.169,0.169-0.187,0-0.187,0s-0.394,0.412-0.58,0.729c-0.187,0.318-0.317,0.563-0.429,0.692
				C15.716,19.382,15.997,19.27,15.978,19.363z"/>
		</g>
		<g>
			<path fill="#626466" d="M16.258,19.344c-0.093,0.225,0.542-0.317,0.691-0.69C16.95,18.653,16.352,19.121,16.258,19.344z"/>
		</g>
		<g>
			<path fill="#626466" d="M17.287,18.746c0.187-0.112,0.206-0.354,0.206-0.354C17.305,18.41,17.1,18.859,17.287,18.746z"/>
		</g>
		<g>
			<path fill="#626466" d="M12.539,30.763c-0.008,0.035-0.003,0.072,0.007,0.107l0.038-0.196
				C12.563,30.706,12.545,30.736,12.539,30.763z"/>
		</g>
		<g>
			<path fill="#626466" d="M13.642,29.66c0.205-0.299,0.803-0.859,0.953-1.028c0.149-0.167,0.205-0.523,0.225-0.803
				c0.018-0.28,0.13-0.598,0.243-0.393c0.112,0.205-0.225,0.561-0.243,0.617c-0.02,0.055,0.168-0.02,0.485-0.393
				c0.318-0.374,0.02-0.412,0.281-0.58s0.261-0.561,0.562-0.635c0.297-0.075,0.242-0.431,0.634-0.523
				c0.393-0.094,0.523-0.094,0.655-0.394c0.13-0.299-0.317-0.036-0.244-0.187c0.075-0.148,0.749-0.821,1.178-1.121
				c0.43-0.298,1.009-0.766,1.047-0.654c0.037,0.112-0.542,0.486-0.598,0.785c-0.056,0.3,0.468-0.111,0.822-0.448
				c0.355-0.337,1.16-0.617,1.141-0.841c-0.019-0.225-0.766,0.112-1.083-0.019c-0.318-0.131-0.356-0.431-0.038-0.598
				c0.317-0.169,0.505-0.374,0.317-0.562c-0.187-0.186-1.047,0.485-0.897,0.28c0.15-0.205,0.636-0.616,1.271-0.821
				c0.636-0.207,1.178-0.243,1.364-0.486c0.188-0.243,0.673-0.58,1.234-1.009c0.56-0.431,0.355-0.804,0.149-0.859
				c-0.206-0.057-0.411,0.261-0.336-0.095s-0.075-0.242-0.244-0.206c-0.167,0.039-0.131-0.092-0.298-0.074
				c-0.169,0.019-0.187-0.205-0.355-0.205c-0.169,0-0.225-0.206-0.02-0.337c0.206-0.131,0-0.374-0.131-0.729
				c-0.13-0.354-0.224-0.484-0.335-0.373c-0.113,0.112-0.429,0.636-0.579,0.823c-0.149,0.187-0.505,0.354-0.71,0.279
				c-0.206-0.074-0.486,0.355-0.319-0.205c0.169-0.562,0.3-0.654,0.3-0.654s-0.243,0.243-0.355,0.206
				c-0.111-0.038-0.131-0.206-0.374-0.149c-0.242,0.056-0.617,0.447-0.99,0.56c-0.375,0.112-0.411,0.337-0.505,0.654
				c-0.093,0.318-0.168,0.542-0.187,0.599c-0.02,0.057-0.206,0.317-0.374,0.561s-0.206,0.354,0.018,0.262
				c0.225-0.094,0.262,0.092,0.112,0.355c-0.149,0.262-0.729,1.214-1.065,1.439c-0.335,0.223-0.261,0.166-0.355,0.578
				c-0.093,0.411-0.224,0.953-0.523,1.178c-0.298,0.224-0.41,0.187-0.374-0.187c0.038-0.375,0.206-0.898,0.206-0.898
				s-0.242,0.169-0.505,0.412c-0.261,0.242-0.373,0.299-0.355,0.111c0.02-0.187-0.148,0.113-0.298,0.263
				c-0.15,0.148-0.15,0.148-0.15,0.148l-1.413,7.368C12.763,30.394,13.457,29.93,13.642,29.66z"/>
		</g>
		<g>
			<path fill="#626466" d="M12.801,31.66c0.161-0.339-0.191-0.566-0.255-0.79l-0.231,1.201
				C12.315,32.071,12.614,32.052,12.801,31.66z"/>
		</g>
		<g>
			<path fill="#626466" d="M27.789,43.097c-0.316-0.224-0.653-0.784-0.878-0.972c-0.224-0.187-0.709-0.037-0.99-0.225
				c-0.281-0.186-0.674-0.111-0.674-0.111s0.15-0.149-0.13-0.523s-0.935-0.541-1.121-0.467c-0.187,0.074-0.299,0.317-0.505,0.317
				c-0.206,0-0.056-0.169,0.224-0.3c0.281-0.13,0.094-0.186-0.13-0.298c-0.224-0.112-0.392-0.187-0.522-0.02
				c-0.132,0.17-0.094,0.317-0.356,0.262c-0.262-0.056-0.299-0.13-0.149-0.167c0.149-0.039,0.224-0.28,0.542-0.468
				c0.318-0.187,0.112-0.431-0.037-0.579c-0.15-0.149-0.169-0.355-0.394-0.86c-0.224-0.505-0.989-0.711-1.476-0.897
				c-0.486-0.187-0.691-0.262-0.953-0.542c-0.261-0.279-0.485-0.541-0.691-0.672s-0.542,0.149-0.337-0.112
				c0.206-0.262-0.261-0.468-0.561-0.542c-0.298-0.074,0.262-0.225-0.13-0.28c-0.393-0.057-0.355,0.504-0.766,0.168
				c-0.411-0.337-0.897-0.148-1.103-0.393c-0.206-0.243-0.393-0.261-0.561-0.279s-0.038-0.225-0.225-0.281
				c-0.186-0.056-0.019,0.224-0.019,0.224s-0.242,0.058-0.485,0.149c-0.244,0.095,0.111-0.205,0.149-0.429
				c0.038-0.225-0.374,0.148-0.934,0.037s-0.672,0.336-0.748,0.336c-0.075,0-0.692,0.056-0.803,0.131
				c-0.112,0.075,0.392,0.43,0.187,0.543c-0.206,0.11-0.094,0.467-0.187,0.412c-0.094-0.058-0.244-0.189-0.299-0.039
				c-0.056,0.149-0.392-0.075-0.392-0.075c0.011,0.178,0.354,1.496,0.354,1.496s0.635,1.27,1.215,2.28
				c0.58,1.009,1.831,2.429,2.335,2.989c0.505,0.561,0.86,0.896,0.673,1.178c-0.186,0.28,0,0.393,0.038,0.878
				c0.038,0.486,0.206,0.99,0.131,1.215c-0.075,0.224-0.019,0.486,0.15,0.953c0.168,0.467-0.057,0.094,0,0.71
				c0.056,0.617,0.037,0.486,0.186,0.916s-0.038,0.598,0.281,1.008c0.317,0.412,0.504,0.544,0.524,0.842
				c0.018,0.3,0.128,0.742,0.223,1.009c0.326,0.917,2.877,3.402,2.877,3.402c0.057-0.412-0.392-0.673-0.56-0.879
				c-0.169-0.205-0.504-0.561-0.262-0.599c0.243-0.036,0.336,0.318,0.411,0.076c0.075-0.243-0.019-0.486-0.168-0.748
				c-0.15-0.262-0.374-0.448-0.317-0.599c0.056-0.148,0.28,0.131,0.448,0.375c0.169,0.242,0.58,0.56,0.542,0.374
				c-0.037-0.188-0.15-0.505-0.056-0.599c0.093-0.094,0.448,0.242,0.785,0.429c0.336,0.188,0.579,0.15,0.672-0.037
				c0.094-0.187-0.224-0.448-0.299-0.747c-0.074-0.299-0.392-0.262-0.504-0.541c-0.112-0.281,0.094-0.188,0.318,0.073
				c0.224,0.263,0.598,0.524,0.916,0.729c0.318,0.205,0.411-0.057,0.561-0.3c0.149-0.241,0.187-0.224,0.43-0.336
				c0.244-0.112,0.149-0.559,0.336-0.71c0.188-0.15,0.243-0.261,0.131-0.523c-0.113-0.261-0.038-0.579,0.243-0.729
				c0.281-0.149,0.392-0.056,0.785-0.074c0.392-0.02,0.505,0,0.823,0.13c0.318,0.132,0.187-0.13,0.429-0.167
				c0.244-0.038,0.169-0.3,0.188-0.486c0.018-0.188,0.149-0.318,0.335-0.355c0.188-0.037-0.093-0.561,0.075-0.635
				c0.169-0.075-0.075-0.188,0.057-0.411c0.13-0.225-0.112-0.729-0.131-1.084c-0.017-0.355,0.038-0.355,0.319-0.411
				c0.279-0.057,0.224-0.543,0.411-0.71c0.188-0.17,0.43-0.263,0.467-0.58c0.037-0.318,0.093-0.374,0.056-0.804
				C28.724,43.714,28.106,43.321,27.789,43.097z"/>
		</g>
		<g>
			<path fill="#626466" d="M35.077,12.854c0.175,0.075,0.449-0.075,0.748,0.025c0.299,0.099,1.121,0.024,1.171-0.199
				c0.05-0.225,0.448-0.523,0.349-0.648c-0.1-0.125-0.399-0.374-0.523-0.423c-0.125-0.051-0.324-0.15-0.397,0.049
				c-0.076,0.199-0.4,0.125-0.524,0.05c-0.126-0.074-0.375-0.249-0.375,0c0,0.25-0.099-0.124-0.199,0
				c-0.099,0.126-0.375,0.549-0.399,0.274c-0.025-0.274-0.323-0.548-0.573-0.225c0,0-0.647,0.424-0.249,0.325
				c0.399-0.101,0.796-0.075,0.499,0.074c-0.3,0.148-0.548,0-0.425,0.249c0.125,0.249,0.349,0.125,0.349,0.373
				C34.529,13.028,34.903,12.778,35.077,12.854z"/>
		</g>
		<g>
			<path fill="#626466" d="M38.441,17.215c0.149,0.149,0,0.174-0.249,0.075c-0.25-0.101-0.399,0.074-0.175,0.299
				c0.225,0.224,0.299,0.447,0.099,0.521c-0.199,0.076-0.522,0.374-0.174,0.573c0.35,0.2,0.673-0.273,0.874-0.224
				c0.198,0.051,0.447,0.051,0.497-0.474c0.05-0.523,0.175-0.598,0.175-0.598s0.199-0.448-0.199-0.448s-0.722-0.225-0.822,0.025
				C38.466,16.966,38.292,17.064,38.441,17.215z"/>
		</g>
		<g>
			<path fill="#626466" d="M39.114,15.806c0.125,0.088-0.124,0.212,0.074,0.262c0.2,0.05,0.112,0.125,0.25,0.212
				c0.137,0.089-0.125,0.325,0.075,0.374c0.199,0.051,0.298,0.162,0.286,0.287c-0.013,0.124-0.286,0.212-0.137,0.323
				c0.149,0.111,0.374,0.088,0.449-0.037c0.074-0.125,0.013,0.174,0.137,0.325c0.125,0.147,0.187,0.46,0.038,0.51
				c-0.149,0.049-0.349-0.287-0.411-0.199c-0.063,0.087,0.111,0.548-0.063,0.648c-0.173,0.1-0.387,0.224-0.037,0.299
				c0.348,0.074,0.536,0.099,0.373,0.236c-0.161,0.137-0.224-0.025-0.41,0.161c-0.188,0.188-0.461,0.287-0.262,0.374
				s0.324-0.162,0.399-0.075c0.074,0.089,0.248-0.186,0.386-0.137c0.137,0.05,0.312-0.036,0.535-0.063
				c0.225-0.024,0.461,0.125,0.648,0.138c0.186,0.014,0.336-0.087,0.285-0.162c-0.049-0.075-0.211-0.174-0.012-0.25
				c0.199-0.074,0.325-0.372,0.138-0.435c-0.187-0.063-0.299-0.213-0.287-0.312c0.012-0.1,0-0.213-0.125-0.313
				c-0.125-0.1-0.025-0.187-0.149-0.286c-0.125-0.099-0.361-0.188-0.399-0.436c-0.037-0.25-0.188-0.437-0.362-0.437
				s-0.374-0.15-0.224-0.187c0.149-0.038,0.099-0.188,0.274-0.15c0.174,0.037,0.199-0.323,0.161-0.511
				c-0.037-0.186-0.348-0.137-0.497-0.112c-0.149,0.025-0.05-0.099,0.049-0.161c0.1-0.063,0.112-0.137-0.137-0.2
				c-0.249-0.062-0.485-0.248-0.51-0.073c-0.026,0.173-0.25,0.51-0.387,0.298c0,0,0.225-0.149,0.125-0.324
				c-0.1-0.175-0.299,0.014-0.349,0.163C38.99,15.706,38.99,15.719,39.114,15.806z"/>
		</g>
		<g>
			<path fill="#626466" d="M71.795,22.23c-2.359-5.135-5.434-8.553-5.434-8.553s-1.089-0.495-1.584-0.713
				c-0.497-0.218,0.355,0.812,0.256,0.693c-0.098-0.118-0.633-0.376-1.029-0.713s-0.376-0.021-0.099,0.376
				c0.276,0.396,0.694,0.832,0.336,0.555c-0.357-0.276-0.554-0.377-0.93-0.753s0.297,0.675,0.04,0.477
				c-0.258-0.199-0.456-0.377-0.674-0.557c-0.217-0.177-0.079,0.456,0.118,0.873c0.199,0.416,1.011,0.574,1.269,1.029
				c0.258,0.456,0.417,0.356,0.337,0.614c-0.08,0.257-0.694-0.258-0.832-0.693c-0.139-0.437-0.278-0.218-0.376,0.119
				c-0.099,0.336-0.356,0.554-0.752,0.316s-0.753-0.871-0.753-0.871s0.515,0.315,0.99,0.237c0.477-0.078-0.02-0.435-0.296-0.732
				c-0.278-0.297-0.437-1.05-0.555-1.585c-0.119-0.534-0.713-0.912-1.091-0.912c-0.375,0,0.021,0.438-0.296,0.595
				c-0.316,0.158,0.198,0.259,0.296,0.635c0.1,0.375,0.338,0.436,0.656,0.812c0.317,0.377-0.041,0.297-0.476,0.02
				c-0.436-0.276-1.149-0.891-1.525-1.168c-0.377-0.277-0.456,0-0.337,0.139c0.119,0.139-0.059,0.297-0.298,0.218
				c-0.238-0.079-0.336-0.356-0.931-0.356c-0.594,0-0.554-0.158-0.732-0.376c-0.18-0.218-1.031-0.041-1.368,0.218
				c-0.336,0.258-0.594,0.218-0.811-0.061c-0.217-0.276,0.217-0.059,0.099-0.355c-0.119-0.297-0.614-0.555-1.01-0.535
				c-0.397,0.02,0.297,0.435,0.316,0.772c0.02,0.337,0.278,0.356,0.179,0.594s-0.634-0.276-1.011-0.813
				c-0.376-0.534-0.832-0.692-1.545-0.891c-0.713-0.197-0.792-0.455-1.208-0.455s-0.911,0-0.595-0.14
				c0.318-0.138,0.556-0.138,0.297-0.237c-0.257-0.1-0.455-0.078-1.327-0.237c-0.871-0.158-1.068,0.06-1.882,0.416
				c-0.812,0.356-1.406,0.95-1.821,1.743c-0.417,0.793-0.615,1.148-0.992,1.604c-0.376,0.456-1.049,0.852-1.386,0.872
				c-0.336,0.019-0.159,0.257-0.138,0.673c0.02,0.415,0.198,0.475,0.198,0.971c0,0.494,0.337,0.633,0.712,0.415
				c0.376-0.217,0.832-1.03,0.832-1.03s0.12,0,0.297,0.437c0.179,0.436,0.635,0.792,0.635,1.188c0,0.396,0.356,0.456,0.455,0.258
				c0.099-0.198,0.159-0.337,0.455-0.437c0.298-0.099,0.199-0.693,0.397-1.228c0.199-0.535,0.673-0.377,0.575-0.733
				c-0.1-0.356-0.693-0.197-0.693-0.594s0.198-0.495,0.515-0.813c0.317-0.316,0.456-0.516,0.554-0.871
				c0.099-0.356,0.377-0.575,0.932-0.437c0.555,0.14,0.277,0.496-0.079,0.714c-0.358,0.218-0.813,0.317-0.792,0.833
				c0.02,0.514-0.12,0.712,0.237,0.712c0.356,0,0.534,0.555,0.912,0.417c0.375-0.14,0.91-0.635,1.405-0.556
				c0.496,0.079,0.021,0.317,0.377,0.556c0.356,0.237-0.277,0.099-0.495,0.177c-0.219,0.08-0.456,0.119-0.772,0.04
				c-0.317-0.079-0.595,0.118-0.456,0.635c0.139,0.515-0.119,0.574-0.455,0.236c-0.337-0.336-0.476,0.516-0.634,1.169
				c-0.159,0.653-0.693,0.575-1.031,0.456c-0.336-0.119-0.792,0.534-1.208,0.218c-0.415-0.316-0.753,0.178-1.109-0.039
				c-0.357-0.219,0.019-0.456,0.118-0.813c0.099-0.357-0.198-0.515-0.613,0c-0.417,0.515,0.059,1.248-0.179,1.466
				c-0.238,0.217-0.891-0.041-1.129,0.376c-0.238,0.417-0.416,0.595-0.872,0.692c-0.455,0.101-0.356,0.893-0.891,0.496
				c-0.535-0.396-0.356,0.515-0.555,0.337c-0.197-0.178-0.496-0.007-0.496-0.007s-0.298-0.187-0.374-0.088
				c-0.075,0.101,0.075,0.2,0.162,0.287c0.086,0.088-0.075,0.188,0.262,0.25c0.336,0.062,0.498,0.224,0.486,0.373
				s0.125,0.375,0.237,0.485c0.111,0.112,0.161,0.511,0.074,0.811c-0.087,0.299-0.138,0.561-0.398,0.511
				c-0.261-0.049-0.273-0.174-0.573-0.111c-0.298,0.063-0.423-0.138-0.71-0.175c-0.286-0.038-0.585-0.25-0.722-0.175
				s-0.062,0.261-0.349,0.199c-0.287-0.063-0.087,0.213-0.024,0.461c0.062,0.248,0.173,0.498,0.112,0.711
				c-0.063,0.211-0.312,0.759-0.312,0.959s0.174,0.248,0.149,0.511c-0.024,0.262,0.013,0.399,0.199,0.399
				c0.187,0,0.536-0.15,0.548,0.061c0.013,0.213,0.1,0.187,0.174,0.361c0.076,0.176,0.224,0.038,0.461-0.011
				c0.237-0.051,0.859,0.111,0.972,0.073c0.112-0.037,0.15-0.398,0.437-0.299c0.287,0.1,0.087-0.336,0.311-0.373
				c0.225-0.038,0.225-0.101,0.25-0.549c0.025-0.448-0.013-0.561,0.361-0.66c0.374-0.101,0.685-0.101,0.636-0.511
				c-0.05-0.411,0.1-0.561,0.385-0.336c0.287,0.224,0.511,0.385,0.811,0.174c0.299-0.212,0.635-0.199,0.598-0.499
				c-0.036-0.299,0.312-0.237,0.486,0c0.175,0.236,0.3,0.512,0.474,0.661c0.175,0.148,0.748,0.323,0.934,0.475
				c0.187,0.148,0.287,0.262,0.462,0.272c0.174,0.013,0.074,0.25,0.237,0.375c0.161,0.123,0.224,0.41,0.125,0.46
				c-0.1,0.05-0.076,0.212-0.361,0.262c-0.287,0.05-0.537-0.1-0.723,0.013c-0.187,0.111-0.349,0.361,0.013,0.473
				c0.361,0.113,0.598,0.35,0.747,0.313c0.149-0.038,0.325-0.125,0.2-0.313c-0.125-0.187-0.013-0.187,0-0.336
				c0.011-0.149,0.111,0.024,0.249-0.149c0.137-0.174,0.397-0.162,0.298-0.423c-0.099-0.262-0.298-0.388-0.075-0.512
				c0.225-0.124,0.125-0.024,0.274,0.088c0.15,0.111,0.337-0.225-0.049-0.438c-0.387-0.211-0.586-0.274-0.586-0.274
				s0.1-0.347-0.199-0.323c-0.299,0.025-0.386-0.174-0.598-0.535c-0.213-0.361-0.687-0.349-0.611-0.785
				c0.076-0.436,0.511-0.71,0.562-0.387c0.05,0.325,0.249,0.536,0.436,0.563c0.187,0.024,0.063,0.448,0.473,0.547
				c0.411,0.101,0.312,0.262,0.61,0.438c0.3,0.174,0.486,0.236,0.46,0.598c-0.024,0.36,0,0.697,0.2,0.709
				c0.2,0.014,0.262,0.586,0.536,0.636c0.274,0.05,0.548-0.125,0.636,0.137c0.086,0.262,0.422,0.273,0.46,0.05
				c0.038-0.224-0.274-0.733-0.361-1.046c-0.087-0.312,0.138-0.499,0.46-0.485c0.324,0.011,0.325,0.312,0.711,0.236
				c0.386-0.076,0.498-0.161,0.661-0.161c0.161,0,0.311,0.272,0.037,0.297c-0.273,0.025-0.859-0.062-0.748,0.262
				c0.113,0.325,0.2,0.749-0.037,0.648c-0.237-0.1-0.274,0.249,0.075,0.3c0.349,0.05-0.013,0.273,0.374,0.448
				c0.387,0.174,0.648,0.586,0.947,0.448c0.299-0.137,0.473-0.374,0.772-0.087c0.298,0.286,0.449,0.175,0.835,0
				c0.385-0.174,0.474-0.274,0.411,0.286c-0.063,0.561-0.087,2.205-0.586,2.269c-0.498,0.063-0.709-0.412-1.221-0.188
				c-0.51,0.226-0.822,0.288-1.532-0.111s-0.785-0.149-1.009-0.312c-0.224-0.162-0.423-0.611-0.697-0.424
				c-0.274,0.187-0.46,0.324-0.486,0.723s-0.05,0.711-0.461,0.498c-0.411-0.212-1.048-0.198-1.172-0.598
				c-0.125-0.398-0.399-0.374-1.009-0.562c-0.61-0.186-1.034,0.026-0.834-0.373c0.198-0.398,0.211-0.61,0.074-0.947
				c-0.137-0.336,0.237-0.535,0.087-0.609c-0.15-0.075-0.361,0.161-0.361,0.161s-0.037-0.187-0.523,0.1
				c-0.486,0.287-0.798-0.087-1.097,0.149c-0.299,0.237-0.572-0.485-1.357-0.298c-0.785,0.187-1.047,0.56-1.57,0.436
				c-0.524-0.125-1.034-0.647-1.246-0.149c-0.211,0.499-0.012,0.672-0.71,0.772c-0.697,0.099-0.661,0.312-0.723,0.71
				c-0.062,0.398,0.387,0.536-0.051,1.121c-0.435,0.585-0.671,0.486-1.034,0.66c-0.361,0.174,0.025,0.449-0.411,0.772
				c-0.435,0.324-0.112,0.698-0.385,0.922c-0.275,0.225-0.686,0.673-0.773,0.997c-0.087,0.323,0.199,0.572,0.249,0.947
				c0.05,0.374,0.175,0.374,0.088,0.871c-0.088,0.499,0,0.724-0.175,0.997c-0.175,0.274-0.423,0.274-0.149,0.686
				c0.274,0.411-0.237,0.723,0.149,0.923c0.388,0.198,0.823,0.646,0.997,1.444c0.175,0.798,0.998,1.346,1.558,1.882
				c0.562,0.534,0.598,0.336,1.532,0.361c0.935,0.024,0.884,0.448,1.482,0.173c0.598-0.273,1.67-0.36,2.056-0.023
				c0.386,0.336,0.163,0.871,0.524,0.858c0.361-0.011,0.66-0.36,0.959-0.198c0.298,0.161,0.436,0.723,0.249,1.258
				c-0.187,0.535-0.436,1.457,0.05,1.98s0.884,1.559,0.959,2.294c0.074,0.733,0.473,1.095,0.112,1.369
				c-0.361,0.275-0.324,0.573-0.511,1.159c-0.187,0.586-0.225,1.495,0.149,2.105c0.375,0.611,0.561,1.334,0.636,2.168
				c0.075,0.835,0.361,1.546,0.523,1.981c0.163,0.436,0.486,0.847,0.386,1.046s0.1,0.697,0.35,1.009
				c0.249,0.312,0.847-0.199,1.619-0.187s2.019-0.947,2.18-1.308c0.163-0.361,1.047-1.209,1.159-1.633
				c0.113-0.423,0.063-0.785,0.524-1.109c0.46-0.323,0.673-0.66,0.524-1.282c-0.15-0.624-0.113-0.86,0.448-1.296
				c0.562-0.436,1.222-0.96,1.396-1.283c0.174-0.324,0.485-1.084,0.485-1.569c0-0.487,0.324-0.573,0.063-0.823
				c-0.262-0.249-0.399-0.36-0.313-0.909s-0.348-0.884,0.1-1.108s-0.038-0.312,0.336-0.948c0.373-0.635,1.546-1.942,2.044-2.442
				c0.498-0.497,1.32-1.207,1.606-2.054c0.286-0.848,0.473-1.035,0.611-1.409c0.137-0.373,0.199-0.81-0.162-0.71
				c-0.362,0.1-1.034,0.449-1.57,0.512c-0.535,0.062-0.647,0.361-0.935-0.25c-0.286-0.61-0.498-0.921-0.934-1.246
				c-0.436-0.323-0.761-0.709-0.885-1.333c-0.125-0.622-0.51-0.635-0.56-1.345c-0.05-0.71-0.324-0.91-0.535-1.159
				c-0.213-0.249-0.175-0.872-0.512-1.419c-0.335-0.549-0.784-1.285-0.797-1.583c-0.012-0.301,0.411-0.063,0.511,0.348
				c0.1,0.411,0.25,0.35,0.385-0.099c0.138-0.449,0.238,0.374,0.5,0.973c0.261,0.598,0.547,1.107,0.784,1.395
				c0.237,0.287,0.137,0.535,0.237,1.096c0.1,0.562,0.461,0.374,0.661,0.973c0.199,0.597,0.772,0.759,0.784,1.232
				c0.013,0.474,0.025,0.599,0.137,0.96c0.113,0.361-0.087,0.686,0.46,0.535c0.548-0.148,1.235-0.148,1.758-0.411
				c0.523-0.262,1.258-0.46,1.258-0.821c0-0.362,0.137-0.5,0.547-0.387c0.412,0.112,0.686,0.212,0.636-0.212
				c-0.05-0.423,0.562-0.063,0.562-0.349s0.136-0.474,0.51-0.772c0.375-0.299,0.773-0.687,0.474-0.847
				c-0.298-0.162-0.212-0.312-0.686-0.522c-0.472-0.213-0.561-0.463-0.585-0.775c-0.024-0.311-0.112-0.359-0.46,0.026
				c-0.35,0.386-0.934,0.522-1.184,0.386c-0.249-0.137-0.112-0.747-0.237-0.809c-0.125-0.063-0.037,0.623-0.287,0.573
				c-0.25-0.05-0.15-0.749-0.399-1.06c-0.249-0.312-0.535-0.81-0.646-0.972c-0.113-0.163,0.124-0.349,0.361-0.398
				c0.237-0.051,0.685,0.261,0.821,0.747c0.138,0.485,0.411,0.374,0.772,0.673c0.362,0.3,0.748-0.051,1.11,0.162
				c0.361,0.211,0.348,0.822,0.847,0.848c0.499,0.023,1.856,0.36,2.453,0.36c0.598,0,0.687,0.411,1.11,0.773
				c0.423,0.36,0.61,0.834,0.896,0.983c0.286,0.149,0.723,0.099,0.748-0.225c0.025-0.323,0.336,0.112,0.199,0.499
				c-0.137,0.386,0.012,0.848,0.373,1.52c0.362,0.672,1.196,1.695,1.196,1.993c0,0.3,0.984,0.262,1.084-0.549
				c0.1-0.809,0.125-1.221,0.598-1.257c0.474-0.037,0.822-0.673,1.371-0.698c0.548-0.024,0.884-0.36,0.884-0.36
				S74.154,27.364,71.795,22.23z M55.149,24.577c-0.523,0.15-0.972-0.075-1.496-0.448c-0.523-0.375-1.046,0.188-1.755,0.224
				c-0.711,0.037-0.861-0.747-0.749-0.972c0.112-0.224,0-0.859,0.336-0.972c0.337-0.111,0.524-0.822,0.636-0.822
				s0.598,0.299,0.523,0.486c-0.075,0.187,0.037,0.448,0.336,0.71s0.524-0.075,1.009-0.15c0.486-0.074-0.374-0.186-0.822-0.448
				c-0.448-0.262,0.298-0.41,0.635-0.41c0.336,0,0.71-0.074,0.71-0.074s0.112,0.074-0.038,0.56c-0.149,0.486,0.111,0.86,0.784,1.346
				C55.934,24.091,55.672,24.427,55.149,24.577z M59.97,25.811c0.188,0.522,0.636,0.71,0.561,1.232
				c-0.074,0.524-0.297,0.3-0.896,0.151c-0.598-0.151-1.009-0.599-0.971-1.048c0.038-0.448,0.448-0.336,0.448-0.336
				s0.074-0.337-0.561-0.896c-0.636-0.562-1.046-1.085-0.935-1.57s0.411-0.748,0.822-0.748c0.411,0,0.822-0.411,1.196,0
				c0,0,0.412,0.636,0.038,0.748c-0.373,0.112-0.823-0.412-0.673-0.038s-0.112,0.523-0.112,0.523s0.15,0.375,0.561,0.636
				c0.412,0.263,0.412,1.159,0.561,0.672c0.15-0.484,0.598,0.188,0.562,0.524C60.53,25.997,59.783,25.287,59.97,25.811z
				 M62.399,24.95c-0.224,0.225-0.411-0.336-0.634-0.523c-0.225-0.186-0.3-0.484-0.225-0.896c0.074-0.411,0.897-0.262,0.897-0.262
				s0.224,0.036,0.188,0.262c-0.039,0.223-0.112,0.261,0,0.71C62.736,24.689,62.625,24.728,62.399,24.95z"/>
		</g>
		<g>
			<path fill="#626466" d="M56.517,10.905c0.317,0.059,0.753,0.574,1.07,0.673c0.317,0.1,0.198-0.258-0.099-0.475
				c-0.297-0.219-0.356-0.496-0.337-0.753c0.02-0.258,0.396-0.495,0.891-0.615c0.496-0.118,1.506,0.041,1.506,0.041
				s0.02-0.219-0.198-0.417s-0.476,0-0.971-0.218c-0.495-0.217-0.99,0-1.406-0.079c-0.417-0.078-0.238,0.396-0.496,0.495
				c-0.258,0.1-0.297,0.178-0.277,0.436c0.019,0.259-0.079,0.259-0.376,0.336C55.526,10.409,56.2,10.846,56.517,10.905z"/>
		</g>
		<g>
			<path fill="#626466" d="M44.474,7.122c0.198,0.197,0.218,0.139,0.555-0.08c0.337-0.217,0.337-0.06,0.197,0.139
				c-0.138,0.199-0.256,0.476,0.041,0.417c0.297-0.061,0.238,0.138,0.594,0.138c0.357,0,0.337-0.396,0.396-0.673
				s0.276-0.1,0.536,0.219c0.256,0.316,0.494-0.041,0.455-0.318c-0.04-0.275-0.634-0.258-0.833-0.457
				c-0.197-0.197,0.199-0.118,0.456,0c0.257,0.121,0.257-0.077,0.555-0.019c0.297,0.06,0.534-0.138,0.872-0.355
				c0.337-0.219-0.278-0.219-0.971-0.159c-0.693,0.06-1.247,0.079-1.148,0.356c0.099,0.277-0.238,0.298-0.475,0.079
				c-0.238-0.218-0.356,0.317-0.595,0.139c-0.238-0.177-0.317,0.297-0.495,0.06c-0.179-0.236-0.476,0.396-0.476,0.396
				C44.097,7.379,44.276,6.924,44.474,7.122z"/>
		</g>
		<g>
			<path fill="#626466" d="M57.13,49.134c-0.598,0.486-0.86,0.747-0.785,1.232c0.075,0.486-0.373,1.122-0.411,1.832
				c-0.038,0.711,0.186,1.046,0.748,0.823c0.561-0.225,0.485-0.636,0.784-1.384c0.299-0.748,0.972-1.944,1.346-2.691
				c0.374-0.748-0.111-1.495-0.111-1.495C58.176,47.714,57.728,48.647,57.13,49.134z"/>
		</g>
	</g>
	<g>
		<path fill="#626466" d="M18.027,61.585c-1.788,0-3.242-1.454-3.242-3.241s1.455-3.242,3.242-3.242
			c1.787,0,3.241,1.455,3.241,3.242S19.814,61.585,18.027,61.585z M18.027,57.111c-0.68,0-1.233,0.553-1.233,1.232
			c0,0.679,0.553,1.231,1.233,1.231c0.679,0,1.232-0.553,1.232-1.231C19.259,57.664,18.706,57.111,18.027,57.111z"/>
	</g>
	<g>
		<path fill="#626466" d="M42.826,84.383c-1.788,0-3.242-1.453-3.242-3.24c0-1.788,1.454-3.242,3.242-3.242
			c1.787,0,3.241,1.454,3.241,3.242C46.066,82.93,44.613,84.383,42.826,84.383z M42.826,79.909c-0.68,0-1.233,0.554-1.233,1.233
			c0,0.679,0.553,1.231,1.233,1.231c0.679,0,1.231-0.553,1.231-1.231C44.057,80.463,43.504,79.909,42.826,79.909z"/>
	</g>
	<g>
		<path fill="#626466" d="M61.636,6.483c-1.788,0-3.243-1.454-3.243-3.241S59.848,0,61.636,0c1.787,0,3.24,1.455,3.24,3.242
			S63.423,6.483,61.636,6.483z M61.636,2.01c-0.68,0-1.233,0.553-1.233,1.232c0,0.679,0.553,1.231,1.233,1.231
			c0.679,0,1.231-0.553,1.231-1.231C62.867,2.563,62.315,2.01,61.636,2.01z"/>
	</g>
	<g>
		
			<rect x="21.918" y="57.909" transform="matrix(0.7809 0.6246 -0.6246 0.7809 43.4699 -0.8626)" fill="#626466" width="2.093" height="7.258"/>
	</g>
	<g>
		
			<rect x="65.358" y="3.822" transform="matrix(0.7807 0.6249 -0.6249 0.7807 19.2192 -39.8638)" fill="#626466" width="2.094" height="7.257"/>
	</g>
	<g>
		<rect x="41.556" y="63.961" fill="#626466" width="2.792" height="14.42"/>
	</g>
	<g>
		<path fill="#626466" d="M53.016,86.438H32.641c-0.771,0-1.396-0.625-1.396-1.396c0-0.771,0.625-1.396,1.396-1.396h20.375
			c0.771,0,1.396,0.625,1.396,1.396C54.411,85.813,53.786,86.438,53.016,86.438z"/>
	</g>
	<g>
		<path fill="#626466" d="M56.902,90.709h-28.15c-0.771,0-1.396-0.625-1.396-1.396c0-0.771,0.625-1.396,1.396-1.396h28.15
			c0.771,0,1.396,0.625,1.396,1.396C58.298,90.084,57.673,90.709,56.902,90.709z"/>
	</g>
	<g>
		
			<line fill="none" stroke="#FFFFFF" stroke-width="0.2215" stroke-miterlimit="10" x1="42.161" y1="31.03" x2="38.995" y2="34.196"/>
		
			<line fill="none" stroke="#FFFFFF" stroke-width="0.2215" stroke-miterlimit="10" x1="42.161" y1="32.206" x2="38.995" y2="35.372"/>
		
			<line fill="none" stroke="#FFFFFF" stroke-width="0.2215" stroke-miterlimit="10" x1="42.161" y1="33.382" x2="38.995" y2="36.548"/>
		
			<line fill="none" stroke="#FFFFFF" stroke-width="0.2215" stroke-miterlimit="10" x1="42.161" y1="34.558" x2="38.995" y2="37.724"/>
		
			<line fill="none" stroke="#FFFFFF" stroke-width="0.2215" stroke-miterlimit="10" x1="42.161" y1="35.733" x2="38.995" y2="38.899"/>
	</g>
	<g>
		
			<line fill="none" stroke="#FFFFFF" stroke-width="0.2215" stroke-miterlimit="10" x1="69.417" y1="21.016" x2="66.251" y2="24.182"/>
		
			<line fill="none" stroke="#FFFFFF" stroke-width="0.2215" stroke-miterlimit="10" x1="69.417" y1="22.191" x2="66.251" y2="25.357"/>
		
			<line fill="none" stroke="#FFFFFF" stroke-width="0.2215" stroke-miterlimit="10" x1="69.417" y1="23.367" x2="66.251" y2="26.533"/>
		
			<line fill="none" stroke="#FFFFFF" stroke-width="0.2215" stroke-miterlimit="10" x1="69.417" y1="24.543" x2="66.251" y2="27.709"/>
		
			<line fill="none" stroke="#FFFFFF" stroke-width="0.2215" stroke-miterlimit="10" x1="69.417" y1="25.72" x2="66.251" y2="28.885"/>
	</g>
	<g>
		
			<line fill="none" stroke="#FFFFFF" stroke-width="0.2215" stroke-miterlimit="10" x1="51.593" y1="35.023" x2="48.427" y2="38.19"/>
		
			<line fill="none" stroke="#FFFFFF" stroke-width="0.2215" stroke-miterlimit="10" x1="51.593" y1="36.199" x2="48.427" y2="39.366"/>
		
			<line fill="none" stroke="#FFFFFF" stroke-width="0.2215" stroke-miterlimit="10" x1="51.593" y1="37.376" x2="48.427" y2="40.542"/>
		
			<line fill="none" stroke="#FFFFFF" stroke-width="0.2215" stroke-miterlimit="10" x1="51.593" y1="38.552" x2="48.427" y2="41.719"/>
		
			<line fill="none" stroke="#FFFFFF" stroke-width="0.2215" stroke-miterlimit="10" x1="51.593" y1="39.728" x2="48.427" y2="42.895"/>
	</g>
	<g>
		
			<line fill="none" stroke="#FFFFFF" stroke-width="0.2215" stroke-miterlimit="10" x1="67.858" y1="16.384" x2="64.692" y2="19.55"/>
		
			<line fill="none" stroke="#FFFFFF" stroke-width="0.2215" stroke-miterlimit="10" x1="67.858" y1="17.561" x2="64.692" y2="20.726"/>
		
			<line fill="none" stroke="#FFFFFF" stroke-width="0.2215" stroke-miterlimit="10" x1="67.858" y1="18.736" x2="64.692" y2="21.902"/>
		
			<line fill="none" stroke="#FFFFFF" stroke-width="0.2215" stroke-miterlimit="10" x1="67.858" y1="19.912" x2="64.692" y2="23.078"/>
		
			<line fill="none" stroke="#FFFFFF" stroke-width="0.2215" stroke-miterlimit="10" x1="67.858" y1="21.088" x2="64.692" y2="24.254"/>
	</g>
	<g>
		
			<line fill="none" stroke="#FFFFFF" stroke-width="0.2215" stroke-miterlimit="10" x1="50.191" y1="42.354" x2="47.026" y2="45.521"/>
		
			<line fill="none" stroke="#FFFFFF" stroke-width="0.2215" stroke-miterlimit="10" x1="50.191" y1="43.681" x2="47.026" y2="46.847"/>
		
			<line fill="none" stroke="#FFFFFF" stroke-width="0.2215" stroke-miterlimit="10" x1="50.191" y1="45.008" x2="47.026" y2="48.174"/>
		
			<line fill="none" stroke="#FFFFFF" stroke-width="0.2215" stroke-miterlimit="10" x1="50.191" y1="46.334" x2="47.026" y2="49.5"/>
		
			<line fill="none" stroke="#FFFFFF" stroke-width="0.2215" stroke-miterlimit="10" x1="50.191" y1="47.66" x2="47.026" y2="50.827"/>
		
			<line fill="none" stroke="#FFFFFF" stroke-width="0.2215" stroke-miterlimit="10" x1="50.191" y1="48.987" x2="47.026" y2="52.154"/>
		
			<line fill="none" stroke="#FFFFFF" stroke-width="0.2215" stroke-miterlimit="10" x1="50.191" y1="50.313" x2="47.026" y2="53.48"/>
	</g>
	<g>
		<line fill="none" stroke="#FFFFFF" stroke-width="0.25" stroke-miterlimit="10" x1="22.58" y1="41.524" x2="20.018" y2="44.088"/>
		<line fill="none" stroke="#FFFFFF" stroke-width="0.25" stroke-miterlimit="10" x1="22.58" y1="42.598" x2="20.018" y2="45.161"/>
		<line fill="none" stroke="#FFFFFF" stroke-width="0.25" stroke-miterlimit="10" x1="22.58" y1="43.672" x2="20.018" y2="46.235"/>
		<line fill="none" stroke="#FFFFFF" stroke-width="0.25" stroke-miterlimit="10" x1="22.58" y1="44.746" x2="20.018" y2="47.31"/>
		<line fill="none" stroke="#FFFFFF" stroke-width="0.25" stroke-miterlimit="10" x1="22.58" y1="45.82" x2="20.017" y2="48.384"/>
		<line fill="none" stroke="#FFFFFF" stroke-width="0.25" stroke-miterlimit="10" x1="22.58" y1="46.895" x2="20.017" y2="49.458"/>
		<line fill="none" stroke="#FFFFFF" stroke-width="0.25" stroke-miterlimit="10" x1="22.58" y1="47.969" x2="20.017" y2="50.532"/>
	</g>
	<g>
		
			<line fill="none" stroke="#FFFFFF" stroke-width="0.25" stroke-miterlimit="10" x1="58.013" y1="13.935" x2="55.451" y2="16.498"/>
		
			<line fill="none" stroke="#FFFFFF" stroke-width="0.25" stroke-miterlimit="10" x1="58.013" y1="15.008" x2="55.451" y2="17.571"/>
		<line fill="none" stroke="#FFFFFF" stroke-width="0.25" stroke-miterlimit="10" x1="58.013" y1="16.082" x2="55.45" y2="18.646"/>
		<line fill="none" stroke="#FFFFFF" stroke-width="0.25" stroke-miterlimit="10" x1="58.013" y1="17.156" x2="55.45" y2="19.72"/>
		<line fill="none" stroke="#FFFFFF" stroke-width="0.25" stroke-miterlimit="10" x1="58.013" y1="18.23" x2="55.45" y2="20.793"/>
		<line fill="none" stroke="#FFFFFF" stroke-width="0.25" stroke-miterlimit="10" x1="58.013" y1="19.305" x2="55.45" y2="21.867"/>
		<line fill="none" stroke="#FFFFFF" stroke-width="0.25" stroke-miterlimit="10" x1="58.013" y1="20.379" x2="55.45" y2="22.941"/>
	</g>
</g>
</svg>
