<?xml version="1.0" encoding="utf-8"?>
<!-- Generator: Adobe Illustrator 15.0.0, SVG Export Plug-In . SVG Version: 6.00 Build 0)  -->
<!DOCTYPE svg PUBLIC "-//W3C//DTD SVG 1.1//EN" "http://www.w3.org/Graphics/SVG/1.1/DTD/svg11.dtd">
<svg version="1.1" id="Layer_1" xmlns="http://www.w3.org/2000/svg" xmlns:xlink="http://www.w3.org/1999/xlink" x="0px" y="0px"
	 width="90.709px" height="90.709px" viewBox="0 0 90.709 90.709" enable-background="new 0 0 90.709 90.709" xml:space="preserve">
<g>
	<g>
		<g>
			<path fill="#626466" d="M3.494,47.686C1.568,47.686,0,46.117,0,44.191c0-1.927,1.567-3.493,3.493-3.493s3.493,1.566,3.493,3.493
				C6.987,46.117,5.419,47.686,3.494,47.686z M3.494,42.863c-0.731,0-1.328,0.596-1.328,1.328s0.597,1.328,1.328,1.328
				s1.327-0.596,1.327-1.328S4.225,42.863,3.494,42.863z"/>
		</g>
	</g>
	<g>
		<g>
			<path fill="#626466" d="M87.215,47.686c-1.928,0-3.495-1.568-3.495-3.494c0-1.927,1.567-3.493,3.495-3.493
				c1.927,0,3.493,1.566,3.493,3.493C90.708,46.117,89.142,47.686,87.215,47.686z M87.215,42.863c-0.733,0-1.329,0.596-1.329,1.328
				s0.596,1.328,1.329,1.328c0.732,0,1.328-0.596,1.328-1.328S87.948,42.863,87.215,42.863z"/>
		</g>
	</g>
	<g>
		<g>
			<path fill="#626466" d="M45.215,88.782c-23.533,0-42.679-19.146-42.679-42.679h1.781C4.318,68.654,22.665,87,45.215,87
				c22.552,0,40.897-18.346,40.897-40.896h1.782C87.895,69.637,68.749,88.782,45.215,88.782z"/>
		</g>
	</g>
	<g>
		<g>
			<path fill="#626466" d="M29.141,7.074c0,0-2.618,7.684,0.489,12.263c3.105,4.579,6.539,6.213,7.358,9.321
				c0,0-2.126-15.533,9.318-21.094c0,0-6.897,4.675-6.746,14.504c0.131,8.502,1.9,17.988,7.459,24.201c0,0,5.665-3.715,7.464-15.159
				c1.799-11.446-0.653-18.15-6.54-22.892c0,0,9.158,2.779,8.828,20.111c0,0,2.851-4.521,6.051-7.031
				c4.359-3.417,3.761-9.155,1.471-14.062c0,0,5.724,6.214,1.146,13.898c0,0,5.885-2.943,14.39-2.616c0,0-11.081,1.033-15.145,4.031
				c-4.066,2.998-6.663,6.996-7.53,11.394c-0.865,4.399-2.046,6.725-2.046,6.725s3.894-2.986,10.355-3.187
				c6.464-0.2,10.148,0.727,16.212-9.603c0,0-1.867,8.064-9.462,11.129c0,0,5.754,0.573,7.689,6.437c0,0-2.268-4.081-7.623-4.971
				c0,0,1.4,1.066,1.4,2.599c0,0-0.602-3.397-6.198-3.665c-5.599-0.267-9.529,2.332-9.529,2.332s5.599-0.266,8.662,2.732
				c3.066,2.999,3.734,6.463,3.133,9.994c0,0-1.066-8.662-6.53-10.326c-5.464-1.667-11.461,1.731-12.793,8.128
				C49.092,58.666,54.08,77.29,54.08,77.29s-3.777,1.503-7.104,1.503c-3.328,0-9.772-1.278-9.772-1.278s5.557-19.966,3.825-25.431
				c-1.732-5.463-4.73-8.943-9.927-7.877c-5.196,1.064-6.93,6.596-7.063,10.793c0,0-1.732-4.103,1.798-8.994
				c3.552-4.916,9.796-4.397,9.796-4.397s-12.243-7.821-21.375,4.972c0,0,2.834-6.123,7.597-8.391c0,0-8.164-2.041-9.476-9.774
				c0,0,1.879,6.6,10.155,8.527c5.19,1.209,8.634-0.665,15.965,4.132c0,0-1.533-5.73-2.933-9.794
				c-1.4-4.066-3.932-10.662-21.39-12.595c0,0,8.263-0.399,14.326,2.4C28.502,21.086,24.513,13.585,29.141,7.074z"/>
		</g>
	</g>
	<g>
		<g>
			<path fill="#626466" d="M45.215,79.481c-6.313,0-12.458-1.794-17.771-5.187l0.959-1.502c5.026,3.21,10.84,4.906,16.813,4.906
				c5.971,0,11.785-1.696,16.813-4.906l0.958,1.502C57.671,77.688,51.527,79.481,45.215,79.481z"/>
		</g>
	</g>
	<g>
		<g>
			<circle fill="#626466" cx="25.848" cy="33.903" r="4.109"/>
		</g>
	</g>
	<g>
		<g>
			<circle fill="#626466" cx="32.411" cy="15.938" r="4.109"/>
		</g>
	</g>
	<g>
		<g>
			<circle fill="#626466" cx="68.372" cy="33.527" r="4.109"/>
		</g>
	</g>
	<g>
		<g>
			<g>
				<path fill="#FFFFFF" d="M27.907,37.048h-4.122v-0.661c0.649-0.201,0.976-0.669,0.976-1.399v-0.813h-0.88v-0.677h0.88v-1.119
					c0-0.566,0.168-1.033,0.502-1.402c0.336-0.37,0.771-0.554,1.307-0.554c0.361,0,0.688,0.064,0.979,0.193v0.757
					c-0.303-0.176-0.623-0.264-0.959-0.264c-0.678,0-1.019,0.451-1.019,1.354v1.034h1.334v0.677h-1.334v0.673
					c0,0.713-0.284,1.217-0.853,1.515h3.188V37.048z"/>
			</g>
		</g>
	</g>
	<g>
		<g>
			<circle fill="#626466" cx="76.074" cy="14.418" r="4.109"/>
		</g>
	</g>
	<g>
		<g>
			<g>
				<path fill="#FFFFFF" d="M78.132,17.563H74.01v-0.661c0.651-0.201,0.975-0.669,0.975-1.4V14.69h-0.877v-0.678h0.877v-1.119
					c0-0.566,0.168-1.033,0.504-1.402c0.334-0.369,0.77-0.553,1.305-0.553c0.363,0,0.689,0.064,0.981,0.193v0.757
					c-0.303-0.177-0.622-0.265-0.958-0.265c-0.681,0-1.019,0.451-1.019,1.354v1.034h1.334v0.678h-1.334v0.673
					c0,0.713-0.284,1.217-0.854,1.515h3.188V17.563z"/>
			</g>
		</g>
	</g>
	<g>
		<g>
			<circle fill="#626466" cx="61.234" cy="47.769" r="4.109"/>
		</g>
	</g>
	<g>
		<g>
			<g>
				<path fill="#FFFFFF" d="M63.292,50.913H59.17v-0.661c0.648-0.201,0.975-0.669,0.975-1.399V48.04h-0.88v-0.678h0.88v-1.119
					c0-0.565,0.168-1.032,0.502-1.401c0.336-0.37,0.771-0.554,1.307-0.554c0.361,0,0.688,0.064,0.979,0.193v0.757
					c-0.303-0.176-0.622-0.265-0.959-0.265c-0.678,0-1.019,0.451-1.019,1.355v1.033h1.334v0.678h-1.334v0.673
					c0,0.713-0.284,1.217-0.853,1.515h3.188V50.913z"/>
			</g>
		</g>
	</g>
	<g>
		<g>
			<g>
				<path fill="#FFFFFF" d="M33.846,18.824c-0.405,0.224-0.838,0.334-1.297,0.334c-1.311,0-2.093-0.765-2.348-2.293H29.65v-0.663
					h0.485c-0.013-0.095-0.017-0.209-0.017-0.342c0-0.142,0.008-0.301,0.024-0.481H29.65v-0.663h0.595
					c0.153-0.732,0.45-1.302,0.888-1.708s0.967-0.609,1.587-0.609c0.426,0,0.801,0.085,1.127,0.257v0.789
					c-0.343-0.238-0.732-0.358-1.166-0.358c-0.359,0-0.687,0.144-0.983,0.432c-0.295,0.286-0.506,0.687-0.629,1.198h2.23v0.663
					h-2.336c-0.021,0.279-0.021,0.553-0.004,0.823h2.34v0.663h-2.266c0.227,1.075,0.749,1.612,1.572,1.612
					c0.403,0,0.815-0.134,1.241-0.399V18.824z"/>
			</g>
		</g>
	</g>
	<g>
		<g>
			<path fill="#626466" d="M28.517,58.938c0,2.271-1.84,4.111-4.109,4.111s-4.109-1.84-4.109-4.111c0-2.268,1.84-4.108,4.109-4.108
				S28.517,56.671,28.517,58.938z"/>
		</g>
	</g>
	<g>
		<g>
			<g>
				<path fill="#FFFFFF" d="M26.824,56.061l-1.753,2.981h1.382V59.7h-1.609v0.907h1.609v0.668h-1.609v1.321h-0.828v-1.321h-1.668
					v-0.668h1.668V59.7h-1.668v-0.658h1.424l-1.734-2.981h0.934c0.809,1.48,1.303,2.419,1.477,2.816h0.017
					c0.061-0.163,0.222-0.493,0.485-0.989l0.994-1.827H26.824z"/>
			</g>
		</g>
	</g>
	<g>
		<g>
			<g>
				<path fill="#FFFFFF" d="M70.2,36.54c-0.404,0.223-0.838,0.334-1.297,0.334c-1.311,0-2.093-0.765-2.348-2.294h-0.552v-0.662
					h0.485c-0.013-0.096-0.017-0.21-0.017-0.343c0-0.141,0.008-0.301,0.024-0.481h-0.493v-0.662h0.595
					c0.153-0.732,0.45-1.302,0.888-1.709c0.438-0.406,0.967-0.61,1.587-0.61c0.426,0,0.801,0.086,1.127,0.258v0.79
					c-0.343-0.24-0.732-0.359-1.166-0.359c-0.359,0-0.687,0.144-0.983,0.431c-0.295,0.287-0.506,0.688-0.629,1.2h2.23v0.662h-2.336
					c-0.021,0.279-0.021,0.553-0.004,0.824h2.34v0.662h-2.266c0.227,1.076,0.749,1.613,1.573,1.613c0.402,0,0.814-0.134,1.24-0.4
					V36.54z"/>
			</g>
		</g>
	</g>
	<g>
		<g>
			<circle fill="#626466" cx="14.101" cy="40.22" r="4.109"/>
		</g>
	</g>
	<g>
		<g>
			<g>
				<path fill="#FFFFFF" d="M14.486,44.381h-0.479v-0.926c-0.622,0-1.139-0.129-1.55-0.386v-0.823
					c0.411,0.336,0.928,0.516,1.55,0.541v-2.192c-0.659-0.308-1.087-0.596-1.282-0.863c-0.196-0.268-0.296-0.585-0.296-0.951
					c0-0.426,0.146-0.797,0.441-1.112c0.293-0.315,0.672-0.504,1.137-0.567v-0.799h0.479v0.782c0.598,0.022,1.004,0.107,1.22,0.254
					v0.803c-0.313-0.239-0.72-0.37-1.22-0.389v2.262c0.616,0.28,1.041,0.562,1.273,0.842s0.349,0.595,0.349,0.943
					c0,0.44-0.147,0.801-0.438,1.084c-0.293,0.283-0.688,0.461-1.185,0.534V44.381z M14.006,37.777
					c-0.524,0.114-0.786,0.419-0.786,0.912c0,0.239,0.056,0.435,0.168,0.591c0.112,0.155,0.317,0.317,0.618,0.483V37.777z
					 M14.486,42.755c0.554-0.121,0.832-0.417,0.832-0.89c0-0.396-0.278-0.741-0.832-1.037V42.755z"/>
			</g>
		</g>
	</g>
	<g>
		<g>
			<circle fill="#626466" cx="56.46" cy="10.783" r="4.109"/>
		</g>
	</g>
	<g>
		<g>
			<g>
				<path fill="#FFFFFF" d="M56.458,14.974h-0.493V14.02c-0.642,0-1.175-0.133-1.596-0.397v-0.849
					c0.421,0.347,0.954,0.532,1.596,0.557v-2.259c-0.679-0.318-1.118-0.615-1.321-0.891c-0.204-0.276-0.306-0.603-0.306-0.98
					c0-0.438,0.151-0.82,0.455-1.146c0.303-0.325,0.692-0.521,1.172-0.586V6.646h0.493v0.808c0.616,0.022,1.037,0.109,1.26,0.261
					v0.828c-0.324-0.248-0.743-0.382-1.26-0.401v2.331c0.637,0.291,1.075,0.579,1.313,0.868c0.24,0.288,0.358,0.613,0.358,0.973
					c0,0.454-0.149,0.826-0.45,1.117c-0.303,0.292-0.709,0.476-1.222,0.551V14.974z M55.965,8.166
					c-0.54,0.118-0.812,0.433-0.812,0.942c0,0.244,0.059,0.446,0.175,0.607c0.113,0.161,0.327,0.327,0.637,0.499V8.166z
					 M56.458,13.297c0.573-0.124,0.859-0.429,0.859-0.917c0-0.407-0.286-0.764-0.859-1.067V13.297z"/>
			</g>
		</g>
	</g>
	<g>
		<g>
			<circle fill="#626466" cx="33.767" cy="47.952" r="4.109"/>
		</g>
	</g>
	<g>
		<g>
			<g>
				<path fill="#FFFFFF" d="M33.765,52.145h-0.494V51.19c-0.641,0-1.174-0.133-1.595-0.397v-0.849
					c0.421,0.347,0.954,0.532,1.595,0.557v-2.259c-0.678-0.318-1.118-0.615-1.321-0.891c-0.203-0.276-0.305-0.603-0.305-0.98
					c0-0.438,0.151-0.82,0.454-1.146s0.693-0.521,1.172-0.586v-0.823h0.494v0.807c0.616,0.023,1.037,0.11,1.259,0.262v0.828
					c-0.323-0.248-0.742-0.382-1.259-0.401v2.331c0.637,0.291,1.074,0.579,1.313,0.868c0.241,0.288,0.359,0.613,0.359,0.973
					c0,0.454-0.149,0.826-0.45,1.117c-0.303,0.292-0.709,0.476-1.222,0.551V52.145z M33.271,45.337
					c-0.539,0.118-0.811,0.433-0.811,0.942c0,0.244,0.058,0.446,0.174,0.607c0.114,0.161,0.328,0.327,0.637,0.499V45.337z
					 M33.765,50.468c0.572-0.124,0.858-0.429,0.858-0.917c0-0.407-0.286-0.764-0.858-1.067V50.468z"/>
			</g>
		</g>
	</g>
	<g>
		<g>
			<circle fill="#626466" cx="49.082" cy="28.884" r="4.108"/>
		</g>
	</g>
	<g>
		<g>
			<g>
				<path fill="#FFFFFF" d="M51.493,25.709L49.74,28.69h1.382v0.658h-1.61v0.907h1.61v0.668h-1.61v1.322h-0.827v-1.322h-1.668
					v-0.668h1.668v-0.907h-1.668V28.69h1.423l-1.736-2.981h0.934c0.812,1.48,1.303,2.419,1.479,2.816h0.017
					c0.058-0.163,0.22-0.493,0.485-0.988l0.991-1.828H51.493z"/>
			</g>
		</g>
	</g>
	<g>
		<g>
			<path fill="#626466" d="M19.29,18.923c0,0-3.661-3.391-0.541-7.188C18.749,11.734,22.546,15.125,19.29,18.923z"/>
		</g>
	</g>
	<g>
		<g>
			<path fill="#626466" d="M17.57,24.285c0,0,1.055-4.879,5.914-4.128C23.484,20.157,22.497,25.153,17.57,24.285z"/>
		</g>
	</g>
	<g>
		<g>
			<path fill="#626466" d="M19.25,50.576c0,0,1.376-4.797,6.177-3.723C25.427,46.854,24.106,51.771,19.25,50.576z"/>
		</g>
	</g>
	<g>
		<g>
			<path fill="#626466" d="M64.696,53.769c0,0,0.14-3.953,4.035-4.046C68.731,49.723,68.659,53.757,64.696,53.769z"/>
		</g>
	</g>
	<g>
		<g>
			<path fill="#626466" d="M40.046,16.855c0,0,2.902-4.063,7.063-1.444C47.11,15.411,44.222,19.607,40.046,16.855z"/>
		</g>
	</g>
	<g>
		<g>
			<path fill="#626466" d="M42.403,33.286c0,0,1.63-2.258,3.945-0.787C46.348,32.499,44.726,34.833,42.403,33.286z"/>
		</g>
	</g>
	<g>
		<g>
			<path fill="#626466" d="M61.344,34.189c0,0,1.676,2.735-0.914,4.544C60.43,38.733,58.669,35.974,61.344,34.189z"/>
		</g>
	</g>
	<g>
		<g>
			<path fill="#626466" d="M48.563,17.876c0,0,4.455-2.251,6.926,2C55.489,19.876,50.986,22.252,48.563,17.876z"/>
		</g>
	</g>
	<g>
		<g>
			<path fill="#626466" d="M65.001,21.905c0,0,4.151-1.361,5.73,2.639C70.732,24.544,66.525,26.006,65.001,21.905z"/>
		</g>
	</g>
	<g>
		<g>
			<path fill="#626466" d="M77.809,33.843c0,0,3.671-1.724,5.579,1.783C83.388,35.626,79.676,37.452,77.809,33.843z"/>
		</g>
	</g>
	<g>
		<g>
			<path fill="#626466" d="M67.397,45.887c0,0,4.521-2.123,6.868,2.194C74.265,48.081,69.696,50.331,67.397,45.887z"/>
		</g>
	</g>
	<g>
		<g>
			<path fill="#626466" d="M23.343,11.156c0,0,3.846,0.162,3.91,3.95C27.253,15.106,23.329,15.012,23.343,11.156z"/>
		</g>
	</g>
	<g>
		<g>
			<path fill="#626466" d="M20.597,40.336c0,0,2.479,2.945-0.271,5.552C20.327,45.888,17.745,42.931,20.597,40.336z"/>
		</g>
	</g>
	<g>
		<g>
			<path fill="#626466" d="M27.74,45.779c0,0,2.479,2.944-0.27,5.552C27.47,51.331,24.887,48.373,27.74,45.779z"/>
		</g>
	</g>
	<g>
		<g>
			<path fill="#626466" d="M15.676,26.41c0,0,1.973,3.305-1.159,5.437C14.517,31.847,12.443,28.512,15.676,26.41z"/>
		</g>
	</g>
	<g>
		<g>
			<path fill="#626466" d="M9.513,28.827c0,0,3.068-0.816,4.05,2.151C13.563,30.979,10.449,31.868,9.513,28.827z"/>
		</g>
	</g>
	<g>
		<g>
			<path fill="#626466" d="M14.807,33.267c0,0-1.843,2.683-4.59,1.024C10.217,34.291,12.05,31.521,14.807,33.267z"/>
		</g>
	</g>
	<g>
		<g>
			<path fill="#626466" d="M46.926,12.081c0,0,3.236-2.079,5.471,0.981C52.397,13.063,49.133,15.244,46.926,12.081z"/>
		</g>
	</g>
	<g>
		<g>
			<path fill="#626466" d="M39.951,16.823c0,0,2.463,1.058,1.564,3.541C41.515,20.364,38.984,19.329,39.951,16.823z"/>
		</g>
	</g>
	<g>
		<g>
			<path fill="#626466" d="M72.805,19.368c0,0,2.66,0.322,2.497,2.958C75.302,22.326,72.582,22.045,72.805,19.368z"/>
		</g>
	</g>
	<g>
		<g>
			<path fill="#626466" d="M41.153,4.555c0,0,3.45,3.118,0.583,6.688C41.736,11.243,38.164,8.128,41.153,4.555z"/>
		</g>
	</g>
	<g>
		<g>
			<path fill="#626466" d="M61.937,10.55c0,0,3.849,0.024,4.047,3.808C65.984,14.357,62.06,14.404,61.937,10.55z"/>
		</g>
	</g>
	<g>
		<g>
			<path fill="#626466" d="M75.728,29.479c0,0,3.327,1.935,1.624,5.315C77.352,34.794,73.921,32.886,75.728,29.479z"/>
		</g>
	</g>
	<g>
		<g>
			<path fill="#626466" d="M69.663,53.293c0,0,3.327,1.933,1.624,5.315C71.287,58.608,67.855,56.7,69.663,53.293z"/>
		</g>
	</g>
	<g>
		<g>
			<path fill="#626466" d="M28.176,11.123c0,0,0.803-3.731,4.519-3.157C32.695,7.966,31.94,11.786,28.176,11.123z"/>
		</g>
	</g>
	<g>
		<g>
			<path fill="#626466" d="M45.259,8.049c0,0-1.553-4.346,2.629-6.122C47.888,1.927,49.548,6.329,45.259,8.049z"/>
		</g>
	</g>
	<g>
		<g>
			<path fill="#626466" d="M55.312,19.082c0,0,0.805-3.73,4.52-3.156C59.832,15.926,59.079,19.745,55.312,19.082z"/>
		</g>
	</g>
	<g>
		<g>
			<path fill="#626466" d="M66.563,12.479c0,0,0.805-3.731,4.521-3.156C71.083,9.322,70.331,13.142,66.563,12.479z"/>
		</g>
	</g>
	<g>
		<g>
			<path fill="#626466" d="M80.55,30.9c0,0,1.499-2.662,4.203-1.344C84.753,29.557,83.274,32.297,80.55,30.9z"/>
		</g>
	</g>
	<g>
		<g>
			<path fill="#626466" d="M77.026,41.814c0,0,1.871-3.326,5.251-1.681C82.277,40.134,80.428,43.56,77.026,41.814z"/>
		</g>
	</g>
	<g>
		<g>
			<path fill="#626466" d="M73.195,42.223c0,0,3.731,0.813,3.151,4.525C76.346,46.748,72.527,45.987,73.195,42.223z"/>
		</g>
	</g>
	<g>
		<g>
			<path fill="#626466" d="M65.055,7.857c0,0-0.517-3.484,2.881-4.192C67.936,3.665,68.523,7.209,65.055,7.857z"/>
		</g>
	</g>
	<g>
		<g>
			<path fill="#626466" d="M42.178,30.04c0,0,9.302,4.257,9.972,12.26l1.426-2.173C53.576,40.127,51.544,32.529,42.178,30.04z"/>
		</g>
	</g>
	<g>
		<g>
			
				<rect x="45.879" y="58.592" transform="matrix(0.7071 0.7071 -0.7071 0.7071 56.7442 -14.6127)" fill="#FFFFFF" width="0.265" height="5.196"/>
		</g>
		<g>
			
				<rect x="45.878" y="60.16" transform="matrix(0.7053 0.7089 -0.7089 0.7053 58.0526 -14.1225)" fill="#FFFFFF" width="0.266" height="5.196"/>
		</g>
		<g>
			
				<rect x="45.879" y="61.728" transform="matrix(0.7071 0.7071 -0.7071 0.7071 58.9615 -13.6943)" fill="#FFFFFF" width="0.265" height="5.196"/>
		</g>
		<g>
			
				<rect x="45.879" y="63.295" transform="matrix(0.7071 0.7071 -0.7071 0.7071 60.0698 -13.2352)" fill="#FFFFFF" width="0.265" height="5.196"/>
		</g>
		<g>
			
				<rect x="45.879" y="64.863" transform="matrix(0.7071 0.7071 -0.7071 0.7071 61.1788 -12.7759)" fill="#FFFFFF" width="0.265" height="5.196"/>
		</g>
		<g>
			
				<rect x="45.879" y="66.431" transform="matrix(0.7071 0.7071 -0.7071 0.7071 62.2871 -12.3168)" fill="#FFFFFF" width="0.265" height="5.196"/>
		</g>
		<g>
			
				<rect x="45.879" y="67.999" transform="matrix(0.7071 0.7071 -0.7071 0.7071 63.3961 -11.8574)" fill="#FFFFFF" width="0.265" height="5.196"/>
		</g>
		<g>
			
				<rect x="45.879" y="69.566" transform="matrix(0.7071 0.7071 -0.7071 0.7071 64.5044 -11.3983)" fill="#FFFFFF" width="0.265" height="5.196"/>
		</g>
	</g>
	<g>
		<g>
			
				<rect x="42.091" y="39.684" transform="matrix(0.7071 0.7071 -0.7071 0.7071 42.3461 -17.4385)" fill="#FFFFFF" width="0.265" height="5.426"/>
		</g>
		<g>
			
				<rect x="42.091" y="41.11" transform="matrix(0.7071 0.7071 -0.7071 0.7071 43.3539 -17.021)" fill="#FFFFFF" width="0.265" height="5.425"/>
		</g>
		<g>
			
				<rect x="42.091" y="42.535" transform="matrix(0.7071 0.7071 -0.7071 0.7071 44.3614 -16.6037)" fill="#FFFFFF" width="0.265" height="5.425"/>
		</g>
		<g>
			
				<rect x="42.091" y="43.959" transform="matrix(0.7071 0.7071 -0.7071 0.7071 45.3689 -16.1864)" fill="#FFFFFF" width="0.265" height="5.425"/>
		</g>
		<g>
			
				<rect x="42.091" y="45.385" transform="matrix(0.7071 0.7071 -0.7071 0.7071 46.3767 -15.7689)" fill="#FFFFFF" width="0.265" height="5.424"/>
		</g>
	</g>
</g>
</svg>
