<?xml version="1.0" encoding="utf-8"?>
<!-- Generator: Adobe Illustrator 15.0.0, SVG Export Plug-In . SVG Version: 6.00 Build 0)  -->
<!DOCTYPE svg PUBLIC "-//W3C//DTD SVG 1.1//EN" "http://www.w3.org/Graphics/SVG/1.1/DTD/svg11.dtd">
<svg version="1.1" id="Layer_1" xmlns="http://www.w3.org/2000/svg" xmlns:xlink="http://www.w3.org/1999/xlink" x="0px" y="0px"
	 width="1533.543px" height="1533.543px" viewBox="83.622 83.622 1533.543 1533.543"
	 enable-background="new 83.622 83.622 1533.543 1533.543" xml:space="preserve">
<rect x="83.624" y="83.61" fill="none" width="1533.543" height="1533.573"/>
<path d="M850.392,83.622c-423.476,0-766.771,343.295-766.771,766.771c0,423.478,343.295,766.771,766.771,766.771
	c423.478,0,766.771-343.295,766.771-766.771C1617.163,426.917,1273.868,83.622,850.392,83.622z M1336.013,364.773
	c31.099,31.098,59.328,65.313,83.908,101.696c24.802,36.711,46.101,75.95,63.306,116.626
	c28.746,67.964,46.101,139.359,51.821,212.888c-85.334,64.344-167.36,84.396-259.135,91.445
	c67.06-26.604,114.545-92.097,114.545-168.658c0-100.205-81.244-181.42-181.272-181.42c-100.265,0-181.509,81.215-181.509,181.42
	c0,81.115,53.304,149.805,126.839,172.983c-23.719,0.386-48.252,0.778-73.771,1.568c-70.02,2.176-133.199,11.756-188.688,24.972
	c64.129-76.852,6.827-170.29,6.827-170.29c-89.651,59.761-66.394,144.42-50.015,181.696
	c-143.805,41.795-225.241,104.215-225.241,104.215s52.188-102.612,90.284-296.741c25.569-129.567,85.127-251.284,175.311-357.256
	c71.951,161.214,246.468,100.609,246.468,100.609c-53.615-135.732-174.298-131.616-227.233-122.458
	c40.469-44.465,86.513-85.943,137.889-123.799c13.094-9.66,27.844-18.856,43.929-27.607c9.196,3.433,18.339,7.057,27.417,10.896
	c40.677,17.205,79.916,38.504,116.627,63.306C1270.699,305.445,1304.915,333.675,1336.013,364.773z M1536.916,868.889
	c-1.229,46.999-7.155,93.225-17.698,138.35c-75.397-40.038-140.559-46.524-140.559-46.524
	C1439.37,936.201,1491.78,904.449,1536.916,868.889z M1125.182,720.825c0-6.164,0.411-13.268,1.115-21.191h-21.837v-29.292h26.357
	c6.75-32.345,19.898-57.411,39.153-75.374c19.372-17.963,42.678-27.003,70.092-27.003c18.726,0,35.279,3.845,49.721,11.447v34.84
	c-15.204-10.565-32.346-15.85-51.423-15.85c-15.908,0-30.351,6.311-43.499,19.049c-13.032,12.621-22.248,30.291-27.707,52.891
	h98.385v29.292h-103.081c-0.822,12.239-0.881,24.392-0.177,36.309h103.258v29.263h-99.854c9.922,47.491,33.049,71.236,69.27,71.236
	c17.729,0,36.044-5.958,54.828-17.729v32.99c-17.904,9.804-36.982,14.734-57.234,14.734c-57.881,0-92.457-33.783-103.609-101.232
	h-24.479v-29.263h21.484C1125.476,731.715,1125.182,726.666,1125.182,720.825z M868.711,1325.607v29.938h-58.879v29.703
	c0,31.406-12.563,53.654-37.628,66.804h140.709v30.29H730.965v-29.175c28.735-8.923,43.117-29.527,43.117-61.813v-35.809H735.25
	v-29.938h38.832v-49.368c0-25.009,7.338-45.671,22.102-61.933c14.822-16.261,34.019-24.36,57.734-24.36
	c15.908,0,30.407,2.816,43.204,8.512v33.46c-13.325-7.866-27.473-11.74-42.324-11.74c-29.938,0-44.966,19.9-44.966,59.76v45.671
	L868.711,1325.607L868.711,1325.607z M677.904,185.417c34.385-8.901,69.438-15.094,105.015-18.542
	c-60.056,7.697-86.396,57.293-96.192,83.308C684.193,227.848,681.231,206.282,677.904,185.417z M970.423,174.023
	c-2.061,1.682-4.146,3.351-6.262,5.008C822.923,289.744,697.035,489.391,697.035,489.391c1.556-81.113-1.601-155.001-8.482-222.292
	c111.524,15.071,134.135-99.369,134.135-99.369c-10.897-1.687-20.987-2.181-30.334-1.701c19.207-1.596,38.561-2.407,58.038-2.407
	C891.013,163.622,931.093,167.104,970.423,174.023z M364.771,364.773c31.098-31.098,65.313-59.328,101.695-83.908
	c36.711-24.802,75.95-46.101,116.627-63.306c11.314-4.786,22.728-9.246,34.227-13.399c9.747,118.774,3.024,253.571-21.224,407.919
	c-26.903,171.297-73.442,303.341-123.205,403.071c-27.608-57.868-80.286-144.451-173.195-223.406
	c23.33,10.93,49.37,17.047,76.854,17.047c100.205,0,181.361-81.156,181.361-181.42c0-100.146-81.156-181.361-181.361-181.361
	c-38.559,0-74.282,12.036-103.65,32.538c2.615-4.053,5.265-8.083,7.964-12.079C305.442,430.086,333.673,395.871,364.771,364.773z
	 M285.325,647.829V618.8h62.812L271.56,487.219h41.18c35.838,65.336,57.528,106.75,65.219,124.303h0.792
	c2.642-7.221,9.803-21.75,21.397-43.646l43.82-80.657h38.949L405.607,618.8h60.962v29.028h-71v40.094h71v29.439h-71v58.379h-36.602
	v-58.379h-73.643v-29.439h73.643v-40.094L285.325,647.829L285.325,647.829z M238.937,745.538
	c-18.916-12.845-39.121-25.245-60.691-37.015c4.724-22.505,10.585-44.745,17.58-66.686
	C198.934,681.317,214.639,717.225,238.937,745.538z M163.62,850.394c0-34.869,2.566-69.341,7.67-103.281
	c100.177,78.356,213.501,197.637,252.572,355.356c-49.8,78.915-97.505,128.141-127.034,154.464
	c-5.475-7.438-10.806-14.975-15.966-22.612c-24.801-36.711-46.101-75.951-63.305-116.627
	C181.767,1033.075,163.62,943.144,163.62,850.394z M850.392,1537.165c-92.749,0-182.681-18.146-267.298-53.938
	c-40.677-17.204-79.916-38.504-116.627-63.305c-1.467-0.991-2.925-1.998-4.386-3.002
	c58.084-113.602,155.089-193.042,265.422-228.118c-52.017,31.878-86.705,89.239-86.705,154.709
	c0,100.205,81.156,181.392,181.361,181.392c100.087,0,181.332-81.187,181.332-181.392c0-83.26-56.159-153.405-132.612-174.696
	c36.895,1.187,74.047,7.196,110.658,18.371c117.281,35.744,188.665,144.508,231.062,246.812
	c-30.324,18.858-62.148,35.374-94.909,49.229C1033.073,1519.02,943.141,1537.165,850.392,1537.165z M1419.921,1234.319
	c-24.58,36.383-52.811,70.598-83.908,101.694c-24.198,24.199-50.293,46.652-77.819,67.01
	c-21.82-70.436-62.234-138.123-126.671-201.161c-2.837-2.775-5.729-5.482-8.66-8.134c120.545,40.58,198.974-75.986,198.974-75.986
	c-124.499-76.581-215.411,15.789-239.582,44.79c-138.325-90.504-332.973-81.304-332.973-81.304s173.437-114.704,420.516-102.905
	c247.021,11.857,273.553,161.726,273.553,161.726c0-67.566-61.755-114.646-61.755-114.646
	c45.858,7.622,86.582,20.554,122.442,36.443c-6.103,18.849-13.039,37.473-20.811,55.845
	C1466.021,1158.368,1444.723,1197.608,1419.921,1234.319z"/>
</svg>
