<?xml version="1.0" encoding="utf-8"?>
<!-- Generator: Adobe Illustrator 15.0.0, SVG Export Plug-In . SVG Version: 6.00 Build 0)  -->
<!DOCTYPE svg PUBLIC "-//W3C//DTD SVG 1.1//EN" "http://www.w3.org/Graphics/SVG/1.1/DTD/svg11.dtd">
<svg version="1.1" id="Layer_1" xmlns="http://www.w3.org/2000/svg" xmlns:xlink="http://www.w3.org/1999/xlink" x="0px" y="0px"
	 width="1533.543px" height="1533.543px" viewBox="83.623 83.623 1533.543 1533.543"
	 enable-background="new 83.623 83.623 1533.543 1533.543" xml:space="preserve">
<g>
	<g>
		<path d="M850.394,163.622c92.749,0,182.682,18.147,267.299,53.937c40.676,17.205,79.916,38.504,116.627,63.306
			c36.383,24.58,70.598,52.811,101.695,83.908s59.328,65.313,83.908,101.696c24.801,36.711,46.102,75.95,63.307,116.627
			c35.789,84.617,53.938,174.549,53.938,267.299c0,92.748-18.146,182.681-53.938,267.298
			c-17.205,40.676-38.506,79.914-63.307,116.625c-24.58,36.383-52.811,70.6-83.908,101.697s-65.313,59.328-101.695,83.906
			c-36.711,24.803-75.951,46.102-116.627,63.307c-84.617,35.789-174.551,53.938-267.298,53.938
			c-92.749,0-182.682-18.146-267.299-53.938c-40.677-17.205-79.916-38.504-116.627-63.305
			c-36.383-24.58-70.598-52.811-101.695-83.908c-31.099-31.098-59.329-65.314-83.909-101.697
			c-24.801-36.711-46.101-75.949-63.305-116.625c-35.79-84.617-53.937-174.551-53.937-267.298
			c0-92.75,18.147-182.682,53.937-267.299c17.205-40.677,38.504-79.916,63.305-116.627c24.58-36.383,52.811-70.599,83.909-101.696
			c31.098-31.097,65.313-59.328,101.695-83.908c36.711-24.802,75.95-46.101,116.627-63.306
			C667.713,181.769,757.645,163.622,850.394,163.622 M850.394,83.622c-423.476,0-766.771,343.295-766.771,766.771
			c0,423.477,343.295,766.772,766.771,766.772c423.477,0,766.774-343.297,766.774-766.771
			C1617.167,426.917,1273.871,83.622,850.394,83.622L850.394,83.622z"/>
	</g>
	<g>
		<path d="M556.821,742.771c37.42,3.649,113.439-16.039,160.073-82.907c0.779-1.116,1.55-2.246,2.313-3.39
			c46.396-69.595,68.666-53.819,68.666-53.819v-23.198c0,0,19.486-32.477,95.577-92.792c76.09-60.314,7.424-186.513,7.424-186.513
			s-4.641,148.468-53.821,154.964c0,0-47.323-7.424-11.135-98.359c0,0-40.829,10.207-58.459,110.422c0,0,3.711,38.974-23.198,41.757
			c-26.91,2.783-5.567-52.892-5.567-52.892s-17.964-3.712-38.211,45.468c0,0-10.969,37.117-34.167,38.974
			c0,0,15.773-15.774,16.703-49.181c0,0-25.055,28.767-64.026,41.757c-38.972,12.991-46.396,52.893-32.479,77.945
			s74.828,49.18,113.969-7.423c0,0-41.591,1.855-19.32-24.127c0,0,25.981-19.485,33.405,19.487c0,0,5.566,43.611-65.884,55.675
			c0,0-40.827,4.64-61.242-1.855c0,0,0.928,32.479-19.486,38.974c0,0,23.198-63.101-32.478-64.026c0,0-53.819-0.929-53.819,47.324
			C481.66,723.285,518.777,739.06,556.821,742.771z"/>
		<path d="M863.962,521.67c-69.592,39.646-56.602,91.192-56.602,91.192c-14.848-5.568-36.889,17.63-36.889,17.63
			c-26.682,38.973-92.093,95.576-92.093,95.576c-37.117,33.404-103,38.973-103,38.973c16.703,99.287,135.477,38.973,135.477,38.973
			s-50.106,8.353-42.684-18.559c7.423-26.909,72.378-14.847,72.378-14.847c72.378-0.929,113.206-39.9,113.206-39.9
			c-43.612,19.486-78.873,2.783-76.088-17.631s53.819-22.271,97.43-23.197c43.613-0.929,80.73-38.974,80.73-38.974
			s-64.955,16.703-83.514-4.64s-3.711-69.595,52.893-124.598c56.602-55.003,37.117-138.933,37.117-138.933
			C952.117,478.314,863.962,521.67,863.962,521.67z"/>
		<path d="M911.025,567.53c-37.777,48.022-11.801,66.675-11.801,66.675c36.537,15.079,62.926-8.989,77.58-29.161
			c8.789-12.103,29.447-41.551,35.639-51.735c39.879-65.567,31.537-148.301,31.537-148.301
			c-10.727,65.701-61.174,106.215-88.346,123.642C945.201,535.34,917.833,558.873,911.025,567.53z"/>
		<path d="M1285.242,614.718l45.469,3.712c-29.695-59.388-112.279-53.819-112.279-53.819l34.334-22.271
			c0,0-25.055-17.631-57.531-4.64c-32.479,12.989-66.811,14.847-65.883,2.783s29.693-29.692,29.693-29.692
			c-131.768-6.496-185.586,154.034-185.586,154.034c108.566-32.478,308.098,75.084,322.918,195.792
			c12.99,105.783,2.088,285.322-291.092,441.465c-234.813,125.057-400.179-21.883-400.179-21.883
			c-166.822-168.693,52.149-375.939,52.149-375.939c-122.485,74.234-166.098,202.287-166.098,202.287
			c-7.424-40.828-65.884-91.863-65.884-91.863s-2.783,66.811-2.783,73.307c0,6.494-1.855,76.09-1.855,76.09l-46.396-34.334
			c-9.279,92.793,61.242,120.631,61.242,120.631l-40.827-0.928c51.963,59.387,169.81,105.781,169.81,105.781
			c259.818,100.215,582.518,42.654,761.606-254.281C1505.16,804.014,1285.242,614.718,1285.242,614.718z"/>
	</g>
	<path d="M850.394,163.622c92.75,0,182.682,18.147,267.299,53.937c40.678,17.205,79.916,38.504,116.627,63.306
		c36.383,24.58,70.598,52.811,101.693,83.908c31.098,31.097,59.33,65.313,83.91,101.696c24.801,36.711,46.1,75.95,63.305,116.627
		c35.789,84.617,53.939,174.549,53.939,267.299c0,92.748-18.148,182.681-53.939,267.298
		c-17.203,40.676-38.504,79.914-63.305,116.625c-24.58,36.383-52.813,70.6-83.91,101.697
		c-31.096,31.098-65.313,59.328-101.693,83.908c-36.713,24.801-75.949,46.1-116.627,63.305
		c-84.617,35.789-174.551,53.938-267.298,53.938c-92.748,0-182.681-18.146-267.298-53.938
		c-40.677-17.205-79.916-38.504-116.627-63.305c-36.383-24.58-70.599-52.811-101.695-83.908
		c-31.098-31.098-59.329-65.314-83.908-101.697c-24.802-36.711-46.101-75.949-63.306-116.625
		c-35.79-84.617-53.937-174.551-53.937-267.298c0-92.75,18.147-182.682,53.937-267.299c17.205-40.677,38.504-79.916,63.306-116.627
		c24.58-36.383,52.811-70.599,83.908-101.696c31.097-31.097,65.313-59.328,101.695-83.908
		c36.711-24.802,75.95-46.101,116.627-63.306C667.713,181.769,757.646,163.622,850.394,163.622 M850.394,83.622
		c-423.476,0-766.771,343.295-766.771,766.771c0,423.477,343.295,766.772,766.771,766.772
		c423.477,0,766.774-343.297,766.774-766.771C1617.167,426.917,1273.871,83.622,850.394,83.622L850.394,83.622z"/>
</g>
</svg>
