<?xml version="1.0" encoding="utf-8"?>
<!-- Generator: Adobe Illustrator 15.0.0, SVG Export Plug-In . SVG Version: 6.00 Build 0)  -->
<!DOCTYPE svg PUBLIC "-//W3C//DTD SVG 1.1//EN" "http://www.w3.org/Graphics/SVG/1.1/DTD/svg11.dtd">
<svg version="1.1" id="Layer_1" xmlns="http://www.w3.org/2000/svg" xmlns:xlink="http://www.w3.org/1999/xlink" x="0px" y="0px"
	 width="90.709px" height="90.709px" viewBox="0 0 90.709 90.709" enable-background="new 0 0 90.709 90.709" xml:space="preserve">
<g>
	<g>
		<path fill="#626466" d="M80.314,90.709H10.395V0h61.471v4.45L80.314,7.1V90.709z M11.416,89.688h67.877V7.85L70.844,5.2V1.021
			H11.416V89.688z"/>
	</g>
	<g>
		<rect x="13.11" y="33.367" fill="#626466" width="64.488" height="54.094"/>
	</g>
	<g>
		<rect x="13.816" y="4.825" fill="#626466" width="41.746" height="9.486"/>
	</g>
	<g>
		<path fill="#FFFFFF" d="M37.665,12.91l0.134-0.412h0.075l-0.186,0.55h-0.046l-0.13-0.419l-0.127,0.419h-0.046l-0.186-0.55h0.073
			l0.135,0.412l0.126-0.412h0.052L37.665,12.91z"/>
		<path fill="#FFFFFF" d="M38.427,12.91l0.133-0.412h0.075l-0.186,0.55h-0.046l-0.13-0.419l-0.126,0.419h-0.047l-0.186-0.55h0.073
			l0.135,0.412l0.127-0.412h0.051L38.427,12.91z"/>
		<path fill="#FFFFFF" d="M39.189,12.91l0.133-0.412h0.076l-0.186,0.55h-0.047l-0.129-0.419l-0.127,0.419h-0.046l-0.186-0.55h0.073
			l0.135,0.412l0.126-0.412h0.052L39.189,12.91z"/>
		<path fill="#FFFFFF" d="M39.549,13.048h-0.071v-0.133h0.071V13.048z"/>
		<path fill="#FFFFFF" d="M39.837,12.434h-0.07v-0.114h0.07V12.434z M39.767,13.048v-0.55h0.07v0.55H39.767z"/>
		<path fill="#FFFFFF" d="M40.002,12.319h0.069v0.243c0.021-0.025,0.045-0.044,0.073-0.057s0.061-0.02,0.096-0.02
			c0.077,0,0.134,0.022,0.169,0.066c0.035,0.045,0.053,0.116,0.053,0.216v0.279h-0.069v-0.28c0-0.08-0.012-0.136-0.035-0.167
			c-0.024-0.031-0.065-0.047-0.121-0.047c-0.032,0-0.061,0.007-0.085,0.02c-0.023,0.014-0.043,0.031-0.057,0.056
			c-0.009,0.015-0.015,0.032-0.019,0.052c-0.004,0.019-0.005,0.053-0.005,0.1v0.268h-0.069V12.319z"/>
		<path fill="#FFFFFF" d="M40.624,12.498h0.07v0.292c0,0.075,0.012,0.128,0.036,0.159s0.064,0.047,0.12,0.047
			c0.031,0,0.06-0.007,0.083-0.02c0.024-0.013,0.044-0.031,0.059-0.056c0.008-0.015,0.015-0.031,0.018-0.051
			c0.004-0.02,0.006-0.054,0.006-0.102v-0.271h0.07v0.55h-0.07v-0.06c-0.021,0.026-0.045,0.045-0.072,0.057
			c-0.025,0.012-0.058,0.018-0.095,0.018c-0.079,0-0.137-0.021-0.172-0.064s-0.053-0.113-0.053-0.214V12.498z"/>
		<path fill="#FFFFFF" d="M41.713,12.961c-0.021,0.032-0.051,0.057-0.089,0.074c-0.038,0.019-0.078,0.027-0.121,0.027
			c-0.081,0-0.148-0.027-0.202-0.083c-0.053-0.056-0.08-0.123-0.08-0.204c0-0.083,0.027-0.151,0.082-0.207
			c0.055-0.055,0.124-0.083,0.206-0.083c0.042,0,0.081,0.01,0.116,0.026c0.036,0.017,0.065,0.041,0.088,0.074v-0.088h0.069v0.55
			h-0.069V12.961z M41.713,12.77c0-0.059-0.021-0.109-0.063-0.153c-0.041-0.043-0.089-0.064-0.144-0.064
			c-0.06,0-0.109,0.021-0.15,0.064c-0.042,0.044-0.063,0.098-0.063,0.162c0,0.062,0.021,0.113,0.062,0.155s0.091,0.063,0.149,0.063
			c0.056,0,0.104-0.022,0.146-0.066C41.693,12.886,41.713,12.832,41.713,12.77z"/>
		<path fill="#FFFFFF" d="M42.397,12.91l0.134-0.412h0.074l-0.185,0.55h-0.047l-0.129-0.419l-0.127,0.419h-0.046l-0.186-0.55h0.073
			l0.135,0.412l0.126-0.412h0.052L42.397,12.91z"/>
		<path fill="#FFFFFF" d="M43.248,12.795H42.75c0.004,0.061,0.026,0.109,0.065,0.146c0.038,0.037,0.088,0.056,0.146,0.056
			c0.042,0,0.079-0.011,0.111-0.032c0.033-0.021,0.059-0.052,0.077-0.089h0.08c-0.025,0.061-0.061,0.107-0.106,0.14
			s-0.1,0.049-0.16,0.049c-0.08,0-0.147-0.028-0.203-0.085c-0.055-0.058-0.083-0.126-0.083-0.206c0-0.084,0.027-0.152,0.081-0.208
			c0.055-0.055,0.124-0.082,0.208-0.082c0.083,0,0.15,0.028,0.203,0.086c0.052,0.057,0.078,0.131,0.078,0.222V12.795z
			 M43.169,12.734c-0.014-0.062-0.038-0.107-0.073-0.139c-0.036-0.031-0.083-0.046-0.14-0.046c-0.054,0-0.099,0.016-0.136,0.049
			s-0.061,0.078-0.068,0.136H43.169z"/>
		<path fill="#FFFFFF" d="M43.379,12.498h0.068v0.063c0.022-0.025,0.047-0.044,0.075-0.056c0.029-0.012,0.062-0.019,0.098-0.019
			c0.041,0,0.077,0.008,0.108,0.022c0.031,0.016,0.057,0.037,0.074,0.065c0.014,0.02,0.022,0.042,0.028,0.069
			c0.005,0.026,0.008,0.064,0.008,0.117v0.287H43.77v-0.309c0-0.064-0.013-0.111-0.037-0.141c-0.025-0.03-0.065-0.045-0.12-0.045
			c-0.031,0-0.06,0.007-0.084,0.02c-0.024,0.014-0.043,0.031-0.057,0.056c-0.009,0.015-0.016,0.032-0.019,0.052
			c-0.004,0.019-0.006,0.053-0.006,0.1v0.268h-0.068V12.498z"/>
		<path fill="#FFFFFF" d="M44.108,13.048h-0.072v-0.133h0.072V13.048z"/>
		<path fill="#FFFFFF" d="M44.765,12.667c-0.022-0.04-0.048-0.069-0.08-0.089c-0.03-0.02-0.068-0.028-0.111-0.028
			c-0.057,0-0.104,0.021-0.144,0.063c-0.04,0.043-0.06,0.097-0.06,0.16s0.02,0.116,0.06,0.159c0.04,0.042,0.089,0.063,0.147,0.063
			c0.042,0,0.08-0.011,0.112-0.031c0.032-0.021,0.058-0.051,0.075-0.089h0.078c-0.022,0.06-0.056,0.105-0.102,0.139
			c-0.046,0.032-0.1,0.049-0.161,0.049c-0.08,0-0.147-0.028-0.202-0.085s-0.082-0.124-0.082-0.204c0-0.082,0.027-0.15,0.083-0.207
			c0.057-0.057,0.123-0.085,0.203-0.085c0.06,0,0.112,0.017,0.158,0.049c0.045,0.032,0.079,0.077,0.103,0.136H44.765z"/>
		<path fill="#FFFFFF" d="M44.966,12.773c0-0.081,0.028-0.149,0.083-0.207c0.056-0.058,0.121-0.086,0.196-0.086
			c0.08,0,0.148,0.028,0.205,0.084c0.056,0.057,0.084,0.124,0.084,0.202c0,0.082-0.027,0.152-0.083,0.21
			c-0.055,0.058-0.122,0.087-0.2,0.087c-0.079,0-0.147-0.028-0.202-0.085S44.966,12.854,44.966,12.773z M45.041,12.772
			c0,0.063,0.021,0.116,0.061,0.159s0.091,0.064,0.15,0.064s0.109-0.021,0.148-0.064c0.04-0.043,0.061-0.097,0.061-0.16
			c0-0.065-0.021-0.118-0.061-0.16c-0.041-0.042-0.093-0.063-0.155-0.063c-0.056,0-0.104,0.021-0.144,0.063
			S45.041,12.709,45.041,12.772z"/>
		<path fill="#FFFFFF" d="M46.101,12.584c0.022-0.032,0.05-0.056,0.083-0.072s0.07-0.025,0.111-0.025
			c0.074,0,0.129,0.022,0.163,0.067s0.051,0.117,0.051,0.217v0.277h-0.067v-0.292c0-0.072-0.012-0.125-0.036-0.155
			c-0.023-0.031-0.063-0.047-0.117-0.047c-0.031,0-0.06,0.007-0.083,0.02c-0.023,0.014-0.043,0.031-0.057,0.056
			c-0.008,0.015-0.015,0.032-0.019,0.052c-0.003,0.019-0.005,0.053-0.005,0.1v0.268h-0.066v-0.309c0-0.063-0.013-0.109-0.039-0.14
			c-0.025-0.03-0.064-0.046-0.118-0.046c-0.031,0-0.06,0.007-0.084,0.02c-0.024,0.014-0.043,0.031-0.058,0.056
			c-0.008,0.015-0.015,0.032-0.019,0.052c-0.003,0.019-0.004,0.053-0.004,0.1v0.268h-0.07v-0.55h0.07v0.063
			c0.021-0.024,0.046-0.043,0.074-0.056c0.027-0.012,0.061-0.019,0.097-0.019c0.042,0,0.079,0.01,0.113,0.026
			C46.057,12.53,46.083,12.554,46.101,12.584z"/>
	</g>
	<g>
		<path fill="#FFFFFF" d="M37.816,6.549l-0.023,0.028c0.127,0.165,0.294,0.289,0.503,0.373c-0.023,0.032-0.044,0.063-0.06,0.09
			c-0.199-0.098-0.365-0.229-0.499-0.394c-0.115,0.149-0.284,0.285-0.509,0.407c-0.016-0.024-0.034-0.053-0.057-0.084
			c0.232-0.116,0.407-0.256,0.525-0.421H37.816z M37.223,7.511h0.466V7.314h-0.365V7.232h0.365V7.059h-0.323V6.977h0.74v0.082
			h-0.324v0.174h0.366v0.082h-0.366v0.196h0.464v0.083h-1.022V7.511z"/>
		<path fill="#FFFFFF" d="M38.327,7.427c0.051-0.005,0.104-0.011,0.159-0.019V7.067h-0.138v-0.08h0.138V6.723h-0.152V6.642h0.385
			v0.081h-0.149v0.265h0.13v0.08h-0.13v0.33c0.045-0.006,0.092-0.013,0.14-0.021c-0.003,0.03-0.005,0.06-0.006,0.088
			c-0.141,0.018-0.262,0.034-0.365,0.05L38.327,7.427z M38.713,7.354c0.099-0.06,0.2-0.125,0.308-0.199V6.827h-0.288V6.746h0.288
			v-0.2h0.086v0.2h0.319v0.081h-0.319v0.1c0.019,0.062,0.04,0.119,0.065,0.171c0.064-0.063,0.119-0.12,0.163-0.174l0.072,0.062
			c-0.062,0.062-0.127,0.123-0.197,0.187c0.065,0.112,0.147,0.2,0.244,0.262c-0.004,0.007-0.015,0.019-0.029,0.035
			c-0.017,0.017-0.028,0.03-0.035,0.041c-0.123-0.089-0.217-0.218-0.283-0.385v0.363c0,0.09-0.047,0.135-0.14,0.135
			c-0.037,0-0.076-0.001-0.118-0.001c-0.005-0.028-0.011-0.06-0.019-0.093c0.045,0.005,0.084,0.008,0.121,0.008
			c0.046,0,0.069-0.022,0.069-0.068V7.254c-0.078,0.055-0.161,0.115-0.251,0.181L38.713,7.354z M38.739,6.948l0.068-0.042
			c0.049,0.063,0.098,0.134,0.146,0.211l-0.072,0.05C38.829,7.079,38.782,7.006,38.739,6.948z M39.167,6.612l0.05-0.057
			c0.053,0.035,0.102,0.072,0.146,0.109L39.31,6.728C39.265,6.686,39.218,6.647,39.167,6.612z"/>
		<path fill="#FFFFFF" d="M39.484,6.851V6.77h0.365v0.084c-0.038,0.066-0.081,0.132-0.129,0.194v0.062l0.048-0.044
			c0.054,0.048,0.103,0.095,0.148,0.141l-0.065,0.058c-0.038-0.043-0.082-0.09-0.131-0.141V7.64h-0.086V7.151
			c-0.04,0.044-0.082,0.087-0.128,0.128c-0.008-0.029-0.018-0.062-0.03-0.097c0.117-0.102,0.207-0.213,0.273-0.332H39.484z
			 M39.593,6.577l0.079-0.039c0.028,0.046,0.058,0.097,0.089,0.154l-0.083,0.043C39.648,6.675,39.62,6.622,39.593,6.577z
			 M40.169,6.763h0.087c0,0.211-0.005,0.344-0.016,0.397h0.071v0.309c0,0.044,0.021,0.066,0.063,0.066h0.06
			c0.044,0,0.07-0.02,0.078-0.059c0.005-0.041,0.009-0.095,0.012-0.159c0.027,0.012,0.056,0.023,0.086,0.034
			c-0.006,0.065-0.012,0.117-0.018,0.158c-0.01,0.068-0.056,0.103-0.137,0.103h-0.097c-0.089,0-0.134-0.044-0.134-0.133V7.238
			c-0.051,0.192-0.177,0.33-0.378,0.416c-0.017-0.023-0.036-0.048-0.059-0.074c0.233-0.09,0.357-0.259,0.373-0.509
			C40.167,6.988,40.169,6.886,40.169,6.763z M39.936,6.6h0.565v0.693h-0.088V6.679h-0.391v0.614h-0.087V6.6z"/>
		<path fill="#FFFFFF" d="M40.635,7.478c0.086-0.006,0.171-0.012,0.256-0.02v-0.16h-0.228V7.221h0.228V7.075h-0.132v0.033h-0.078
			V6.593h0.501v0.516h-0.079V7.075h-0.13v0.146h0.228v0.077h-0.228v0.154c0.083-0.008,0.165-0.016,0.247-0.024
			c-0.003,0.021-0.006,0.047-0.007,0.083c-0.302,0.029-0.491,0.048-0.569,0.056L40.635,7.478z M40.759,6.798h0.132V6.666h-0.132
			V6.798z M40.759,7.002h0.132V6.869h-0.132V7.002z M41.103,6.666h-0.13v0.132h0.13V6.666z M40.973,7.002h0.13V6.869h-0.13V7.002z
			 M41.221,7.049V6.971h0.241c-0.046-0.052-0.104-0.114-0.177-0.186l0.057-0.049c0.044,0.042,0.084,0.081,0.119,0.117l0.154-0.179
			h-0.373V6.597h0.471v0.09l-0.198,0.223c0.014,0.014,0.025,0.026,0.037,0.04l-0.028,0.021h0.224v0.066
			c-0.022,0.065-0.049,0.131-0.078,0.198c-0.04-0.013-0.067-0.021-0.083-0.024c0.028-0.061,0.051-0.114,0.068-0.162H41.51v0.463
			c0,0.075-0.04,0.113-0.122,0.113c-0.043,0-0.089-0.001-0.138-0.002c-0.003-0.026-0.008-0.057-0.014-0.091
			c0.055,0.006,0.099,0.009,0.134,0.009c0.038,0,0.057-0.02,0.057-0.056V7.049H41.221z"/>
		<path fill="#FFFFFF" d="M42.17,7.499h0.891V7.306h-0.822v-0.08h0.822v-0.19h-0.858v-0.08h0.436V6.538h0.094v0.417h0.423v0.691
			h-0.094V7.579H42.17V7.499z M42.239,6.649l0.063-0.057c0.081,0.076,0.156,0.155,0.227,0.237l-0.075,0.064
			C42.389,6.813,42.318,6.73,42.239,6.649z M43.139,6.653c-0.081,0.091-0.161,0.173-0.24,0.246l-0.067-0.061
			c0.077-0.069,0.153-0.152,0.23-0.247L43.139,6.653z"/>
		<path fill="#FFFFFF" d="M43.269,7.438c0.053-0.018,0.107-0.035,0.161-0.054V6.936h-0.145V6.856h0.145V6.542h0.084v0.314h0.131
			v0.079h-0.131v0.421c0.048-0.017,0.096-0.033,0.145-0.051c0.001,0.031,0.003,0.059,0.007,0.083
			c-0.123,0.044-0.244,0.09-0.365,0.135L43.269,7.438z M43.977,6.537h0.088v0.29l0.272-0.082c-0.004,0.147-0.009,0.269-0.014,0.362
			C44.32,7.208,44.28,7.26,44.203,7.261c-0.035,0.001-0.068,0.001-0.102,0c-0.004-0.028-0.01-0.06-0.017-0.094
			c0.036,0.005,0.067,0.007,0.094,0.007c0.039,0.001,0.06-0.028,0.061-0.085c0.005-0.069,0.007-0.146,0.008-0.233l-0.182,0.057V7.4
			h-0.088V6.939l-0.171,0.053v0.436c0,0.059,0.032,0.088,0.096,0.088h0.276c0.069,0,0.107-0.027,0.114-0.083
			c0.01-0.048,0.017-0.104,0.022-0.168c0.03,0.013,0.062,0.022,0.094,0.033c-0.011,0.072-0.021,0.13-0.03,0.175
			c-0.019,0.086-0.077,0.129-0.177,0.129h-0.32c-0.108,0-0.162-0.053-0.162-0.159V7.02l-0.085,0.026L43.62,6.962l0.1-0.029V6.67
			h0.087v0.236l0.171-0.052V6.537z"/>
		<path fill="#FFFFFF" d="M44.449,6.831h0.25c0.007-0.033,0.011-0.072,0.012-0.118h-0.111c-0.029,0.041-0.063,0.079-0.104,0.115
			c-0.014-0.021-0.032-0.044-0.053-0.067c0.079-0.066,0.134-0.144,0.163-0.232l0.082,0.018c-0.012,0.033-0.026,0.064-0.043,0.094
			h0.337v0.073h-0.187c-0.003,0.044-0.006,0.083-0.011,0.118h0.231v0.072H44.77c-0.002,0.008-0.004,0.015-0.006,0.021
			c0.074,0.037,0.156,0.081,0.243,0.135l-0.052,0.066c-0.076-0.053-0.15-0.098-0.224-0.136c-0.051,0.079-0.136,0.145-0.256,0.194
			c-0.014-0.024-0.031-0.049-0.051-0.076c0.134-0.05,0.219-0.118,0.255-0.205h-0.231V6.831z M44.618,7.135h0.753v0.511h-0.083V7.595
			h-0.587v0.051h-0.083V7.135z M45.288,7.206h-0.587V7.33h0.587V7.206z M44.701,7.522h0.587V7.4h-0.587V7.522z M45.051,6.628h0.431
			v0.461h-0.084V7.021h-0.263v0.068h-0.084V6.628z M45.398,6.7h-0.263v0.249h0.263V6.7z"/>
		<path fill="#FFFFFF" d="M45.982,7.256c0.004,0.031,0.009,0.063,0.016,0.093c-0.068,0.051-0.133,0.101-0.193,0.15
			c-0.016,0.014-0.031,0.03-0.05,0.052l-0.065-0.069c0.023-0.024,0.035-0.058,0.035-0.1V6.993h-0.143V6.911h0.229V7.39
			C45.874,7.344,45.929,7.299,45.982,7.256z M45.75,6.555c0.073,0.075,0.132,0.137,0.175,0.186l-0.077,0.064
			c-0.058-0.074-0.112-0.139-0.164-0.193L45.75,6.555z M46.161,7.254l0.076,0.054c-0.09,0.109-0.189,0.218-0.3,0.325
			c-0.019-0.019-0.042-0.038-0.068-0.061C45.972,7.479,46.07,7.372,46.161,7.254z M46.003,6.612h0.62v0.592h-0.087V7.137H46.09
			v0.067h-0.087V6.612z M46.537,6.69H46.09v0.367h0.446V6.69z M46.371,7.313l0.073-0.054c0.089,0.095,0.18,0.198,0.271,0.309
			l-0.081,0.061C46.549,7.519,46.461,7.413,46.371,7.313z"/>
	</g>
	<g>
		<path fill="#FFFFFF" d="M37.408,9.188h-0.08V8.449h-0.164v-0.08h0.408v0.08h-0.164V9.188z"/>
		<path fill="#FFFFFF" d="M37.698,8.369h0.078v0.272c0.023-0.028,0.051-0.05,0.083-0.064c0.032-0.014,0.067-0.021,0.108-0.021
			c0.086,0,0.149,0.024,0.189,0.074s0.06,0.131,0.06,0.242v0.314h-0.078V8.872c0-0.09-0.014-0.152-0.04-0.188
			c-0.028-0.034-0.073-0.053-0.136-0.053c-0.036,0-0.068,0.008-0.096,0.022s-0.048,0.035-0.064,0.062
			c-0.01,0.018-0.016,0.037-0.02,0.059s-0.007,0.059-0.007,0.112v0.301h-0.078V8.369z"/>
		<path fill="#FFFFFF" d="M39.005,8.903h-0.559c0.005,0.067,0.029,0.122,0.073,0.164c0.044,0.041,0.099,0.063,0.165,0.063
			c0.046,0,0.088-0.013,0.125-0.037c0.037-0.023,0.066-0.057,0.086-0.101h0.091c-0.029,0.069-0.069,0.121-0.121,0.158
			c-0.052,0.036-0.11,0.055-0.179,0.055c-0.09,0-0.166-0.031-0.229-0.096s-0.094-0.142-0.094-0.231c0-0.095,0.03-0.172,0.092-0.233
			c0.062-0.063,0.139-0.093,0.233-0.093c0.094,0,0.169,0.032,0.228,0.096c0.06,0.065,0.088,0.148,0.088,0.25V8.903z M38.917,8.834
			c-0.015-0.068-0.042-0.12-0.082-0.155c-0.04-0.034-0.093-0.052-0.157-0.052c-0.06,0-0.11,0.019-0.152,0.056
			s-0.067,0.088-0.077,0.151H38.917z"/>
		<path fill="#FFFFFF" d="M39.537,9.188V8.369h0.079v0.818H39.537z"/>
		<path fill="#FFFFFF" d="M39.767,8.879c0-0.091,0.031-0.169,0.094-0.233c0.062-0.064,0.136-0.097,0.221-0.097
			c0.09,0,0.166,0.032,0.229,0.096s0.095,0.139,0.095,0.227c0,0.093-0.03,0.171-0.093,0.236c-0.062,0.065-0.137,0.098-0.226,0.098
			s-0.165-0.031-0.227-0.096C39.798,9.045,39.767,8.969,39.767,8.879z M39.85,8.878c0,0.071,0.022,0.131,0.067,0.18
			c0.046,0.048,0.103,0.072,0.17,0.072c0.066,0,0.122-0.024,0.167-0.072c0.046-0.049,0.068-0.109,0.068-0.181
			c0-0.073-0.023-0.133-0.068-0.181c-0.046-0.047-0.104-0.071-0.174-0.071c-0.063,0-0.117,0.025-0.163,0.073
			C39.873,8.747,39.85,8.807,39.85,8.878z"/>
		<path fill="#FFFFFF" d="M41.051,8.76c-0.025-0.045-0.055-0.079-0.09-0.101c-0.034-0.021-0.076-0.032-0.125-0.032
			c-0.063,0-0.118,0.024-0.162,0.072c-0.045,0.049-0.066,0.108-0.066,0.18s0.021,0.131,0.066,0.179s0.1,0.072,0.165,0.072
			c0.049,0,0.091-0.012,0.128-0.036c0.036-0.023,0.064-0.057,0.084-0.1h0.088c-0.024,0.067-0.063,0.119-0.114,0.156
			c-0.051,0.036-0.111,0.055-0.182,0.055c-0.089,0-0.165-0.031-0.227-0.095c-0.062-0.064-0.093-0.141-0.093-0.23
			c0-0.092,0.031-0.169,0.094-0.232c0.063-0.064,0.139-0.096,0.229-0.096c0.067,0,0.126,0.019,0.178,0.055
			c0.051,0.036,0.09,0.087,0.115,0.153H41.051z"/>
		<path fill="#FFFFFF" d="M41.833,9.09c-0.025,0.036-0.059,0.063-0.101,0.084c-0.042,0.02-0.088,0.03-0.137,0.03
			c-0.091,0-0.166-0.031-0.227-0.093c-0.061-0.063-0.091-0.139-0.091-0.23c0-0.093,0.031-0.169,0.093-0.231s0.139-0.094,0.231-0.094
			c0.048,0,0.092,0.01,0.131,0.028c0.04,0.02,0.073,0.047,0.1,0.084v-0.1h0.077v0.619h-0.077V9.09z M41.833,8.874
			c0-0.065-0.023-0.122-0.07-0.172c-0.047-0.049-0.101-0.073-0.162-0.073c-0.066,0-0.123,0.024-0.17,0.073
			c-0.047,0.05-0.07,0.109-0.07,0.183c0,0.068,0.023,0.127,0.07,0.175c0.046,0.047,0.103,0.071,0.167,0.071
			c0.063,0,0.119-0.025,0.165-0.075C41.81,9.005,41.833,8.945,41.833,8.874z"/>
		<path fill="#FFFFFF" d="M42.094,9.188V8.369h0.079v0.818H42.094z"/>
		<path fill="#FFFFFF" d="M42.821,9.188h-0.08V8.369h0.08v0.486l0.224-0.287h0.091l-0.225,0.287l0.272,0.332h-0.1l-0.263-0.322
			V9.188z"/>
		<path fill="#FFFFFF" d="M43.274,8.568h0.076V8.64c0.025-0.028,0.054-0.05,0.085-0.063c0.032-0.013,0.069-0.02,0.11-0.02
			c0.046,0,0.086,0.009,0.121,0.024c0.036,0.018,0.063,0.042,0.085,0.073c0.014,0.021,0.023,0.048,0.03,0.078
			c0.006,0.029,0.009,0.074,0.009,0.132v0.323h-0.078V8.842c0-0.074-0.014-0.127-0.042-0.16c-0.027-0.032-0.072-0.05-0.134-0.05
			c-0.036,0-0.067,0.008-0.096,0.022c-0.026,0.015-0.048,0.035-0.063,0.062c-0.01,0.018-0.017,0.037-0.021,0.059
			c-0.005,0.021-0.007,0.059-0.007,0.112v0.301h-0.076V8.568z"/>
		<path fill="#FFFFFF" d="M43.939,8.879c0-0.091,0.031-0.169,0.094-0.233s0.136-0.097,0.222-0.097c0.09,0,0.166,0.032,0.229,0.096
			c0.063,0.063,0.095,0.139,0.095,0.227c0,0.093-0.031,0.171-0.093,0.236c-0.063,0.065-0.138,0.098-0.226,0.098
			c-0.09,0-0.166-0.031-0.228-0.096C43.97,9.045,43.939,8.969,43.939,8.879z M44.023,8.878c0,0.071,0.022,0.131,0.067,0.18
			c0.045,0.048,0.103,0.072,0.17,0.072c0.066,0,0.122-0.024,0.167-0.072c0.045-0.049,0.067-0.109,0.067-0.181
			c0-0.073-0.022-0.133-0.068-0.181c-0.046-0.047-0.104-0.071-0.173-0.071c-0.063,0-0.118,0.025-0.163,0.073
			C44.045,8.747,44.023,8.807,44.023,8.878z"/>
		<path fill="#FFFFFF" d="M45.236,9.032l0.149-0.464h0.085l-0.209,0.619h-0.052l-0.145-0.472l-0.144,0.472H44.87l-0.209-0.619h0.083
			l0.151,0.464l0.142-0.464h0.058L45.236,9.032z"/>
		<path fill="#FFFFFF" d="M45.585,9.188V8.369h0.079v0.818H45.585z"/>
		<path fill="#FFFFFF" d="M46.457,8.903h-0.559c0.005,0.067,0.029,0.122,0.073,0.164c0.044,0.041,0.099,0.063,0.164,0.063
			c0.047,0,0.089-0.013,0.126-0.037c0.037-0.023,0.066-0.057,0.086-0.101h0.09c-0.028,0.069-0.068,0.121-0.12,0.158
			c-0.052,0.036-0.111,0.055-0.179,0.055c-0.09,0-0.167-0.031-0.229-0.096c-0.063-0.064-0.094-0.142-0.094-0.231
			c0-0.095,0.03-0.172,0.092-0.233c0.062-0.063,0.139-0.093,0.233-0.093c0.094,0,0.169,0.032,0.228,0.096
			c0.06,0.065,0.088,0.148,0.088,0.25V8.903z M46.369,8.834c-0.015-0.068-0.042-0.12-0.082-0.155
			c-0.04-0.034-0.093-0.052-0.157-0.052c-0.061,0-0.111,0.019-0.152,0.056C45.935,8.72,45.91,8.771,45.9,8.834H46.369z"/>
		<path fill="#FFFFFF" d="M47.125,8.667V8.529v-0.16h0.08v0.818h-0.08V9.095c-0.028,0.034-0.063,0.062-0.104,0.081
			c-0.042,0.019-0.085,0.028-0.131,0.028c-0.09,0-0.165-0.031-0.227-0.095c-0.061-0.063-0.092-0.14-0.092-0.231
			c0-0.091,0.03-0.167,0.091-0.229c0.061-0.062,0.137-0.093,0.228-0.093c0.049,0,0.093,0.009,0.133,0.027
			C47.064,8.603,47.097,8.63,47.125,8.667z M47.127,8.885c0-0.071-0.023-0.131-0.07-0.181s-0.102-0.075-0.164-0.075
			c-0.065,0-0.122,0.024-0.168,0.071c-0.047,0.048-0.069,0.106-0.069,0.174c0,0.073,0.022,0.133,0.069,0.183s0.104,0.074,0.17,0.074
			c0.062,0,0.115-0.024,0.162-0.074S47.127,8.95,47.127,8.885z"/>
		<path fill="#FFFFFF" d="M47.493,9.238c0.012,0.036,0.033,0.064,0.065,0.084c0.031,0.021,0.07,0.031,0.115,0.031
			c0.069,0,0.127-0.024,0.169-0.071c0.043-0.047,0.064-0.109,0.064-0.188V9.078c-0.03,0.041-0.064,0.072-0.103,0.093
			s-0.08,0.031-0.127,0.031c-0.093,0-0.171-0.031-0.231-0.094c-0.062-0.062-0.093-0.139-0.093-0.231c0-0.092,0.03-0.168,0.092-0.23
			c0.061-0.062,0.136-0.093,0.226-0.093c0.052,0,0.097,0.01,0.135,0.028s0.072,0.048,0.102,0.088V8.568h0.077v0.517
			c0,0.108-0.026,0.193-0.081,0.254s-0.13,0.091-0.225,0.091c-0.07,0-0.13-0.018-0.181-0.052c-0.05-0.035-0.083-0.081-0.097-0.14
			H47.493z M47.438,8.873c0,0.073,0.022,0.133,0.068,0.183c0.046,0.048,0.102,0.072,0.167,0.072c0.061,0,0.114-0.024,0.161-0.073
			s0.071-0.106,0.071-0.173c0-0.07-0.023-0.13-0.07-0.18c-0.046-0.05-0.1-0.075-0.162-0.075c-0.065,0-0.12,0.023-0.167,0.071
			C47.46,8.746,47.438,8.804,47.438,8.873z"/>
		<path fill="#FFFFFF" d="M48.771,8.903h-0.559c0.005,0.067,0.028,0.122,0.072,0.164c0.044,0.041,0.099,0.063,0.165,0.063
			c0.046,0,0.088-0.013,0.126-0.037c0.036-0.023,0.065-0.057,0.085-0.101h0.091c-0.028,0.069-0.069,0.121-0.12,0.158
			c-0.052,0.036-0.111,0.055-0.18,0.055c-0.09,0-0.166-0.031-0.229-0.096S48.13,8.968,48.13,8.878c0-0.095,0.03-0.172,0.091-0.233
			c0.062-0.063,0.14-0.093,0.234-0.093c0.093,0,0.169,0.032,0.228,0.096c0.059,0.065,0.088,0.148,0.088,0.25V8.903z M48.683,8.834
			c-0.016-0.068-0.042-0.12-0.083-0.155c-0.04-0.034-0.092-0.052-0.156-0.052c-0.061,0-0.111,0.019-0.153,0.056
			c-0.041,0.037-0.066,0.088-0.076,0.151H48.683z"/>
		<path fill="#FFFFFF" d="M49.411,9.188h-0.077v-0.55h-0.082V8.568h0.079V8.552c0-0.065,0.017-0.114,0.05-0.146
			s0.084-0.048,0.152-0.048h0.007v0.072c-0.047,0.001-0.081,0.01-0.101,0.028s-0.029,0.05-0.029,0.093v0.017h0.13v0.069h-0.129
			V9.188z"/>
		<path fill="#FFFFFF" d="M49.64,8.879c0-0.091,0.03-0.169,0.093-0.233s0.136-0.097,0.222-0.097c0.09,0,0.166,0.032,0.229,0.096
			c0.064,0.063,0.096,0.139,0.096,0.227c0,0.093-0.031,0.171-0.093,0.236s-0.138,0.098-0.226,0.098c-0.09,0-0.165-0.031-0.228-0.096
			S49.64,8.969,49.64,8.879z M49.723,8.878c0,0.071,0.022,0.131,0.067,0.18c0.046,0.048,0.103,0.072,0.17,0.072
			c0.066,0,0.122-0.024,0.167-0.072c0.046-0.049,0.067-0.109,0.067-0.181c0-0.073-0.022-0.133-0.067-0.181
			c-0.046-0.047-0.104-0.071-0.174-0.071c-0.063,0-0.117,0.025-0.163,0.073C49.746,8.747,49.723,8.807,49.723,8.878z"/>
		<path fill="#FFFFFF" d="M50.507,9.188h-0.08V8.568h0.074v0.072c0.021-0.027,0.041-0.048,0.064-0.061s0.05-0.02,0.08-0.021
			l0.001,0.086c-0.05,0.005-0.085,0.021-0.106,0.045c-0.022,0.025-0.033,0.066-0.033,0.124V9.188z"/>
	</g>
	<g>
		<path fill="#FFFFFF" d="M37.327,10.622c0.012,0.035,0.033,0.063,0.065,0.083c0.031,0.021,0.069,0.031,0.114,0.031
			c0.07,0,0.127-0.023,0.17-0.07s0.063-0.109,0.063-0.188v-0.016c-0.03,0.04-0.063,0.071-0.102,0.092
			c-0.039,0.021-0.081,0.031-0.128,0.031c-0.093,0-0.17-0.031-0.231-0.094c-0.061-0.062-0.092-0.139-0.092-0.231
			c0-0.091,0.03-0.168,0.092-0.229c0.06-0.063,0.135-0.093,0.225-0.093c0.053,0,0.098,0.01,0.136,0.028s0.071,0.048,0.101,0.088
			V9.952h0.078v0.517c0,0.107-0.027,0.192-0.081,0.253c-0.055,0.061-0.13,0.091-0.226,0.091c-0.069,0-0.13-0.017-0.18-0.052
			c-0.051-0.035-0.083-0.081-0.098-0.139H37.327z M37.271,10.256c0,0.073,0.023,0.134,0.068,0.183
			c0.047,0.048,0.103,0.073,0.167,0.073c0.062,0,0.115-0.025,0.162-0.074s0.07-0.105,0.07-0.172c0-0.071-0.022-0.131-0.069-0.181
			c-0.046-0.05-0.101-0.075-0.163-0.075c-0.064,0-0.12,0.023-0.166,0.071S37.271,10.188,37.271,10.256z"/>
		<path fill="#FFFFFF" d="M37.999,10.571V9.752h0.079v0.819H37.999z"/>
		<path fill="#FFFFFF" d="M38.229,10.262c0-0.091,0.03-0.168,0.093-0.232s0.137-0.097,0.222-0.097c0.09,0,0.166,0.031,0.229,0.095
			s0.095,0.139,0.095,0.227c0,0.093-0.031,0.172-0.093,0.236c-0.063,0.066-0.137,0.099-0.226,0.099c-0.09,0-0.165-0.032-0.228-0.096
			C38.259,10.428,38.229,10.352,38.229,10.262z M38.312,10.261c0,0.071,0.022,0.131,0.068,0.18c0.045,0.048,0.102,0.072,0.169,0.072
			c0.066,0,0.122-0.024,0.167-0.072c0.045-0.049,0.068-0.108,0.068-0.181c0-0.073-0.023-0.133-0.068-0.181
			c-0.046-0.047-0.104-0.07-0.174-0.07c-0.063,0-0.117,0.024-0.162,0.072C38.334,10.13,38.312,10.189,38.312,10.261z"/>
		<path fill="#FFFFFF" d="M39.093,9.752v0.258v0.046c0.034-0.04,0.07-0.069,0.11-0.089c0.039-0.019,0.084-0.028,0.133-0.028
			c0.087,0,0.161,0.031,0.221,0.094c0.061,0.063,0.091,0.139,0.091,0.229c0,0.093-0.031,0.171-0.093,0.233s-0.139,0.094-0.231,0.094
			c-0.046,0-0.088-0.01-0.126-0.027c-0.038-0.019-0.072-0.046-0.104-0.083v0.094h-0.078V9.752H39.093z M39.093,10.268
			c0,0.065,0.023,0.123,0.07,0.173c0.047,0.049,0.101,0.073,0.161,0.073c0.066,0,0.123-0.024,0.17-0.074
			c0.047-0.049,0.07-0.109,0.07-0.183c0-0.067-0.023-0.126-0.07-0.174c-0.047-0.047-0.102-0.071-0.167-0.071
			c-0.064,0-0.12,0.025-0.166,0.075C39.117,10.137,39.093,10.196,39.093,10.268z"/>
		<path fill="#FFFFFF" d="M40.323,10.473c-0.025,0.036-0.059,0.063-0.101,0.085c-0.042,0.02-0.088,0.03-0.137,0.03
			c-0.091,0-0.166-0.031-0.227-0.094s-0.091-0.139-0.091-0.229c0-0.093,0.031-0.17,0.093-0.232S40,9.938,40.092,9.938
			c0.048,0,0.092,0.01,0.131,0.028c0.04,0.02,0.073,0.048,0.1,0.084V9.952H40.4v0.619h-0.077V10.473z M40.323,10.257
			c0-0.064-0.023-0.122-0.07-0.172c-0.047-0.049-0.102-0.073-0.162-0.073c-0.066,0-0.123,0.024-0.17,0.073
			c-0.047,0.05-0.07,0.109-0.07,0.183c0,0.069,0.023,0.127,0.07,0.175c0.046,0.047,0.103,0.071,0.167,0.071
			c0.063,0,0.118-0.025,0.165-0.075S40.323,10.328,40.323,10.257z"/>
		<path fill="#FFFFFF" d="M40.583,10.571V9.752h0.079v0.819H40.583z"/>
		<path fill="#FFFFFF" d="M40.849,10.571V9.752h0.079v0.819H40.849z"/>
		<path fill="#FFFFFF" d="M41.031,9.952h0.092l0.19,0.502l0.201-0.502h0.092l-0.334,0.819h-0.085l0.082-0.202L41.031,9.952z"/>
		<path fill="#FFFFFF" d="M41.934,10.225v0.074H41.67v-0.074H41.934z"/>
		<path fill="#FFFFFF" d="M42.595,10.049c0.024-0.036,0.056-0.063,0.093-0.082c0.038-0.018,0.079-0.027,0.126-0.027
			c0.083,0,0.145,0.025,0.184,0.075c0.038,0.051,0.057,0.132,0.057,0.244v0.313h-0.076v-0.329c0-0.082-0.014-0.14-0.04-0.175
			c-0.027-0.034-0.071-0.052-0.133-0.052c-0.035,0-0.066,0.007-0.093,0.021s-0.048,0.035-0.064,0.063
			c-0.009,0.017-0.016,0.036-0.02,0.058s-0.006,0.06-0.006,0.112v0.302h-0.075v-0.347c0-0.071-0.015-0.124-0.044-0.158
			c-0.028-0.034-0.073-0.051-0.133-0.051c-0.036,0-0.067,0.007-0.095,0.021c-0.026,0.015-0.049,0.035-0.064,0.063
			c-0.009,0.017-0.017,0.036-0.021,0.058s-0.006,0.06-0.006,0.112v0.302h-0.078V9.952h0.078v0.07
			c0.024-0.027,0.052-0.049,0.084-0.063c0.032-0.013,0.068-0.021,0.108-0.021c0.047,0,0.09,0.01,0.129,0.029
			S42.574,10.016,42.595,10.049z"/>
		<path fill="#FFFFFF" d="M43.319,9.879H43.24V9.752h0.079V9.879z M43.24,10.571V9.952h0.079v0.619H43.24z"/>
		<path fill="#FFFFFF" d="M43.503,9.952h0.077v0.07c0.024-0.028,0.053-0.05,0.084-0.063c0.032-0.014,0.069-0.021,0.11-0.021
			c0.046,0,0.086,0.009,0.121,0.025c0.036,0.017,0.063,0.041,0.085,0.072c0.014,0.022,0.024,0.048,0.03,0.078
			c0.007,0.03,0.01,0.074,0.01,0.132v0.324h-0.079v-0.347c0-0.073-0.014-0.126-0.042-0.16c-0.027-0.032-0.072-0.049-0.134-0.049
			c-0.036,0-0.067,0.007-0.095,0.021s-0.049,0.035-0.064,0.063c-0.01,0.017-0.017,0.036-0.021,0.058s-0.006,0.06-0.006,0.112v0.302
			h-0.077V9.952z"/>
		<path fill="#FFFFFF" d="M44.723,10.05V9.912v-0.16h0.08v0.819h-0.08v-0.094c-0.027,0.035-0.062,0.062-0.104,0.081
			c-0.041,0.019-0.085,0.029-0.131,0.029c-0.09,0-0.165-0.031-0.226-0.095s-0.092-0.141-0.092-0.232c0-0.091,0.03-0.167,0.09-0.229
			c0.061-0.062,0.137-0.093,0.228-0.093c0.049,0,0.094,0.01,0.134,0.028C44.662,9.985,44.696,10.014,44.723,10.05z M44.725,10.268
			c0-0.07-0.022-0.131-0.069-0.181s-0.102-0.075-0.165-0.075c-0.064,0-0.121,0.024-0.168,0.071
			c-0.046,0.048-0.069,0.106-0.069,0.174c0,0.073,0.023,0.134,0.07,0.183c0.046,0.05,0.104,0.074,0.169,0.074
			c0.062,0,0.116-0.024,0.163-0.074C44.703,10.391,44.725,10.333,44.725,10.268z"/>
		<path fill="#FFFFFF" d="M45.593,10.287h-0.559c0.004,0.067,0.028,0.121,0.072,0.163c0.044,0.041,0.099,0.063,0.165,0.063
			c0.046,0,0.088-0.013,0.125-0.037c0.037-0.023,0.065-0.057,0.086-0.1h0.09c-0.027,0.068-0.068,0.121-0.119,0.157
			c-0.053,0.036-0.111,0.056-0.18,0.056c-0.09,0-0.166-0.032-0.229-0.097s-0.093-0.142-0.093-0.231c0-0.094,0.03-0.172,0.091-0.233
			s0.139-0.092,0.233-0.092c0.093,0,0.169,0.031,0.229,0.096c0.059,0.064,0.088,0.147,0.088,0.25V10.287z M45.505,10.218
			c-0.016-0.069-0.043-0.121-0.083-0.156c-0.04-0.034-0.093-0.052-0.156-0.052c-0.061,0-0.111,0.019-0.153,0.056
			c-0.042,0.038-0.066,0.089-0.076,0.152H45.505z"/>
		<path fill="#FFFFFF" d="M46.261,10.05V9.912v-0.16h0.08v0.819h-0.08v-0.094c-0.027,0.035-0.063,0.062-0.104,0.081
			c-0.042,0.019-0.086,0.029-0.132,0.029c-0.089,0-0.164-0.031-0.226-0.095c-0.061-0.063-0.092-0.141-0.092-0.232
			c0-0.091,0.03-0.167,0.091-0.229c0.061-0.062,0.137-0.093,0.227-0.093c0.05,0,0.094,0.01,0.134,0.028S46.234,10.014,46.261,10.05z
			 M46.263,10.268c0-0.07-0.023-0.131-0.069-0.181c-0.047-0.05-0.102-0.075-0.165-0.075c-0.065,0-0.121,0.024-0.168,0.071
			c-0.046,0.048-0.07,0.106-0.07,0.174c0,0.073,0.024,0.134,0.071,0.183c0.046,0.05,0.103,0.074,0.169,0.074
			c0.062,0,0.115-0.024,0.162-0.074C46.24,10.391,46.263,10.333,46.263,10.268z"/>
		<path fill="#FFFFFF" d="M47.57,9.964c-0.036-0.051-0.077-0.089-0.123-0.113c-0.045-0.023-0.097-0.035-0.155-0.035
			c-0.091,0-0.169,0.033-0.234,0.102c-0.064,0.067-0.097,0.147-0.097,0.24c0,0.099,0.032,0.183,0.097,0.251
			c0.064,0.067,0.143,0.102,0.234,0.102c0.057,0,0.107-0.012,0.153-0.036c0.046-0.023,0.086-0.058,0.12-0.104h0.095
			c-0.037,0.069-0.088,0.123-0.15,0.161c-0.063,0.038-0.134,0.058-0.212,0.058c-0.121,0-0.221-0.042-0.302-0.123
			c-0.08-0.083-0.12-0.186-0.12-0.309c0-0.058,0.011-0.111,0.032-0.163s0.054-0.098,0.096-0.139
			c0.038-0.039,0.082-0.069,0.131-0.089c0.049-0.021,0.102-0.03,0.158-0.03c0.082,0,0.155,0.02,0.22,0.06
			c0.065,0.039,0.117,0.096,0.154,0.169H47.57z"/>
		<path fill="#FFFFFF" d="M47.827,9.752h0.078v0.272c0.022-0.027,0.051-0.05,0.083-0.063c0.031-0.014,0.067-0.021,0.107-0.021
			c0.087,0,0.149,0.024,0.189,0.074c0.041,0.05,0.061,0.131,0.061,0.242v0.315h-0.078v-0.316c0-0.089-0.014-0.151-0.041-0.188
			c-0.027-0.034-0.072-0.052-0.135-0.052c-0.037,0-0.068,0.007-0.096,0.021s-0.049,0.035-0.064,0.063
			c-0.01,0.017-0.017,0.036-0.021,0.058s-0.006,0.06-0.006,0.112v0.302h-0.078V9.752z"/>
		<path fill="#FFFFFF" d="M48.608,9.879h-0.079V9.752h0.079V9.879z M48.529,10.571V9.952h0.079v0.619H48.529z"/>
		<path fill="#FFFFFF" d="M48.792,9.952h0.077v0.07c0.024-0.028,0.053-0.05,0.085-0.063c0.031-0.014,0.068-0.021,0.11-0.021
			c0.045,0,0.085,0.009,0.121,0.025c0.035,0.017,0.063,0.041,0.084,0.072c0.014,0.022,0.024,0.048,0.03,0.078s0.01,0.074,0.01,0.132
			v0.324h-0.078v-0.347c0-0.073-0.015-0.126-0.042-0.16c-0.028-0.032-0.073-0.049-0.135-0.049c-0.036,0-0.067,0.007-0.095,0.021
			s-0.049,0.035-0.064,0.063c-0.01,0.017-0.017,0.036-0.021,0.058s-0.006,0.06-0.006,0.112v0.302h-0.077V9.952z"/>
		<path fill="#FFFFFF" d="M50.099,10.287h-0.559c0.005,0.067,0.029,0.121,0.073,0.163c0.044,0.041,0.099,0.063,0.165,0.063
			c0.046,0,0.088-0.013,0.125-0.037c0.037-0.023,0.066-0.057,0.086-0.1h0.091c-0.029,0.068-0.069,0.121-0.121,0.157
			s-0.11,0.056-0.179,0.056c-0.09,0-0.166-0.032-0.229-0.097s-0.094-0.142-0.094-0.231c0-0.094,0.03-0.172,0.092-0.233
			s0.139-0.092,0.233-0.092c0.094,0,0.169,0.031,0.228,0.096c0.06,0.064,0.088,0.147,0.088,0.25V10.287z M50.011,10.218
			c-0.015-0.069-0.042-0.121-0.082-0.156c-0.04-0.034-0.093-0.052-0.157-0.052c-0.06,0-0.11,0.019-0.152,0.056
			c-0.042,0.038-0.067,0.089-0.077,0.152H50.011z"/>
		<path fill="#FFFFFF" d="M50.208,10.376h0.081v0.003c0,0.038,0.011,0.07,0.033,0.095c0.022,0.026,0.05,0.039,0.083,0.039
			c0.03,0,0.056-0.01,0.077-0.029c0.021-0.02,0.03-0.044,0.03-0.074c0-0.029-0.008-0.053-0.024-0.071
			c-0.016-0.018-0.046-0.035-0.088-0.051c-0.069-0.024-0.114-0.049-0.135-0.074c-0.021-0.025-0.031-0.061-0.031-0.103
			c0-0.049,0.018-0.09,0.052-0.124c0.035-0.033,0.078-0.05,0.128-0.05c0.053,0,0.095,0.015,0.126,0.045
			c0.031,0.029,0.048,0.071,0.051,0.125h-0.086c-0.002-0.029-0.011-0.051-0.027-0.068c-0.018-0.016-0.039-0.023-0.068-0.023
			c-0.026,0-0.048,0.008-0.064,0.026c-0.018,0.017-0.026,0.039-0.026,0.064c0,0.019,0.003,0.034,0.011,0.047
			c0.007,0.013,0.019,0.023,0.035,0.034c0.016,0.009,0.037,0.018,0.065,0.026c0.029,0.009,0.048,0.016,0.059,0.02
			c0.038,0.017,0.066,0.038,0.085,0.065c0.019,0.028,0.026,0.063,0.026,0.105c0,0.053-0.018,0.097-0.055,0.132
			c-0.038,0.034-0.085,0.053-0.142,0.053c-0.058,0-0.104-0.02-0.14-0.058C50.228,10.492,50.209,10.44,50.208,10.376z"/>
		<path fill="#FFFFFF" d="M51.36,10.287h-0.559c0.004,0.067,0.028,0.121,0.072,0.163c0.044,0.041,0.099,0.063,0.165,0.063
			c0.046,0,0.088-0.013,0.125-0.037c0.037-0.023,0.066-0.057,0.086-0.1h0.09c-0.027,0.068-0.068,0.121-0.119,0.157
			c-0.053,0.036-0.111,0.056-0.18,0.056c-0.09,0-0.166-0.032-0.229-0.097s-0.093-0.142-0.093-0.231c0-0.094,0.03-0.172,0.091-0.233
			s0.139-0.092,0.234-0.092c0.093,0,0.168,0.031,0.228,0.096c0.059,0.064,0.088,0.147,0.088,0.25V10.287z M51.272,10.218
			c-0.016-0.069-0.043-0.121-0.083-0.156c-0.04-0.034-0.092-0.052-0.156-0.052c-0.061,0-0.111,0.019-0.153,0.056
			c-0.042,0.038-0.066,0.089-0.076,0.152H51.272z"/>
	</g>
	<g>
		<rect x="31.438" y="11.282" fill="#FFFFFF" width="1.094" height="0.193"/>
	</g>
	<g>
		<rect x="31.438" y="11.765" fill="#FFFFFF" width="1.094" height="0.193"/>
	</g>
	<g>
		<rect x="32.675" y="11.282" fill="#FFFFFF" width="0.193" height="1.467"/>
	</g>
	<g>
		<rect x="31.888" y="11.351" fill="#FFFFFF" width="0.193" height="1.716"/>
	</g>
	<g>
		<path fill="#FFFFFF" d="M33.042,11.219v1.408c0,0.076,0.008,0.271-0.057,0.36v0.07c0.196-0.032,0.251-0.23,0.251-0.431v-1.408
			H33.042z"/>
	</g>
	<g>
		<path fill="#FFFFFF" d="M33.017,8.884v1.408c0,0.077,0.007,0.271-0.057,0.361v0.068c0.196-0.032,0.25-0.23,0.25-0.43V8.884H33.017
			z"/>
	</g>
	<g>
		<rect x="31.991" y="9.908" fill="#FFFFFF" width="0.692" height="0.143"/>
	</g>
	<g>
		<rect x="31.89" y="9.338" fill="#FFFFFF" width="0.895" height="0.142"/>
	</g>
	<g>
		<rect x="31.89" y="9.604" fill="#FFFFFF" width="0.895" height="0.143"/>
	</g>
	<g>
		<rect x="31.889" y="9.908" fill="#FFFFFF" width="0.171" height="0.506"/>
	</g>
	<g>
		<rect x="32.603" y="9.908" fill="#FFFFFF" width="0.171" height="0.506"/>
	</g>
	<g>
		<rect x="32.24" y="9.215" fill="#FFFFFF" width="0.195" height="0.502"/>
	</g>
	<g>
		<rect x="31.463" y="8.874" fill="#FFFFFF" width="1.747" height="0.193"/>
	</g>
	<g>
		<rect x="32.022" y="10.241" fill="#FFFFFF" width="0.631" height="0.171"/>
	</g>
	<g>
		<rect x="31.463" y="8.876" fill="#FFFFFF" width="0.193" height="1.762"/>
	</g>
	<g>
		<rect x="25.516" y="11.054" fill="#FFFFFF" width="2.85" height="0.569"/>
	</g>
	<g>
		<rect x="23.884" y="7.718" fill="#FFFFFF" width="0.683" height="5.339"/>
	</g>
	<g>
		<rect x="23.884" y="6.603" fill="#FFFFFF" width="0.683" height="0.699"/>
	</g>
	<g>
		<rect x="25.482" y="7.929" fill="#FFFFFF" width="0.688" height="4.225"/>
	</g>
	<g>
		<rect x="27.865" y="7.929" fill="#FFFFFF" width="0.688" height="4.788"/>
	</g>
	<g>
		<rect x="26.019" y="10.032" fill="#FFFFFF" width="2.048" height="0.569"/>
	</g>
	<g>
		<rect x="26.019" y="9.011" fill="#FFFFFF" width="2.048" height="0.568"/>
	</g>
	<g>
		<rect x="25.09" y="7.929" fill="#FFFFFF" width="3.904" height="0.629"/>
	</g>
	<g>
		<rect x="25.055" y="6.603" fill="#FFFFFF" width="5.016" height="0.682"/>
	</g>
	<g>
		<path fill="#FFFFFF" d="M29.521,6.598v4.966c0,0.269,0.024,0.956-0.199,1.271v0.244c0.69-0.112,0.883-0.812,0.883-1.515V6.598
			H29.521z"/>
	</g>
	<g>
		<rect x="19.016" y="10.323" fill="#FFFFFF" width="0.682" height="2.733"/>
	</g>
	<g>
		<rect x="16.069" y="11.042" fill="#FFFFFF" width="6.575" height="0.682"/>
	</g>
	<g>
		<rect x="16.847" y="7.446" fill="#FFFFFF" width="0.683" height="2.928"/>
	</g>
	<g>
		<path fill="#FFFFFF" d="M20.118,10.157h2.543V9.47h-2.404c-0.493,0-0.565-0.219-0.565-0.633V6.603h-0.683v2.477
			C19.008,9.692,19.314,10.157,20.118,10.157"/>
	</g>
	<g>
		<path fill="#FFFFFF" d="M18.094,6.543h-0.756c0,0-0.422,0.812-1.26,1.087v0.699C16.079,8.329,17.574,8.042,18.094,6.543"/>
	</g>
	<g>
		<path fill="#FFFFFF" d="M18.259,8.381l2.527-0.688c0.271-0.073,0.84-0.473,1.023-0.916h0.715c-0.133,0.738-0.764,1.333-1.522,1.54
			l-2.743,0.746V8.381z"/>
	</g>
	<g>
		<rect x="64.245" y="62.805" fill="#FFFFFF" width="3.32" height="0.587"/>
	</g>
	<g>
		<rect x="64.245" y="64.27" fill="#FFFFFF" width="3.32" height="0.587"/>
	</g>
	<g>
		<rect x="68.002" y="62.805" fill="#FFFFFF" width="0.586" height="4.451"/>
	</g>
	<g>
		<rect x="65.612" y="63.014" fill="#FFFFFF" width="0.587" height="5.207"/>
	</g>
	<g>
		<path fill="#FFFFFF" d="M69.118,62.614v4.272c0,0.229,0.021,0.822-0.173,1.097v0.208c0.595-0.098,0.76-0.699,0.76-1.305v-4.272
			H69.118z"/>
	</g>
	<g>
		<path fill="#FFFFFF" d="M69.039,55.527V59.8c0,0.232,0.021,0.824-0.171,1.095v0.21c0.593-0.098,0.759-0.7,0.759-1.305v-4.272
			H69.039z"/>
	</g>
	<g>
		<rect x="65.925" y="58.638" fill="#FFFFFF" width="2.101" height="0.429"/>
	</g>
	<g>
		<rect x="65.619" y="56.903" fill="#FFFFFF" width="2.714" height="0.434"/>
	</g>
	<g>
		<rect x="65.619" y="57.714" fill="#FFFFFF" width="2.714" height="0.434"/>
	</g>
	<g>
		<rect x="65.616" y="58.638" fill="#FFFFFF" width="0.52" height="1.531"/>
	</g>
	<g>
		<rect x="67.782" y="58.638" fill="#FFFFFF" width="0.519" height="1.531"/>
	</g>
	<g>
		<rect x="66.68" y="56.532" fill="#FFFFFF" width="0.591" height="1.521"/>
	</g>
	<g>
		<rect x="64.324" y="55.497" fill="#FFFFFF" width="5.303" height="0.586"/>
	</g>
	<g>
		<rect x="66.018" y="59.648" fill="#FFFFFF" width="1.914" height="0.515"/>
	</g>
	<g>
		<rect x="64.324" y="55.502" fill="#FFFFFF" width="0.588" height="5.344"/>
	</g>
	<g>
		<rect x="46.275" y="62.111" fill="#FFFFFF" width="8.649" height="1.727"/>
	</g>
	<g>
		<rect x="41.323" y="51.988" fill="#FFFFFF" width="2.071" height="16.2"/>
	</g>
	<g>
		<rect x="41.323" y="48.603" fill="#FFFFFF" width="2.071" height="2.125"/>
	</g>
	<g>
		<rect x="46.17" y="52.63" fill="#FFFFFF" width="2.087" height="12.816"/>
	</g>
	<g>
		<rect x="53.402" y="52.63" fill="#FFFFFF" width="2.089" height="14.529"/>
	</g>
	<g>
		<rect x="47.802" y="59.014" fill="#FFFFFF" width="6.213" height="1.725"/>
	</g>
	<g>
		<rect x="47.802" y="55.914" fill="#FFFFFF" width="6.213" height="1.725"/>
	</g>
	<g>
		<rect x="44.984" y="52.63" fill="#FFFFFF" width="11.849" height="1.906"/>
	</g>
	<g>
		<rect x="44.875" y="48.603" fill="#FFFFFF" width="15.224" height="2.07"/>
	</g>
	<g>
		<path fill="#FFFFFF" d="M58.43,48.591v15.07c0,0.812,0.073,2.898-0.606,3.856v0.737c2.096-0.339,2.678-2.463,2.678-4.594v-15.07
			H58.43z"/>
	</g>
	<g>
		<rect x="26.547" y="59.893" fill="#FFFFFF" width="2.071" height="8.296"/>
	</g>
	<g>
		<rect x="17.605" y="62.074" fill="#FFFFFF" width="19.953" height="2.071"/>
	</g>
	<g>
		<rect x="19.966" y="51.162" fill="#FFFFFF" width="2.069" height="8.885"/>
	</g>
	<g>
		<path fill="#FFFFFF" d="M29.892,59.391h7.716v-2.085h-7.295c-1.496,0-1.716-0.666-1.716-1.926v-6.777h-2.072v7.518
			C26.525,57.981,27.454,59.391,29.892,59.391"/>
	</g>
	<g>
		<path fill="#FFFFFF" d="M23.751,48.424h-2.295c0,0-1.279,2.46-3.822,3.296v2.124C17.634,53.844,22.171,52.972,23.751,48.424"/>
	</g>
	<g>
		<path fill="#FFFFFF" d="M24.252,54.001l7.671-2.089c0.819-0.223,2.548-1.434,3.104-2.783h2.169
			c-0.402,2.245-2.315,4.05-4.621,4.676l-8.323,2.267V54.001z"/>
	</g>
	<g>
		<path fill="#626466" d="M16.053,15.727l0.028,0.601H16.01c-0.014-0.106-0.033-0.182-0.057-0.227
			c-0.039-0.073-0.091-0.127-0.156-0.162c-0.064-0.034-0.15-0.052-0.256-0.052h-0.36v1.957c0,0.157,0.017,0.256,0.051,0.295
			c0.048,0.053,0.121,0.079,0.222,0.079h0.088v0.069h-1.086v-0.069h0.091c0.108,0,0.186-0.033,0.23-0.099
			c0.027-0.04,0.041-0.132,0.041-0.275v-1.957H14.51c-0.119,0-0.204,0.009-0.255,0.026c-0.065,0.024-0.121,0.07-0.168,0.138
			c-0.047,0.068-0.074,0.16-0.083,0.276h-0.072l0.03-0.601H16.053z"/>
		<path fill="#626466" d="M16.973,16.914h1.189v-0.732c0-0.131-0.008-0.217-0.023-0.259c-0.014-0.031-0.04-0.059-0.08-0.081
			c-0.055-0.03-0.111-0.046-0.172-0.046h-0.091v-0.069h1.096v0.069h-0.091c-0.061,0-0.118,0.015-0.172,0.044
			c-0.04,0.021-0.067,0.051-0.082,0.092s-0.022,0.124-0.022,0.25v1.652c0,0.13,0.009,0.216,0.025,0.257
			c0.013,0.031,0.038,0.059,0.077,0.081c0.056,0.03,0.113,0.046,0.174,0.046h0.091v0.069h-1.096v-0.069h0.091
			c0.104,0,0.181-0.031,0.229-0.093c0.031-0.041,0.047-0.138,0.047-0.291v-0.78h-1.189v0.78c0,0.13,0.009,0.216,0.024,0.257
			c0.013,0.031,0.039,0.059,0.079,0.081c0.055,0.03,0.111,0.046,0.173,0.046h0.092v0.069h-1.098v-0.069h0.091
			c0.105,0,0.183-0.031,0.23-0.093c0.03-0.041,0.046-0.138,0.046-0.291v-1.652c0-0.131-0.009-0.217-0.025-0.259
			c-0.013-0.031-0.038-0.059-0.077-0.081c-0.055-0.03-0.113-0.046-0.174-0.046h-0.091v-0.069h1.098v0.069H17.25
			c-0.062,0-0.118,0.015-0.173,0.044c-0.039,0.021-0.066,0.051-0.081,0.092s-0.022,0.124-0.022,0.25V16.914z"/>
		<path fill="#626466" d="M19.78,15.866v1.012h0.563c0.146,0,0.244-0.021,0.293-0.065c0.065-0.058,0.102-0.16,0.109-0.307h0.07
			v0.892h-0.07c-0.018-0.125-0.035-0.204-0.053-0.239c-0.022-0.044-0.06-0.079-0.111-0.104c-0.052-0.024-0.132-0.037-0.238-0.037
			H19.78v0.844c0,0.113,0.005,0.183,0.015,0.207s0.027,0.044,0.054,0.059c0.024,0.015,0.072,0.021,0.143,0.021h0.435
			c0.145,0,0.25-0.01,0.315-0.03c0.065-0.02,0.128-0.06,0.188-0.119c0.078-0.078,0.158-0.195,0.24-0.354h0.075l-0.221,0.643H19.05
			v-0.069h0.091c0.061,0,0.117-0.015,0.172-0.044c0.04-0.021,0.067-0.05,0.082-0.091c0.015-0.04,0.021-0.122,0.021-0.247v-1.664
			c0-0.162-0.017-0.263-0.049-0.3c-0.045-0.05-0.12-0.076-0.227-0.076H19.05v-0.069h1.974l0.028,0.561h-0.074
			c-0.025-0.134-0.055-0.227-0.087-0.277s-0.08-0.089-0.143-0.115c-0.051-0.019-0.14-0.028-0.267-0.028H19.78z"/>
		<path fill="#626466" d="M24.629,15.668l0.059,0.87h-0.059c-0.078-0.26-0.189-0.447-0.334-0.563
			c-0.146-0.114-0.319-0.172-0.521-0.172c-0.17,0-0.323,0.043-0.461,0.13c-0.137,0.086-0.245,0.224-0.323,0.412
			c-0.079,0.188-0.119,0.424-0.119,0.704c0,0.232,0.037,0.433,0.112,0.603c0.073,0.171,0.186,0.301,0.335,0.392
			s0.319,0.136,0.511,0.136c0.166,0,0.313-0.035,0.44-0.106s0.267-0.213,0.419-0.424l0.059,0.037
			c-0.129,0.229-0.278,0.395-0.449,0.501c-0.172,0.105-0.375,0.158-0.61,0.158c-0.424,0-0.753-0.157-0.985-0.473
			c-0.174-0.233-0.262-0.51-0.262-0.827c0-0.255,0.058-0.489,0.173-0.703c0.114-0.215,0.271-0.38,0.473-0.498
			s0.42-0.177,0.658-0.177c0.185,0,0.367,0.045,0.547,0.136c0.054,0.028,0.091,0.041,0.114,0.041c0.034,0,0.063-0.012,0.089-0.035
			c0.032-0.034,0.056-0.081,0.07-0.142H24.629z"/>
		<path fill="#626466" d="M25.675,16.914h1.19v-0.732c0-0.131-0.009-0.217-0.024-0.259c-0.013-0.031-0.04-0.059-0.08-0.081
			c-0.054-0.03-0.111-0.046-0.172-0.046H26.5v-0.069h1.095v0.069h-0.091c-0.061,0-0.118,0.015-0.172,0.044
			c-0.04,0.021-0.067,0.051-0.082,0.092c-0.014,0.041-0.021,0.124-0.021,0.25v1.652c0,0.13,0.009,0.216,0.024,0.257
			c0.013,0.031,0.038,0.059,0.078,0.081c0.055,0.03,0.112,0.046,0.173,0.046h0.091v0.069H26.5v-0.069h0.09
			c0.104,0,0.181-0.031,0.229-0.093c0.031-0.041,0.048-0.138,0.048-0.291v-0.78h-1.19v0.78c0,0.13,0.008,0.216,0.025,0.257
			c0.012,0.031,0.038,0.059,0.079,0.081c0.054,0.03,0.111,0.046,0.172,0.046h0.093v0.069h-1.098v-0.069h0.09
			c0.106,0,0.183-0.031,0.23-0.093c0.031-0.041,0.046-0.138,0.046-0.291v-1.652c0-0.131-0.009-0.217-0.024-0.259
			c-0.013-0.031-0.038-0.059-0.077-0.081c-0.056-0.03-0.113-0.046-0.175-0.046h-0.09v-0.069h1.098v0.069h-0.093
			c-0.061,0-0.118,0.015-0.172,0.044c-0.039,0.021-0.066,0.051-0.082,0.092c-0.015,0.041-0.022,0.124-0.022,0.25V16.914z"/>
		<path fill="#626466" d="M28.867,18.218v0.069H27.77v-0.069h0.091c0.105,0,0.182-0.031,0.23-0.093
			c0.03-0.041,0.045-0.138,0.045-0.291V16.18c0-0.13-0.008-0.215-0.024-0.257c-0.013-0.031-0.038-0.059-0.078-0.081
			c-0.055-0.03-0.112-0.046-0.173-0.046H27.77v-0.069h1.097v0.069h-0.093c-0.104,0-0.18,0.031-0.228,0.093
			c-0.031,0.04-0.048,0.138-0.048,0.291v1.654c0,0.13,0.009,0.216,0.024,0.257c0.014,0.031,0.04,0.059,0.08,0.081
			c0.054,0.03,0.111,0.046,0.171,0.046H28.867z"/>
		<path fill="#626466" d="M28.911,15.727h0.694l1.566,1.92V16.17c0-0.157-0.018-0.255-0.053-0.294
			c-0.047-0.053-0.121-0.08-0.222-0.08h-0.089v-0.069H31.7v0.069h-0.091c-0.108,0-0.185,0.033-0.23,0.099
			c-0.027,0.04-0.041,0.132-0.041,0.275v2.159h-0.068l-1.688-2.063v1.577c0,0.157,0.018,0.256,0.052,0.295
			c0.048,0.053,0.121,0.079,0.221,0.079h0.091v0.069h-0.892v-0.069h0.089c0.109,0,0.187-0.033,0.232-0.099
			c0.027-0.04,0.041-0.132,0.041-0.275v-1.781c-0.074-0.087-0.131-0.144-0.169-0.172c-0.038-0.027-0.095-0.054-0.169-0.077
			c-0.036-0.012-0.092-0.018-0.166-0.018V15.727z"/>
		<path fill="#626466" d="M32.563,15.866v1.012h0.563c0.146,0,0.243-0.021,0.293-0.065c0.065-0.058,0.102-0.16,0.109-0.307h0.069
			v0.892h-0.069c-0.019-0.125-0.036-0.204-0.053-0.239c-0.023-0.044-0.061-0.079-0.112-0.104c-0.051-0.024-0.131-0.037-0.237-0.037
			h-0.563v0.844c0,0.113,0.005,0.183,0.016,0.207c0.01,0.024,0.028,0.044,0.053,0.059c0.025,0.015,0.073,0.021,0.144,0.021h0.435
			c0.145,0,0.25-0.01,0.315-0.03c0.064-0.02,0.129-0.06,0.188-0.119c0.078-0.078,0.158-0.195,0.24-0.354h0.075l-0.221,0.643h-1.974
			v-0.069h0.091c0.061,0,0.117-0.015,0.172-0.044c0.04-0.021,0.067-0.05,0.082-0.091c0.015-0.04,0.021-0.122,0.021-0.247v-1.664
			c0-0.162-0.016-0.263-0.05-0.3c-0.044-0.05-0.12-0.076-0.226-0.076h-0.091v-0.069h1.974l0.028,0.561h-0.073
			c-0.027-0.134-0.056-0.227-0.089-0.277c-0.031-0.051-0.079-0.089-0.142-0.115c-0.051-0.019-0.14-0.028-0.267-0.028H32.563z"/>
		<path fill="#626466" d="M35.891,15.668v0.886h-0.07c-0.022-0.17-0.063-0.305-0.122-0.406c-0.058-0.101-0.142-0.181-0.25-0.24
			c-0.108-0.059-0.221-0.089-0.336-0.089c-0.131,0-0.239,0.041-0.325,0.12c-0.085,0.08-0.128,0.172-0.128,0.273
			c0,0.078,0.027,0.149,0.081,0.213c0.078,0.095,0.264,0.221,0.557,0.378c0.239,0.129,0.403,0.228,0.49,0.296
			c0.088,0.068,0.155,0.149,0.202,0.242c0.047,0.094,0.071,0.191,0.071,0.293c0,0.193-0.075,0.361-0.226,0.502
			s-0.345,0.21-0.581,0.21c-0.074,0-0.145-0.006-0.209-0.017c-0.04-0.006-0.121-0.029-0.243-0.069
			c-0.123-0.039-0.201-0.06-0.233-0.06c-0.031,0-0.057,0.01-0.074,0.029c-0.019,0.018-0.032,0.057-0.041,0.116h-0.07v-0.878h0.07
			c0.033,0.184,0.077,0.321,0.132,0.412c0.056,0.092,0.141,0.168,0.254,0.228c0.114,0.061,0.239,0.091,0.375,0.091
			c0.158,0,0.282-0.041,0.373-0.124c0.092-0.084,0.137-0.182,0.137-0.295c0-0.063-0.017-0.127-0.052-0.19
			c-0.034-0.064-0.088-0.124-0.161-0.18c-0.049-0.038-0.183-0.118-0.402-0.24c-0.219-0.123-0.374-0.222-0.467-0.294
			c-0.093-0.073-0.163-0.154-0.211-0.242s-0.071-0.185-0.071-0.29c0-0.185,0.069-0.343,0.211-0.476
			c0.141-0.133,0.32-0.199,0.538-0.199c0.136,0,0.28,0.033,0.433,0.1c0.07,0.031,0.12,0.048,0.149,0.048
			c0.032,0,0.06-0.01,0.08-0.029s0.037-0.059,0.05-0.118H35.891z"/>
		<path fill="#626466" d="M37.077,15.866v1.012h0.563c0.146,0,0.243-0.021,0.292-0.065c0.065-0.058,0.103-0.16,0.109-0.307h0.07
			v0.892h-0.07c-0.018-0.125-0.035-0.204-0.053-0.239c-0.022-0.044-0.06-0.079-0.111-0.104c-0.051-0.024-0.132-0.037-0.237-0.037
			h-0.563v0.844c0,0.113,0.005,0.183,0.016,0.207c0.01,0.024,0.027,0.044,0.053,0.059s0.073,0.021,0.143,0.021h0.436
			c0.145,0,0.249-0.01,0.314-0.03c0.065-0.02,0.129-0.06,0.189-0.119c0.077-0.078,0.158-0.195,0.24-0.354h0.074l-0.221,0.643h-1.973
			v-0.069h0.091c0.06,0,0.117-0.015,0.172-0.044c0.039-0.021,0.067-0.05,0.081-0.091c0.015-0.04,0.022-0.122,0.022-0.247v-1.664
			c0-0.162-0.017-0.263-0.05-0.3c-0.045-0.05-0.12-0.076-0.226-0.076h-0.091v-0.069h1.973l0.028,0.561h-0.073
			c-0.026-0.134-0.056-0.227-0.088-0.277c-0.031-0.051-0.079-0.089-0.143-0.115c-0.051-0.019-0.139-0.028-0.266-0.028H37.077z"/>
		<path fill="#626466" d="M43.149,15.727v0.069c-0.067,0-0.121,0.013-0.163,0.036c-0.041,0.024-0.081,0.069-0.118,0.135
			c-0.025,0.044-0.065,0.148-0.119,0.314l-0.714,2.064h-0.076l-0.583-1.638l-0.58,1.638h-0.068l-0.761-2.127
			c-0.057-0.158-0.093-0.252-0.107-0.281c-0.025-0.048-0.06-0.083-0.104-0.106c-0.043-0.023-0.102-0.035-0.176-0.035v-0.069h0.947
			v0.069h-0.045c-0.066,0-0.117,0.016-0.152,0.046c-0.036,0.03-0.054,0.066-0.054,0.109c0,0.044,0.027,0.146,0.084,0.304
			l0.504,1.438l0.425-1.222l-0.076-0.216l-0.061-0.172c-0.026-0.063-0.056-0.118-0.088-0.166c-0.017-0.024-0.037-0.044-0.061-0.061
			c-0.031-0.022-0.063-0.039-0.095-0.049c-0.023-0.008-0.062-0.012-0.113-0.012v-0.069h0.997v0.069h-0.068
			c-0.069,0-0.122,0.016-0.154,0.046c-0.033,0.03-0.049,0.071-0.049,0.123c0,0.063,0.028,0.176,0.085,0.335l0.49,1.393l0.488-1.411
			c0.056-0.156,0.082-0.264,0.082-0.324c0-0.029-0.009-0.056-0.026-0.081c-0.019-0.025-0.042-0.043-0.069-0.053
			c-0.048-0.018-0.11-0.027-0.188-0.027v-0.069H43.149z"/>
		<path fill="#626466" d="M43.987,15.866v1.012h0.563c0.146,0,0.244-0.021,0.293-0.065c0.064-0.058,0.102-0.16,0.109-0.307h0.069
			v0.892h-0.069c-0.018-0.125-0.036-0.204-0.053-0.239c-0.023-0.044-0.061-0.079-0.112-0.104c-0.051-0.024-0.131-0.037-0.237-0.037
			h-0.563v0.844c0,0.113,0.005,0.183,0.016,0.207s0.027,0.044,0.053,0.059s0.073,0.021,0.144,0.021h0.435
			c0.145,0,0.25-0.01,0.315-0.03c0.065-0.02,0.129-0.06,0.189-0.119c0.077-0.078,0.157-0.195,0.239-0.354h0.075l-0.221,0.643h-1.974
			v-0.069h0.091c0.061,0,0.118-0.015,0.172-0.044c0.04-0.021,0.067-0.05,0.082-0.091c0.014-0.04,0.021-0.122,0.021-0.247v-1.664
			c0-0.162-0.016-0.263-0.049-0.3c-0.045-0.05-0.121-0.076-0.227-0.076h-0.091v-0.069h1.974l0.028,0.561h-0.074
			c-0.026-0.134-0.055-0.227-0.088-0.277c-0.031-0.051-0.079-0.089-0.143-0.115c-0.05-0.019-0.139-0.028-0.266-0.028H43.987z"/>
		<path fill="#626466" d="M46.349,15.866v1.012h0.563c0.146,0,0.244-0.021,0.293-0.065c0.064-0.058,0.102-0.16,0.109-0.307h0.069
			v0.892h-0.069c-0.018-0.125-0.035-0.204-0.053-0.239c-0.023-0.044-0.06-0.079-0.112-0.104c-0.051-0.024-0.131-0.037-0.237-0.037
			h-0.563v0.844c0,0.113,0.005,0.183,0.016,0.207s0.027,0.044,0.053,0.059s0.073,0.021,0.144,0.021h0.435
			c0.145,0,0.25-0.01,0.315-0.03c0.065-0.02,0.129-0.06,0.188-0.119c0.078-0.078,0.158-0.195,0.24-0.354h0.075l-0.221,0.643h-1.974
			v-0.069h0.091c0.061,0,0.118-0.015,0.172-0.044c0.04-0.021,0.067-0.05,0.082-0.091c0.014-0.04,0.021-0.122,0.021-0.247v-1.664
			c0-0.162-0.016-0.263-0.049-0.3c-0.045-0.05-0.121-0.076-0.227-0.076h-0.091v-0.069h1.974l0.028,0.561h-0.074
			c-0.026-0.134-0.055-0.227-0.088-0.277c-0.031-0.051-0.079-0.089-0.143-0.115c-0.05-0.019-0.139-0.028-0.266-0.028H46.349z"/>
		<path fill="#626466" d="M49.06,16.867l0.944,0.938c0.155,0.155,0.287,0.26,0.396,0.316c0.109,0.056,0.219,0.088,0.328,0.096v0.069
			h-1.218v-0.069c0.073,0,0.125-0.013,0.158-0.037c0.032-0.024,0.048-0.052,0.048-0.082s-0.006-0.058-0.019-0.082
			c-0.012-0.023-0.051-0.067-0.117-0.134l-0.884-0.874v0.825c0,0.13,0.008,0.216,0.024,0.257c0.013,0.031,0.038,0.059,0.079,0.081
			c0.054,0.03,0.111,0.046,0.172,0.046h0.087v0.069h-1.092v-0.069h0.091c0.105,0,0.183-0.031,0.23-0.093
			c0.03-0.041,0.045-0.138,0.045-0.291V16.18c0-0.13-0.008-0.216-0.024-0.259c-0.013-0.03-0.038-0.057-0.077-0.079
			c-0.056-0.03-0.113-0.046-0.174-0.046h-0.091v-0.069h1.092v0.069h-0.087c-0.06,0-0.116,0.015-0.172,0.044
			c-0.039,0.021-0.065,0.05-0.081,0.091c-0.016,0.04-0.022,0.123-0.022,0.249v0.784c0.024-0.024,0.11-0.104,0.259-0.24
			c0.374-0.343,0.6-0.57,0.678-0.686c0.034-0.051,0.051-0.095,0.051-0.132c0-0.029-0.014-0.056-0.04-0.077s-0.07-0.033-0.134-0.033
			h-0.059v-0.069h0.94v0.069c-0.056,0.002-0.105,0.01-0.151,0.022c-0.045,0.015-0.101,0.041-0.165,0.081
			c-0.066,0.039-0.146,0.104-0.242,0.191c-0.028,0.024-0.156,0.154-0.384,0.388L49.06,16.867z"/>
		<path fill="#626466" d="M52.915,17.579l0.063,0.013l-0.22,0.695h-1.982v-0.069h0.096c0.108,0,0.186-0.035,0.232-0.106
			c0.026-0.04,0.04-0.133,0.04-0.279V16.18c0-0.16-0.018-0.26-0.053-0.3c-0.05-0.056-0.122-0.084-0.22-0.084h-0.096v-0.069h1.16
			v0.069c-0.137-0.001-0.231,0.012-0.287,0.038c-0.055,0.026-0.092,0.06-0.112,0.1c-0.02,0.04-0.03,0.138-0.03,0.289v1.609
			c0,0.104,0.011,0.177,0.03,0.216c0.016,0.026,0.038,0.046,0.07,0.058c0.031,0.014,0.13,0.02,0.294,0.02h0.188
			c0.196,0,0.334-0.015,0.413-0.044c0.08-0.028,0.152-0.08,0.218-0.154C52.784,17.854,52.849,17.737,52.915,17.579z"/>
		<path fill="#626466" d="M54.52,15.727h0.893v0.069h-0.049c-0.032,0-0.08,0.015-0.144,0.044c-0.063,0.029-0.12,0.07-0.172,0.125
			c-0.051,0.054-0.115,0.142-0.19,0.264l-0.617,0.973v0.643c0,0.157,0.018,0.256,0.052,0.295c0.049,0.053,0.124,0.079,0.228,0.079
			h0.083v0.069h-1.088v-0.069h0.091c0.108,0,0.185-0.033,0.23-0.099c0.027-0.04,0.041-0.132,0.041-0.275v-0.606l-0.702-1.072
			c-0.083-0.127-0.14-0.205-0.169-0.237c-0.029-0.031-0.092-0.068-0.185-0.112c-0.024-0.013-0.062-0.02-0.109-0.02v-0.069h1.096
			v0.069h-0.057c-0.06,0-0.113,0.015-0.163,0.042s-0.075,0.069-0.075,0.125c0,0.045,0.039,0.127,0.115,0.245l0.534,0.825
			l0.502-0.789c0.076-0.119,0.114-0.207,0.114-0.265c0-0.035-0.01-0.066-0.027-0.095c-0.019-0.027-0.044-0.05-0.078-0.065
			s-0.086-0.023-0.153-0.023V15.727z"/>
	</g>
	<g>
		<rect x="35.27" y="6.544" fill="#FFFFFF" width="0.063" height="6.741"/>
	</g>
	<g>
		<circle fill="#626466" cx="17.215" cy="25.65" r="3.934"/>
	</g>
	<g>
		<circle fill="#626466" cx="28.183" cy="25.65" r="3.934"/>
	</g>
	<g>
		<circle fill="#626466" cx="39.152" cy="25.65" r="3.934"/>
	</g>
	<g>
		<circle fill="#626466" cx="50.12" cy="25.65" r="3.933"/>
	</g>
	<g>
		<g>
			<path fill="#626466" d="M65.237,14.031c-2.336,0-4.229-1.894-4.229-4.229c0-2.336,1.894-4.229,4.229-4.229
				c2.335,0,4.228,1.894,4.228,4.229C69.464,12.138,67.572,14.031,65.237,14.031 M65.237,5.269c-2.504,0-4.534,2.03-4.534,4.534
				s2.03,4.534,4.534,4.534c2.503,0,4.533-2.03,4.533-4.534S67.74,5.269,65.237,5.269"/>
		</g>
		<g>
			<path fill="#626466" d="M64.037,7.784c0-0.107,0.087-0.194,0.194-0.194c0.106,0,0.193,0.087,0.193,0.194
				c0,0.106-0.087,0.193-0.193,0.193C64.124,7.978,64.037,7.891,64.037,7.784 M64.562,7.784c0-0.183-0.148-0.331-0.331-0.331
				s-0.332,0.148-0.332,0.331s0.149,0.331,0.332,0.331S64.562,7.967,64.562,7.784"/>
		</g>
		<g>
			<path fill="#626466" d="M66.364,10.966l1.201-1.597c0.002-0.003,0.002-0.006,0.004-0.008c0.033-0.051,0.054-0.112,0.054-0.178
				c0-0.184-0.149-0.331-0.332-0.331S66.959,9,66.959,9.184c0,0.159,0.113,0.294,0.265,0.324l0.054,0.016l-0.075,0.1
				c-0.205-0.041-0.36-0.223-0.36-0.439c0-0.247,0.201-0.449,0.448-0.449s0.449,0.202,0.449,0.449c0,0.097-0.032,0.187-0.085,0.261
				h0.001c-0.001,0-0.002,0.002-0.002,0.002l-1.215,1.617L66.364,10.966z M66.118,11.718l0.015-0.019
				c0.035-0.044,0.089-0.072,0.148-0.072c0.107,0,0.194,0.087,0.194,0.194c0,0.106-0.087,0.193-0.194,0.193
				c-0.106,0-0.194-0.087-0.194-0.193C66.086,11.782,66.098,11.748,66.118,11.718 M66.281,12.27c-0.247,0-0.448-0.201-0.448-0.448
				c0-0.107,0.038-0.207,0.103-0.285l0,0l0.186-0.246l0.074,0.098l-0.167,0.221l0,0c-0.003,0.004-0.006,0.008-0.009,0.012L66,11.646
				c-0.001,0.002-0.001,0.004-0.002,0.006c-0.03,0.049-0.048,0.107-0.048,0.17c0,0.183,0.148,0.331,0.331,0.331
				s0.332-0.148,0.332-0.331c0-0.075-0.025-0.145-0.067-0.199c-0.001-0.002-0.001-0.003-0.002-0.004l-1.206-1.581l0.071-0.096
				l1.216,1.591c0,0.001,0.002,0.002,0.002,0.002l0,0c0.064,0.078,0.103,0.179,0.103,0.287C66.729,12.068,66.529,12.27,66.281,12.27
				 M65.427,9.264c-0.001,0.002-0.003,0.002-0.003,0.004l-0.051,0.065c-0.033,0.027-0.075,0.044-0.122,0.044
				c-0.106,0-0.194-0.087-0.194-0.193c0-0.107,0.088-0.194,0.194-0.194c0.107,0,0.194,0.087,0.194,0.194
				C65.446,9.213,65.439,9.239,65.427,9.264 M64.313,10.969l1.207-1.598l0.003,0.002c0.038-0.054,0.06-0.119,0.06-0.189
				c0-0.184-0.147-0.331-0.331-0.331c-0.183,0-0.331,0.147-0.331,0.331c0,0.054,0.013,0.105,0.037,0.151
				c0.002,0.012,0.005,0.023,0.014,0.033l0.188,0.248l-0.071,0.095l-0.182-0.239l0.002-0.001c-0.065-0.078-0.105-0.178-0.105-0.287
				c0-0.247,0.202-0.449,0.448-0.449c0.248,0,0.449,0.202,0.449,0.449c0,0.095-0.031,0.183-0.082,0.256
				c-0.002,0.002-0.004,0.003-0.006,0.005l-1.226,1.62L64.313,10.969z M64.231,11.627c0.106,0,0.193,0.087,0.193,0.194
				c0,0.106-0.087,0.193-0.193,0.193c-0.107,0-0.194-0.087-0.194-0.193C64.037,11.714,64.124,11.627,64.231,11.627 M64.231,12.27
				c-0.248,0-0.449-0.201-0.449-0.448c0-0.104,0.036-0.199,0.096-0.276l0.191-0.252l0.073,0.096l-0.173,0.229
				c-0.001,0.001-0.001,0.003-0.002,0.004c-0.043,0.055-0.068,0.124-0.068,0.199c0,0.183,0.149,0.331,0.332,0.331
				s0.331-0.148,0.331-0.331c0-0.07-0.022-0.135-0.06-0.188c-0.001-0.002-0.001-0.004-0.002-0.005l-1.67-2.171
				c-0.001,0-0.002-0.001-0.003-0.002h0.001c-0.059-0.076-0.093-0.17-0.093-0.271c0-0.247,0.202-0.449,0.449-0.449
				c0.246,0,0.447,0.202,0.447,0.449c0,0.215-0.152,0.396-0.354,0.438l-0.077-0.101l0.045-0.013
				c0.154-0.029,0.271-0.164,0.271-0.325c0-0.184-0.149-0.331-0.331-0.331c-0.184,0-0.332,0.147-0.332,0.331
				c0,0.067,0.022,0.132,0.058,0.185c0.002,0.001,0.002,0.003,0.003,0.005l0.006,0.007c0,0,0,0.002,0.001,0.002h0.001l1.642,2.137
				l-0.001,0.002c0.072,0.079,0.117,0.185,0.117,0.301C64.679,12.068,64.478,12.27,64.231,12.27 M63.25,9.364
				c-0.001,0-0.002,0-0.003,0.001l-0.03,0.009c-0.011,0.002-0.021,0.003-0.032,0.003c-0.064,0-0.121-0.031-0.156-0.08L63.022,9.29
				c-0.02-0.03-0.032-0.067-0.032-0.106c0-0.107,0.088-0.194,0.195-0.194c0.106,0,0.193,0.087,0.193,0.194
				C63.378,9.267,63.325,9.338,63.25,9.364 M64.15,8.363c0.027,0.004,0.054,0.007,0.081,0.007c0.026,0,0.053-0.003,0.08-0.007v2.38
				l-0.085,0.112l-0.076-0.1V8.363z M63.782,7.784c0-0.248,0.201-0.449,0.449-0.449c0.247,0,0.448,0.201,0.448,0.449
				c0,0.196-0.127,0.362-0.303,0.423c-0.013,0-0.024,0.005-0.034,0.011c-0.036,0.01-0.073,0.015-0.111,0.015
				C63.983,8.232,63.782,8.031,63.782,7.784 M66.202,8.363c0.025,0.004,0.053,0.007,0.079,0.007c0.028,0,0.055-0.003,0.081-0.007
				v2.378l-0.084,0.111l-0.076-0.101V8.363z M65.833,7.784c0-0.248,0.201-0.449,0.448-0.449c0.248,0,0.448,0.201,0.448,0.449
				c0,0.247-0.2,0.448-0.448,0.448C66.034,8.232,65.833,8.031,65.833,7.784 M67.291,9.377c-0.013,0-0.024-0.001-0.036-0.004
				l-0.021-0.005c-0.079-0.025-0.137-0.098-0.137-0.185c0-0.107,0.086-0.194,0.193-0.194c0.106,0,0.193,0.087,0.193,0.194
				C67.484,9.29,67.397,9.377,67.291,9.377 M68.016,9.592l-0.248-0.071c0.067-0.096,0.108-0.211,0.108-0.337
				c0-0.323-0.264-0.587-0.586-0.587c-0.323,0-0.586,0.264-0.586,0.587c0,0.259,0.168,0.477,0.4,0.555
				c0.004,0.001,0.006,0.001,0.009,0.003l-0.615,0.817v-2.23c0.216-0.087,0.369-0.298,0.369-0.544c0-0.322-0.264-0.586-0.587-0.586
				s-0.586,0.264-0.586,0.586c0,0.246,0.153,0.457,0.369,0.544v2.244l-0.569-0.744l0.191-0.253c0.095-0.104,0.152-0.241,0.152-0.392
				c0-0.323-0.265-0.587-0.587-0.587c-0.323,0-0.586,0.264-0.586,0.587c0,0.117,0.035,0.226,0.095,0.317
				c0.003,0.004,0.003,0.009,0.007,0.014l0.236,0.311l-0.556,0.735V8.328c0.216-0.087,0.368-0.298,0.368-0.544
				c0-0.322-0.263-0.586-0.585-0.586c-0.323,0-0.586,0.264-0.586,0.586c0,0.246,0.152,0.457,0.368,0.544v2.249l-0.646-0.839
				c0.233-0.076,0.402-0.296,0.402-0.555c0-0.323-0.263-0.587-0.585-0.587c-0.323,0-0.586,0.264-0.586,0.587
				c0,0.126,0.04,0.241,0.107,0.336l-0.249,0.072C62.42,9.601,62.399,9.64,62.41,9.676c0.009,0.03,0.036,0.05,0.066,0.05
				c0.006,0,0.012,0,0.018-0.002l0.303-0.086l0.074,0.099l-0.323,0.091c-0.036,0.01-0.058,0.048-0.047,0.085
				c0.008,0.03,0.035,0.051,0.065,0.051c0.006,0,0.013-0.001,0.019-0.003l0.377-0.106l1.021,1.325l-0.213,0.284
				c0,0,0,0.001-0.002,0.002c-0.076,0.099-0.122,0.222-0.122,0.356c0,0.323,0.263,0.586,0.586,0.586
				c0.322,0,0.585-0.263,0.585-0.586c0-0.131-0.043-0.252-0.115-0.349c0,0-0.001-0.002-0.002-0.002l-0.225-0.293l0.561-0.74v1.855
				c0,0.035,0.03,0.064,0.068,0.064s0.068-0.029,0.068-0.064v-2.037l0.08-0.105l0.08,0.106v2.036c0,0.035,0.031,0.064,0.069,0.064
				s0.068-0.029,0.068-0.064v-1.856l0.564,0.74l-0.215,0.284c-0.001,0.001-0.001,0.002-0.001,0.003
				c-0.077,0.099-0.123,0.223-0.123,0.357c0,0.323,0.263,0.586,0.586,0.586s0.587-0.263,0.587-0.586c0-0.14-0.05-0.269-0.133-0.369
				c0-0.001-0.001-0.002-0.001-0.004l-0.209-0.271l0.993-1.321l0.37,0.104c0.006,0.002,0.012,0.003,0.019,0.003
				c0.03,0,0.058-0.021,0.066-0.051c0.01-0.037-0.011-0.075-0.048-0.085l-0.318-0.09l0.074-0.099l0.297,0.085
				c0.007,0.002,0.013,0.002,0.02,0.002c0.029,0,0.057-0.02,0.065-0.05C68.073,9.64,68.052,9.601,68.016,9.592"/>
		</g>
		<g>
			<path fill="#626466" d="M66.086,7.784c0-0.107,0.088-0.194,0.194-0.194c0.107,0,0.194,0.087,0.194,0.194
				c0,0.106-0.087,0.193-0.194,0.193C66.174,7.978,66.086,7.891,66.086,7.784 M66.613,7.784c0-0.183-0.149-0.331-0.332-0.331
				S65.95,7.602,65.95,7.784s0.148,0.331,0.331,0.331S66.613,7.967,66.613,7.784"/>
		</g>
	</g>
	<g>
		<rect x="60.703" y="15.794" fill="#626466" width="16.896" height="0.895"/>
	</g>
	<g>
		<rect x="60.703" y="17.841" fill="#626466" width="16.896" height="0.894"/>
	</g>
	<g>
		<rect x="60.703" y="19.887" fill="#626466" width="16.896" height="0.895"/>
	</g>
	<g>
		<rect x="60.703" y="21.934" fill="#626466" width="16.896" height="0.894"/>
	</g>
	<g>
		<rect x="60.703" y="23.979" fill="#626466" width="16.896" height="0.894"/>
	</g>
	<g>
		<rect x="60.703" y="26.025" fill="#626466" width="16.896" height="0.895"/>
	</g>
	<g>
		<rect x="60.703" y="28.072" fill="#626466" width="16.896" height="0.894"/>
	</g>
	<g>
		<rect x="71.355" y="7.148" fill="#626466" width="6.243" height="0.895"/>
	</g>
	<g>
		<rect x="71.355" y="9.194" fill="#626466" width="6.243" height="0.895"/>
	</g>
	<g>
		<rect x="71.355" y="11.241" fill="#626466" width="6.243" height="0.895"/>
	</g>
	<g>
		
			<rect x="70.105" y="3.482" transform="matrix(0.7716 0.6361 -0.6361 0.7716 19.8024 -47.1649)" fill="#626466" width="10.949" height="1.021"/>
	</g>
	<g>
		
			<line fill="none" stroke="#FFFFFF" stroke-width="0.25" stroke-miterlimit="10" x1="71.099" y1="37.731" x2="68.443" y2="40.388"/>
		
			<line fill="none" stroke="#FFFFFF" stroke-width="0.25" stroke-miterlimit="10" x1="71.099" y1="38.845" x2="68.443" y2="41.501"/>
		
			<line fill="none" stroke="#FFFFFF" stroke-width="0.25" stroke-miterlimit="10" x1="71.099" y1="39.958" x2="68.443" y2="42.614"/>
		
			<line fill="none" stroke="#FFFFFF" stroke-width="0.25" stroke-miterlimit="10" x1="71.099" y1="41.071" x2="68.443" y2="43.728"/>
		<line fill="none" stroke="#FFFFFF" stroke-width="0.25" stroke-miterlimit="10" x1="71.099" y1="42.184" x2="68.443" y2="44.84"/>
		
			<line fill="none" stroke="#FFFFFF" stroke-width="0.25" stroke-miterlimit="10" x1="71.099" y1="43.297" x2="68.443" y2="45.954"/>
		<line fill="none" stroke="#FFFFFF" stroke-width="0.25" stroke-miterlimit="10" x1="71.099" y1="44.41" x2="68.443" y2="47.066"/>
	</g>
	<g>
		<line fill="none" stroke="#FFFFFF" stroke-width="0.25" stroke-miterlimit="10" x1="20.336" y1="73.57" x2="17.681" y2="76.227"/>
		<line fill="none" stroke="#FFFFFF" stroke-width="0.25" stroke-miterlimit="10" x1="20.336" y1="74.684" x2="17.681" y2="77.34"/>
		
			<line fill="none" stroke="#FFFFFF" stroke-width="0.25" stroke-miterlimit="10" x1="20.336" y1="75.796" x2="17.681" y2="78.452"/>
		
			<line fill="none" stroke="#FFFFFF" stroke-width="0.25" stroke-miterlimit="10" x1="20.336" y1="76.908" x2="17.681" y2="79.565"/>
		<line fill="none" stroke="#FFFFFF" stroke-width="0.25" stroke-miterlimit="10" x1="20.336" y1="78.021" x2="17.68" y2="80.678"/>
		<line fill="none" stroke="#FFFFFF" stroke-width="0.25" stroke-miterlimit="10" x1="20.336" y1="79.135" x2="17.68" y2="81.792"/>
		<line fill="none" stroke="#FFFFFF" stroke-width="0.25" stroke-miterlimit="10" x1="20.336" y1="80.248" x2="17.68" y2="82.905"/>
	</g>
</g>
</svg>
