<?xml version="1.0" encoding="utf-8"?>
<!-- Generator: Adobe Illustrator 15.0.0, SVG Export Plug-In . SVG Version: 6.00 Build 0)  -->
<!DOCTYPE svg PUBLIC "-//W3C//DTD SVG 1.1//EN" "http://www.w3.org/Graphics/SVG/1.1/DTD/svg11.dtd">
<svg version="1.1" id="Layer_1" xmlns="http://www.w3.org/2000/svg" xmlns:xlink="http://www.w3.org/1999/xlink" x="0px" y="0px"
	 width="1533.543px" height="1533.544px" viewBox="83.622 83.622 1533.543 1533.544"
	 enable-background="new 83.622 83.622 1533.543 1533.544" xml:space="preserve">
<g>
	<path d="M307.485,832.857c-60.03,31.785-102.034,73.882-131.183,114.542c3.104,5.729,53.77,98.477,127.111,192.303
		c57.336-83.688,139.703-122.754,139.703-122.754L307.485,832.857z"/>
	<path d="M1084.677,1392.384H628.97c-22.091,0-40,17.908-40,40s17.909,40,40,40h455.707c22.093,0,40-17.908,40-40
		S1106.77,1392.384,1084.677,1392.384z"/>
	<path d="M416.987,1152.736l-23.538-32.822c-14.538,14.299-27.552,29.346-38.971,45.1c-1.675,2.313-3.311,4.641-4.918,6.98
		l24.949,34.705C386.179,1187.671,400.342,1169.669,416.987,1152.736z"/>
	<path d="M435.318,1135.398c20.21-17.813,43.382-34.33,69.521-49.49l-20.068-34.604c-26.981,15.65-51.296,32.867-72.812,51.521
		L435.318,1135.398z"/>
	<path d="M284.376,789.284l-18.354-35.541c-25.818,13.333-49.767,28.578-71.715,45.583l23.267,32.442
		C237.839,816,260.11,801.815,284.376,789.284z"/>
	<path d="M1320.188,1113.667l-23.462,32.719c16.971,16.383,31.55,33.799,43.723,52.215l24.67-34.314
		C1352.146,1146.488,1337.142,1129.589,1320.188,1113.667z"/>
	<path d="M822.861,960.871v239.598c-28.262,10.799-48.391,38.154-48.391,70.133c0,11.293,2.524,22.002,7.016,31.617h-81.018
		c-22.091,0-40,17.908-40,40s17.909,40,40,40h298.385c22.092,0,40-17.908,40-40s-17.908-40-40-40h-81.154
		c4.483-9.615,7.006-20.324,7.006-31.617c0-29.469-17.075-55.014-41.844-67.293v-243.09c64.914-7.344,125.021-36.172,171.899-83.041
		c48.478-48.464,77.664-111.078,83.75-178.536c30.943-7.74,53.937-35.779,53.937-69.101c0-39.274-31.939-71.228-71.198-71.228
		c-39.26,0-71.199,31.953-71.199,71.228c0,31.312,20.309,57.948,48.433,67.473c-11.467,115.237-101.502,207.689-215.62,222.884
		v-56.703c82.98-3.982,149.042-72.523,149.042-156.519V432.213c0-43.088-36.808-101.585-65.042-129.909v174.229
		c0,20.781-12.975,37.746-28.999,37.746c-16.026,0-9.568,2.523-9.568-18.346V284.958c-15.674-5.724-32.463-8.981-50.073-9.333
		v220.31c0,20.869-12.974,37.746-29,37.746c-16.025,0-28.999-16.877-28.999-37.746v-220.31c-17.552,0.352-34.398,3.61-50.072,9.333
		v210.977c0,20.869,6.486,18.346-9.568,18.346s-29.028-16.965-29.028-37.746v-174.23c-28.147,28.324-65.042,86.821-65.042,129.909
		v274.463c0,86.438,69.958,156.509,156.353,156.701v57.283c-116.975-12.531-210.08-106.013-221.976-223.148
		c28.877-9.078,49.885-36.113,49.885-67.971c0-39.275-31.927-71.229-71.17-71.229c-39.274,0-71.229,31.953-71.229,71.229
		c0,32.759,22.237,60.406,52.404,68.685c6.002,67.621,35.208,130.393,83.781,178.954
		C692.968,925.572,755.491,954.736,822.861,960.871z M1121.249,608.313c11.688,0,21.198,9.523,21.198,21.229
		s-9.51,21.229-21.198,21.229s-21.199-9.523-21.199-21.229S1109.561,608.313,1121.249,608.313z M849.632,1245.529
		c13.826,0,25.073,11.248,25.073,25.072s-11.247,25.072-25.073,25.072c-13.874,0-25.161-11.248-25.161-25.072
		S835.758,1245.529,849.632,1245.529z M579.601,650.769c-11.706,0-21.229-9.522-21.229-21.228s9.522-21.229,21.229-21.229
		c11.674,0,21.169,9.523,21.169,21.229S591.274,650.769,579.601,650.769z"/>
	<path d="M1518.704,793.923c-19.983-14.841-41.54-28.276-64.595-40.181l-18.353,35.542c21.457,11.079,41.354,23.455,59.688,37.073
		L1518.704,793.923z"/>
	<path d="M1235.362,1051.304l-20.068,34.604c23.258,13.49,44.163,28.061,62.731,43.658l23.326-32.531
		C1281.558,1080.595,1259.528,1065.322,1235.362,1051.304z"/>
	<path d="M850.392,83.622c-423.476,0-766.771,343.295-766.771,766.771c0,423.478,343.295,766.773,766.771,766.773
		c423.478,0,766.771-343.295,766.771-766.773C1617.163,426.917,1273.868,83.622,850.392,83.622z M1430.843,1162.181
		c5.487,9.598,10.597,19.691,15.204,30.287c-8.208,14.26-16.925,28.23-26.126,41.852c-3.421,5.063-6.92,10.08-10.479,15.059
		c-7.381-21.834-17.232-42.859-29.486-62.9l-25.57,35.568c10.896,20.621,19.016,42.371,24.313,65.217
		c0.12,0.518,0.222,1.021,0.338,1.535c-12.209,14.705-25.027,28.908-38.395,42.535c-2.007-8.416-4.492-16.826-7.476-25.229
		c-14.265-40.174-39.669-79.973-75.508-118.295c-41.412-44.279-86.765-76.041-111.808-91.977l295.998-412.223
		c18.127,8.825,51.104,26.191,85.606,50.83c4.365,25.728,7.263,51.771,8.681,78.075l-21.078,29.396
		c7.653,6.48,14.976,13.222,21.999,20.193c-0.391,23.566-1.957,46.941-4.69,70.088c-28.394-35.762-67.141-71.5-119.717-99.334
		l-135.604,184.09c0,0,82.359,39.064,139.688,122.744c48.235-61.695,86.646-122.92,108.182-159.244
		c-5.138,26.834-11.884,53.309-20.226,79.355C1484.037,1091.091,1458.994,1126.707,1430.843,1162.181z M337.608,1307.232
		c0.892-5.838,2.006-11.865,3.395-18.059c4.537-20.244,11.289-39.633,20.208-58.145l-25.985-36.148
		c-13.229,23.186-23.31,47.623-30.143,73.051c-8.417-10.971-16.499-22.184-24.22-33.611c-4.96-7.344-9.773-14.789-14.448-22.324
		c6.331-17.885,14.125-34.48,22.888-49.803c-46.388-58.471-84.35-117.324-108.11-156.545
		c-9.329-40.369-14.958-81.613-16.847-123.502c10.477-12.094,21.79-23.557,33.954-34.356l-23.346-32.554
		c-3.692,3.22-7.313,6.5-10.876,9.828c0.894-24.91,3.118-49.598,6.644-74.015c41.865-33.518,85.634-56.751,107.594-67.44
		l296,412.224c-25.044,15.936-70.397,47.697-111.814,91.977c-35.843,38.32-61.253,78.119-75.524,118.291
		c-4.866,13.699-8.429,27.424-10.701,41.146c-3.878-3.701-7.715-7.445-11.502-11.232
		C355.45,1326.695,346.393,1317.087,337.608,1307.232z M1117.689,1483.228c-84.616,35.789-174.55,53.938-267.299,53.938
		s-182.681-18.146-267.298-53.938c-40.677-17.205-79.916-38.504-116.627-63.305c-18.321-12.377-36.09-25.684-53.189-39.811
		c0.919-54.646,26.922-109.674,77.805-164.305c55.589-59.686,121.109-96.154,121.753-96.512l19.767-10.867L291.855,633.886
		l-14.703,6.192c-1.865,0.786-45.312,19.237-95.538,53.262c8.792-37.575,20.777-74.389,35.943-110.245
		c17.205-40.677,38.504-79.916,63.305-116.626c24.581-36.383,52.811-70.599,83.91-101.696
		c31.098-31.097,65.313-59.328,101.695-83.908c36.711-24.802,75.95-46.101,116.627-63.306
		c84.617-35.79,174.549-53.937,267.298-53.937s182.682,18.147,267.298,53.937c40.678,17.205,79.916,38.504,116.627,63.306
		c36.384,24.58,70.6,52.811,101.696,83.908c31.098,31.097,59.328,65.313,83.908,101.696c24.802,36.711,46.101,75.95,63.306,116.626
		c13.16,31.114,23.927,62.949,32.29,95.376c-39.815-24.515-70.934-37.73-72.505-38.393l-14.703-6.193l-327.592,456.222
		l-13.128,18.305l19.728,10.881c0.654,0.361,66.175,36.832,121.757,96.516c45.993,49.391,71.654,99.104,76.824,148.564
		c-22.633,20.068-46.596,38.67-71.581,55.551C1197.605,1444.724,1158.366,1466.023,1117.689,1483.228z"/>
</g>
</svg>
