<?xml version="1.0" encoding="utf-8"?>
<!-- Generator: Adobe Illustrator 15.0.0, SVG Export Plug-In . SVG Version: 6.00 Build 0)  -->
<!DOCTYPE svg PUBLIC "-//W3C//DTD SVG 1.1//EN" "http://www.w3.org/Graphics/SVG/1.1/DTD/svg11.dtd">
<svg version="1.1" id="Layer_1" xmlns="http://www.w3.org/2000/svg" xmlns:xlink="http://www.w3.org/1999/xlink" x="0px" y="0px"
	 width="90.709px" height="90.709px" viewBox="0 0 90.709 90.709" enable-background="new 0 0 90.709 90.709" xml:space="preserve">
<g>
	<g>
		<g>
			<path fill="#626466" d="M44.095,72.814c-0.001,0-0.001,0-0.002,0c-6.574,0-12.987-2.98-17.595-8.174
				c-8.062-9.086-11.481-23.615-9.149-38.867c1.774-11.636,7.868-18.711,12.667-22.598C32.474,1.188,35.504,0,38.123,0
				c3.295,0,5.717,1.839,6.819,5.18c0.023,0.051,1.069,2.655-0.106,6.396c-0.374,1.188-1.365,4.345-0.814,5.261
				c0.055,0.092,0.139,0.183,0.375,0.227c0.974,0.18,2.292-1.853,3.484-3.632c1.188-1.771,2.417-3.604,3.931-4.718
				c1.467-1.08,3.145-1.651,4.851-1.651c4.741,0,9.034,4.268,11.78,11.706c4.511,12.224,4.518,30.577-5.638,44.025
				C57.925,69.255,51.28,72.814,44.095,72.814z M38.123,1.694c-2.21,0-4.907,1.073-7.04,2.799
				C26.516,8.191,20.716,14.93,19.024,26.029c-2.257,14.76,1.011,28.773,8.742,37.486c4.286,4.832,10.237,7.604,16.328,7.604
				c0,0,0.001,0,0.001,0c6.641,0,12.805-3.32,17.356-9.349c9.77-12.938,9.752-30.626,5.401-42.417
				C64.367,12.62,60.652,8.757,56.662,8.757c-1.342,0-2.672,0.457-3.847,1.32c-1.275,0.939-2.42,2.646-3.527,4.298
				c-1.581,2.357-2.947,4.394-4.775,4.394c-0.142,0-0.284-0.013-0.427-0.039c-0.667-0.124-1.191-0.477-1.518-1.021
				c-0.785-1.306-0.334-3.51,0.65-6.642c0.994-3.16,0.145-5.277,0.136-5.299C42.453,3.046,40.7,1.694,38.123,1.694z"/>
		</g>
	</g>
	<g>
		<path fill="#626466" d="M54.456,90.709H33.01c-0.837,0-1.516-0.679-1.516-1.516s0.678-1.516,1.516-1.516h21.446
			c0.837,0,1.515,0.679,1.515,1.516S55.293,90.709,54.456,90.709z"/>
	</g>
	<g>
		<path fill="#626466" d="M48.903,36.138v8.182c0,0.979-0.611,1.772-1.364,1.772c-0.752,0-0.449,0.12-0.449-0.859v-9.91
			c-0.737-0.267-1.526-0.421-2.351-0.437v10.347c0,0.979-0.611,1.773-1.363,1.773c-0.753,0-1.363-0.794-1.363-1.773V34.886
			c-0.824,0.016-1.614,0.17-2.351,0.437v9.91c0,0.979,0.303,0.859-0.45,0.859c-0.752,0-1.363-0.793-1.363-1.772v-8.182
			c-1.323,1.33-3.055,4.078-3.055,6.101V55.13c0,4.066,3.295,7.36,7.36,7.36h2.443c4.066,0,7.361-3.294,7.361-7.36V42.238
			C51.958,40.215,50.226,37.467,48.903,36.138z"/>
	</g>
	<g>
		<path fill="#626466" d="M43.397,66.956c-7.417,0-13.451-6.034-13.451-13.452h1.515c0,6.582,5.354,11.937,11.936,11.937
			s11.937-5.354,11.937-11.937h1.516C56.849,60.922,50.814,66.956,43.397,66.956z"/>
	</g>
	<g>
		<path fill="#626466" d="M30.701,54.697c-1.767,0-3.204-1.437-3.204-3.203c0-1.766,1.437-3.202,3.204-3.202
			c1.765,0,3.201,1.437,3.201,3.202C33.901,53.261,32.465,54.697,30.701,54.697z M30.701,50.353c-0.631,0-1.144,0.512-1.144,1.142
			c0,0.631,0.513,1.143,1.144,1.143c0.629,0,1.141-0.512,1.141-1.143C31.841,50.864,31.33,50.353,30.701,50.353z"/>
	</g>
	<g>
		<path fill="#626466" d="M56.165,54.697c-1.766,0-3.203-1.437-3.203-3.203c0-1.766,1.438-3.202,3.203-3.202
			c1.765,0,3.201,1.437,3.201,3.202C59.366,53.261,57.93,54.697,56.165,54.697z M56.165,50.353c-0.63,0-1.143,0.512-1.143,1.142
			c0,0.631,0.513,1.143,1.143,1.143c0.629,0,1.141-0.512,1.141-1.143C57.306,50.864,56.794,50.353,56.165,50.353z"/>
	</g>
	<g>
		<path fill="#626466" d="M43.395,85.011c-1.867,0-3.386-1.518-3.386-3.385c0-1.866,1.519-3.384,3.386-3.384
			c1.866,0,3.383,1.518,3.383,3.384C46.777,83.493,45.26,85.011,43.395,85.011z M43.395,80.302c-0.731,0-1.326,0.594-1.326,1.324
			s0.595,1.325,1.326,1.325c0.729,0,1.323-0.595,1.323-1.325S44.124,80.302,43.395,80.302z"/>
	</g>
	<g>
		<rect x="42.096" y="61.331" fill="#626466" width="2.862" height="17.94"/>
	</g>
	<g>
		<path fill="#626466" d="M50.423,86.39H36.37c-0.791,0-1.431-0.641-1.431-1.431s0.641-1.432,1.431-1.432h14.054
			c0.791,0,1.431,0.642,1.431,1.432S51.214,86.39,50.423,86.39z"/>
	</g>
	<g>
		<path fill="#FFFFFF" d="M39.931,12.459c0,0-10.647-2.67-22.476-0.155c-6.042,1.286-6.888,4.829-6.888,4.829L7.12,37.64
			c0,0-0.752-7.96,27.887-4.747L39.931,12.459z"/>
		<path fill="#626466" d="M7.121,38.487c-0.01,0-0.021-0.001-0.031-0.001c-0.425-0.016-0.773-0.344-0.813-0.768
			c-0.01-0.104-0.027-0.472,0.138-0.998l3.317-19.729c0.051-0.223,1.056-4.136,7.547-5.517c3.425-0.729,7.081-1.098,10.864-1.098
			c6.893,0,11.789,1.208,11.994,1.259c0.451,0.113,0.727,0.568,0.618,1.021l-4.924,20.434c-0.1,0.416-0.483,0.693-0.918,0.645
			c-4.488-0.504-8.522-0.759-11.991-0.759c-12.252,0-14.464,3.109-14.858,4.16L7.956,37.78C7.887,38.189,7.533,38.487,7.121,38.487z
			 M28.144,12.072c-3.666,0-7.202,0.357-10.512,1.061c-5.456,1.16-6.233,4.166-6.24,4.196L8.578,34.076
			c2.176-1.478,6.357-2.795,14.344-2.795c3.338,0,7.182,0.231,11.436,0.688l4.547-18.868C37.246,12.765,33.217,12.072,28.144,12.072
			z"/>
	</g>
	<g>
		<path fill="#626466" d="M15.681,45.934c-3.51,0.001-6.1-0.881-7.719-2.633c-2.28-2.467-1.7-5.684-1.674-5.819l1.665,0.316
			L7.12,37.64l0.833,0.154c-0.005,0.025-0.438,2.542,1.266,4.371c1.635,1.754,4.674,2.402,9.024,1.926l0.185,1.684
			C17.458,45.881,16.542,45.934,15.681,45.934z"/>
	</g>
	<g>
		<g>
			<path fill="#626466" d="M19.628,26.879c-0.987,0.094-1.894,0.216-2.728,0.357l-0.613,3.292c0.874-0.176,1.763-0.314,2.653-0.424
				L19.628,26.879z"/>
		</g>
		<g>
			<path fill="#626466" d="M24.195,26.662c-0.99,0.006-1.924,0.035-2.802,0.084l-0.59,3.172c0.927-0.073,1.841-0.116,2.728-0.139
				L24.195,26.662z"/>
		</g>
		<g>
			<path fill="#626466" d="M11.884,31.548c0.853-0.373,1.549-0.305,2.489-0.566l0.722-3.386c-1.071,0.248-1.987,0.528-2.766,0.813
				L11.884,31.548z"/>
		</g>
		<g>
			<path fill="#626466" d="M30.577,26.938l-0.564,3.027c1.613,0.127,2.618,0.268,2.618,0.268l0.782-3.013
				C32.429,27.106,31.49,27.016,30.577,26.938z"/>
		</g>
		<g>
			<path fill="#626466" d="M28.88,26.812c-1.031-0.066-2.015-0.109-2.951-0.132l-0.575,3.085c1.031,0.006,2.004,0.039,2.877,0.084
				L28.88,26.812z"/>
		</g>
		<g>
			<path fill="#626466" d="M10.419,29.248c-1.467,0.771-2.013,1.416-2.013,1.416L7.811,33.73c0.547-0.564,1.496-1.303,2.182-1.745
				L10.419,29.248z"/>
		</g>
	</g>
	<g>
		<g>
			<path fill="#626466" d="M23.206,16.472c1.044-0.055,2.07-0.073,3.06-0.065l0.658-3.084c-1.11-0.007-2.16,0.022-3.146,0.084
				L23.206,16.472z"/>
		</g>
		<g>
			<path fill="#626466" d="M27.737,16.436c1.152,0.036,2.231,0.102,3.201,0.182l0.654-3.071c-1.146-0.103-2.236-0.166-3.279-0.198
				L27.737,16.436z"/>
		</g>
		<g>
			<path fill="#626466" d="M22.361,13.518c-1.116,0.106-2.143,0.247-3.083,0.415l-0.561,3.008c0.991-0.163,1.994-0.282,2.991-0.366
				L22.361,13.518z"/>
		</g>
		<g>
			<path fill="#626466" d="M32.946,13.685l-0.571,3.065c2.007,0.207,3.275,0.429,3.275,0.429l0.782-3.013
				C35.221,13.967,34.063,13.81,32.946,13.685z"/>
		</g>
		<g>
			<path fill="#626466" d="M14.153,18.081c0.972-0.346,1.992-0.628,3.036-0.852l0.642-3.008c-1.214,0.271-2.253,0.576-3.122,0.877
				L14.153,18.081z"/>
		</g>
		<g>
			<path fill="#626466" d="M13.194,15.688c-1.304,0.564-1.933,1.008-1.933,1.008l-0.706,3.147c0.62-0.414,1.288-0.776,1.987-1.102
				L13.194,15.688z"/>
		</g>
	</g>
	<g>
		<g>
			<path fill="#626466" d="M20.344,17.755l-1.439,8.212c7.808-1.067,14.768,0.393,14.768,0.393l1.59-8.147
				C29.179,16.959,24.162,17.209,20.344,17.755z"/>
		</g>
		<g>
			<path fill="#626466" d="M19.37,17.833c-6.082,0.88-8.913,3.015-8.913,3.015l-1.332,8.071c1.909-1.283,6.208-2.665,8.777-2.979
				L19.37,17.833z"/>
		</g>
	</g>
	<g>
		<path fill="#626466" d="M59.02,71.231c-3.035,0-6.602-0.131-8.598-0.315l0.093-1.006c2.928,0.271,9.272,0.424,12.233,0.212
			c10.004-0.724,15.37-4.346,15.11-10.197c-0.329-7.381-9.114-9.993-9.203-10.019l0.279-0.971c0.096,0.027,9.572,2.833,9.934,10.944
			c0.287,6.485-5.412,10.48-16.048,11.25C61.839,71.2,60.492,71.231,59.02,71.231z"/>
	</g>
	<g>
		<path fill="#626466" d="M77.394,65.253l-0.661-0.765c6.6-5.708,6.758-19.26,6.759-19.396c0.25-15.508-14.002-19.934-14.146-19.976
			l0.288-0.969c0.151,0.045,15.13,4.696,14.868,20.955C84.499,45.674,84.337,59.248,77.394,65.253z"/>
	</g>
	<g>
		<g>
			<path fill="#626466" d="M78.887,52.062c-0.436,1.003-0.84,1.724-1.106,2.157c0.469,0.795,0.845,1.677,1.089,2.655
				c0.218-0.349,0.708-1.177,1.271-2.415C79.847,53.695,79.444,52.888,78.887,52.062z"/>
		</g>
		<g>
			<path fill="#626466" d="M71.317,46.145c-0.394-0.178-0.8-0.351-1.227-0.519l-0.519,2.383c0,0,0.398,0.122,1.027,0.382
				C70.867,47.644,71.107,46.893,71.317,46.145z"/>
		</g>
		<g>
			<path fill="#626466" d="M71.671,48.879c0.727,0.358,1.574,0.836,2.435,1.448c0.344-0.695,0.646-1.398,0.911-2.108
				c-0.767-0.537-1.633-1.059-2.61-1.553C72.126,47.627,71.864,48.373,71.671,48.879z"/>
		</g>
		<g>
			<path fill="#626466" d="M78.028,50.931c-0.579-0.684-1.28-1.366-2.111-2.033c-0.383,1.041-0.72,1.776-0.896,2.135
				c0.731,0.606,1.439,1.315,2.061,2.139C77.438,52.436,77.753,51.688,78.028,50.931z"/>
		</g>
		<g>
			<path fill="#626466" d="M79.138,58.547c0.103,1.326-0.026,2.796-0.489,4.429l2.16-3.646c0,0,0.263-1.431-0.224-3.455
				C80.163,56.762,79.682,57.656,79.138,58.547z"/>
		</g>
	</g>
	<g>
		<line fill="none" stroke="#FFFFFF" stroke-width="0.2215" stroke-miterlimit="10" x1="28.333" y1="16.776" x2="25" y2="20.108"/>
		<line fill="none" stroke="#FFFFFF" stroke-width="0.2215" stroke-miterlimit="10" x1="28.333" y1="18.014" x2="25" y2="21.347"/>
		<line fill="none" stroke="#FFFFFF" stroke-width="0.2215" stroke-miterlimit="10" x1="28.333" y1="19.252" x2="25" y2="22.584"/>
		<line fill="none" stroke="#FFFFFF" stroke-width="0.2215" stroke-miterlimit="10" x1="28.333" y1="20.489" x2="25" y2="23.821"/>
		<line fill="none" stroke="#FFFFFF" stroke-width="0.2215" stroke-miterlimit="10" x1="28.333" y1="21.728" x2="25" y2="25.06"/>
	</g>
	<g>
		<path fill="#626466" d="M17.151,76.129c-0.18,0-0.348-0.096-0.439-0.255L7.088,59.048C7.011,58.913,7,58.751,7.059,58.606
			c0.078-0.19,2.031-4.702,12.519-6.394c0.274-0.049,0.535,0.144,0.579,0.419s-0.143,0.534-0.418,0.579
			c-8.592,1.385-11.118,4.721-11.635,5.578l8.964,15.671c2.941-5.747,15.437-6.064,15.997-6.075c0.319-0.032,0.51,0.217,0.515,0.495
			s-0.216,0.509-0.496,0.515c-0.137,0.003-13.754,0.347-15.447,6.365c-0.055,0.196-0.223,0.34-0.425,0.365
			C17.191,76.127,17.171,76.129,17.151,76.129z"/>
	</g>
	<g>
		<path fill="#626466" d="M67.708,52.792c-0.258,0-0.478-0.197-0.502-0.459c-0.026-0.277,0.179-0.523,0.456-0.55
			c0.024-0.002,2.407-0.236,3.549-1.475c0.189-0.205,0.508-0.218,0.713-0.029c0.206,0.189,0.218,0.509,0.029,0.714
			c-1.407,1.526-4.085,1.786-4.199,1.797C67.739,52.791,67.724,52.792,67.708,52.792z"/>
	</g>
	<g>
		<path fill="#626466" d="M74.251,52.214c0,0-0.878,3.679-9.045,4.486c0,0-4.333,7.739-7.202,9.603c0,0,14.578,1.438,20.224-7.487
			C78.229,58.815,77.38,53.28,74.251,52.214z"/>
	</g>
	<g>
		<g>
			<path fill="#626466" d="M24.662,68.597c-0.335-0.622-0.92-1.55-1.459-2.468c-1.047,0.271-2.151,0.646-3.222,1.162
				c0.542,0.925,1.054,1.8,1.386,2.425C22.262,69.265,23.4,68.904,24.662,68.597z"/>
		</g>
		<g>
			<path fill="#626466" d="M28.218,65.42c0,0-1.639,0.047-3.683,0.43c0.56,0.96,1.021,1.787,1.331,2.388
				c1.129-0.256,2.746-0.486,4.436-0.528L28.218,65.42z"/>
		</g>
		<g>
			<path fill="#626466" d="M18.744,67.964c-0.992,0.617-1.909,1.378-2.65,2.33l1.28,2.252c0,0,0.655-1.141,2.727-2.183
				C19.775,69.746,19.303,68.915,18.744,67.964z"/>
		</g>
	</g>
	<g>
		<g>
			<path fill="#626466" d="M73.707,30.641c0.964,0.554,1.843,1.148,2.641,1.768c-0.199-1.364-0.424-2.396-0.561-2.961
				c-0.881-0.644-1.731-1.192-2.492-1.644C73.466,28.771,73.604,29.718,73.707,30.641z"/>
		</g>
		<g>
			<path fill="#626466" d="M77.518,33.38c0.794,0.707,1.499,1.432,2.118,2.156c-0.122-1.286-0.276-2.347-0.403-3.087
				c-0.754-0.79-1.541-1.501-2.324-2.138C77.17,31.356,77.372,32.381,77.518,33.38z"/>
		</g>
		<g>
			<path fill="#626466" d="M83.431,41.838c0.416,1.079,0.567,1.758,0.567,1.758l-0.173-3.002c-0.182-0.799-0.429-1.559-0.723-2.288
				C83.244,39.21,83.381,40.414,83.431,41.838z"/>
		</g>
		<g>
			<path fill="#626466" d="M80.151,33.468c0.255,1.198,0.439,2.342,0.573,3.444c0.788,1.08,1.397,2.121,1.866,3.049
				c-0.117-1.287-0.333-2.624-0.657-4.004C81.398,35.065,80.797,34.234,80.151,33.468z"/>
		</g>
		<g>
			<path fill="#626466" d="M72.148,27.156c-1.189-0.635-1.97-0.953-1.97-0.953l0.172,2.828c0.765,0.298,1.487,0.623,2.172,0.968
				C72.402,28.809,72.262,27.838,72.148,27.156z"/>
		</g>
	</g>
	<g>
		<g>
			<path fill="#626466" d="M83.999,45.708c-0.204-2.744-1.39-5.151-2.973-7.188c0.585,5.861-1.154,10.832-1.8,12.43
				c2.326,3.343,2.18,6.419,2.18,6.419C83.623,53.209,83.999,45.708,83.999,45.708z"/>
		</g>
		<g>
			<path fill="#626466" d="M80.125,37.439c-3.909-4.351-9.343-6.733-9.343-6.733c0.505,3.438-1.037,13.773-1.037,13.773
				c4.332,1.422,7.05,3.479,8.763,5.533C80.486,45.187,80.34,39.877,80.125,37.439z"/>
		</g>
	</g>
	<g>
		<g>
			<path fill="#626466" d="M66.701,53.983l0.765-0.295c-0.576,0.129-0.964,0.175-0.964,0.175l-0.656,2.154
				c0.873-0.148,1.652-0.324,2.354-0.518C67.34,54.552,66.701,53.983,66.701,53.983z"/>
		</g>
		<g>
			<path fill="#626466" d="M67.908,53.583c0.542,0.528,1.034,1.041,1.486,1.543c1.042-0.362,1.871-0.759,2.506-1.141
				c-0.5-0.424-1.056-0.844-1.675-1.256C69.436,53.138,68.593,53.409,67.908,53.583z"/>
		</g>
		<g>
			<path fill="#626466" d="M72.87,53.317c0.83-0.664,1.095-1.171,1.095-1.171l-1.682-1.194c-0.291,0.49-0.709,0.898-1.186,1.243
				C71.333,52.313,72.028,52.685,72.87,53.317z"/>
		</g>
	</g>
	<g>
		<path fill="#626466" d="M11.391,62.454l3.899,6.525c0,0,2.786-4.218,11.221-4.774c0,0-3.502-3.979-4.775-6.765
			C21.737,57.44,15.291,57.679,11.391,62.454z"/>
	</g>
	<g>
		<g>
			<path fill="#626466" d="M61.809,67.431c-1.011,0.056-1.931,0.073-2.707,0.069c-0.08,0.59-0.22,1.277-0.436,2.053
				c0.929-0.001,1.813-0.023,2.658-0.063C61.44,69.035,61.633,68.253,61.809,67.431z"/>
		</g>
		<g>
			<path fill="#626466" d="M58.107,67.482c-0.95-0.027-1.519-0.076-1.519-0.076l-2.477,1.998c1.226,0.077,2.383,0.123,3.489,0.14
				C57.726,69.072,57.926,68.294,58.107,67.482z"/>
		</g>
		<g>
			<path fill="#626466" d="M62.404,69.424c0.978-0.068,1.902-0.161,2.766-0.278c0.074-0.441,0.203-1.239,0.311-2.086
				c-0.917,0.138-1.814,0.236-2.664,0.305C62.745,67.954,62.613,68.644,62.404,69.424z"/>
		</g>
		<g>
			<path fill="#626466" d="M69.16,66.277c-0.886,0.251-1.783,0.454-2.671,0.614c-0.026,0.598-0.103,1.299-0.246,2.093
				c0.895-0.15,1.721-0.326,2.49-0.52C68.841,68.014,69.032,67.16,69.16,66.277z"/>
		</g>
		<g>
			<path fill="#626466" d="M69.803,68.171c0.951-0.284,1.805-0.6,2.561-0.935c0.23-0.752,0.313-1.519,0.287-2.287
				c-0.814,0.408-1.674,0.753-2.554,1.043C70.048,66.574,69.956,67.291,69.803,68.171z"/>
		</g>
		<g>
			<path fill="#626466" d="M78.511,61.067l-0.282-2.054c-0.266,0.786-0.634,1.494-1.069,2.142c0.063,0.859,0.022,1.784-0.151,2.775
				C78.331,62.357,78.511,61.067,78.511,61.067z"/>
		</g>
		<g>
			<path fill="#626466" d="M73.779,64.316c0.104,0.979,0.046,1.735-0.032,2.231c0.875-0.49,1.592-1.006,2.177-1.517
				c0.113-0.571,0.229-1.466,0.174-2.558C75.417,63.182,74.634,63.791,73.779,64.316z"/>
		</g>
	</g>
	<g>
		<path fill="#FFFFFF" d="M70.49,55.197c0,0,2.646,5.464,0.129,10.072l-1.049,0.107c0,0,2.517-4.607-0.105-9.751L70.49,55.197z"/>
	</g>
	<g>
		<g>
			<path fill="#626466" d="M19.017,56.878c1.463-0.3,2.477-0.308,2.477-0.308l-1.431-2.554c-0.911,0.152-1.735,0.337-2.506,0.534
				C17.852,55.02,18.373,55.849,19.017,56.878z"/>
		</g>
		<g>
			<path fill="#626466" d="M11.791,56.943c-1.847,1.2-2.469,2.247-2.469,2.247l1.513,2.547c0.735-0.976,1.576-1.764,2.454-2.407
				C12.611,58.245,12.071,57.388,11.791,56.943z"/>
		</g>
		<g>
			<path fill="#626466" d="M14.474,58.57c1.06-0.608,2.13-1.039,3.108-1.332c-0.753-1.203-1.297-2.065-1.436-2.285
				c-1.245,0.396-2.284,0.835-3.138,1.281C13.298,56.694,13.823,57.529,14.474,58.57z"/>
		</g>
	</g>
	<g>
		
			<line fill="none" stroke="#FFFFFF" stroke-width="0.2215" stroke-miterlimit="10" x1="76.556" y1="36.179" x2="73.311" y2="39.493"/>
		
			<line fill="none" stroke="#FFFFFF" stroke-width="0.2215" stroke-miterlimit="10" x1="76.556" y1="37.409" x2="73.311" y2="40.725"/>
		
			<line fill="none" stroke="#FFFFFF" stroke-width="0.2215" stroke-miterlimit="10" x1="76.556" y1="38.642" x2="73.311" y2="41.957"/>
		
			<line fill="none" stroke="#FFFFFF" stroke-width="0.2215" stroke-miterlimit="10" x1="76.556" y1="39.873" x2="73.311" y2="43.188"/>
		
			<line fill="none" stroke="#FFFFFF" stroke-width="0.2215" stroke-miterlimit="10" x1="76.556" y1="41.104" x2="73.311" y2="44.421"/>
	</g>
	<g>
		
			<line fill="none" stroke="#FFFFFF" stroke-width="0.2215" stroke-miterlimit="10" x1="20.148" y1="58.522" x2="16.816" y2="61.854"/>
		
			<line fill="none" stroke="#FFFFFF" stroke-width="0.2215" stroke-miterlimit="10" x1="20.148" y1="59.76" x2="16.816" y2="63.093"/>
		
			<line fill="none" stroke="#FFFFFF" stroke-width="0.2215" stroke-miterlimit="10" x1="20.148" y1="60.998" x2="16.816" y2="64.33"/>
		
			<line fill="none" stroke="#FFFFFF" stroke-width="0.2215" stroke-miterlimit="10" x1="20.148" y1="62.235" x2="16.816" y2="65.567"/>
		
			<line fill="none" stroke="#FFFFFF" stroke-width="0.2215" stroke-miterlimit="10" x1="20.148" y1="63.474" x2="16.816" y2="66.806"/>
	</g>
	<g>
		
			<line fill="none" stroke="#FFFFFF" stroke-width="0.2215" stroke-miterlimit="10" x1="46.157" y1="50.055" x2="42.825" y2="53.388"/>
		
			<line fill="none" stroke="#FFFFFF" stroke-width="0.2215" stroke-miterlimit="10" x1="46.157" y1="51.293" x2="42.825" y2="54.625"/>
		
			<line fill="none" stroke="#FFFFFF" stroke-width="0.2215" stroke-miterlimit="10" x1="46.157" y1="52.53" x2="42.825" y2="55.863"/>
		
			<line fill="none" stroke="#FFFFFF" stroke-width="0.2215" stroke-miterlimit="10" x1="46.157" y1="53.769" x2="42.825" y2="57.101"/>
		
			<line fill="none" stroke="#FFFFFF" stroke-width="0.2215" stroke-miterlimit="10" x1="46.157" y1="55.006" x2="42.825" y2="58.338"/>
	</g>
	<g>
		
			<line fill="none" stroke="#626466" stroke-width="0.25" stroke-linejoin="round" stroke-miterlimit="10" x1="60.76" y1="35.226" x2="57.427" y2="38.557"/>
		
			<line fill="none" stroke="#626466" stroke-width="0.25" stroke-linejoin="round" stroke-miterlimit="10" x1="60.76" y1="36.463" x2="57.427" y2="39.795"/>
		
			<line fill="none" stroke="#626466" stroke-width="0.25" stroke-linejoin="round" stroke-miterlimit="10" x1="60.76" y1="37.7" x2="57.427" y2="41.032"/>
		
			<line fill="none" stroke="#626466" stroke-width="0.25" stroke-linejoin="round" stroke-miterlimit="10" x1="60.76" y1="38.938" x2="57.427" y2="42.271"/>
		
			<line fill="none" stroke="#626466" stroke-width="0.25" stroke-linejoin="round" stroke-miterlimit="10" x1="60.76" y1="40.176" x2="57.427" y2="43.508"/>
	</g>
	<g>
		
			<line fill="none" stroke="#FFFFFF" stroke-width="0.2215" stroke-miterlimit="10" x1="69.072" y1="56.901" x2="65.826" y2="60.218"/>
		
			<line fill="none" stroke="#FFFFFF" stroke-width="0.2215" stroke-miterlimit="10" x1="69.072" y1="58.133" x2="65.826" y2="61.448"/>
		
			<line fill="none" stroke="#FFFFFF" stroke-width="0.2215" stroke-miterlimit="10" x1="69.072" y1="59.364" x2="65.826" y2="62.681"/>
		
			<line fill="none" stroke="#FFFFFF" stroke-width="0.2215" stroke-miterlimit="10" x1="69.072" y1="60.595" x2="65.826" y2="63.912"/>
		
			<line fill="none" stroke="#FFFFFF" stroke-width="0.2215" stroke-miterlimit="10" x1="69.072" y1="61.826" x2="65.826" y2="65.144"/>
	</g>
	<g>
		
			<line fill="none" stroke="#626466" stroke-width="0.25" stroke-linejoin="round" stroke-miterlimit="10" x1="65.639" y1="25.611" x2="62.307" y2="28.945"/>
		
			<line fill="none" stroke="#626466" stroke-width="0.25" stroke-linejoin="round" stroke-miterlimit="10" x1="65.639" y1="27.287" x2="62.307" y2="30.621"/>
		
			<line fill="none" stroke="#626466" stroke-width="0.25" stroke-linejoin="round" stroke-miterlimit="10" x1="65.639" y1="28.964" x2="62.307" y2="32.297"/>
		
			<line fill="none" stroke="#626466" stroke-width="0.25" stroke-linejoin="round" stroke-miterlimit="10" x1="65.639" y1="30.64" x2="62.307" y2="33.973"/>
		
			<line fill="none" stroke="#626466" stroke-width="0.25" stroke-linejoin="round" stroke-miterlimit="10" x1="65.639" y1="32.315" x2="62.307" y2="35.648"/>
		
			<line fill="none" stroke="#626466" stroke-width="0.25" stroke-linejoin="round" stroke-miterlimit="10" x1="65.639" y1="33.991" x2="62.307" y2="37.324"/>
		
			<line fill="none" stroke="#626466" stroke-width="0.25" stroke-linejoin="round" stroke-miterlimit="10" x1="65.639" y1="35.667" x2="62.307" y2="39"/>
		
			<line fill="none" stroke="#626466" stroke-width="0.25" stroke-linejoin="round" stroke-miterlimit="10" x1="65.639" y1="37.343" x2="62.307" y2="40.676"/>
		
			<line fill="none" stroke="#626466" stroke-width="0.25" stroke-linejoin="round" stroke-miterlimit="10" x1="65.639" y1="39.02" x2="62.307" y2="42.352"/>
		
			<line fill="none" stroke="#626466" stroke-width="0.25" stroke-linejoin="round" stroke-miterlimit="10" x1="65.639" y1="40.695" x2="62.307" y2="44.027"/>
	</g>
	<g>
		<path fill="#626466" d="M9.265,35.331c0,0,0.291,4.8,8,3.927l-0.582-6.837C16.684,32.421,10.429,33.148,9.265,35.331z"/>
	</g>
	<g>
		<g>
			<path fill="#626466" d="M9.486,41.356c0.887,0.707,2.165,1.296,4.001,1.578l0.091-2.642c-0.958-0.134-1.937-0.4-2.759-0.887
				L9.486,41.356z"/>
		</g>
		<g>
			<path fill="#626466" d="M17.557,40.275c0,0-1.394,0.221-3.068,0.11l-0.092,2.655c1.001,0.09,2.14,0.1,3.451-0.001L17.557,40.275z
				"/>
		</g>
		<g>
			<path fill="#626466" d="M10.082,38.867c-0.84-0.766-1.366-1.89-1.253-3.536c0.053-0.773-1.253,2.5-1.31,1.454
				c0,0-0.301,2.144,1.294,3.936L10.082,38.867z"/>
		</g>
	</g>
	<g>
		<path fill="#626466" d="M47.47,26.761c-0.14-2.505,1.778-4.642,4.28-4.776c2.505-0.132,4.645,1.787,4.784,4.295
			c0.139,2.498-1.777,4.638-4.282,4.771C49.75,31.183,47.609,29.261,47.47,26.761z"/>
	</g>
</g>
</svg>
