<?xml version="1.0" encoding="utf-8"?>
<!-- Generator: Adobe Illustrator 15.0.0, SVG Export Plug-In . SVG Version: 6.00 Build 0)  -->
<!DOCTYPE svg PUBLIC "-//W3C//DTD SVG 1.1//EN" "http://www.w3.org/Graphics/SVG/1.1/DTD/svg11.dtd">
<svg version="1.1" id="Layer_1" xmlns="http://www.w3.org/2000/svg" xmlns:xlink="http://www.w3.org/1999/xlink" x="0px" y="0px"
	 width="1533.543px" height="1533.544px" viewBox="83.623 83.622 1533.543 1533.544"
	 enable-background="new 83.623 83.622 1533.543 1533.544" xml:space="preserve">
<g>
	<path fill="#dddddd" d="M1075.353,320.989h-449.92c-30.476,0-55.181,24.705-55.181,55.18v948.45c0,30.477,24.706,55.18,55.181,55.18h449.92
		c30.479,0,55.184-24.703,55.184-55.18v-948.45C1130.537,345.694,1105.832,320.989,1075.353,320.989z M786.426,354.077h127.939
		c5.482,0,9.928,4.444,9.928,9.927c0,5.482-4.443,9.925-9.928,9.925H786.426c-5.483,0-9.928-4.443-9.928-9.925
		C776.498,358.521,780.942,354.077,786.426,354.077z M850.395,1352.875c-24.365,0-44.117-19.75-44.117-44.117
		c0-24.365,19.751-44.117,44.117-44.117c24.367,0,44.117,19.752,44.117,44.117C894.511,1333.125,874.761,1352.875,850.395,1352.875z
		 M1091.226,1205.74c0,24.252-21.236,43.912-47.434,43.912H656.997c-26.2,0-47.438-19.66-47.438-43.912V450.932
		c0-24.253,21.237-43.914,47.438-43.914h386.795c26.197,0,47.436,19.661,47.436,43.914v754.808H1091.226z"/>
	<rect fill="#dddddd" x="887.378" y="792.596" width="37.381" height="9.989"/>
	<rect fill="#dddddd" x="1017.298" y="825.519" width="11.963" height="4.214"/>
	<rect fill="#dddddd" x="887.378" y="815.133" width="37.381" height="9.981"/>
	<rect fill="#dddddd" x="887.378" y="837.67" width="37.381" height="9.975"/>
	<path fill="#dddddd" d="M633.166,923.091h434.458V716.393H633.166V923.091z M949.697,792.596h-9.756v91.722h-15.182v-24.123h-37.381v11.697H872.22
		v-79.296h-8.637v-13.854h61.176h15.182h9.756V792.596L949.697,792.596z M1017.298,833.491v0.041h-3.771v-11.145h2.24h1.531h11.963
		h1.779h1.986v11.145h-3.768v-0.041H1017.298z M1013.55,812.925v-3.143h7.705v-2.702h4.299v2.702h7.705v3.143h-7.705v2.766h7.705
		v3.144h-19.709v-3.144h7.705v-2.766H1013.55z M1035.13,885.039h-4.264v-32.359h4.264V885.039z M1043.24,882.343
		c0,4.396-1.195,8.771-5.521,9.482v-1.529c1.406-1.969,1.256-6.264,1.256-7.953v-31.063h4.268v31.063H1043.24z M1004.142,803.846
		v-4.236v-0.034h38.529v4.271h-0.002v27.006c0,4.392-1.197,8.769-5.523,9.465v-1.52c1.408-1.969,1.262-6.267,1.262-7.945v-27.006
		h-30.004v34.614h-4.262V803.846L1004.142,803.846z M1003.564,863.324h9.936v-6.373h-9.936v-4.279h24.121v4.279h-9.928v6.373h9.928
		v4.271h-9.928v24.453h-4.26v-24.453h-9.934V863.324L1003.564,863.324z M862.8,749.474h98.5v-0.106h15.059v109.525
		c0,15.486-4.229,30.92-19.463,33.4v-5.389c4.938-6.93,4.404-22.09,4.404-28.012V764.51h-98.5V749.474z M836.987,749.474h15.051
		v15.42h-15.051V749.474z M836.987,774.067h15.051v117.741h-15.051V774.067z M712.936,788.684l16.528-4.495v-34.715H744.5v30.621
		l24.174-6.578c5.958-1.626,18.525-10.427,22.565-20.209h15.76c-2.918,16.296-16.836,29.408-33.574,33.971l-28.925,7.874v3.586
		c0,9.152,1.606,13.974,12.479,13.974h53.016v15.164h-56.069c-17.731,0-24.459-10.261-24.459-23.784v-4.842l-16.527,4.483v-15.05
		H712.936z M664.843,772.129c18.483-6.066,27.775-23.954,27.775-23.954h16.686c-3.013,8.649-7.495,15.459-12.477,20.812v63.664
		h-15.036v-51.843c-9.259,5.251-16.949,6.737-16.949,6.737L664.843,772.129L664.843,772.129z M664.628,847.378H729.6v-15.856h15.056
		v15.856h64.974v15.055h-64.974v29.375H729.6v-29.375h-64.971L664.628,847.378L664.628,847.378z"/>
	<path fill="#dddddd" d="M850.394,83.622c-423.477,0-766.771,343.295-766.771,766.771c0,423.475,343.295,766.772,766.771,766.772
		c423.477,0,766.772-343.297,766.772-766.771C1617.166,426.917,1273.871,83.622,850.394,83.622z M1419.923,1234.318
		c-24.58,36.383-52.811,70.6-83.908,101.695c-31.098,31.098-65.313,59.33-101.695,83.908
		c-36.713,24.803-75.951,46.102-116.627,63.307c-84.617,35.789-174.551,53.938-267.298,53.938
		c-92.75,0-182.682-18.146-267.299-53.938c-40.677-17.205-79.916-38.504-116.627-63.307c-36.383-24.58-70.599-52.811-101.695-83.908
		c-31.098-31.096-59.329-65.313-83.908-101.695c-24.802-36.711-46.101-75.949-63.306-116.625
		c-35.79-84.619-53.937-174.551-53.937-267.298c0-92.75,18.147-182.682,53.937-267.299c17.205-40.677,38.504-79.916,63.306-116.627
		c24.58-36.383,52.811-70.599,83.908-101.696c31.097-31.097,65.313-59.328,101.695-83.908
		c36.711-24.802,75.95-46.101,116.627-63.306c84.617-35.79,174.55-53.937,267.299-53.937c92.748,0,182.681,18.147,267.298,53.937
		c40.676,17.205,79.916,38.504,116.627,63.306c36.383,24.58,70.598,52.811,101.695,83.908
		c31.098,31.097,59.328,65.313,83.908,101.696c24.801,36.711,46.1,75.95,63.305,116.627c35.789,84.617,53.938,174.55,53.938,267.299
		c0,92.748-18.146,182.681-53.938,267.298C1466.025,1158.369,1444.724,1197.607,1419.923,1234.318z"/>
</g>
</svg>
