<?xml version="1.0" encoding="utf-8"?>
<!-- Generator: Adobe Illustrator 15.0.0, SVG Export Plug-In . SVG Version: 6.00 Build 0)  -->
<!DOCTYPE svg PUBLIC "-//W3C//DTD SVG 1.1//EN" "http://www.w3.org/Graphics/SVG/1.1/DTD/svg11.dtd">
<svg version="1.1" id="Layer_1" xmlns="http://www.w3.org/2000/svg" xmlns:xlink="http://www.w3.org/1999/xlink" x="0px" y="0px"
	 width="90.709px" height="90.709px" viewBox="0 0 90.709 90.709" enable-background="new 0 0 90.709 90.709" xml:space="preserve">
<g>
	<g>
		<path fill="#626466" d="M18.06,43.689c0,0,5.981-9.522,15.943-7.937c8.874,1.412,12.438,8.164,21.788,10.666
			c5.814,1.56,17.049-0.711,22.66-5.241c0,0-3.9,14.825-23.956,13.601l-1.537,4.286c0,0,23.604,1.645,27.1,22.822
			c0,0-11.305-16.867-32.815-10.072c-21.508,6.793-30.417-0.105-34.839-6.817c0,0,15.781,2.819,22.248-5.675
			c6.463-8.494,4.167-15.578-2.659-17.177C25.164,40.548,18.06,43.689,18.06,43.689z"/>
	</g>
	<g>
		<circle fill="#626466" cx="53.963" cy="37.04" r="6.583"/>
	</g>
	<g>
		<polygon fill="#626466" points="51.918,9.388 69.121,15.058 51.918,22.997 34.604,15.058 		"/>
	</g>
	<g>
		<polygon fill="#626466" points="63.432,17.636 63.432,22.274 51.918,27.649 40.053,22.274 40.053,17.82 		"/>
	</g>
	<g>
		<circle fill="#FFFFFF" cx="51.656" cy="15.954" r="1.776"/>
	</g>
	<g>
		<polygon fill="#FFFFFF" points="43.141,26.276 42.069,26.276 42.069,19.726 50.766,16.292 51.16,17.289 43.141,20.455 		"/>
	</g>
	<g>
		<line fill="#FFFFFF" x1="43.564" y1="27.729" x2="43.564" y2="35.478"/>
		<rect x="43.296" y="27.729" fill="#626466" width="0.536" height="7.749"/>
	</g>
	<g>
		<line fill="#FFFFFF" x1="42.561" y1="27.729" x2="42.561" y2="35.478"/>
		<rect x="42.293" y="27.729" fill="#626466" width="0.536" height="7.749"/>
	</g>
	<g>
		<line fill="#FFFFFF" x1="41.557" y1="27.729" x2="41.557" y2="35.478"/>
		<rect x="41.289" y="27.729" fill="#626466" width="0.536" height="7.749"/>
	</g>
	<g>
		<circle fill="#626466" cx="42.606" cy="25.647" r="1.428"/>
	</g>
	<g>
		<polygon fill="#FFFFFF" points="50.017,43.965 50.192,46.31 51.607,46.885 53.42,45.249 		"/>
	</g>
	<g>
		<path fill="#FFFFFF" d="M33.365,49.626c-1.592,0.672-3.69,1.911-3.69,1.911l2.572,3.518c0,0,11.255,2.89,19.51-7.048l-2.485-1.203
			C49.271,46.804,43.419,53.376,33.365,49.626z"/>
		<path fill="#626466" d="M36.103,55.982c-2.375,0-3.926-0.391-3.991-0.408l-0.186-0.047l-3.034-4.15l0.509-0.301
			c0.087-0.051,2.148-1.266,3.755-1.943l0.196-0.083l0.2,0.075c1.997,0.745,3.972,1.123,5.869,1.123c5.998,0,9.416-3.761,9.45-3.799
			l0.27-0.303l3.465,1.677l-0.437,0.527C46.928,54.657,40.54,55.982,36.103,55.982z M32.56,54.577
			c0.46,0.097,1.762,0.333,3.543,0.333c4.082,0,9.907-1.183,14.794-6.724l-1.512-0.731c-0.984,0.955-4.436,3.864-9.964,3.864
			c-1.961,0-3.993-0.375-6.041-1.116c-1.034,0.454-2.249,1.121-2.921,1.501L32.56,54.577z"/>
	</g>
	<g>
		<path fill="#626466" d="M47.429,52.55c-0.152,0-0.303-0.064-0.409-0.188l-1.842-2.165c-0.191-0.226-0.165-0.563,0.061-0.755
			c0.227-0.192,0.564-0.165,0.756,0.061l1.842,2.165c0.191,0.226,0.164,0.563-0.061,0.756C47.675,52.508,47.551,52.55,47.429,52.55z
			"/>
	</g>
	<g>
		<path fill="#626466" d="M44.864,53.512c-0.151,0-0.302-0.064-0.408-0.188l-1.843-2.162c-0.192-0.225-0.166-0.563,0.06-0.755
			c0.225-0.192,0.564-0.167,0.755,0.06l1.843,2.163c0.192,0.225,0.166,0.563-0.06,0.755C45.11,53.47,44.987,53.512,44.864,53.512z"
			/>
	</g>
	<g>
		<path fill="#626466" d="M42.78,55.068c-0.151,0-0.302-0.064-0.408-0.188l-3.126-3.671c-0.191-0.226-0.165-0.563,0.061-0.756
			c0.226-0.191,0.563-0.165,0.756,0.061l3.126,3.67c0.191,0.226,0.165,0.564-0.061,0.756C43.026,55.026,42.903,55.068,42.78,55.068z
			"/>
	</g>
	<g>
		<path fill="#626466" d="M47.639,88.425c-23.749,0-43.07-19.321-43.07-43.069c0-23.75,19.321-43.071,43.07-43.071
			c23.749,0,43.07,19.322,43.07,43.071C90.708,69.104,71.387,88.425,47.639,88.425z M47.639,4.083
			c-22.758,0-41.272,18.515-41.272,41.273c0,22.757,18.514,41.271,41.272,41.271c22.757,0,41.272-18.514,41.272-41.271
			C88.911,22.597,70.396,4.083,47.639,4.083z"/>
	</g>
	<g>
		
			<line fill="none" stroke="#FFFFFF" stroke-width="0.25" stroke-linejoin="round" stroke-miterlimit="10" x1="35.996" y1="61.965" x2="31.761" y2="66.199"/>
		
			<line fill="none" stroke="#FFFFFF" stroke-width="0.25" stroke-linejoin="round" stroke-miterlimit="10" x1="35.996" y1="63.538" x2="31.761" y2="67.772"/>
		
			<line fill="none" stroke="#FFFFFF" stroke-width="0.25" stroke-linejoin="round" stroke-miterlimit="10" x1="35.996" y1="65.111" x2="31.761" y2="69.345"/>
		
			<line fill="none" stroke="#FFFFFF" stroke-width="0.25" stroke-linejoin="round" stroke-miterlimit="10" x1="35.996" y1="66.683" x2="31.761" y2="70.917"/>
		
			<line fill="none" stroke="#FFFFFF" stroke-width="0.25" stroke-linejoin="round" stroke-miterlimit="10" x1="35.996" y1="68.256" x2="31.761" y2="72.49"/>
	</g>
	<g>
		
			<line fill="none" stroke="#FFFFFF" stroke-width="0.25" stroke-linejoin="round" stroke-miterlimit="10" x1="56.84" y1="31.933" x2="52.607" y2="36.167"/>
		
			<line fill="none" stroke="#FFFFFF" stroke-width="0.25" stroke-linejoin="round" stroke-miterlimit="10" x1="56.84" y1="33.506" x2="52.607" y2="37.741"/>
		
			<line fill="none" stroke="#FFFFFF" stroke-width="0.25" stroke-linejoin="round" stroke-miterlimit="10" x1="56.84" y1="35.079" x2="52.607" y2="39.313"/>
		
			<line fill="none" stroke="#FFFFFF" stroke-width="0.25" stroke-linejoin="round" stroke-miterlimit="10" x1="56.84" y1="36.652" x2="52.607" y2="40.886"/>
		
			<line fill="none" stroke="#FFFFFF" stroke-width="0.25" stroke-linejoin="round" stroke-miterlimit="10" x1="56.84" y1="38.225" x2="52.607" y2="42.459"/>
	</g>
	<g>
		
			<line fill="none" stroke="#FFFFFF" stroke-width="0.25" stroke-linejoin="round" stroke-miterlimit="10" x1="49.344" y1="53.981" x2="45.289" y2="58.037"/>
		
			<line fill="none" stroke="#FFFFFF" stroke-width="0.25" stroke-linejoin="round" stroke-miterlimit="10" x1="49.344" y1="55.712" x2="45.289" y2="59.768"/>
		
			<line fill="none" stroke="#FFFFFF" stroke-width="0.25" stroke-linejoin="round" stroke-miterlimit="10" x1="49.344" y1="57.442" x2="45.289" y2="61.499"/>
		
			<line fill="none" stroke="#FFFFFF" stroke-width="0.25" stroke-linejoin="round" stroke-miterlimit="10" x1="49.344" y1="59.173" x2="45.289" y2="63.229"/>
		
			<line fill="none" stroke="#FFFFFF" stroke-width="0.25" stroke-linejoin="round" stroke-miterlimit="10" x1="49.344" y1="60.903" x2="45.289" y2="64.959"/>
		
			<line fill="none" stroke="#FFFFFF" stroke-width="0.25" stroke-linejoin="round" stroke-miterlimit="10" x1="49.344" y1="62.634" x2="45.289" y2="66.69"/>
		
			<line fill="none" stroke="#FFFFFF" stroke-width="0.25" stroke-linejoin="round" stroke-miterlimit="10" x1="49.344" y1="64.364" x2="45.289" y2="68.421"/>
		
			<line fill="none" stroke="#FFFFFF" stroke-width="0.25" stroke-linejoin="round" stroke-miterlimit="10" x1="49.344" y1="66.095" x2="45.289" y2="70.151"/>
	</g>
	<g>
		<path fill="#FFFFFF" d="M5.236,40.355l22.312,8.011l-4.119,11.473c0,0-1.269,2.816-4.449,1.674
			c-4.035-1.448-14.803-5.315-14.803-5.315s-4.286-0.955-3.06-4.371C2.518,47.92,5.236,40.355,5.236,40.355z"/>
		<path fill="#626466" d="M20.429,62.685c-0.562,0-1.151-0.109-1.752-0.325L3.919,57.061c-0.405-0.101-2.567-0.71-3.496-2.396
			c-0.506-0.92-0.559-2.006-0.152-3.141l4.423-12.318l24.003,8.619l-4.422,12.318C24.203,60.31,23.102,62.685,20.429,62.685z
			 M5.778,41.505L1.963,52.131c-0.234,0.651-0.223,1.195,0.032,1.662c0.504,0.922,1.889,1.417,2.379,1.529l0.106,0.031l14.803,5.315
			c0.406,0.146,0.792,0.22,1.145,0.22c1.497,0,2.156-1.365,2.184-1.423l3.785-10.555L5.778,41.505z"/>
	</g>
	<g>
		
			<rect x="2.285" y="50.143" transform="matrix(0.9412 0.3379 -0.3379 0.9412 18.065 -1.6973)" fill="#626466" width="23.245" height="1.798"/>
	</g>
	<g>
		<circle fill="#626466" cx="15.209" cy="47.936" r="1.034"/>
	</g>
	<g>
		
			<line fill="none" stroke="#626466" stroke-width="0.25" stroke-linejoin="round" stroke-miterlimit="10" x1="19.672" y1="52.312" x2="15.437" y2="56.547"/>
		
			<line fill="none" stroke="#626466" stroke-width="0.25" stroke-linejoin="round" stroke-miterlimit="10" x1="19.672" y1="53.76" x2="15.437" y2="57.995"/>
		
			<line fill="none" stroke="#626466" stroke-width="0.25" stroke-linejoin="round" stroke-miterlimit="10" x1="19.672" y1="55.208" x2="15.437" y2="59.442"/>
		
			<line fill="none" stroke="#626466" stroke-width="0.25" stroke-linejoin="round" stroke-miterlimit="10" x1="19.672" y1="56.655" x2="15.437" y2="60.891"/>
	</g>
	<g>
		
			<line fill="none" stroke="#626466" stroke-width="0.25" stroke-linejoin="round" stroke-miterlimit="10" x1="9.941" y1="41.668" x2="5.917" y2="45.689"/>
		
			<line fill="none" stroke="#626466" stroke-width="0.25" stroke-linejoin="round" stroke-miterlimit="10" x1="9.941" y1="43.066" x2="5.917" y2="47.088"/>
		
			<line fill="none" stroke="#626466" stroke-width="0.25" stroke-linejoin="round" stroke-miterlimit="10" x1="9.941" y1="44.465" x2="5.917" y2="48.486"/>
	</g>
</g>
</svg>
