<?xml version="1.0" encoding="utf-8"?>
<!-- Generator: Adobe Illustrator 15.0.0, SVG Export Plug-In . SVG Version: 6.00 Build 0)  -->
<!DOCTYPE svg PUBLIC "-//W3C//DTD SVG 1.1//EN" "http://www.w3.org/Graphics/SVG/1.1/DTD/svg11.dtd">
<svg version="1.1" id="Layer_1" xmlns="http://www.w3.org/2000/svg" xmlns:xlink="http://www.w3.org/1999/xlink" x="0px" y="0px"
	 width="1533.543px" height="1533.545px" viewBox="83.622 83.621 1533.543 1533.545"
	 enable-background="new 83.622 83.621 1533.543 1533.545" xml:space="preserve">
<g>
	<path d="M633.229,578.167c-20.927,0-37.912,17.021-37.912,37.878c0,20.856,16.984,37.843,37.912,37.843
		s37.878-16.985,37.878-37.843S654.155,578.167,633.229,578.167z"/>
	<path d="M576.196,540.697l37,16.762v-79.15l179.012-70.669c-0.036-0.743-0.057-1.491-0.057-2.243
		c0-25.155,20.306-45.562,45.493-45.562c25.121,0,45.527,20.406,45.527,45.562c0,25.122-20.406,45.528-45.527,45.528
		c-9.599,0-18.483-2.97-25.811-8.029l-158.638,62.627v70.059l187.982,85.163l257.117-120.046V438.183l127.032-58.624
		L841.179,252.908L454.477,379.559l121.721,56.288L576.196,540.697L576.196,540.697z"/>
	<rect x="649.737" y="662.534" width="20" height="173.055"/>
	<path d="M818.227,752.906c-92.485,36.189-138.244,140.593-101.996,233.225c36.19,92.574,140.622,138.304,233.196,102.084
		c92.573-36.22,138.304-140.593,102.083-233.195C1015.35,762.387,910.859,716.716,818.227,752.906z"/>
	<rect x="622.162" y="662.534" width="20" height="173.055"/>
	<rect x="594.659" y="662.534" width="20" height="173.055"/>
	<path d="M850.392,83.622c-423.476,0-766.771,343.295-766.771,766.771c0,423.478,343.295,766.771,766.771,766.771
		c423.478,0,766.771-343.295,766.771-766.771C1617.163,426.917,1273.868,83.622,850.392,83.622z M217.557,583.096
		c17.205-40.677,38.504-79.916,63.305-116.626c24.581-36.383,52.811-70.599,83.91-101.696
		c31.098-31.097,65.313-59.328,101.695-83.908c36.711-24.802,75.95-46.101,116.627-63.306
		c84.617-35.79,174.549-53.937,267.298-53.937s182.682,18.147,267.298,53.937c40.678,17.205,79.916,38.504,116.627,63.306
		c36.384,24.58,70.6,52.811,101.696,83.908c31.098,31.097,59.328,65.313,83.908,101.696c24.802,36.711,46.101,75.95,63.306,116.626
		c29.734,70.299,47.278,144.271,52.367,220.476c-106.539,163.67-354.973,320.159-511.791,337.651
		c-263.017,29.353-421.014-107.132-661.02-54.65c-52.028,11.342-96.146,31.753-133.48,57.302
		c-4.099-8.653-8.024-17.381-11.746-26.181c-35.79-84.617-53.937-174.55-53.937-267.3
		C163.62,757.645,181.767,667.712,217.557,583.096z M856.089,1286.303l55.151,4.303c-39.51,111.377-102.53,187.506-164.322,238.86
		c-45.926-6.919-90.877-18.494-134.53-34.643c16.19-4.993,31.888-10.837,47.034-17.565c44.546-19.786,84.518-47.031,118.801-80.978
		C825.414,1349.557,848.483,1303.559,856.089,1286.303z M840.357,1196.11l99.501-1.233l-29.938,59.7l-41.737-0.528L840.357,1196.11z
		 M364.771,1336.015c-17.128-17.127-33.38-35.204-48.638-54.064c19.139-5.365,38.855-9.677,59.035-12.579
		c133.898-19.214,237.482,53.52,258.838,196.564c-16.269,6.34-33.784,11.951-52.602,16.565
		c-40.073-17.078-78.737-38.121-114.938-62.578C430.084,1395.343,395.869,1367.112,364.771,1336.015z M1419.921,1234.319
		c-24.58,36.383-52.811,70.598-83.908,101.694c-31.097,31.098-65.313,59.328-101.695,83.908
		c-33.688,22.758-69.509,42.557-106.61,58.96c-31.788,6.899-50.073,12.618-50.073,12.618l-3.581-124.508
		c309.629-99.792,418.998-286.463,456.711-422.144c-8.145,59.435-24.037,117.283-47.536,172.842
		C1466.021,1158.368,1444.723,1197.608,1419.921,1234.319z"/>
</g>
</svg>
