<?xml version="1.0" encoding="utf-8"?>
<!-- Generator: Adobe Illustrator 15.0.0, SVG Export Plug-In . SVG Version: 6.00 Build 0)  -->
<!DOCTYPE svg PUBLIC "-//W3C//DTD SVG 1.1//EN" "http://www.w3.org/Graphics/SVG/1.1/DTD/svg11.dtd">
<svg version="1.1" id="Layer_1" xmlns="http://www.w3.org/2000/svg" xmlns:xlink="http://www.w3.org/1999/xlink" x="0px" y="0px"
	 width="1533.543px" height="1533.543px" viewBox="83.622 83.622 1533.543 1533.543"
	 enable-background="new 83.622 83.622 1533.543 1533.543" xml:space="preserve">
<path d="M850.395,1514.623c-366.814,0-664.204-297.388-664.204-664.231c0-366.814,297.389-664.259,664.204-664.259
	c366.844,0,664.231,297.444,664.231,664.259C1514.626,1217.235,1217.237,1514.623,850.395,1514.623 M850.395,83.622
	c-423.422,0-766.772,343.292-766.772,766.772c0,423.479,343.351,766.771,766.772,766.771c423.42,0,766.771-343.292,766.771-766.771
	C1617.165,426.915,1273.814,83.622,850.395,83.622"/>
<path d="M680.305,567.936c-32.49,0-58.925-26.434-58.925-58.925c0-32.459,26.435-58.866,58.925-58.866
	c32.459,0,58.866,26.407,58.866,58.866C739.171,541.502,712.764,567.936,680.305,567.936z M680.305,479.031
	c-16.53,0-29.979,13.449-29.979,29.979c0,16.531,13.449,29.98,29.979,29.98c16.531,0,29.98-13.449,29.98-29.98
	C710.285,492.48,696.836,479.031,680.305,479.031z"/>
<path d="M1027.09,1293.733c-56.201,0-101.925-45.725-101.925-101.926c0-22.599,7.302-44.011,21.116-61.94
	c0.096-0.219,0.24-0.492,0.463-0.766l34.876-46.293l-89-116.714v305.55c0,7.519-6.46,13.636-14.399,13.636
	c-8.005,0-14.518-6.117-14.518-13.636V928.19l-10.783-14.226l-10.609,13.989v343.688c0,7.52-6.484,13.637-14.458,13.637
	c-7.973,0-14.458-6.117-14.458-13.637V966.207l-88.345,116.752l36.694,47.645c0.258,0.309,0.414,0.612,0.507,0.832
	c13.051,17.599,19.947,38.467,19.947,60.373c0,56.201-45.709,101.926-101.896,101.926c-56.218,0-101.954-45.725-101.954-101.926
	c0-22.478,7.322-43.862,21.18-61.866c0.015-0.033,0.03-0.065,0.047-0.1l0.271-0.438l34.774-46.178L464.582,862.271l-61.936,17.414
	c-1.193,0.343-2.514,0.519-3.907,0.519c-6.424,0-12.133-4.338-13.882-10.549c-1.063-3.736-0.597-7.657,1.314-11.034
	c1.9-3.357,4.996-5.76,8.716-6.766l50.712-14.24l-9.105-11.877l-49.1,14.027c-1.207,0.346-2.526,0.521-3.919,0.521
	c-6.451,0-12.173-4.339-13.912-10.553c-2.144-7.663,2.36-15.643,10.037-17.789l38.394-11.009
	c-10.835-16.587-16.543-35.61-16.543-55.267c0-56.217,45.736-101.954,101.954-101.954c56.185,0,101.895,45.736,101.895,101.954
	c0,42.654-26.476,80.473-66.294,95.329l101.688,132.146V602.81c-17.923-7.559-33.229-20.004-44.35-36.089
	c-11.771-17.022-17.993-36.979-17.993-57.709c0-56.217,45.736-101.954,101.954-101.954c56.186,0,101.896,45.736,101.896,101.954
	c0,20.733-6.216,40.688-17.979,57.709c-11.114,16.086-26.414,28.532-44.335,36.09v367.326l87.446-115.947l-38.591-50.792
	c-0.631-0.783-0.947-1.601-1.181-2.2c-0.053-0.135-0.102-0.271-0.158-0.399c-10.697-16.517-16.351-35.574-16.351-55.127
	c0-56.217,45.75-101.954,101.983-101.954c56.201,0,101.925,45.736,101.925,101.954c0,25.104-9.319,49.267-26.242,68.054
	l-30.973,40.979l89.701,117.456V602.809c-17.89-7.563-33.173-20.009-44.287-36.088c-11.772-17.033-17.996-36.987-17.996-57.709
	c0-56.217,45.724-101.954,101.925-101.954c56.233,0,101.983,45.736,101.983,101.954c0,20.727-6.227,40.682-18.004,57.71
	c-11.124,16.083-26.425,28.528-44.339,36.089v366.951l96.538-128.398c-40.421-14.571-67.396-52.708-67.396-95.692
	c0-56.217,45.724-101.954,101.925-101.954s101.925,45.736,101.925,101.954c0,19.722-5.743,38.785-16.647,55.385l38.131,10.896
	c3.729,1.038,6.831,3.464,8.717,6.826c1.88,3.352,2.332,7.248,1.273,10.969c-1.698,6.196-7.409,10.542-13.88,10.542
	c-0.969,0-2.434-0.091-3.91-0.526l-48.414-13.84l-8.961,11.92l49.899,14.025c3.694,0.992,6.792,3.389,8.69,6.738
	c1.913,3.378,2.38,7.305,1.313,11.06c-1.71,6.198-7.421,10.542-13.881,10.542c-1.409,0-2.726-0.178-3.912-0.527l-60.732-17.074
	l-165.433,220.181l33.913,44.256l0.285,0.457c0.079,0.158,0.144,0.303,0.197,0.434c14.644,18.151,22.703,40.818,22.703,63.88
	C1129.073,1248.01,1083.323,1293.733,1027.09,1293.733z M970.746,1145.54c-10.747,12.967-16.665,29.399-16.665,46.269
	c0,40.259,32.751,73.01,73.009,73.01s73.009-32.751,73.009-73.01c0-17.047-5.999-33.62-16.893-46.672l0.004-0.101
	c-0.14-0.146-0.305-0.339-0.455-0.587L879.639,878.616l-8.658,11.427l202.685,265.646l0.104,0.146
	c0.178,0.266,0.293,0.506,0.373,0.683c7.75,10.209,11.844,22.404,11.844,35.289c0,32.443-26.421,58.838-58.896,58.838
	c-32.441,0-58.837-26.395-58.837-58.838c0-10.66,2.888-21.071,8.352-30.123c0.088-0.298,0.263-0.813,0.681-1.354l3.146-4.255
	l0.183-0.223c0.227-0.249,0.439-0.549,0.688-0.896c0.239-0.335,0.479-0.667,0.742-0.988l0.104-0.006l26.766-35.521l-9.044-11.819
	l-29.135,38.665L970.746,1145.54z M622.895,1146.732c-10.213,13.123-15.599,28.698-15.599,45.076
	c0,40.258,32.752,73.009,73.009,73.009c40.273,0,73.038-32.751,73.038-73.009c0-18.194-6.781-35.609-19.096-49.037l0.011-0.511
	L456.742,781.339l-0.073,0.001c-0.305-0.305-0.493-0.614-0.6-0.818l-0.684-0.895c-0.408-0.485-0.604-0.95-0.717-1.229
	c-6.667-9.85-10.19-21.165-10.19-32.729c0-32.491,26.435-58.924,58.926-58.924c32.459,0,58.865,26.433,58.865,58.924
	c0,28.216-20.102,52.487-47.815,57.765l-3.566,1.035l9.361,12.151c32.633-7.762,56.135-37.318,56.135-70.95
	c0-40.306-32.739-73.097-72.979-73.097c-40.273,0-73.039,32.792-73.039,73.097c0,16.104,5.187,31.37,15,44.149l-0.027,0.159
	c0.135,0.131,0.275,0.283,0.409,0.467l282.318,366.849c0.398,0.461,0.593,0.928,0.7,1.225c6.808,9.899,10.404,21.405,10.404,33.289
	c0,32.443-26.407,58.838-58.866,58.838c-32.491,0-58.925-26.395-58.925-58.838c0-12.801,4.116-24.979,11.907-35.237
	c0.078-0.212,0.191-0.472,0.372-0.739l0.095-0.134l28.075-37.077l-8.918-11.599L622.895,1146.732z M1001.767,1175.881
	c-3.047,4.805-4.655,10.311-4.655,15.928c0,16.531,13.447,29.98,29.979,29.98s29.979-13.449,29.979-29.98
	c0-16.563-13.448-30.037-29.979-30.037c-8.805,0-17.172,4.016-22.963,11.021L1001.767,1175.881z M680.305,1161.771
	c-16.53,0-29.979,13.475-29.979,30.037c0,16.531,13.449,29.98,29.979,29.98c16.531,0,29.98-13.449,29.98-29.98
	C710.285,1175.245,696.836,1161.771,680.305,1161.771z M706.79,1059.165l205.038-271.032l0.082-0.103
	c0.392-0.472,0.803-0.768,1.085-0.965c8.54-12.34,13.052-26.645,13.052-41.396c0-40.306-32.751-73.097-73.009-73.097
	c-40.273,0-73.039,32.792-73.039,73.097c0,17.245,5.921,33.412,17.123,46.754l-0.076,0.456l28.388,37.292l8.491-11.287
	l-30.749-40.294c-1.682-2.121-2.327-4.499-2.67-6.423c-4.262-8.417-6.423-17.329-6.423-26.498c0-32.491,26.447-58.924,58.954-58.924
	c32.441,0,58.837,26.433,58.837,58.924c0,12.13-3.711,23.818-10.73,33.8l-0.933,0.156l-202.398,267.877L706.79,1059.165z
	 M1053.779,1058.91l203.152-270.477l0.229-0.264l-0.031-0.096c8.984-12.533,13.733-27.197,13.733-42.405
	c0-40.306-32.777-73.097-73.067-73.097c-40.258,0-73.009,32.792-73.009,73.097c0,34.09,23.854,63.728,56.974,71.142l9.068-12.084
	l-4.921-1.414c-27.244-5.568-47.01-29.792-47.01-57.644c0-32.491,26.422-58.924,58.896-58.924c32.507,0,58.954,26.433,58.954,58.924
	c0,10.964-3.26,21.871-9.427,31.548c-0.029,0.062-0.057,0.132-0.085,0.203c-0.146,0.35-0.345,0.829-0.7,1.33l-201.803,268.342
	L1053.779,1058.91z M679.519,1023.702l11.482-15.231V610.26c-3.827,0.435-7.351,0.646-10.696,0.646
	c-3.356,0-6.898-0.213-10.755-0.648v400.488L679.519,1023.702z M1026.545,1023.271l11.329-15.091V610.258
	c-3.859,0.437-7.412,0.648-10.784,0.648c-3.351,0-6.865-0.211-10.667-0.645v399.728L1026.545,1023.271z M1192.305,775.083
	c1.722,0.347,3.47,0.509,5.492,0.509c16.499,0,29.921-13.423,29.921-29.922c0-16.531-13.422-29.979-29.921-29.979
	c-16.531,0-29.979,13.448-29.979,29.979c0,13.084,8.541,24.535,21.254,28.494L1192.305,775.083z M853.037,715.69
	c-16.563,0-30.039,13.448-30.039,29.979c0,16.499,13.476,29.922,30.039,29.922c6.801,0,13.187-2.281,18.489-6.6l8.253-10.86
	c0.216-0.289,0.456-0.509,0.664-0.672c1.708-3.872,2.572-7.835,2.572-11.79C883.017,729.139,869.568,715.69,853.037,715.69z
	 M479.244,763.275c5.751,7.826,14.558,12.315,24.162,12.315c1.722,0,3.335-0.148,4.928-0.456l4.752-1.313
	c0.262-0.094,0.481-0.142,0.628-0.169c11.702-4.332,19.613-15.578,19.613-27.983c0-16.531-13.423-29.979-29.921-29.979
	c-16.563,0-30.039,13.448-30.039,29.979c0,5.796,1.702,11.469,4.921,16.413L479.244,763.275z M1027.09,435.973
	c-40.258,0-73.009,32.766-73.009,73.039c0,40.257,32.751,73.01,73.009,73.01s73.009-32.752,73.009-73.01
	C1100.099,468.738,1067.348,435.973,1027.09,435.973z M680.305,435.973c-40.257,0-73.009,32.766-73.009,73.039
	c0,40.257,32.752,73.01,73.009,73.01c5.844,0,11.82-0.757,17.771-2.247c1.927-1.116,4.146-1.791,6.34-1.929
	c29.281-10.287,48.926-37.896,48.926-68.834C753.343,468.738,720.579,435.973,680.305,435.973z"/>
<path d="M1027.09,567.936c-32.441,0-58.837-26.434-58.837-58.925c0-32.459,26.396-58.866,58.837-58.866
	c32.475,0,58.896,26.407,58.896,58.866C1085.985,541.502,1059.564,567.936,1027.09,567.936z M1027.09,479.031
	c-16.531,0-29.979,13.449-29.979,29.979c0,16.531,13.447,29.98,29.979,29.98s29.979-13.449,29.979-29.98
	C1057.069,492.48,1043.621,479.031,1027.09,479.031z"/>
</svg>
