<?xml version="1.0" encoding="utf-8"?>
<!-- Generator: Adobe Illustrator 15.0.0, SVG Export Plug-In . SVG Version: 6.00 Build 0)  -->
<!DOCTYPE svg PUBLIC "-//W3C//DTD SVG 1.1//EN" "http://www.w3.org/Graphics/SVG/1.1/DTD/svg11.dtd">
<svg version="1.1" id="Layer_1" xmlns="http://www.w3.org/2000/svg" xmlns:xlink="http://www.w3.org/1999/xlink" x="0px" y="0px"
	 width="1533.543px" height="1533.544px" viewBox="83.623 83.622 1533.543 1533.544"
	 enable-background="new 83.623 83.622 1533.543 1533.544" xml:space="preserve">
<g>
	<path fill="#dddddd" d="M850.394,83.622c-423.476,0-766.771,343.295-766.771,766.771c0,423.478,343.295,766.773,766.771,766.773
		c423.479,0,766.772-343.295,766.772-766.773C1617.167,426.917,1273.873,83.622,850.394,83.622z M1419.923,1234.32
		c-24.58,36.383-52.811,70.598-83.908,101.695s-65.313,59.328-101.696,83.908c-36.711,24.801-75.949,46.1-116.627,63.305
		c-84.617,35.791-174.549,53.938-267.298,53.938c-92.748,0-182.681-18.146-267.298-53.938
		c-40.677-17.205-79.916-38.504-116.626-63.305c-36.383-24.58-70.599-52.813-101.695-83.908
		c-31.098-31.098-59.329-65.313-83.908-101.695c-24.802-36.711-46.101-75.951-63.306-116.627
		c-35.79-84.617-53.937-174.549-53.937-267.299c0-92.749,18.147-182.681,53.937-267.298c17.205-40.677,38.504-79.916,63.306-116.627
		c24.58-36.383,52.811-70.599,83.908-101.696c31.097-31.097,65.313-59.328,101.695-83.907
		c36.711-24.802,75.95-46.101,116.626-63.306c84.617-35.79,174.55-53.938,267.298-53.938c92.75,0,182.681,18.147,267.298,53.938
		c40.678,17.205,79.916,38.504,116.627,63.306c36.384,24.579,70.599,52.81,101.696,83.907c31.1,31.098,59.328,65.313,83.908,101.696
		c24.803,36.711,46.102,75.95,63.307,116.627c35.789,84.617,53.938,174.549,53.938,267.298c0,92.75-18.148,182.682-53.938,267.299
		C1466.025,1158.369,1444.726,1197.609,1419.923,1234.32z"/>
	<path fill="#dddddd"  d="M625.379,1039.193V798.499h198.027V487.114c0,0-90.511,12.091-90.511,112.314c0,63.183,0,108.561,0,108.561H625.379V639.4
		H534.9v400.226c0,165.871,56.192,156.156,140.875,171.844C675.775,1211.47,625.379,1165.744,625.379,1039.193z"/>
	<path fill="#dddddd"  d="M1174.428,599.429c0-93.337-90.48-112.314-90.48-112.314v593.629c-0.146,23.414-19.182,42.436-42.623,42.436
		c-23.227,0-42.104-18.689-42.537-41.813h0.088V487.114h-90.496v593.426c0,23.5-19.572,42.639-43.074,42.639
		c-23.21,0-42.101-18.689-42.55-41.813v-234.01h-90.584v233.184c0,73.416,59.731,133.133,133.134,133.133
		c33.736,0,64.516-12.742,88.018-33.518c23.484,20.773,54.25,33.518,88.002,33.518c73.127,0,132.654-59.268,133.09-132.307h0.014
		c0,0,0-0.307,0-0.393c0-0.158,0.029-0.275,0.029-0.436h-0.029C1174.428,1063.519,1174.428,690.635,1174.428,599.429z"/>
	<path fill="#dddddd"  d="M581.755,599.632c30.634,0,55.426-24.819,55.426-55.469c0-30.59-24.792-55.425-55.426-55.425
		c-30.604,0-55.425,24.835-55.425,55.425C526.332,574.813,551.152,599.632,581.755,599.632z"/>
	<path fill="#dddddd"  d="M375.719,664.808l-0.13-0.072c0,0,0,1.059,0,2.739c0,29.691,0,303.164,0,365.824c0,1.697,0,2.756,0,2.756l0.13-0.074
		c1.465,63.705,51.714,71.91,51.714,71.91v-93.09v-328.87v-93.031C427.433,592.898,377.184,601.104,375.719,664.808z"/>
	<path fill="#dddddd"  d="M334.299,1030.298V691.411c-19.195,41.928-31.432,101.904-31.432,169.45C302.869,928.378,315.104,988.398,334.299,1030.298
		z"/>
	<path fill="#dddddd"  d="M1273.355,592.898v93.074v328.855v93.063c0,0,50.25-8.205,51.729-71.91l0.131,0.074c0,0,0-1.059,0-2.756
		c0-29.676,0-303.135,0-365.825c0-1.682,0-2.739,0-2.739l-0.131,0.072C1323.605,601.104,1273.355,592.898,1273.355,592.898z"/>
	<path fill="#dddddd"  d="M1366.517,1009.376c19.166-41.928,31.402-101.904,31.402-169.464c0-67.502-12.236-127.537-31.402-169.422V1009.376z"/>
</g>
</svg>
