<?xml version="1.0" encoding="utf-8"?>
<!-- Generator: Adobe Illustrator 15.0.0, SVG Export Plug-In . SVG Version: 6.00 Build 0)  -->
<!DOCTYPE svg PUBLIC "-//W3C//DTD SVG 1.1//EN" "http://www.w3.org/Graphics/SVG/1.1/DTD/svg11.dtd">
<svg version="1.1" id="Layer_1" xmlns="http://www.w3.org/2000/svg" xmlns:xlink="http://www.w3.org/1999/xlink" x="0px" y="0px"
	 width="90.709px" height="90.709px" viewBox="0 0 90.709 90.709" enable-background="new 0 0 90.709 90.709" xml:space="preserve">
<g>
	<g>
		<g>
			<g>
				<path fill="#626466" d="M87.528,42.173h-0.847c0-22.787-18.54-41.325-41.328-41.325c-22.787,0-41.325,18.538-41.325,41.325
					H3.181C3.181,18.919,22.099,0,45.353,0C68.609,0,87.528,18.919,87.528,42.173z"/>
			</g>
			<g>
				<path fill="#626466" d="M85.9,42.173h-0.706c0-21.967-17.872-39.838-39.841-39.838c-21.967,0-39.838,17.871-39.838,39.838H4.809
					c0-22.355,18.188-40.544,40.544-40.544C67.71,1.629,85.9,19.817,85.9,42.173z"/>
			</g>
			<g>
				<path fill="#626466" d="M84.271,42.173h-0.564c0-21.147-17.205-38.352-38.354-38.352c-21.146,0-38.351,17.204-38.351,38.352
					H6.438c0-21.459,17.457-38.916,38.915-38.916C66.812,3.257,84.271,20.714,84.271,42.173z"/>
			</g>
			<g>
				<path fill="#626466" d="M82.642,42.173h-0.424c0-20.327-16.537-36.864-36.865-36.864c-20.326,0-36.862,16.537-36.862,36.864
					H8.067c0-20.561,16.727-37.288,37.286-37.288C65.915,4.885,82.642,21.612,82.642,42.173z"/>
			</g>
			<g>
				<path fill="#626466" d="M81.014,42.173h-0.282c0-19.507-15.871-35.377-35.379-35.377c-19.506,0-35.376,15.87-35.376,35.377
					H9.695c0-19.663,15.996-35.659,35.658-35.659C65.017,6.514,81.014,22.51,81.014,42.173z"/>
			</g>
		</g>
	</g>
	<g>
		<g>
			<path fill="#626466" d="M66.214,29.085c0,0-1.014,1.984-3.286,1.694c-2.272-0.291-3.287-1.79-4.542,0.096
				c0,0,0.58-0.34,0.869,0.965c0.29,1.305,1.159,3.575,3.479,3.479C65.055,35.223,66.649,31.357,66.214,29.085z"/>
		</g>
		<g>
			<circle fill="#FFFFFF" cx="60.121" cy="30.956" r="0.311"/>
		</g>
		<g>
			
				<rect x="62.121" y="34.914" transform="matrix(0.9438 0.3307 -0.3307 0.9438 15.4127 -18.5617)" fill="#626466" width="0.284" height="2.213"/>
		</g>
		<g>
			
				<rect x="62.855" y="34.959" transform="matrix(0.9926 0.1211 -0.1211 0.9926 4.8291 -7.3607)" fill="#626466" width="0.282" height="2.211"/>
		</g>
	</g>
	<g>
		<g>
			<path fill="#626466" d="M25.483,16.229c0,0,1.121,2.19,3.628,1.868c2.507-0.319,3.628-1.975,5.016,0.107
				c0,0-0.643-0.372-0.961,1.067c-0.32,1.44-1.279,3.949-3.841,3.842C26.762,23.008,25.003,18.738,25.483,16.229z"/>
		</g>
		<g>
			<circle fill="#FFFFFF" cx="32.212" cy="18.296" r="0.342"/>
		</g>
		<g>
			<path fill="#626466" d="M31.056,18.138c0,0-2.561,0.073-2.635-2.78c0,0-1.391,1.755-0.146,3.513
				C29.52,20.627,31.056,18.138,31.056,18.138z"/>
		</g>
	</g>
	<g>
		<path fill="#626466" d="M49.208,21.879c0,0,1.72-0.104,1.965,1.143c0.146,0.738,0.543,0.985,1.89,1.727
			c0.132,0.083-0.504,0.821-0.504,0.821s-0.019,0.363,0.276,0.347c0.274-0.015,0.17,0.165,0.125,0.481
			c-0.031,0.222,0.25,0.131,0.16,0.388c-0.088,0.256-0.254,0.315,0.194,0.753c0.444,0.439,0.333,1.255-1.191,1.396
			c-1.229,0.113-1.191,0.399-1.191,0.399s-0.379,1.95-0.028,3.715c0.275,1.373,0.902,2.332,0.902,2.332s-4.976-0.134-7.138-1.422
			c0,0-0.051-0.92,1.841-1.125c0.904-0.097,0.69-3.226,0.552-3.972c0,0-0.644-3.031,0.256-5.01
			C47.943,22.47,48.058,22.207,49.208,21.879z"/>
	</g>
	<g>
		<path fill="#626466" d="M42.544,35.934c-3.105,3.794-5.254,5.596-5.254,5.596s-0.555,0.498-0.366,2.08
			c0.188,1.581,0.815,4.576,1.129,5.528c0.312,0.954,0.145,1.246,0.145,1.246s-1.506,0.465-2.55,0.803
			c-1.047,0.338-0.916,0.45-1.865,0.958c-0.947,0.511-0.29,0.378-0.29,0.378c0.242-0.018,1.03-0.384,1.03-0.384
			s-0.304,0.332-0.875,0.589c-0.574,0.256-0.661,0.478-0.371,0.449c0.288-0.031,1.261-0.448,1.261-0.448s-0.165,0.295-1.023,0.778
			c-0.854,0.482-0.357,0.494-0.357,0.494c0.598-0.164,1.459-0.452,1.459-0.452c-0.3,0.528-0.834,0.923-0.834,0.923
			c0.589-0.014,1.462-0.8,1.946-1.379c0.483-0.578,1.65-0.651,1.65-0.651s0,0-0.424,0.611c-0.426,0.612-0.045,1.1-0.045,1.1
			s0.407-0.854,1.247-1.578c0.84-0.727,1.518-1.886,1.368-4.221c-0.147-2.334-0.776-5.52-0.776-5.52s4.398-2.502,6.124-5.09"/>
	</g>
	<g>
		<path fill="#626466" d="M52.356,37.037c0,0,0.38,5.619,0.909,6.422c0,0,1.105-1.962,2.295-4.224
			c1.191-2.263,1.965-2.691,3.161-2.893c1.197-0.198,2.063-0.763,2.063-0.763s0.08,0.671-0.666,1.001
			c-0.743,0.33-0.743,0.33-0.743,0.33s1.131,0.593,1.91,0.33c0.783-0.266,2.044-0.5,2.603-0.177c0,0-0.725,0.063-1.306,0.385
			c0,0,0.967,0.224,1.619,0.411c0,0,0.458,0.293-0.615,0.257c-1.075-0.038-1.397,0.142-1.397,0.142s1.146,0.165,1.432,0.303
			c0.287,0.137,0.078,0.295-0.602,0.207c-0.681-0.086-1.153,0.051-1.153,0.051s0.944,0.106,1.184,0.229c0,0,0.686,0.251-0.488,0.186
			c-1.175-0.065-1.118,0.113-2.286-0.167c-1.166-0.279-2.837-0.703-2.837-0.703s-0.321,0.178-0.574,1.244
			c-0.25,1.069-1.371,4.22-2.096,5.803c-0.726,1.582-1.526,1.732-1.526,1.732s-1.719-1.199-2.211-2.696
			c-0.492-1.498-0.748-6.29-0.748-6.29L52.356,37.037z"/>
	</g>
	<g>
		<path fill="#626466" d="M46.4,60.013c0,0-1.93,1.209-3.92,3.823c-1.992,2.611-6.312,7.473-7.908,9.163
			c-1.599,1.692-2.225,2.38-3.729,2.069c0,0-0.812-0.396-1.156,0.989c-0.396,1.587-1.585,2.707-2.088,3.507
			c-0.503,0.802-0.4,2.446-0.122,2.812s0.863-0.96,1.242-1.59c0.38-0.63,2.789-2.109,6.321-5.066
			c3.533-2.959,11.914-10.868,13.085-12.168s2.472-2.75,2.65-4.208C50.957,57.884,46.4,60.013,46.4,60.013z"/>
	</g>
	<g>
		<path fill="#626466" d="M54.591,60.219c0,0,0.242,2.55-0.443,3.906c-0.688,1.357-1.532,5.31-2.34,9.473
			c-0.789,4.061-1.202,11.155-1.179,12.913c0.022,1.76,0.38,2.281,1.264,2.563c0.882,0.282,0.304,0.76-0.755,0.657
			c-1.054-0.105-1.638,0.254-1.891-1.09c-0.25-1.348-1.805-3.73-1.805-3.73s-0.476-0.402,0.154-1.526
			c0.631-1.123,0.941,0.486,1.216-5.702c0.167-3.76,0.391-8.762,0.632-10.795c0.396-3.341,1.197-6.506,1.197-6.506L54.591,60.219z"
			/>
	</g>
	<g>
		<path fill="#FFFFFF" d="M51.852,34.864c0,0,1.766,1.604,3.407,7.308c0.959,3.33,4.837,12.298,5.166,16.896
			c0.331,4.599-2.067,3.387-2.8,3.073c-1.258-0.537-1.863-0.471-3.032,0.528c-1.714,1.465-3.316,1.644-4.921,0.152
			c-0.953-0.886-1.521,0.913-3.698,0.642c-1.857-0.231-1.933-1.707-3.555-1.048c-2.129,0.865-4.869,0.099-3.843-1.56
			c1.027-1.655,3.67-6.172,4.802-12.435c0.673-3.721,0.682-9.275,0.682-9.275s-0.914,2.486-1.142,1.454
			c-0.229-1.032-1.868-3.37-1.868-3.37s-0.366-0.326,0.103-0.996c0.472-0.67,2.936-2.158,3.183-3.06
			c0.249-0.902,0.941-0.311,0.941-0.311s-0.037,0.437,1.325,0.879C47.965,34.185,50.989,35.866,51.852,34.864z"/>
		<path fill="#626466" d="M51.956,63.999c-0.813,0-1.613-0.361-2.379-1.073c-0.378-0.352-0.697-0.191-1.201,0.096
			c-0.476,0.272-1.068,0.612-1.959,0.612c-0.149,0-0.304-0.01-0.46-0.029c-0.848-0.106-1.353-0.47-1.758-0.762
			c-0.353-0.253-0.631-0.453-1.033-0.453c-0.205,0-0.432,0.051-0.693,0.157c-0.595,0.242-1.255,0.37-1.909,0.37
			c-1.065,0-1.917-0.342-2.224-0.892c-0.141-0.253-0.234-0.675,0.117-1.243c2.349-3.786,4.003-8.069,4.782-12.386
			c0.518-2.859,0.641-6.853,0.67-8.497c-0.245,0.555-0.554,1.093-0.82,1.093c-0.151,0-0.255-0.121-0.309-0.361
			c-0.219-0.993-1.828-3.296-1.845-3.319l0,0c-0.005,0-0.427-0.401,0.103-1.158c0.197-0.281,0.688-0.668,1.256-1.117
			c0.788-0.622,1.769-1.397,1.905-1.898c0.139-0.5,0.412-0.605,0.617-0.605c0.282,0,0.526,0.202,0.553,0.225l0.056,0.047
			l-0.007,0.072l0,0c0.002,0,0.056,0.353,1.229,0.733c0.325,0.105,0.748,0.281,1.196,0.469c1.021,0.428,2.293,0.958,3.151,0.958l0,0
			c0.353,0,0.599-0.086,0.752-0.265l0.095-0.109l0.106,0.098c0.073,0.066,1.814,1.697,3.448,7.373
			c0.291,1.011,0.854,2.548,1.505,4.327c1.531,4.181,3.436,9.383,3.666,12.599c0.114,1.572-0.083,2.644-0.586,3.184
			c-0.259,0.278-0.598,0.42-1.005,0.42c-0.511,0-1.018-0.222-1.321-0.354l-0.084-0.037c-0.529-0.227-0.895-0.322-1.222-0.322
			c-0.499,0-0.966,0.232-1.663,0.828C53.723,63.6,52.83,63.999,51.956,63.999z M49.129,62.434c0.224,0,0.433,0.094,0.64,0.285
			c1.498,1.394,2.979,1.345,4.732-0.156c0.755-0.645,1.272-0.896,1.847-0.896c0.367,0,0.766,0.103,1.333,0.345l0.086,0.037
			c0.283,0.124,0.757,0.33,1.208,0.33c0.33,0,0.592-0.107,0.798-0.329c0.447-0.48,0.619-1.479,0.512-2.971
			c-0.228-3.177-2.206-8.578-3.649-12.522c-0.653-1.784-1.218-3.325-1.512-4.346c-1.396-4.849-2.894-6.728-3.274-7.146
			c-0.205,0.169-0.492,0.254-0.855,0.254l0,0c-0.916,0-2.216-0.543-3.26-0.979c-0.442-0.185-0.86-0.359-1.176-0.461
			c-1.138-0.37-1.371-0.757-1.413-0.938c-0.074-0.051-0.207-0.125-0.329-0.125c-0.059,0-0.234,0-0.345,0.397
			c-0.162,0.591-1.14,1.363-2.003,2.045c-0.527,0.417-1.025,0.812-1.2,1.059c-0.384,0.548-0.133,0.8-0.121,0.811
			c0.087,0.119,1.678,2.396,1.909,3.443c0.026,0.12,0.056,0.147,0.056,0.147c0.12-0.047,0.515-0.801,0.815-1.619l0.274-0.749
			l-0.001,0.797c0,0.056-0.017,5.61-0.684,9.301c-0.786,4.35-2.453,8.667-4.82,12.484c-0.225,0.362-0.262,0.684-0.11,0.956
			c0.253,0.454,1.028,0.746,1.977,0.746c0.618,0,1.242-0.12,1.804-0.349c0.296-0.12,0.557-0.178,0.799-0.178
			c0.494,0,0.836,0.246,1.198,0.507c0.399,0.287,0.852,0.612,1.628,0.71c0.145,0.018,0.287,0.027,0.425,0.027
			c0.815,0,1.372-0.318,1.818-0.574C48.557,62.593,48.835,62.434,49.129,62.434z"/>
	</g>
	<g>
		<path fill="#FFFFFF" d="M49.879,22.312c0,0-0.574-0.228-0.936,0.063c-0.363,0.288-0.899,2.382,0.295,3.911
			c0.898,1.149,2.354,1.411,2.354,1.411s-0.754,1.976-3.62,2.981c-1.533,0.537-3.305,0.363-3.814-0.264
			c-0.569-0.7-1.023-4.937,0.418-7.335C46.013,20.68,49.464,21.634,49.879,22.312z"/>
		<path fill="#626466" d="M46.079,31.139c-0.948,0-1.707-0.237-2.03-0.636c-0.643-0.789-1.014-5.135,0.406-7.497
			c0.621-1.036,1.707-1.606,3.059-1.606c1.18,0,2.238,0.434,2.486,0.838l0.219,0.359l-0.392-0.154c-0.001,0-0.193-0.075-0.41-0.075
			c-0.159,0-0.288,0.04-0.385,0.117c-0.309,0.245-0.831,2.242,0.319,3.713c0.854,1.095,2.252,1.357,2.266,1.36l0.168,0.03
			l-0.061,0.158c-0.032,0.083-0.81,2.049-3.705,3.064C47.407,31.025,46.736,31.139,46.079,31.139z M47.513,21.682
			c-0.723,0-2.05,0.19-2.816,1.47c-1.403,2.336-0.944,6.54-0.43,7.173c0.267,0.328,0.961,0.532,1.812,0.532
			c0.625,0,1.264-0.107,1.847-0.313c2.318-0.813,3.226-2.278,3.465-2.749c-0.426-0.109-1.519-0.471-2.263-1.423
			c-1.22-1.562-0.71-3.761-0.271-4.108c0.136-0.109,0.308-0.169,0.511-0.178C48.949,21.873,48.265,21.682,47.513,21.682z"/>
	</g>
	<g>
		<path fill="#626466" d="M49.028,21.852c-0.378-0.112-0.773,0.046-1.013,0.32c-0.255,0.267-0.408,0.618-0.52,0.975
			c-0.221,0.722-0.323,1.48-0.226,2.224c0.07,0.749,0.304,1.479,0.642,2.154c0.349,0.656,0.783,1.336,1.487,1.668
			c-0.753-0.238-1.286-0.902-1.678-1.565c-0.394-0.68-0.634-1.443-0.729-2.227c-0.085-0.788,0.026-1.591,0.296-2.326
			c0.143-0.365,0.33-0.73,0.63-1.004C48.218,21.8,48.669,21.692,49.028,21.852z"/>
	</g>
	<g>
		<path fill="#626466" d="M48.58,22.835c-0.919,0.006-1.526,0.808-1.807,1.582c-0.301,0.8-0.458,1.664-0.356,2.507
			c0.074,0.846,0.438,1.646,0.981,2.303c0.548,0.659,1.265,1.172,2.022,1.604c-0.805-0.337-1.583-0.795-2.187-1.46
			c-0.604-0.658-1.001-1.52-1.097-2.416c-0.082-0.897,0.077-1.806,0.439-2.618c0.181-0.405,0.425-0.799,0.768-1.094
			C47.691,22.955,48.142,22.783,48.58,22.835z"/>
	</g>
	<g>
		<g>
			<path fill="#626466" d="M22.387,90.709c-7.695,0-13.955-6.261-13.955-13.956c0-7.696,6.26-13.957,13.955-13.957
				c7.696,0,13.958,6.261,13.958,13.957C36.345,84.448,30.083,90.709,22.387,90.709z M22.387,65.196
				c-6.371,0-11.555,5.185-11.555,11.557s5.184,11.556,11.555,11.556c6.373,0,11.558-5.184,11.558-11.556
				S28.76,65.196,22.387,65.196z"/>
		</g>
		<g>
			<circle fill="#626466" cx="22.388" cy="76.753" r="3.41"/>
		</g>
		<g>
			<path fill="#626466" d="M67.982,90.709c-7.696,0-13.957-6.261-13.957-13.956c0-7.696,6.261-13.957,13.957-13.957
				c7.695,0,13.955,6.261,13.955,13.957C81.937,84.448,75.677,90.709,67.982,90.709z M67.982,65.196
				c-6.372,0-11.557,5.185-11.557,11.557s5.185,11.556,11.557,11.556s11.555-5.184,11.555-11.556S74.354,65.196,67.982,65.196z"/>
		</g>
		<g>
			<circle fill="#626466" cx="67.981" cy="76.753" r="3.41"/>
		</g>
		<g>
			<circle fill="#626466" cx="43.48" cy="76.753" r="5.021"/>
		</g>
		<g>
			<polygon fill="#626466" points="43.888,77.559 21.181,77.559 33.514,58.047 34.755,58.831 23.846,76.091 43.326,76.091 
				58.047,62.887 59.028,63.979 			"/>
		</g>
		<g>
			<polygon fill="#626466" points="67.438,77.246 59.426,68.319 53.905,53.262 55.284,52.757 60.756,67.68 68.527,76.26 			"/>
		</g>
		<g>
			
				<rect x="26.795" y="65.628" transform="matrix(0.4205 0.9073 -0.9073 0.4205 82.1313 4.1325)" fill="#626466" width="22.071" height="1.468"/>
		</g>
		<g>
			<path fill="#626466" d="M29.17,56.729h7.831c0,0,2.655-0.126,0-1.516c-2.651-1.389-6.945-2.02-9.346-1.136
				C27.656,54.078,28.162,56.604,29.17,56.729z"/>
		</g>
		<g>
			<path fill="#626466" d="M58.719,53.886h-9.347c-0.624,0-1.129-0.506-1.129-1.129c0-0.624,0.505-1.13,1.129-1.13h7.818
				c-0.17-0.959-0.132-2.146,0.722-3.019c0.437-0.446,1.15-0.454,1.597-0.017c0.446,0.437,0.454,1.151,0.017,1.598
				c-0.35,0.356-0.052,1.526,0.213,2.08c0.167,0.351,0.143,0.762-0.064,1.089C59.467,53.687,59.107,53.886,58.719,53.886z"/>
		</g>
		<g>
			<path fill="#626466" d="M42.975,85.334h-4.926c-0.624,0-1.129-0.506-1.129-1.129c0-0.624,0.505-1.13,1.129-1.13h4.926
				c0.624,0,1.13,0.506,1.13,1.13C44.105,84.828,43.599,85.334,42.975,85.334z"/>
		</g>
		<g>
			
				<rect x="41.211" y="76.85" transform="matrix(0.9273 0.3742 -0.3742 0.9273 33.2471 -9.7673)" fill="#626466" width="1.13" height="7.765"/>
		</g>
	</g>
	<g>
		
			<line fill="none" stroke="#626466" stroke-width="0.25" stroke-linejoin="round" stroke-miterlimit="10" x1="73.95" y1="78.227" x2="70.193" y2="81.983"/>
		
			<line fill="none" stroke="#626466" stroke-width="0.25" stroke-linejoin="round" stroke-miterlimit="10" x1="73.95" y1="79.601" x2="70.193" y2="83.356"/>
		
			<line fill="none" stroke="#626466" stroke-width="0.25" stroke-linejoin="round" stroke-miterlimit="10" x1="73.95" y1="80.976" x2="70.193" y2="84.73"/>
		
			<line fill="none" stroke="#626466" stroke-width="0.25" stroke-linejoin="round" stroke-miterlimit="10" x1="73.95" y1="82.35" x2="70.193" y2="86.104"/>
	</g>
	<g>
		
			<line fill="none" stroke="#626466" stroke-width="0.25" stroke-linejoin="round" stroke-miterlimit="10" x1="17.413" y1="68.443" x2="13.656" y2="72.2"/>
		
			<line fill="none" stroke="#626466" stroke-width="0.25" stroke-linejoin="round" stroke-miterlimit="10" x1="17.413" y1="69.817" x2="13.656" y2="73.573"/>
		
			<line fill="none" stroke="#626466" stroke-width="0.25" stroke-linejoin="round" stroke-miterlimit="10" x1="17.413" y1="71.191" x2="13.656" y2="74.946"/>
		
			<line fill="none" stroke="#626466" stroke-width="0.25" stroke-linejoin="round" stroke-miterlimit="10" x1="17.413" y1="72.566" x2="13.656" y2="76.32"/>
	</g>
	<g>
		
			<line fill="none" stroke="#626466" stroke-width="0.25" stroke-linejoin="round" stroke-miterlimit="10" x1="49.25" y1="38.674" x2="45.524" y2="42.4"/>
		
			<line fill="none" stroke="#626466" stroke-width="0.25" stroke-linejoin="round" stroke-miterlimit="10" x1="49.25" y1="40.547" x2="45.524" y2="44.274"/>
		
			<line fill="none" stroke="#626466" stroke-width="0.25" stroke-linejoin="round" stroke-miterlimit="10" x1="49.25" y1="42.421" x2="45.524" y2="46.147"/>
		
			<line fill="none" stroke="#626466" stroke-width="0.25" stroke-linejoin="round" stroke-miterlimit="10" x1="49.25" y1="44.294" x2="45.524" y2="48.021"/>
		
			<line fill="none" stroke="#626466" stroke-width="0.25" stroke-linejoin="round" stroke-miterlimit="10" x1="49.25" y1="46.168" x2="45.524" y2="49.895"/>
		
			<line fill="none" stroke="#626466" stroke-width="0.25" stroke-linejoin="round" stroke-miterlimit="10" x1="49.25" y1="48.042" x2="45.524" y2="51.769"/>
		
			<line fill="none" stroke="#626466" stroke-width="0.25" stroke-linejoin="round" stroke-miterlimit="10" x1="49.25" y1="49.915" x2="45.524" y2="53.642"/>
		
			<line fill="none" stroke="#626466" stroke-width="0.25" stroke-linejoin="round" stroke-miterlimit="10" x1="49.25" y1="51.788" x2="45.524" y2="55.515"/>
		
			<line fill="none" stroke="#626466" stroke-width="0.25" stroke-linejoin="round" stroke-miterlimit="10" x1="49.25" y1="53.662" x2="45.524" y2="57.389"/>
		
			<line fill="none" stroke="#626466" stroke-width="0.25" stroke-linejoin="round" stroke-miterlimit="10" x1="49.25" y1="55.536" x2="45.524" y2="59.262"/>
	</g>
	<g>
		<g>
			<path fill="#626466" d="M60.498,18.554l-0.559-0.079c0.003-0.024,0.382-2.494,2.942-2.789c0.865-0.099,1.677,0.129,2.341,0.664
				c0.732,0.59,1.116,1.415,1.172,1.971l-0.563,0.057c-0.042-0.425-0.361-1.103-0.964-1.588c-0.379-0.305-1.02-0.647-1.921-0.542
				C60.814,16.492,60.5,18.533,60.498,18.554z"/>
		</g>
		<g>
			<path fill="#626466" d="M62.393,24.272c-0.771,0-1.516-0.321-2.22-0.958c-0.534,0.071-2.372,0.194-3.136-1.335
				c-0.496-0.99-0.36-2.071,0.363-2.89c0.863-0.975,2.335-1.28,3.747-0.778l-0.189,0.531c-1.449-0.513-2.569-0.017-3.134,0.622
				c-0.565,0.639-0.671,1.485-0.282,2.263c0.688,1.376,2.647,1.015,2.668,1.01l0.143-0.027l0.106,0.1
				c0.676,0.644,1.385,0.945,2.094,0.893c1.245-0.09,2.134-1.204,2.143-1.215l0.188-0.238l0.224,0.203
				c1.09,0.986,2.441,1.241,3.621,0.681c0.953-0.453,1.538-1.341,1.49-2.261c-0.086-1.642-1.366-2.417-2.597-2.456
				c-1.655-0.068-2.405,0.981-2.413,0.993l-0.46-0.329c0.038-0.053,0.963-1.295,2.891-1.229c1.441,0.046,3.039,1.003,3.143,2.992
				c0.06,1.148-0.651,2.247-1.812,2.799c-1.313,0.624-2.799,0.402-4.025-0.587c-0.366,0.381-1.222,1.128-2.351,1.209
				C62.527,24.27,62.459,24.272,62.393,24.272z"/>
		</g>
		<g>
			
				<line fill="none" stroke="#626466" stroke-width="0.25" stroke-linejoin="round" stroke-miterlimit="10" x1="63.088" y1="18.071" x2="60.575" y2="20.587"/>
			
				<line fill="none" stroke="#626466" stroke-width="0.25" stroke-linejoin="round" stroke-miterlimit="10" x1="63.088" y1="19.38" x2="60.575" y2="21.895"/>
			
				<line fill="none" stroke="#626466" stroke-width="0.25" stroke-linejoin="round" stroke-miterlimit="10" x1="63.088" y1="20.688" x2="60.575" y2="23.202"/>
		</g>
	</g>
	<g>
		<g>
			<path fill="#626466" d="M20.916,32.156l-0.56-0.08c0.005-0.031,0.484-3.162,3.733-3.537c1.393-0.161,2.38,0.369,2.966,0.841
				c0.929,0.749,1.414,1.792,1.483,2.494l-0.562,0.055c-0.056-0.565-0.479-1.467-1.276-2.109c-0.502-0.404-1.356-0.861-2.546-0.719
				C21.344,29.424,20.931,32.045,20.916,32.156z"/>
		</g>
		<g>
			<path fill="#626466" d="M23.449,39.479c-0.986,0-1.941-0.417-2.845-1.242c-0.625,0.088-3.024,0.293-4.009-1.677
				c-0.625-1.25-0.454-2.612,0.458-3.645c1.094-1.237,2.962-1.625,4.757-0.985l-0.188,0.532c-1.917-0.681-3.397-0.019-4.145,0.827
				c-0.755,0.853-0.896,1.981-0.377,3.019c0.919,1.836,3.514,1.355,3.541,1.351l0.143-0.028l0.106,0.101
				c0.89,0.848,1.832,1.249,2.768,1.177c1.642-0.116,2.823-1.589,2.835-1.604l0.187-0.236l0.225,0.201
				c1.434,1.299,3.219,1.633,4.772,0.894c1.263-0.601,2.038-1.778,1.975-3.001c-0.112-2.176-1.809-3.203-3.438-3.257
				c-2.167-0.072-3.181,1.306-3.19,1.319l-0.46-0.329c0.049-0.067,1.217-1.626,3.668-1.555c1.828,0.06,3.854,1.271,3.985,3.792
				c0.075,1.452-0.826,2.842-2.297,3.54c-1.689,0.803-3.606,0.503-5.177-0.796c-0.433,0.462-1.548,1.486-3.039,1.594
				C23.618,39.478,23.533,39.479,23.449,39.479z"/>
		</g>
		<g>
			
				<line fill="none" stroke="#626466" stroke-width="0.25" stroke-linejoin="round" stroke-miterlimit="10" x1="25.292" y1="30.417" x2="22.451" y2="33.261"/>
			
				<line fill="none" stroke="#626466" stroke-width="0.25" stroke-linejoin="round" stroke-miterlimit="10" x1="25.292" y1="31.966" x2="22.451" y2="34.81"/>
			
				<line fill="none" stroke="#626466" stroke-width="0.25" stroke-linejoin="round" stroke-miterlimit="10" x1="25.292" y1="33.516" x2="22.451" y2="36.358"/>
			
				<line fill="none" stroke="#626466" stroke-width="0.25" stroke-linejoin="round" stroke-miterlimit="10" x1="25.292" y1="35.064" x2="22.451" y2="37.907"/>
		</g>
	</g>
	<g>
		
			<line fill="none" stroke="#FFFFFF" stroke-width="0.25" stroke-linejoin="round" stroke-miterlimit="10" x1="43.751" y1="72.656" x2="40.976" y2="75.435"/>
		
			<line fill="none" stroke="#FFFFFF" stroke-width="0.25" stroke-linejoin="round" stroke-miterlimit="10" x1="43.751" y1="74.17" x2="40.976" y2="76.948"/>
		
			<line fill="none" stroke="#FFFFFF" stroke-width="0.25" stroke-linejoin="round" stroke-miterlimit="10" x1="43.751" y1="75.685" x2="40.976" y2="78.46"/>
		
			<line fill="none" stroke="#FFFFFF" stroke-width="0.25" stroke-linejoin="round" stroke-miterlimit="10" x1="43.751" y1="77.197" x2="40.976" y2="79.974"/>
	</g>
	<g>
		<path fill="#626466" d="M54.167,19.765c-0.834-1.194-3.62,0.334-5.146,1.309c0,0-2.836-2.618-5.63,0.254
			c-1.89,1.942-0.258,4.422-0.32,4.975c-0.789,0.91-2.031,2.511-2.035,3.58c-0.008,1.567,2.657,1.061,6.66-2.17
			C51.7,24.479,54.545,20.306,54.167,19.765z"/>
	</g>
	<g>
		<path fill="#626466" d="M43.15,25.618c0,0-0.598-1.093-1.1-1.293c-0.265-0.106-1.111,0.847-1.085,1.218
			c0.043,0.609,1.323,0.396,2.125,0.493L43.15,25.618z"/>
	</g>
	<g>
		<path fill="#626466" d="M43.477,25.759c0,0-2.388,2.033-4.574,1.83l0.764,0.407l-0.662,0.508c0,0,2.341,0.103,4.473-2.236V25.759z
			"/>
	</g>
	<g>
		<path fill="#626466" d="M43.151,25.718c0,0-1.919,1.079-3.477,0.42c-1.56-0.659-2.998,0.601-2.998,0.601l0.841,0.059l-0.302,0.898
			c0,0,0.359-1.258,1.918-0.839c1.558,0.42,3.177-0.119,4.018-0.538V25.718z"/>
	</g>
	<g>
		<path fill="#FFFFFF" d="M49.645,20.584c-0.332,0.678-0.735,1.24-1.188,1.789c-0.452,0.54-0.954,1.034-1.498,1.472
			c-1.086,0.881-2.337,1.524-3.647,1.916c1.264-0.524,2.416-1.283,3.365-2.231c0.476-0.472,0.902-0.989,1.272-1.539
			c0.366-0.545,0.698-1.146,0.91-1.723L49.645,20.584z"/>
	</g>
	<g>
		<path fill="#626466" d="M45.203,30.977c-0.451-0.797-0.593-1.69-0.541-2.554c0.038,0.858,0.291,1.726,0.772,2.392L45.203,30.977z"
			/>
	</g>
	<g>
		<polygon fill="#626466" points="66.693,89.267 67.991,76.815 67.255,89.313 		"/>
	</g>
	<g>
		<polygon fill="#626466" points="55.936,80.376 67.928,76.786 56.111,80.914 		"/>
	</g>
	<g>
		<polygon fill="#626466" points="67.957,76.805 79.523,82.142 79.276,82.649 		"/>
	</g>
	<g>
		<path fill="none" stroke="#626466" stroke-width="0.25" stroke-miterlimit="10" d="M78.428,83.978"/>
	</g>
	<g>
		<path fill="none" stroke="#626466" stroke-width="0.25" stroke-miterlimit="10" d="M67.981,76.753"/>
	</g>
	<g>
		<polygon fill="#626466" points="74.24,65.677 67.981,76.753 73.741,65.41 		"/>
	</g>
	<g>
		<polygon fill="#626466" points="16.83,65.231 22.286,76.498 16.327,65.489 		"/>
	</g>
	<g>
		<polygon fill="#626466" points="22.437,76.531 17.41,88.235 16.895,88.001 		"/>
	</g>
	<g>
		<polygon fill="#626466" points="22.293,76.532 9.673,78.261 9.609,77.7 		"/>
	</g>
	<g>
		<polygon fill="#626466" points="30.131,86.618 22.354,76.55 30.57,86.263 		"/>
	</g>
</g>
</svg>
