<?xml version="1.0" encoding="utf-8"?>
<!-- Generator: Adobe Illustrator 15.0.0, SVG Export Plug-In . SVG Version: 6.00 Build 0)  -->
<!DOCTYPE svg PUBLIC "-//W3C//DTD SVG 1.1//EN" "http://www.w3.org/Graphics/SVG/1.1/DTD/svg11.dtd">
<svg version="1.1" id="Layer_1" xmlns="http://www.w3.org/2000/svg" xmlns:xlink="http://www.w3.org/1999/xlink" x="0px" y="0px"
	 width="42.52px" height="42.52px" viewBox="0 0 42.52 42.52" enable-background="new 0 0 42.52 42.52" xml:space="preserve">
<path fill="#DDDDDD" d="M21.26,0C13.303,0,6.83,6.473,6.83,14.43c0,3.197,1.882,8.059,5.924,15.303
	c2.758,4.941,5.503,9.115,5.619,9.291l1.983,3.009c0.201,0.303,0.54,0.486,0.903,0.486c0.364,0,0.701-0.184,0.902-0.486l1.984-3.009
	c0.113-0.174,2.84-4.313,5.62-9.291c4.04-7.242,5.923-12.106,5.923-15.303C35.69,6.473,29.215,0,21.26,0z M21.26,19.373
	c-2.776,0-5.034-2.258-5.034-5.034c0-2.775,2.258-5.034,5.034-5.034c2.775,0,5.035,2.258,5.035,5.034
	C26.295,17.115,24.035,19.373,21.26,19.373z"/>
</svg>
