<?xml version="1.0" encoding="utf-8"?>
<!-- Generator: Adobe Illustrator 15.0.0, SVG Export Plug-In . SVG Version: 6.00 Build 0)  -->
<!DOCTYPE svg PUBLIC "-//W3C//DTD SVG 1.1//EN" "http://www.w3.org/Graphics/SVG/1.1/DTD/svg11.dtd">
<svg version="1.1" id="Layer_1" xmlns="http://www.w3.org/2000/svg" xmlns:xlink="http://www.w3.org/1999/xlink" x="0px" y="0px"
	 width="1533.543px" height="1533.544px" viewBox="83.623 83.622 1533.543 1533.544"
	 enable-background="new 83.623 83.622 1533.543 1533.544" xml:space="preserve">
<g>
	<path fill="#040305" d="M850.393,83.622c-423.476,0-766.771,343.295-766.771,766.771c0,423.478,343.295,766.773,766.771,766.773
		c423.478,0,766.772-343.295,766.772-766.773C1617.166,426.917,1273.871,83.622,850.393,83.622z M890.394,164.775
		c78.611,4.475,154.902,22.164,227.299,52.784c40.676,17.205,79.916,38.504,116.627,63.306
		c36.383,24.58,70.598,52.811,101.695,83.908s59.328,65.313,83.908,101.696c24.801,36.711,46.1,75.95,63.305,116.626
		c28.822,68.146,46.195,139.741,51.869,213.478h-57.41c-26.189-309.493-275.951-555.082-587.293-574.613V164.775z M1292.935,547.737
		l-118.164,118.229c-3.299,3.298-7.609,4.947-11.941,4.947c-4.311,0-8.643-1.649-11.941-4.947c-6.598-6.588-6.598-17.287,0-23.884
		l118.164-118.231c6.6-6.574,17.287-6.618,23.885,0C1299.535,530.44,1299.535,541.139,1292.935,547.737z M1292.935,635.573
		l-118.164,118.242c-3.299,3.299-7.609,4.948-11.941,4.948c-4.311,0-8.643-1.649-11.941-4.948c-6.598-6.587-6.598-17.285,0-23.886
		l118.164-118.239c6.6-6.587,17.287-6.609,23.885,0C1299.535,618.276,1299.535,628.977,1292.935,635.573z M1292.935,459.889
		l-118.164,118.229c-3.299,3.299-7.609,4.949-11.941,4.949c-4.311,0-8.643-1.65-11.941-4.949c-6.598-6.586-6.598-17.285,0-23.883
		l118.164-118.23c6.6-6.576,17.287-6.619,23.885,0C1299.535,442.592,1299.535,453.29,1292.935,459.889z M890.394,571.203
		c23.982,3.385,47.328,9.824,69.75,19.308c33.574,14.201,63.742,34.545,89.664,60.467c25.922,25.923,46.268,56.09,60.467,89.664
		c7.652,18.093,13.32,36.787,17.014,55.932h-60.072c-20.967-84.742-90.154-150.322-176.82-165.987v-59.383H890.394z
		 M1131.203,876.572c-2.635,28.85-9.631,56.865-20.928,83.574c-14.199,33.572-34.543,63.74-60.467,89.662
		c-25.922,25.922-56.09,46.268-89.662,60.467c-22.424,9.482-45.77,15.924-69.752,19.309v-59.396
		c95.885-17.336,170.32-95.793,181.736-193.615H1131.203L1131.203,876.572z M217.559,583.096
		c17.205-40.677,38.504-79.916,63.306-116.626c24.581-36.383,52.811-70.599,83.909-101.696
		c31.097-31.097,65.313-59.329,101.695-83.908c36.711-24.802,75.95-46.101,116.626-63.306
		c72.396-30.621,148.687-48.31,227.298-52.785v335.873C652.583,518.5,526.405,640.681,502.484,796.573H165.697
		C171.371,722.836,188.735,651.241,217.559,583.096z M810.393,571.203v59.386c-86.667,15.673-155.859,81.249-176.812,165.983
		h-60.094c3.688-19.146,9.37-37.837,17.022-55.931c14.201-33.573,34.545-63.74,60.467-89.663
		c25.924-25.923,56.091-46.268,89.664-60.468C763.064,581.026,786.41,574.588,810.393,571.203z M810.393,1536.013
		c-78.612-4.475-154.901-22.164-227.298-52.785c-40.677-17.205-79.916-38.504-116.626-63.305
		c-36.383-24.58-70.599-52.813-101.696-83.908c-31.097-31.098-59.328-65.313-83.908-101.697
		c-24.802-36.711-46.101-75.949-63.306-116.627c-32.413-76.631-50.342-157.625-53.439-241.119h57.569
		c16.202,319.484,270.214,576.072,588.705,596.053L810.393,1536.013L810.393,1536.013z M810.393,1129.583
		c-23.983-3.385-47.329-9.824-69.752-19.309c-33.573-14.199-63.74-34.543-89.664-60.467c-25.922-25.922-46.267-56.09-60.467-89.664
		c-11.297-26.707-18.276-54.725-20.908-83.572h59.059c11.416,97.816,85.851,176.273,181.732,193.613V1129.583L810.393,1129.583z
		 M797.646,912.187c-58.201,0-105.387-47.195-105.387-105.343c0-58.258,47.186-105.441,105.387-105.441
		c58.236,0,105.498,47.184,105.498,105.441C903.144,864.992,855.882,912.187,797.646,912.187z M1419.923,1234.32
		c-24.58,36.383-52.811,70.598-83.908,101.695s-65.313,59.328-101.695,83.908c-36.713,24.801-75.951,46.1-116.627,63.305
		c-72.396,30.621-148.688,48.311-227.299,52.785v-335.881c167.027-18.895,298.635-154.65,311.053-323.561h335.232
		c-3.098,83.496-21.039,164.486-53.451,241.119C1466.023,1158.369,1444.724,1197.609,1419.923,1234.32z"/>
	<path fill="#040305" d="M1264.644,1036.91l-118.164,118.242c-6.598,6.598-6.598,17.295,0,23.883
		c3.299,3.299,7.631,4.949,11.941,4.949c4.332,0,8.643-1.65,11.941-4.949l118.164-118.242c6.598-6.598,6.598-17.295,0-23.883
		C1281.929,1030.291,1271.242,1030.333,1264.644,1036.91z"/>
	<path fill="#040305" d="M1264.644,1124.767l-118.164,118.221c-6.598,6.598-6.598,17.299,0,23.885
		c3.299,3.297,7.607,4.949,11.941,4.949c4.332,0,8.643-1.652,11.941-4.949l118.164-118.219c6.598-6.6,6.598-17.301,0-23.887
		C1281.929,1118.16,1271.242,1118.181,1264.644,1124.767z"/>
	<path fill="#040305" d="M1264.644,1212.617l-118.164,118.209c-6.598,6.598-6.598,17.297,0,23.885
		c3.299,3.299,7.607,4.947,11.941,4.947c4.332,0,8.643-1.648,11.941-4.947l118.164-118.209c6.598-6.598,6.598-17.299,0-23.885
		C1281.929,1206.019,1271.242,1206.019,1264.644,1212.617z"/>
</g>
</svg>
