<?xml version="1.0" encoding="utf-8"?>
<!-- Generator: Adobe Illustrator 15.0.0, SVG Export Plug-In . SVG Version: 6.00 Build 0)  -->
<!DOCTYPE svg PUBLIC "-//W3C//DTD SVG 1.1//EN" "http://www.w3.org/Graphics/SVG/1.1/DTD/svg11.dtd">
<svg version="1.1" id="Layer_1" xmlns="http://www.w3.org/2000/svg" xmlns:xlink="http://www.w3.org/1999/xlink" x="0px" y="0px"
	 width="1533.543px" height="1533.544px" viewBox="83.622 83.622 1533.543 1533.544"
	 enable-background="new 83.622 83.622 1533.543 1533.544" xml:space="preserve">
<path d="M110.71,788.423c-0.176,0.852-0.059,1.761,0.176,2.643l0.91-4.813C111.297,787.043,110.827,787.777,110.71,788.423"/>
<path d="M117.079,810.26c3.904-8.248-4.608-13.765-6.193-19.225l-5.635,29.204C105.251,820.239,112.53,819.828,117.079,810.26"/>
<rect x="83.648" y="83.625" fill="none" width="1533.515" height="1533.542"/>
<path fill="#040305" d="M850.392,83.622c-423.476,0-766.771,343.295-766.771,766.771c0,423.478,343.295,766.773,766.771,766.773
	c423.478,0,766.771-343.295,766.771-766.773C1617.163,426.917,1273.868,83.622,850.392,83.622z M1403.909,612.832l-85.697,85.745
	c-2.393,2.392-5.519,3.589-8.66,3.589c-3.127,0-6.268-1.197-8.66-3.589c-4.784-4.777-4.784-12.536,0-17.321l85.694-85.745
	c4.785-4.768,12.538-4.801,17.323,0C1408.693,600.289,1408.693,608.048,1403.909,612.832z M1403.909,676.534l-85.697,85.752
	c-2.393,2.392-5.519,3.589-8.66,3.589c-3.127,0-6.268-1.197-8.66-3.589c-4.784-4.778-4.784-12.537,0-17.322l85.694-85.752
	c4.785-4.776,12.538-4.792,17.323,0C1408.693,663.99,1408.693,671.749,1403.909,676.534z M1403.909,549.122l-85.695,85.743
	c2.59,10.526-0.05,11.434-5.366,16.75c-5.337,5.279-9.755-7.979-15.093-12.454c-5.278-4.419-7.114-11.506-5.278-21.32
	c1.069-6.063,9.031-6.973,14.907-6.792l79.202-79.248c4.785-4.769,12.538-4.8,17.323,0
	C1408.693,536.579,1408.693,544.338,1403.909,549.122z M298.205,445.932c1.952,4.419,3.387,4.133,4.477,8.695
	c11.879-2.87,27.317-1.205,36.355-7.375c-3.041-1.636-7.776-6.514-10.76-8.148c13.056,0.258,42.095-19.513,13.772-26.458
	c2.324-14.577,14.118-11.622,23.128-4.821c4.735-13.429,19.397-14.72,23.646-27.231c-14.232-1.952-22.698-5.021-38.049-0.488
	c6.475-3.341,11.696-8.082,12.406-13.724c0.531-0.535,1.058-1.076,1.59-1.609c25.192-25.192,52.432-48.5,81.21-69.513
	c11.318,3.023,17.897,8.959,11.395,20.025c-0.259,3.386-0.947,7.116-1.836,11.076c-0.086,0-0.201-0.028-0.316-0.028
	c-5.824-0.402-9.354,1.377-10.703,6.656c-1.292,5.309,8.292,3.616,8.438,3.587c-7.001,25.854-17.733,57.59,1.062,73.859
	c31.908,27.634,53.603-22.123,70.102-40.086c16.93-18.422,49.297-43.271,72.425-53.573c11.248-5.021,56.987-25.71,60.718-25.71
	c-5.366,0-11.821,1.779-17.159,2.353c-5.365,0.661-7.403,0.89-9.183,3.013c-1.808,2.066-6.857,0-4.132-3.042
	c13.802-15.208,23.644-2.813,39.053-5.854c-0.115-3.559-0.976-6.313-1.692-9.413c-1.033,0.288-2.037,0.517-3.07,0.746
	c-3.645,0.804-10.129-13.056-10.761-15.15c5.451-0.287,10.416,1.119,15.811,2.668c10.359-12.884,25.423-16.27,35.064-30.904
	c10.157-15.438,11.793-34.463,25.625-47.92c-15.096-1.812-32.815,4.14-46.721-2.722c55.251-14.105,112.221-21.222,170.294-21.222
	c92.749,0,182.682,18.147,267.299,53.937c40.677,17.205,79.916,38.504,116.627,63.306c36.383,24.58,70.599,52.811,101.695,83.908
	c6.663,6.663,13.187,13.478,19.578,20.417c1.064,1.415,2.163,2.809,3.284,4.185c-9.354-5.71-17.849-12.712-25.998-20.029
	c1.377,3.586,1.607,8.551,2.984,12.138c-5.624-4.161-11.076-8.436-16.931-12.052c-7.461,29.01,41.264,32.396,40.574,60.172
	c-11.19-2.438-17.733-13.084-22.096-23.415c-12.396,24.39-28.351,18.795-41.491-4.735c8.78,5.309,19.109,7.719,28.12,3.128
	c-11.937-20.029-25.193-75.496-53.372-73.631c-1.664,2.869-6.198,13.257-6.83,16.184c10.331,10.674,18.997,24.993,27.894,36.901
	c-22.784-0.947-37.017-31.334-58.882-34.578c0.229,2.382,0.688,5.08,1.146,7.834c-13.831,6.514-34.663-12.224-47.346-14.548
	c-16.012-2.927-45.225,16.729-53.144,0.258c1.264-1.521,2.869-0.976,4.132-2.87c-4.188-10.933-16.527-16.643-27.375-13.659
	c7.347,9.24,14.291,21.492,13.545,32.454c-15.266-5.194-20.604-22.152-33.4-31.249c-11.19-7.948-40.689-21.377-54.921-21.377
	c-9.929,0-21.694,0-14.177-3.3c7.576-3.271,13.199-3.271,7.06-5.625c-6.141-2.41-10.846-1.894-31.563-5.652
	c-20.718-3.759-25.423,1.406-44.764,9.871c-41.436,18.164-52.854,68.466-87.289,95.898c-22.727,18.105-11.133,16.068-11.133,43.501
	c0,11.822,8.091,15.093,16.986,9.928c8.953-5.165,19.741-24.505,19.741-24.505s2.869,0,7.06,10.359
	c4.247,10.329,15.094,18.852,15.094,28.264c0,9.383,8.493,10.818,10.847,6.112s3.73-8.006,10.788-10.359
	c7.117-2.353,4.764-16.5,9.471-29.211c4.706-12.74,16.012-8.981,13.659-17.446c-2.354-8.465-16.472-4.706-16.472-14.089
	c0-9.412,4.705-11.765,12.166-19.341c7.288-7.374,29.613-48.522,41.091-30.731c11.65,18.135-61.118,57.045-5.45,62.325
	c16.872,1.579,43.271-26.399,50.56,3.243c-17.103,2.095-51.076-2.124-43.1,26.457c-21.578-11.679-20.487,11.076-30.188,22.927
	c-18.364,22.382-79.657,33.603-73.172-9.211c-27.892,0.287-8.494,26.802-15.954,38.365c-4.819,7.403-11.592,2.238-16.127,5.998
	c-3.845,3.213-13.429,11.478-17.676,14.203c-8.953,5.797-20.316,18.537-28.751,22.87c-9.412,4.906-16.873-13.688-19.656,5.968
	c-7.518-1.865-15.064-1.493-22.354-2.468c4.734,15.294,46.944,33.745,28.121,58.278c-22.698,29.613-63.56-32.224-65.425,23.501
	c-1.09,33.058,2.383,58.164,41.406,59.599c32.397,1.206,22.784-17.848,37.391-36.271c9.067-11.478,25.48-10.358,25.71-28.723
	c15.552,5.251,36.557,9.9,42.755-10.588c0.919-3.128,32.022,24.592,33.517,25.625c7.977,5.452,30.129,12.912,29.21,26.227
	c-1.32,19.313-25.366,2.87-29.67,14.491c-4.247,11.248,19.397,15.524,26.514,13.515c-4.419-14.031,5.224-9.899,8.093-18.537
	c2.524-7.604,2.754-14.777,5.854-21.435c2.295,0.66,3.443,2.755,5.566,3.701c2.984-9.125-6.657-15.036-16.93-17.417
	c-3.789-10.359-54.691-38.882-22.438-51.564c8.493,24.419,35.982,27.375,48.207,47.633c6.829,11.334,1.837,22.67,13.141,33.314
	c7.577,7.174,22.211,8.408,30.304,12.224c1.837-18.536-17.618-30.387,3.958-38.507c3.731-1.436,33.86,3.645,36.787,5.738
	c-17.217,0.89-25.021,6.256-20.144,24.448c-2.696,0.573-4.992,1.692-6.484,2.151c11.02,9.699,20.2,22.87,36.271,26.916
	c3.041,0.774,8.035-5.998,12.108-5.682c4.82,0.344,9.93,7.174,13.659,6.916c6.714-0.459,16.585-3.615,22.61-7.146
	c1.837,16.931,2.64,55.727-13.487,63.56c-1.434,0.688-34.49-0.574-38.45-0.746c-14.749-0.66-30.357-5.567-44.018-11.593
	c-8.034-3.529-16.126-14.577-25.882-10.732c-14.635,5.739-2.526,25.224-19.397,28.867c-14.004,3.042-23.243-15.925-32.94-21.263
	c-12.339-6.829-26.457-8.982-40.173-11.736c7.574-13.831,0.918-28.666,4.706-41.492c-3.674,0.947-5.107,1.693-8.321,3.759
	c-8.781,0.259-19.628,3.874-29.9,4.306c-14.004,0.545-26.112-7.231-40.172-5.567c-13.027,1.521-24.505,13.802-38.106,10.502
	c-12.481-2.927-24.563-15.379-29.642-3.529c-5.05,11.88-0.287,15.982-16.844,18.336c-28.121,3.988-9.699,32.913-24.306,49.93
	c-7.832,9.125-18.163,10.158-25.651,20.861c-7.03,10.071-14.319,25.738-20.029,36.441c-10.416,19.627-6.686,19.569-3.729,40.574
	c3.501,24.879-14.864,52.914-4.706,76.271c4.907,11.307,17.446,19.914,23.673,31.852c18.365,35.064,35.468,59.053,75.41,60.201
	c22.295,0.572,21.062,10.674,35.266,4.133c14.204-6.486,39.742-8.553,48.924-0.576c9.126,7.979,3.846,20.777,12.453,20.432
	c8.552-0.287,15.668-8.551,22.784-4.705c7.115,3.787,10.388,17.16,5.911,29.898c-16.586,47.23,31.736,72.771,28.809,120.23
	c-1.205,18.65-15.608,35.121-17.102,56.873c-1.951,28.18,15.84,54.176,21.005,81.895c3.214,17.16,12.568,32.941,17.159,49.814
	c4.82,17.848-0.918,43.441,20.545,51.535c15.036,5.623,40.059-8.494,52.455-15.955c30.988-18.65,47.633-50.674,66.111-80.572
	c10.101-16.301,13.772-17.219,16.987-35.984c3.559-20.773,0.745-20.891,18.707-37.016c14.463-13.027,30.877-30.072,37.936-48.553
	c9.698-25.365-10.674-32.137-7.23-54.004c2.065-13.025-8.321-21.004,2.41-26.342c10.617-5.336-0.918-7.402,7.979-22.553
	c8.895-15.094,36.729-46.199,48.608-58.078c11.821-11.822,31.392-28.752,38.163-48.838c6.83-20.145,11.248-24.621,14.521-33.459
	c3.271-8.896,4.763-19.281-3.788-16.93c-8.666,2.41-24.62,10.676-37.36,12.225c-12.741,1.436-15.438,8.551-22.268-6.027
	c-6.772-14.461-11.767-21.863-22.21-29.611c-26.857-19.973-30.188-56.154-41.836-85.252c-9.413-23.586-32.999-51.966-34.95-77.763
	c7.116,4.104,11.133,4.937,14.979,14.118c1.663-3.243,5.049-6.228,6.483-9.67c16.7,42.065,36.73,82.499,55.668,123.559
	c13.085,28.465,20.373,54.002,55.438,44.994c26.342-6.771,64.964-28.867,84.246-48.094c25.712-25.682,13.143-49.583-7.806-74.433
	c-11.993,7.661-46.599,28.666-42.813-3.329c-0.918,3.96-3.902,7.748-4.992,11.679c-8.953-11.938-35.753-53.315-12.396-51.966
	c12.685,0.746,37.018,29.756,49.24,36.213c29.385,15.522,63.646,13.917,93.604,27.001c15.954,7.002,45.51,61.322,61.577,31.966
	c8.493,16.186,3.846,36.471,14.635,55.523c5.567,9.984,45.052,80.346,51.422,29.5c2.353-19.283,2.927-29.098,14.232-29.9
	c3.271-0.268,6.288-1.742,9.245-3.707c-7.202,66.014-23.872,130.186-49.831,191.561c-17.205,40.678-38.504,79.916-63.306,116.627
	c-24.58,36.383-52.812,70.6-83.908,101.695c-31.097,31.098-65.313,59.328-101.696,83.908c-36.711,24.801-75.949,46.1-116.627,63.305
	c-84.615,35.791-174.549,53.939-267.298,53.939s-182.681-18.148-267.298-53.939c-40.677-17.205-79.916-38.504-116.627-63.305
	c-36.383-24.58-70.598-52.811-101.695-83.908c-9.363-9.363-18.462-19.014-27.284-28.918c-0.035-0.502-0.084-0.998-0.17-1.473
	c37.131,17.33,37.732,5.508,16.011-25.367c41.493,58.939,56.558-58.594,107.204-38.105c7.575,3.215,4.448-3.041,10.215-3.959
	c5.825-0.918,3.989-7.117,4.477-11.535c0.402-4.477,3.53-7.576,7.978-8.438c4.419-0.918-2.209-13.373,1.779-15.15
	c3.988-1.723-1.779-4.42,1.349-9.758c3.099-5.336-2.641-17.33-3.128-25.768c-0.401-8.494,0.89-8.494,7.604-9.756
	c6.629-1.377,5.28-12.912,9.757-16.871c4.447-4.074,10.216-6.313,11.104-13.832c0.86-7.574,2.209-8.838,1.291-19.055
	c-0.889-10.271-15.523-19.568-23.099-24.963c-19.656-13.773-34.146-29.098-59.484-31.564c-0.513-21.971-24.431-24.693-41.049-17.918
	c1.028,4.047-0.027,8.52-3.196,11.689l-85.697,85.742c-2.393,2.393-5.519,3.59-8.66,3.59c-3.127,0-6.268-1.197-8.661-3.59
	c-4.785-4.777-4.785-12.537,0-17.32l85.695-85.744c4.785-4.768,12.537-4.801,17.322,0c1.305,1.303,2.241,2.83,2.833,4.457
	c2.215-2.555,3.934-5.564,6.031-7.535c-8.981-6.656-20.23-3.098-30.188,0.115c24.792-21.117,8.149-49.354-15.236-62.553
	c-12.139-6.889-25.021-8.725-36.901-16.701c-10.188-6.773-13.63-15.955-27.145-18.365c-0.431-9.066-8.494-16.125-13.515-19.512
	c-24.161,3.902-47.519-5.279-66.744-19.484c-4.075,4.992-6.543,3.271-11.793,7.203c1.463-3.301,2.295-7.029,3.243-10.443
	c-10.487,1.99-21.214,4.553-31.831,7.338c-0.836-13.955-1.262-27.982-1.262-42.078c0-36.078,2.759-71.728,8.221-106.806
	c1.893-1.9,3.438-3.466,4.327-4.455c3.5-3.988,4.878-12.454,5.337-19.082c0.401-6.656,3.042-14.231,5.768-9.354
	c2.64,4.936-5.367,13.344-5.797,14.778c-0.172,0.718,19.14-24.333,20.373-25.769c11.908-13.832,27.748-21.35,41.292-33.229
	c-8.981-18.336,29.728-40.978,45.309-46.256c-4.591,5.164-6.485,12.08-10.215,17.475c15.868-3.845,32.855-15.495,39.771-30.531
	c-19.942,6.944-26.342-11.765-16.298-26.428c-5.338,1.32-11.249,0.976-16.5,3.472c22.64-12.194,61.922-21.349,77.906-42.009
	c20.631-26.686-6.916-56.041-24.505-76.729c-10.904,9.238-21.205,20.631-36.127,21.463c0.832-4.104-1.405-10.445-0.545-14.577
	c-18.573,4.293-31.424,13.644-41.202,25.762c6.425-10.733,13.132-21.297,20.128-31.652c3.838-5.681,7.775-11.303,11.789-16.875
	C294.474,448.3,296.318,447.049,298.205,445.932z M1255.058,672.074c4.478,12.396,15.094,16.873,13.371,29.326
	c-1.777,12.396-7.059,7.115-21.349,3.587c-14.232-3.587-23.988-14.232-23.07-24.937c0.86-10.675,10.674-7.978,10.674-7.978
	s1.78-8.006-13.313-21.35c-15.209-13.313-24.965-25.796-22.324-37.303c2.754-11.593,9.813-17.819,19.569-17.819
	s19.568-9.757,28.465,0c0,0,9.813,15.122,0.86,17.819c-8.839,2.64-19.569-9.813-15.953-0.947c3.558,8.867-2.642,12.454-2.642,12.454
	s3.501,8.953,13.257,15.122c9.813,6.228,9.813,27.547,13.372,15.984c3.56-11.536,14.175,4.446,13.314,12.453
	C1268.429,676.465,1250.581,659.621,1255.058,672.074z M1088.857,600.08c7.116,6.227,12.511-1.75,23.988-3.587
	c11.593-1.75-8.838-4.39-19.512-10.646c-10.676-6.227,7.114-9.813,15.093-9.813c8.034,0,16.872-1.75,16.872-1.75
	s2.697,1.75-0.86,13.343c-3.5,11.563,2.642,20.458,18.65,31.966c16.013,11.563,9.814,19.569-2.696,23.156
	c-12.396,3.529-23.069-1.836-35.522-10.703c-12.396-8.867-24.851,4.478-41.723,5.366c-16.932,0.861-20.432-17.819-17.79-23.099
	c2.64-5.366,0-20.459,7.977-23.157c7.978-2.641,12.453-19.512,15.094-19.512c2.696,0,14.231,7.115,12.453,11.563
	C1079.102,587.626,1081.8,593.854,1088.857,600.08z M1081.489,990.152l-85.697,85.744c-2.393,2.393-5.519,3.59-8.66,3.59
	c-3.127,0-6.268-1.197-8.66-3.59c-4.784-4.777-4.784-12.535,0-17.32l85.694-85.744c4.785-4.768,12.538-4.801,17.323,0
	C1086.273,977.609,1086.273,985.369,1081.489,990.152z M1081.489,1053.853l-85.697,85.752c-2.393,2.393-5.519,3.59-8.66,3.59
	c-3.127,0-6.268-1.197-8.66-3.59c-4.784-4.775-4.784-12.535,0-17.32l85.694-85.752c4.785-4.777,12.538-4.793,17.323,0
	C1086.273,1041.31,1086.273,1049.07,1081.489,1053.853z M1081.489,926.443l-85.697,85.742c-2.393,2.395-5.519,3.59-8.66,3.59
	c-3.127,0-6.268-1.195-8.66-3.59c-4.784-4.777-4.784-12.535,0-17.32l85.694-85.742c4.785-4.771,12.538-4.801,17.323,0
	C1086.273,913.9,1086.273,921.658,1081.489,926.443z M217.557,1117.693c-11.16-26.387-20.604-53.289-28.318-80.633
	c22.683,27.619,43.337,55.832,47.158,92.148c1.34,12.797,2.343,24.602,3.432,35.928
	C231.794,1149.589,224.351,1133.755,217.557,1117.693z M283.111,1177.408l85.695-85.746c4.785-4.768,12.537-4.801,17.322,0
	c4.785,4.777,4.785,12.539,0,17.322l-85.697,85.742c-2.393,2.393-5.519,3.59-8.66,3.59c-3.127,0-6.268-1.197-8.661-3.59
	C278.326,1189.951,278.326,1182.193,283.111,1177.408z M284.537,1239.687l84.269-84.322c4.785-4.777,12.537-4.793,17.322,0
	c4.785,4.775,4.785,12.537,0,17.32l-85.697,85.752c-0.482,0.482-1.002,0.902-1.539,1.289
	C293.984,1253.128,289.198,1246.447,284.537,1239.687z M217.557,583.096c7.046-16.66,14.792-33.073,23.171-49.177
	c-8.549,20.191-15.65,41.835-27.47,59.608C214.665,590.042,216.091,586.563,217.557,583.096z"/>
</svg>
