<?xml version="1.0" encoding="utf-8"?>
<!-- Generator: Adobe Illustrator 15.0.0, SVG Export Plug-In . SVG Version: 6.00 Build 0)  -->
<!DOCTYPE svg PUBLIC "-//W3C//DTD SVG 1.1//EN" "http://www.w3.org/Graphics/SVG/1.1/DTD/svg11.dtd">
<svg version="1.1" id="Layer_1" xmlns="http://www.w3.org/2000/svg" xmlns:xlink="http://www.w3.org/1999/xlink" x="0px" y="0px"
	 width="1533.543px" height="1533.545px" viewBox="83.622 83.621 1533.543 1533.545"
	 enable-background="new 83.622 83.621 1533.543 1533.545" xml:space="preserve">
<rect x="83.622" y="83.638" fill="none" width="1533.544" height="1533.512"/>
<g>
	<polygon points="884.93,215.22 819.79,215.22 852.396,385.232 	"/>
	<polygon points="467.442,361.131 421.35,407.152 557.446,497.229 	"/>
	<polygon points="654.903,249.172 597.359,279.525 700.668,405.734 	"/>
	<polygon points="1067.119,253.788 1030.332,402.753 1125.57,282.433 	"/>
	<polygon points="1425.318,824.639 1425.318,759.571 1284.568,792.25 	"/>
	<polygon points="1237.385,361.205 1154.288,490.286 1283.405,407.152 	"/>
	<polygon points="1370.646,545.066 1252.58,628.309 1395.22,605.372 	"/>
	<polygon points="275.438,824.639 416.224,792.25 275.438,759.571 	"/>
	<polygon points="303.21,612.824 446.141,633.761 326.875,552.082 	"/>
	<path d="M1067.288,518.271c-97.17-86.427-268.987-121.259-409.041-20.55c-72.423,52.094-117.155,132.567-125.864,226.604
		c-7.706,82.573,14.503,164.361,56.385,208.374c71.14,74.491,100.93,157.752,110.547,190.957h-1.223
		c-15.538,0-28.099,12.593-28.099,28.004c0,15.601,12.561,28.067,28.099,28.067h308.55c15.537,0,28.067-12.468,28.067-28.067
		c0-13.657-9.836-25.061-22.867-27.44c7.706-64.091,43.542-112.018,81.507-162.639c17.104-22.805,34.834-46.424,49.558-71.483
		C1199.792,793.492,1182.877,621.048,1067.288,518.271z M775.465,613.969c-2.882,1.097-62.306,24.058-62.306,101.306
		c0,15.6-12.624,28.16-28.036,28.16c-15.568,0-28.098-12.562-28.098-28.16c0-118.283,95.854-152.804,99.895-154.214
		c14.691-5.074,30.667,2.694,35.679,17.323C797.706,592.95,789.968,608.863,775.465,613.969z"/>
	<path d="M1055.196,1210.49H645.623c-18.732,0-33.925,15.224-33.925,33.956c0,18.73,15.192,33.894,33.925,33.894h409.573
		c18.731,0,33.894-15.162,33.894-33.894C1089.09,1225.714,1073.929,1210.49,1055.196,1210.49z"/>
	<path d="M1012.344,1305.592H688.444c-18.795,0-33.926,15.226-33.926,33.957c0,18.732,15.131,33.956,33.926,33.956h323.899
		c18.732,0,33.956-15.224,33.956-33.956C1046.3,1320.817,1031.076,1305.592,1012.344,1305.592z"/>
	<path d="M950.133,1400.694H750.688c-18.796,0-33.926,15.225-33.926,33.956s15.13,33.957,33.926,33.957h199.445
		c18.732,0,33.956-15.226,33.956-33.957S968.865,1400.694,950.133,1400.694z"/>
	<path d="M850.392,83.622c-423.476,0-766.771,343.295-766.771,766.771c0,423.479,343.295,766.772,766.771,766.772
		c423.478,0,766.771-343.295,766.771-766.772C1617.163,426.917,1273.868,83.622,850.392,83.622z M1419.921,1234.318
		c-24.58,36.383-52.811,70.6-83.908,101.696c-31.097,31.098-65.313,59.328-101.695,83.908
		c-36.712,24.801-75.95,46.101-116.627,63.306c-84.616,35.789-174.55,53.938-267.298,53.938
		c-92.749,0-182.682-18.148-267.299-53.938c-40.677-17.205-79.916-38.505-116.627-63.306
		c-36.383-24.58-70.598-52.811-101.695-83.908c-31.099-31.097-59.329-65.313-83.909-101.696
		c-24.801-36.711-46.101-75.949-63.305-116.627c-35.79-84.617-53.937-174.55-53.937-267.299c0-92.748,18.147-182.681,53.937-267.298
		c17.205-40.677,38.504-79.916,63.305-116.626c24.58-36.383,52.811-70.599,83.909-101.696
		c31.098-31.097,65.313-59.328,101.695-83.908c36.711-24.802,75.95-46.101,116.627-63.306
		c84.617-35.79,174.55-53.937,267.299-53.937c92.748,0,182.681,18.147,267.298,53.937c40.677,17.205,79.916,38.504,116.627,63.306
		c36.383,24.58,70.599,52.811,101.695,83.908c31.098,31.097,59.328,65.313,83.908,101.696
		c24.802,36.711,46.101,75.95,63.306,116.626c35.791,84.617,53.938,174.55,53.938,267.298c0,92.75-18.146,182.682-53.938,267.299
		C1466.021,1158.369,1444.723,1197.607,1419.921,1234.318z"/>
</g>
</svg>
