<?xml version="1.0" encoding="utf-8"?>
<!-- Generator: Adobe Illustrator 15.0.0, SVG Export Plug-In . SVG Version: 6.00 Build 0)  -->
<!DOCTYPE svg PUBLIC "-//W3C//DTD SVG 1.1//EN" "http://www.w3.org/Graphics/SVG/1.1/DTD/svg11.dtd">
<svg version="1.1" id="Capa_1" xmlns="http://www.w3.org/2000/svg" xmlns:xlink="http://www.w3.org/1999/xlink" x="0px" y="0px"
	 width="1533.543px" height="1533.545px" viewBox="83.622 83.621 1533.543 1533.545"
	 enable-background="new 83.622 83.621 1533.543 1533.545" xml:space="preserve">
<path d="M83.623,635.149c0,147.313,57.371,285.813,161.545,389.981c104.17,104.158,242.678,161.529,389.996,161.529
	c123.838,0,241.361-40.672,337.579-115.465l106.082,106.076l-10.708,10.709c-14.737,14.728-14.737,38.617,0,53.353l339.969,339.955
	c23.136,23.135,53.908,35.878,86.628,35.878s63.491-12.743,86.627-35.878c47.768-47.773,47.768-125.491,0-173.256l-339.977-339.962
	c-14.745-14.729-38.628-14.723-53.357,0l-10.708,10.707l-106.082-106.077c74.804-96.221,115.478-213.729,115.478-337.56
	c0-147.313-57.356-285.814-161.536-389.982C920.977,140.991,782.47,83.622,635.15,83.622c-147.32,0-285.828,57.369-390.006,161.536
	C140.97,349.326,83.607,487.827,83.623,635.149z M175.066,635.14c0-122.885,47.852-238.421,134.756-325.312
	c86.895-86.892,202.434-134.75,325.328-134.75c122.889,0,238.422,47.857,325.325,134.75
	c86.896,86.891,134.757,202.421,134.757,325.312c0,122.885-47.86,238.419-134.756,325.312
	C873.58,1047.344,758.046,1095.2,635.15,1095.2c-122.894,0-238.435-47.855-325.328-134.748
	C222.917,873.56,175.068,758.025,175.066,635.14z M651.244,221.973c3.842,0.527,95.127,13.499,187.043,69.856
	c86.877,53.266,190.438,156.068,190.438,343.312c0,20.833-16.896,37.728-37.729,37.728s-37.729-16.896-37.729-37.728
	c0-290.99-299.296-336.582-312.29-338.414c-20.616-2.854-35.034-21.861-32.223-42.483
	C611.574,233.607,630.591,219.149,651.244,221.973z"/>
</svg>
