<?xml version="1.0" encoding="utf-8"?>
<!-- Generator: Adobe Illustrator 15.0.0, SVG Export Plug-In . SVG Version: 6.00 Build 0)  -->
<!DOCTYPE svg PUBLIC "-//W3C//DTD SVG 1.1//EN" "http://www.w3.org/Graphics/SVG/1.1/DTD/svg11.dtd">
<svg version="1.1" id="Layer_1" xmlns="http://www.w3.org/2000/svg" xmlns:xlink="http://www.w3.org/1999/xlink" x="0px" y="0px"
	 width="1533.543px" height="1533.545px" viewBox="83.622 83.621 1533.543 1533.545"
	 enable-background="new 83.622 83.621 1533.543 1533.545" xml:space="preserve">
<path fill="#dddddd" d="M1040.055,1165.999c-37.842-6.025-38.725-152.347-38.725-152.347s111.197-110.301,135.453-258.589
	c65.172,0,105.475-157.64,40.248-213.125c2.729-58.325,83.813-458.318-326.638-458.318c-410.449,0-329.393,399.993-326.718,458.372
	c-65.172,55.484-24.896,213.125,40.275,213.125c24.202,148.29,135.426,258.588,135.426,258.588s-0.854,146.32-38.697,152.35
	c-121.866,19.425-577.058,230.59-577.058,451.109h766.771h766.771C1617.166,1396.646,1161.975,1185.479,1040.055,1165.999"/>
</svg>
