<?xml version="1.0" encoding="utf-8"?>
<!-- Generator: Adobe Illustrator 15.0.0, SVG Export Plug-In . SVG Version: 6.00 Build 0)  -->
<!DOCTYPE svg PUBLIC "-//W3C//DTD SVG 1.1//EN" "http://www.w3.org/Graphics/SVG/1.1/DTD/svg11.dtd">
<svg version="1.1" id="Layer_1" xmlns="http://www.w3.org/2000/svg" xmlns:xlink="http://www.w3.org/1999/xlink" x="0px" y="0px"
	 width="1533.543px" height="1533.544px" viewBox="83.623 83.622 1533.543 1533.544"
	 enable-background="new 83.623 83.622 1533.543 1533.544" xml:space="preserve">
<g>
	<g>
		<path  fill="#ffffff" d="M1061.627,969.231c-28.1-6.449-52.24-19.012-86.615-4.682c-4.682-6.24-9.361-12.482-14.045-18.727
			c21.617-42.271,8.197-115.869,28.09-161.52c11.211-25.725,146.707-68.253,184.93-72.566c-0.777-10.143-1.561-20.288-2.342-30.434
			c-47.143-47.479-118.809,40.513-170.883,35.114c1.564-37.45,3.119-74.912,4.684-112.361
			c19.342-38.899,80.881-47.771,102.998-88.952c0.592-64.391-51.051-46.405-84.271-74.908c-12.445-10.678-3.9-30.42-11.701-46.815
			c-14.787-31.08-119.059-107.247-163.864-67.887c-7.375,4.241-7.906,6.548-11.704,14.047c0,3.119,0,6.241,0,9.363
			c84.492-20.119,75.794,14.547,91.294,88.953c4.121,19.782,19.234,39.178,4.682,60.861c-12.254,20.144-56.273,22.658-81.932,32.773
			c-58.528,23.077-124.827,56.493-205.994,74.906c-47.584,10.798-92.342-7.831-131.087-9.362
			c13.925,24.248,43.534,32.575,72.565,42.136c108.414,35.702,202.046-8.353,285.586-44.477
			c20.285-10.143,40.574-20.288,60.861-30.433c3.9,6.244,7.803,12.487,11.707,18.729c-17.955,30.978-57.174,48.371-60.865,88.952
			c-7.02-1.561-14.043-3.12-21.066-4.683c-11.688,24.766-179.751,156.563-217.701,159.18c-1.557,11.398,0.407,17.618,4.682,28.086
			c-5.462,1.563-10.925,3.125-16.385,4.686c-1.563,14.822-3.122,29.652-4.682,44.479c3.119,2.338,6.24,4.682,9.362,7.02
			c69.014,12.111,120.571-54.545,168.542-77.248c25.237-11.941,49.996-3.856,60.863-30.43c19.762,7.039,39.475-1.728,56.182-9.366
			c1.563,0.781,3.119,1.563,4.682,2.341c-4.682,47.594-9.361,95.201-14.043,142.791c-6.244,11.707-12.488,23.414-18.729,35.115
			c5.457,21.066,10.92,42.139,16.383,63.203c52.889-13.131,42.098-43.598,133.432-42.137c16.385,11.701,32.77,23.408,49.16,35.113
			c51.51,75.801-8.816,236.976-58.521,271.54c-37.82,26.299-94.578,27.643-140.451,32.771
			c-147.789,16.52-270.069-72.574-266.859-241.106c4.682-4.682,9.362-9.363,14.044-14.045c0-0.779,0-1.561,0-2.342
			c-94.633,30.461,24.165,212.132,58.521,238.769c49.555,38.418,191.797,75.037,264.518,70.227
			c46.951-3.105,99.763-30.094,141.093-37.156c0-3.9,0-7.807,0-11.707C1227.308,1257.78,1227.848,1007.387,1061.627,969.231z
			 M923.516,746.852c-37.775,39.925-123.132,48.724-170.883,77.248c-4.962-8.832-7.201-14.335-4.681-25.751
			c26.832-52.734,136.878-95.197,163.857-142.792c12.615,2.271,17.916,5.554,25.75,11.704
			C926.112,693.452,916.971,713.452,923.516,746.852z"/>
		<path fill="#ffffff" d="M832.221,1210.34c9.156,14.574-1.104,21.25,16.386,30.434c10.888,5.242,41.515,3.9,49.158-2.344
			c11.73-6.705,17.869-25.08,23.408-37.453c-2.229-74.014-119.693-149.684-196.631-154.5c-21.846,3.125-43.699,6.244-65.544,9.363
			c-3.119,3.906-6.241,7.807-9.363,11.707c0,0.781,0,1.563,0,2.344C761.16,1062.575,787.613,1139.317,832.221,1210.34z"/>
	</g>
	<path fill="#ffffff" d="M850.396,163.622c92.748,0,182.681,18.147,267.298,53.937c40.678,17.205,79.916,38.504,116.627,63.306
		c36.384,24.58,70.601,52.811,101.696,83.908c31.098,31.097,59.328,65.313,83.908,101.696c24.801,36.71,46.1,75.95,63.305,116.626
		c35.791,84.617,53.939,174.549,53.939,267.298c0,92.75-18.146,182.683-53.939,267.298c-17.203,40.678-38.504,79.916-63.305,116.625
		c-24.58,36.386-52.811,70.601-83.908,101.696c-31.096,31.098-65.313,59.328-101.696,83.908
		c-36.713,24.803-75.949,46.102-116.627,63.307c-84.615,35.789-174.551,53.938-267.298,53.938
		c-92.748,0-182.681-18.146-267.298-53.938c-40.677-17.205-79.916-38.504-116.627-63.307
		c-36.383-24.58-70.599-52.811-101.695-83.908c-31.098-31.096-59.329-65.313-83.909-101.696
		c-24.801-36.709-46.1-75.947-63.305-116.625c-35.79-84.615-53.937-174.551-53.937-267.298c0-92.748,18.147-182.681,53.937-267.298
		c17.205-40.677,38.504-79.916,63.305-116.626c24.581-36.383,52.811-70.599,83.91-101.696
		c31.098-31.097,65.313-59.329,101.695-83.909c36.711-24.802,75.95-46.101,116.627-63.306
		C667.714,181.769,757.647,163.622,850.396,163.622 M850.396,83.622c-423.477,0-766.771,343.295-766.771,766.771
		c0,423.479,343.295,766.772,766.771,766.772c423.477,0,766.772-343.293,766.772-766.772
		C1617.169,426.917,1273.875,83.622,850.396,83.622L850.396,83.622z"/>
</g>
</svg>
