<?xml version="1.0" encoding="utf-8"?>
<!-- Generator: Adobe Illustrator 15.0.0, SVG Export Plug-In . SVG Version: 6.00 Build 0)  -->
<!DOCTYPE svg PUBLIC "-//W3C//DTD SVG 1.1//EN" "http://www.w3.org/Graphics/SVG/1.1/DTD/svg11.dtd">
<svg version="1.1" id="Layer_1" xmlns="http://www.w3.org/2000/svg" xmlns:xlink="http://www.w3.org/1999/xlink" x="0px" y="0px"
	 width="90.709px" height="90.709px" viewBox="0 0 90.709 90.709" enable-background="new 0 0 90.709 90.709" xml:space="preserve">
<g>
	<g>
		<path fill="#626466" d="M61.258,73.641c-0.071-0.417-1.68-10.314,2.2-19.09c1.026-2.321,2.566-4.59,4.197-6.993
			c4.52-6.661,9.644-14.21,6.126-26.273C70.003,8.33,58.453,2.908,48.904,2.154c-11.742-0.929-22.26,4.681-26.798,14.287
			c-0.048,0.092-2.246,4.25-1.062,9.203c1.348,5.634-0.11,8.424-1.956,11.956c-0.265,0.508-0.542,1.037-0.823,1.598
			c-1.335,2.672-1.947,4.729-2.214,5.861l4.299,0.625l0.128,0.732c0.097,0.556,0.387,2.449,0.036,3.492l-0.053,0.129
			c-0.006,0.019-0.018,0.099-0.005,0.13c0.015,0.034,0.104,0.123,0.335,0.212l1.471,0.568l-1.114,1.116
			c-0.102,0.101-0.334,0.357-0.307,0.54c0.04,0.27,0.491,0.639,0.721,0.762l0.762,0.405l-0.268,0.821
			c-0.02,0.06-1.88,6.027,0.833,6.954c4.237,1.446,11.916-1.428,11.994-1.458l0.702-0.266l0.466,0.589
			c0.11,0.14,2.725,3.527,4.001,12.503L38.019,73.2c-0.896-6.309-2.474-9.65-3.199-10.916c-2.209,0.743-8.5,2.599-12.595,1.202
			c-3.435-1.172-3.16-5.786-2.339-8.805c-0.448-0.384-0.958-0.982-1.076-1.774c-0.052-0.342-0.04-0.794,0.18-1.296
			c-0.229-0.242-0.367-0.491-0.448-0.702c-0.291-0.748-0.075-1.424,0.037-1.69c0.082-0.303,0.06-1.017-0.02-1.72l-4.847-0.704
			l0.108-0.986c0.014-0.121,0.354-3.019,2.608-7.528c0.286-0.573,0.568-1.112,0.839-1.631c1.775-3.397,2.948-5.641,1.78-10.527
			c-1.374-5.744,1.122-10.415,1.229-10.611C25.155,5.179,36.469-0.891,49.065,0.107C61.923,1.123,72.399,9.209,75.752,20.71
			c3.788,12.99-1.86,21.313-6.398,28.001c-1.577,2.323-3.066,4.518-4.018,6.67c-3.625,8.2-2.07,17.822-2.054,17.918L61.258,73.641z"
			/>
	</g>
	<g>
		<path fill="#626466" d="M54.914,22.107c-3.919-3.483-10.845-4.889-16.493-0.828c-2.92,2.1-4.722,5.343-5.075,9.135
			c-0.31,3.331,0.584,6.629,2.275,8.402c2.868,3.004,4.067,6.362,4.456,7.703h-0.049c-0.626,0-1.132,0.507-1.132,1.128
			c0,0.626,0.506,1.132,1.132,1.132h12.441c0.626,0,1.131-0.506,1.131-1.132c0-0.552-0.397-1.009-0.921-1.107
			c0.311-2.585,1.754-4.517,3.285-6.558c0.69-0.919,1.404-1.871,2.001-2.881C60.254,33.205,59.575,26.251,54.914,22.107z
			 M43.837,24.53c0.206,0.589-0.105,1.229-0.69,1.437c-0.118,0.043-2.514,0.971-2.514,4.085c0,0.629-0.508,1.136-1.13,1.136
			c-0.626,0-1.133-0.507-1.133-1.136c0-4.771,3.864-6.161,4.029-6.219C42.992,23.628,43.635,23.94,43.837,24.53z M46.239,16.481
			l-1.133-5.909h2.262L46.239,16.481z M26.19,29.487l4.892,1.135l-4.892,1.127V29.487z M66.146,29.487v2.262l-4.892-1.127
			L66.146,29.487z M27.979,22.279l4.142,2.837l-4.966-0.727L27.979,22.279z M65.097,24.13l-4.957,0.797l4.104-2.893L65.097,24.13z
			 M61.213,17.242l-4.487,2.89l2.888-4.487L61.213,17.242z M55.729,12.91l-3.31,4.18l1.28-5.176L55.729,12.91z M35.99,20.372
			l-4.729-3.13l1.601-1.599L35.99,20.372z M40.967,17.193l-3.592-4.385l2-1.056L40.967,17.193z"/>
	</g>
	<g>
		<path fill="#626466" d="M57.807,70.636l-0.691,0.737c-0.558-0.769-1.275-1.411-2.103-1.889l0.701-0.746
			c-0.912-0.564-1.944-0.943-3.05-1.085l0.034,1.014c-0.407-0.065-0.825-0.095-1.253-0.081c-0.547,0.018-1.069,0.108-1.57,0.246
			l-0.035-1.023c-1.048,0.252-2.007,0.723-2.835,1.354l0.737,0.689c-0.771,0.558-1.412,1.278-1.889,2.104l-0.746-0.704
			c-0.535,0.868-0.903,1.846-1.06,2.889l1.01-0.033c-0.081,0.459-0.119,0.934-0.104,1.417c0.016,0.483,0.086,0.955,0.199,1.406
			l-1.012,0.034c0.227,1.031,0.658,1.982,1.252,2.81l0.697-0.745c0.532,0.789,1.219,1.465,2.027,1.97l-0.69,0.736
			c0.869,0.575,1.856,0.978,2.918,1.162l-0.033-1.024c0.51,0.102,1.036,0.159,1.583,0.142c0.428-0.014,0.844-0.073,1.247-0.164
			l0.032,1.012c1.094-0.216,2.098-0.661,2.971-1.286l-0.749-0.698c0.794-0.531,1.466-1.219,1.971-2.029l0.74,0.691
			c0.604-0.915,1.015-1.96,1.184-3.084l-1.011,0.032c0.082-0.457,0.121-0.931,0.104-1.416c-0.016-0.484-0.085-0.955-0.199-1.408
			l1.012-0.035C58.951,72.525,58.47,71.507,57.807,70.636z M57.114,75.118c0.101,3.003-2.261,5.528-5.263,5.628
			c-3.006,0.102-5.53-2.259-5.631-5.264c-0.101-3.002,2.26-5.526,5.266-5.627C54.488,69.754,57.013,72.115,57.114,75.118z
			 M47.179,75.452c0.082,2.474,2.164,4.418,4.64,4.335c2.473-0.082,4.418-2.163,4.335-4.638c-0.082-2.474-2.162-4.419-4.638-4.336
			C49.043,70.896,47.096,72.977,47.179,75.452z M54.887,75.192c0.06,1.775-1.337,3.267-3.11,3.327
			c-1.777,0.06-3.267-1.336-3.327-3.11c-0.059-1.776,1.333-3.265,3.11-3.325C53.335,72.024,54.827,73.418,54.887,75.192z
			 M51.617,73.793c0.834-0.027,1.529,0.624,1.557,1.456c0.028,0.837-0.622,1.531-1.455,1.56c-0.834,0.027-1.53-0.623-1.557-1.458
			C50.133,74.517,50.784,73.822,51.617,73.793z M62.614,80.155c-0.304-0.049-0.614-0.07-0.93-0.061
			c-0.404,0.015-0.792,0.081-1.166,0.181l-0.025-0.757c-0.776,0.189-1.487,0.536-2.103,1.004l0.547,0.51
			c-0.573,0.415-1.048,0.948-1.402,1.561l-0.555-0.519c-0.397,0.642-0.668,1.367-0.784,2.141l0.749-0.025
			c-0.06,0.342-0.089,0.692-0.076,1.052c0.013,0.358,0.063,0.709,0.146,1.042l-0.75,0.025c0.168,0.766,0.487,1.469,0.927,2.085
			l0.52-0.556c0.393,0.586,0.903,1.092,1.502,1.463l-0.512,0.546c0.646,0.427,1.379,0.725,2.166,0.86l-0.027-0.76
			c0.38,0.078,0.771,0.122,1.176,0.108c0.316-0.011,0.623-0.056,0.925-0.123l0.024,0.752c0.809-0.163,1.554-0.493,2.203-0.955
			l-0.556-0.52c0.587-0.393,1.088-0.904,1.461-1.503l0.55,0.511c0.446-0.676,0.751-1.451,0.878-2.288l-0.748,0.025
			c0.059-0.337,0.085-0.691,0.073-1.049c-0.012-0.36-0.063-0.707-0.145-1.045l0.749-0.024c-0.18-0.822-0.539-1.577-1.029-2.224
			l-0.514,0.546c-0.411-0.571-0.945-1.045-1.558-1.401l0.52-0.555c-0.678-0.417-1.444-0.695-2.263-0.803L62.614,80.155z
			 M65.89,84.939c0.076,2.227-1.677,4.101-3.903,4.175c-2.23,0.074-4.101-1.678-4.175-3.904c-0.075-2.229,1.675-4.1,3.903-4.175
			C63.943,80.961,65.817,82.711,65.89,84.939z M58.521,85.187c0.062,1.836,1.604,3.279,3.442,3.217
			c1.835-0.061,3.276-1.605,3.214-3.439c-0.061-1.838-1.604-3.279-3.438-3.218C59.903,81.806,58.459,83.349,58.521,85.187z
			 M64.237,84.995c0.045,1.318-0.991,2.425-2.306,2.469c-1.318,0.042-2.424-0.991-2.469-2.308c-0.043-1.316,0.991-2.422,2.308-2.465
			C63.086,82.646,64.195,83.678,64.237,84.995z M61.814,83.956c0.617-0.019,1.133,0.462,1.155,1.081
			c0.019,0.619-0.462,1.136-1.082,1.156c-0.617,0.021-1.135-0.462-1.156-1.082C60.711,84.493,61.195,83.977,61.814,83.956z"/>
	</g>
	<g>
		<path fill="#626466" d="M36.233,80.046c-0.263,0.143-0.517,0.312-0.755,0.506c-0.304,0.252-0.566,0.534-0.795,0.833l-0.47-0.571
			c-0.489,0.607-0.833,1.298-1.032,2.027l0.729,0.069c-0.199,0.663-0.25,1.358-0.16,2.042l-0.739-0.072
			c0.074,0.734,0.297,1.456,0.666,2.126l0.566-0.465c0.156,0.301,0.341,0.589,0.565,0.86s0.471,0.513,0.733,0.72l-0.567,0.465
			c0.586,0.494,1.251,0.85,1.957,1.064l0.073-0.738c0.653,0.219,1.348,0.309,2.033,0.242l-0.072,0.727
			c0.753-0.053,1.499-0.257,2.189-0.62l-0.472-0.574c0.34-0.164,0.67-0.364,0.975-0.614c0.239-0.195,0.449-0.414,0.644-0.644
			l0.466,0.567c0.531-0.607,0.912-1.305,1.139-2.048l-0.737-0.073c0.22-0.653,0.305-1.348,0.238-2.035l0.728,0.071
			c-0.056-0.791-0.278-1.572-0.678-2.294l-0.565,0.464c-0.155-0.297-0.344-0.587-0.567-0.858c-0.222-0.271-0.467-0.51-0.732-0.722
			l0.565-0.465c-0.629-0.53-1.354-0.903-2.119-1.112l-0.073,0.729c-0.66-0.197-1.355-0.248-2.041-0.159l0.073-0.739
			c-0.773,0.08-1.533,0.319-2.23,0.722L36.233,80.046z M41.617,81.805c1.381,1.681,1.135,4.174-0.544,5.557
			c-1.683,1.382-4.174,1.135-5.555-0.545c-1.382-1.681-1.138-4.171,0.542-5.554C37.743,79.882,40.234,80.123,41.617,81.805z
			 M36.054,86.377c1.139,1.386,3.191,1.585,4.578,0.447c1.385-1.138,1.584-3.19,0.447-4.576c-1.14-1.387-3.192-1.587-4.577-0.449
			S34.914,84.99,36.054,86.377z M40.369,82.833c0.817,0.992,0.673,2.465-0.321,3.282c-0.995,0.816-2.467,0.673-3.284-0.322
			c-0.817-0.993-0.672-2.465,0.324-3.281C38.081,81.695,39.553,81.837,40.369,82.833z M37.874,83.467
			c0.467-0.383,1.152-0.316,1.537,0.152c0.384,0.467,0.317,1.154-0.151,1.537c-0.466,0.383-1.154,0.316-1.538-0.15
			C37.338,84.538,37.406,83.851,37.874,83.467z"/>
	</g>
	<g>
		<path fill="#626466" d="M63.214,77.865c-1.702,0-3.087-1.384-3.087-3.085s1.385-3.085,3.087-3.085
			c1.701,0,3.083,1.384,3.083,3.085S64.915,77.865,63.214,77.865z M63.214,73.666c-0.616,0-1.116,0.5-1.116,1.115
			s0.5,1.114,1.116,1.114c0.614,0,1.113-0.5,1.113-1.114S63.828,73.666,63.214,73.666z"/>
	</g>
	<g>
		<path fill="#626466" d="M38.681,77.865c-1.702,0-3.087-1.384-3.087-3.085s1.385-3.085,3.087-3.085c1.7,0,3.084,1.384,3.084,3.085
			S40.381,77.865,38.681,77.865z M38.681,73.666c-0.616,0-1.117,0.5-1.117,1.115s0.501,1.114,1.117,1.114
			c0.614,0,1.113-0.5,1.113-1.114S39.295,73.666,38.681,73.666z"/>
	</g>
	<g>
		<path fill="#626466" d="M54.425,52.754H37.912c-0.756,0-1.369-0.613-1.369-1.369s0.613-1.369,1.369-1.369h16.514
			c0.756,0,1.369,0.613,1.369,1.369S55.181,52.754,54.425,52.754z"/>
	</g>
	<g>
		<path fill="#626466" d="M52.699,56.59H39.638c-0.756,0-1.369-0.613-1.369-1.369c0-0.756,0.613-1.369,1.369-1.369h13.061
			c0.756,0,1.369,0.613,1.369,1.369C54.067,55.977,53.455,56.59,52.699,56.59z"/>
	</g>
	<g>
		<path fill="#626466" d="M50.19,60.424h-8.043c-0.756,0-1.369-0.613-1.369-1.369s0.613-1.369,1.369-1.369h8.043
			c0.756,0,1.369,0.613,1.369,1.369S50.946,60.424,50.19,60.424z"/>
	</g>
	<g>
		
			<line fill="none" stroke="#FFFFFF" stroke-width="0.2215" stroke-miterlimit="10" x1="54.556" y1="27.673" x2="51.013" y2="31.216"/>
		
			<line fill="none" stroke="#FFFFFF" stroke-width="0.2215" stroke-miterlimit="10" x1="54.556" y1="28.988" x2="51.013" y2="32.531"/>
		
			<line fill="none" stroke="#FFFFFF" stroke-width="0.2215" stroke-miterlimit="10" x1="54.556" y1="30.303" x2="51.013" y2="33.847"/>
		
			<line fill="none" stroke="#FFFFFF" stroke-width="0.2215" stroke-miterlimit="10" x1="54.556" y1="31.618" x2="51.013" y2="35.162"/>
		
			<line fill="none" stroke="#FFFFFF" stroke-width="0.2215" stroke-miterlimit="10" x1="54.556" y1="32.934" x2="51.013" y2="36.477"/>
	</g>
	<g>
		
			<line fill="none" stroke="#626466" stroke-width="0.25" stroke-linejoin="round" stroke-miterlimit="10" x1="28.26" y1="39.2" x2="24.445" y2="43.013"/>
		
			<line fill="none" stroke="#626466" stroke-width="0.25" stroke-linejoin="round" stroke-miterlimit="10" x1="28.26" y1="40.616" x2="24.445" y2="44.43"/>
		
			<line fill="none" stroke="#626466" stroke-width="0.25" stroke-linejoin="round" stroke-miterlimit="10" x1="28.26" y1="42.033" x2="24.445" y2="45.846"/>
		
			<line fill="none" stroke="#626466" stroke-width="0.25" stroke-linejoin="round" stroke-miterlimit="10" x1="28.26" y1="43.45" x2="24.445" y2="47.263"/>
		
			<line fill="none" stroke="#626466" stroke-width="0.25" stroke-linejoin="round" stroke-miterlimit="10" x1="28.26" y1="44.867" x2="24.445" y2="48.679"/>
	</g>
	<g>
		
			<line fill="none" stroke="#FFFFFF" stroke-width="0.25" stroke-linejoin="round" stroke-miterlimit="10" x1="48.692" y1="26.625" x2="45.641" y2="29.678"/>
		
			<line fill="none" stroke="#FFFFFF" stroke-width="0.25" stroke-linejoin="round" stroke-miterlimit="10" x1="48.692" y1="28.16" x2="45.641" y2="31.212"/>
		
			<line fill="none" stroke="#FFFFFF" stroke-width="0.25" stroke-linejoin="round" stroke-miterlimit="10" x1="48.692" y1="29.695" x2="45.641" y2="32.747"/>
		
			<line fill="none" stroke="#FFFFFF" stroke-width="0.25" stroke-linejoin="round" stroke-miterlimit="10" x1="48.692" y1="31.229" x2="45.641" y2="34.282"/>
		
			<line fill="none" stroke="#FFFFFF" stroke-width="0.25" stroke-linejoin="round" stroke-miterlimit="10" x1="48.692" y1="32.764" x2="45.641" y2="35.816"/>
		
			<line fill="none" stroke="#FFFFFF" stroke-width="0.25" stroke-linejoin="round" stroke-miterlimit="10" x1="48.692" y1="34.298" x2="45.641" y2="37.351"/>
		
			<line fill="none" stroke="#FFFFFF" stroke-width="0.25" stroke-linejoin="round" stroke-miterlimit="10" x1="48.692" y1="35.833" x2="45.641" y2="38.885"/>
		
			<line fill="none" stroke="#FFFFFF" stroke-width="0.25" stroke-linejoin="round" stroke-miterlimit="10" x1="48.692" y1="37.368" x2="45.641" y2="40.42"/>
		
			<line fill="none" stroke="#FFFFFF" stroke-width="0.25" stroke-linejoin="round" stroke-miterlimit="10" x1="48.692" y1="38.902" x2="45.641" y2="41.954"/>
		
			<line fill="none" stroke="#FFFFFF" stroke-width="0.25" stroke-linejoin="round" stroke-miterlimit="10" x1="48.692" y1="40.437" x2="45.641" y2="43.489"/>
	</g>
</g>
</svg>
