<?xml version="1.0" encoding="utf-8"?>
<!-- Generator: Adobe Illustrator 15.0.0, SVG Export Plug-In . SVG Version: 6.00 Build 0)  -->
<!DOCTYPE svg PUBLIC "-//W3C//DTD SVG 1.1//EN" "http://www.w3.org/Graphics/SVG/1.1/DTD/svg11.dtd">
<svg version="1.1" id="Layer_1" xmlns="http://www.w3.org/2000/svg" xmlns:xlink="http://www.w3.org/1999/xlink" x="0px" y="0px"
	 width="90.709px" height="90.709px" viewBox="0 0 90.709 90.709" enable-background="new 0 0 90.709 90.709" xml:space="preserve">
<g>
	<g>
		<path fill="#626466" d="M45.354,90.709c-22.647,0-41.072-18.425-41.072-41.072S22.707,8.565,45.354,8.565
			s41.072,18.424,41.072,41.071S68.002,90.709,45.354,90.709z M45.354,10.736c-21.45,0-38.9,17.45-38.9,38.9
			c0,21.449,17.451,38.9,38.9,38.9c21.45,0,38.9-17.451,38.9-38.9C84.255,28.187,66.805,10.736,45.354,10.736z"/>
	</g>
	<g>
		<path fill="#FFFFFF" d="M29.366,44.837l-3.835,0.243l-4.471,1.605c0,0-3.408,0.804-2.885,5.043c0,0,3.876,8.491,4.668,9.999
			c0.792,1.508,2.884,5.643,2.884,5.643s3.047,2.073,5.333-3.107c0.927-2.103,0.252-4.789,0.252-4.789s0.559-6.641-2.316-10.211
			C26.833,46.577,33.216,46.554,29.366,44.837z"/>
		<path fill="#626466" d="M27.199,68.291C27.199,68.291,27.199,68.291,27.199,68.291c-1.016-0.001-1.73-0.479-1.76-0.499
			l-0.109-0.074l-0.06-0.117c0,0-2.09-4.129-2.881-5.636c-0.79-1.503-4.521-9.677-4.68-10.024l-0.042-0.149
			c-0.572-4.64,3.236-5.594,3.274-5.604l4.556-1.617l3.961-0.251l0.115,0.051c1.068,0.477,1.521,0.884,1.564,1.406
			c0.05,0.617-0.517,0.99-1.064,1.352c-0.451,0.297-0.963,0.634-1.021,1.004c-0.034,0.216,0.081,0.488,0.341,0.811
			c2.826,3.511,2.493,9.668,2.434,10.491c0.112,0.496,0.603,2.986-0.3,5.035C30.134,67.628,28.404,68.291,27.199,68.291z
			 M26.114,67.004c0.178,0.092,0.579,0.265,1.085,0.265l0,0c1.292,0,2.465-1.11,3.393-3.212c0.847-1.92,0.23-4.434,0.225-4.459
			l-0.021-0.083l0.007-0.084c0.005-0.064,0.505-6.48-2.206-9.847c-0.448-0.557-0.634-1.099-0.555-1.609
			c0.128-0.817,0.872-1.307,1.468-1.7c0.21-0.139,0.52-0.343,0.603-0.456c-0.045-0.002-0.222-0.176-0.843-0.464l-3.635,0.231
			l-4.403,1.58c-0.172,0.045-2.969,0.777-2.56,4.423c0.38,0.833,3.885,8.496,4.623,9.901C24.002,62.838,25.747,66.278,26.114,67.004
			z"/>
	</g>
	<g>
		<path fill="#FFFFFF" d="M23.429,62.859c0,0,1.789-1.956,3.107-1.57s2.295,2.877,2.819,3.906c0.524,1.027,0.308,2.274-1.247,2.388
			c-1.554,0.114-1.735,1.06-2.382-0.213C25.081,66.096,23.429,62.859,23.429,62.859z"/>
		<path fill="#626466" d="M26.385,68.538c-0.56,0-0.867-0.45-1.114-0.937c-0.646-1.273-2.297-4.51-2.297-4.51l-0.161-0.315
			l0.239-0.262c0.168-0.184,1.676-1.787,3.12-1.787c0.176,0,0.347,0.023,0.507,0.07c1.338,0.393,2.259,2.336,2.869,3.621
			c0.098,0.206,0.186,0.392,0.263,0.544c0.385,0.756,0.414,1.564,0.077,2.165c-0.225,0.398-0.709,0.89-1.742,0.965
			c-0.488,0.036-0.821,0.168-1.089,0.273C26.832,68.454,26.62,68.538,26.385,68.538z M24.052,62.956
			c0.437,0.856,1.609,3.156,2.13,4.183c0.122,0.239,0.198,0.336,0.233,0.373c0.062-0.016,0.173-0.06,0.266-0.096
			c0.315-0.125,0.747-0.295,1.39-0.342c0.32-0.024,0.741-0.121,0.925-0.448c0.167-0.296,0.13-0.756-0.096-1.199
			c-0.082-0.16-0.174-0.354-0.276-0.57c-0.467-0.983-1.334-2.814-2.232-3.077C25.727,61.582,24.602,62.435,24.052,62.956z"/>
	</g>
	<g>
		<path fill="#626466" d="M64.06,80.807c0,0-3.299,7.747-9.994,5.46L29.357,38.45l-5.859-5.948c0,0,14.559-6.621,16.684-7.831
			c0,0,1.64,6.687,2.065,8.549L64.06,80.807z"/>
	</g>
	<g>
		<polygon fill="#626466" points="23.168,32.729 21.623,30.926 40.433,22.38 40.885,24.784 		"/>
	</g>
	<g>
		<path fill="#626466" d="M22.031,31.358l-2.56-2.818l20.164-9.412l0.701,3.431L22.031,31.358z M21.16,28.879l1.116,1.228
			l16.9-8.123l-0.282-1.382L21.16,28.879z"/>
	</g>
	<g>
		<path fill="#626466" d="M20.231,29.313l-0.25-0.218c-0.379-0.328-9.259-8.169-8.072-18.773C12.708,3.191,18.119,0,23.127,0
			c3.101,0,6.106,1.189,8.245,3.265c9.186,8.91,8.033,16.557,7.98,16.878l-0.044,0.266L20.231,29.313z M23.127,1.022
			c-4.553,0-9.474,2.91-10.202,9.413c-1.022,9.125,6.071,16.331,7.484,17.666l17.96-8.384c0.103-1.381,0.142-8.104-7.709-15.72
			C28.71,2.107,25.965,1.022,23.127,1.022z"/>
	</g>
	<g>
		<path fill="#626466" d="M26.072,26.225C12.304,13.023,17.808,1.47,17.866,1.354l0.916,0.454
			c-0.053,0.108-5.201,11.022,7.999,23.679L26.072,26.225z"/>
	</g>
	<g>
		<path fill="#626466" d="M23.773,27.024c-13.031-13.899-8.467-23.52-8.266-23.922l0.915,0.454
			c-0.046,0.093-4.412,9.427,8.096,22.77L23.773,27.024z"/>
	</g>
	<g>
		<path fill="#626466" d="M28.487,24.938c-13.125-8.521-8.954-23.994-8.911-24.149l0.984,0.276
			c-0.042,0.147-4.002,14.909,8.483,23.016L28.487,24.938z"/>
	</g>
	<g>
		<path fill="#626466" d="M30.426,24.04c-0.129-0.067-12.848-6.916-9.014-23.532l0.996,0.229
			c-3.658,15.855,8.369,22.333,8.49,22.396L30.426,24.04z"/>
	</g>
	<g>
		<path fill="#626466" d="M34.401,22.313c-0.149-0.031-14.875-3.397-11.004-21.823l1,0.209c-3.657,17.411,9.65,20.492,10.218,20.615
			L34.401,22.313z"/>
	</g>
	<g>
		<path fill="#626466" d="M37.301,20.936C22.172,17.603,25.311,0.978,25.344,0.81l1.002,0.2
			c-0.128,0.645-2.971,15.812,11.175,18.928L37.301,20.936z"/>
	</g>
	<g>
		<path fill="#626466" d="M38.231,20.202c-4.954-2.012-8.262-4.927-9.832-8.662c-2.141-5.097-0.252-9.816-0.17-10.015l0.945,0.388
			c-0.019,0.045-1.808,4.546,0.173,9.244c1.463,3.471,4.582,6.195,9.269,8.099L38.231,20.202z"/>
	</g>
	<g>
		<path fill="#626466" d="M37.945,16.572c-3.768-1.306-6.261-3.317-7.409-5.979c-1.553-3.6-0.051-7.027,0.014-7.171l0.933,0.417
			c-0.014,0.032-1.382,3.18-0.003,6.361c1.032,2.38,3.32,4.199,6.801,5.406L37.945,16.572z"/>
	</g>
	<g>
		<path fill="#626466" d="M37.329,14.179c-6.234-1.402-5.433-8.788-5.424-8.863l1.015,0.12c-0.031,0.267-0.698,6.547,4.634,7.746
			L37.329,14.179z"/>
	</g>
	<g>
		<path fill="none" stroke="#626466" stroke-miterlimit="10" d="M19.794,1.493"/>
	</g>
	<g>
		<path fill="#626466" d="M37.38,20.635C32.92,2.541,21.965,1.143,21.855,1.131l0.11-1.017c0.479,0.053,11.779,1.494,16.407,20.276
			L37.38,20.635z"/>
	</g>
	<g>
		<path fill="#626466" d="M35.05,21.623c-0.009-0.154-1.087-15.517-15.397-19.64l0.282-0.981
			C34.951,5.327,36.061,21.401,36.07,21.563L35.05,21.623z"/>
	</g>
	<g>
		<path fill="#626466" d="M32.425,23.122l-1-0.217c1.486-6.852-4.962-17.751-14.329-20.229l0.261-0.988
			C27.224,4.299,34.002,15.85,32.425,23.122z"/>
	</g>
	<g>
		<path fill="#626466" d="M30.2,24.134l-1.015-0.118C31.076,7.649,15.277,5.12,14.603,5.021l0.15-1.011
			C14.927,4.035,32.204,6.796,30.2,24.134z"/>
	</g>
	<g>
		<path fill="none" stroke="#626466" stroke-miterlimit="10" d="M12.884,7.384"/>
	</g>
	<g>
		<path fill="#626466" d="M27.724,25.57l-1.008-0.167c0.789-4.746,0.006-8.668-2.326-11.656c-4.052-5.191-11.473-5.848-11.547-5.854
			l0.082-1.019c0.323,0.026,7.946,0.702,12.271,6.243C27.711,16.341,28.562,20.53,27.724,25.57z"/>
	</g>
	<g>
		<path fill="#626466" d="M25.423,26.378l-1.011-0.151C26.436,12.679,13.037,9.999,12.466,9.892l0.188-1.004
			C12.804,8.915,27.59,11.868,25.423,26.378z"/>
	</g>
	<g>
		<path fill="#626466" d="M23.108,28.676l-0.783-0.671c-6.458-5.533-8.841-10.801-9.576-14.781c-0.44-0.056-0.707-0.058-0.716-0.058
			v-1.022c0.036,0,0.235,0.002,0.556,0.032c-0.431-3.542,0.422-5.847,0.499-6.046l0.953,0.369c-0.018,0.048-0.843,2.313-0.339,5.84
			c1.585,0.314,4.016,1.136,6.041,3.282c2.576,2.728,3.728,6.773,3.424,12.025L23.108,28.676z M13.896,13.433
			c0.753,3.585,2.904,8.224,8.292,13.091c0.084-4.44-0.986-7.869-3.188-10.202C17.329,14.552,15.325,13.774,13.896,13.433z"/>
	</g>
	<g>
		<path fill="#626466" d="M20.908,28.225l-1.021-0.038c0.364-9.875-6.991-11.531-7.304-11.597l0.207-1.001
			C12.875,15.606,21.305,17.463,20.908,28.225z"/>
	</g>
	<g>
		<path fill="#626466" d="M18.484,27.68c-0.63-8.392-5.325-9.147-5.372-9.154l0.143-1.012c0.227,0.031,5.557,0.886,6.248,10.09
			L18.484,27.68z"/>
	</g>
	<g>
		<path fill="#FFFFFF" d="M13.56,19.132c0,0-1.15,1.868,1.124,2.519l21.652-10.678c0,0,1.305-1.681-1.245-2.286L13.56,19.132z"/>
		<path fill="#626466" d="M14.733,22.195l-0.19-0.054c-0.862-0.247-1.421-0.686-1.662-1.306c-0.364-0.94,0.18-1.869,0.244-1.972
			l0.078-0.127l21.829-10.59l0.177,0.042c1.024,0.243,1.659,0.692,1.886,1.335c0.307,0.872-0.286,1.673-0.354,1.761l-0.073,0.094
			L14.733,22.195z M13.933,19.519c-0.102,0.224-0.227,0.625-0.098,0.951c0.106,0.268,0.377,0.479,0.807,0.631l21.344-10.525
			c0.086-0.146,0.236-0.454,0.143-0.714c-0.093-0.258-0.44-0.479-0.984-0.633L13.933,19.519z"/>
	</g>
	<g>
		<path fill="#FFFFFF" d="M28.004,46.86c0,0,1.091-2.487,4.365-4.596c3.273-2.107,12.409-6.325,14.73-6.813
			c2.323-0.488,5.876-1.294,7.522,0.352c1.645,1.646,1.91,4.796,1.403,6.609c-0.508,1.817-1.179,1.535-2.87,2.471
			c-1.69,0.936-15.697,5.401-17.064,6.389c-1.368,0.986-4.775,2.264-6.044,0.506C28.778,50.019,27.599,48.821,28.004,46.86z"/>
		<path fill="#626466" d="M32.061,53.162c-1.076,0-1.916-0.376-2.428-1.086c-0.167-0.23-0.331-0.451-0.491-0.666
			c-1.092-1.463-2.036-2.728-1.638-4.653l0.032-0.103c0.047-0.107,1.192-2.652,4.557-4.819c3.314-2.134,12.506-6.38,14.902-6.884
			l0.196-0.041c1.274-0.269,2.859-0.604,4.337-0.604c1.562,0,2.692,0.371,3.456,1.135c1.898,1.898,2.04,5.3,1.533,7.109
			c-0.419,1.499-1.01,1.818-2.019,2.255c-0.307,0.133-0.667,0.288-1.095,0.524c-0.801,0.443-3.953,1.542-7.602,2.815
			c-3.885,1.355-8.721,3.042-9.411,3.54C35.374,52.419,33.561,53.162,32.061,53.162z M28.493,47.021
			c-0.274,1.444,0.459,2.426,1.468,3.777c0.163,0.219,0.331,0.444,0.5,0.68c0.317,0.438,0.855,0.661,1.6,0.661
			c1.269,0,2.87-0.661,3.731-1.282c0.754-0.545,4.319-1.81,9.672-3.677c3.303-1.152,6.718-2.344,7.443-2.745
			c0.463-0.256,0.853-0.425,1.185-0.568c0.846-0.366,1.131-0.489,1.44-1.593c0.443-1.584,0.248-4.59-1.272-6.11
			c-0.562-0.563-1.456-0.835-2.733-0.835c-1.371,0-2.898,0.321-4.126,0.581l-0.197,0.041c-2.268,0.477-11.385,4.699-14.56,6.743
			C29.793,44.531,28.658,46.684,28.493,47.021z"/>
	</g>
	<g>
		<path fill="#FFFFFF" d="M33.247,52.505c0,0-1.152,0.1-1.915,3.162c-0.913,3.66,1,7.365,3.023,8.727
			c2.024,1.362,3.773-0.561,4.926-1.056c0,0,6.137-2.613,14.227-5.339c3.028-1.02,4.908-1.486,6.538-1.89
			c1.527-0.377,2.532,0.815,2.629,0.426c0.238-0.961,0.976-5.346,1-6.157c0.025-0.87-1.096-2.171-1.984-4.452
			c-1.14-2.927-4.171-3.63-6.78-1.876L33.247,52.505z"/>
		<path fill="#626466" d="M35.836,65.384C35.836,65.384,35.836,65.384,35.836,65.384c-0.613,0-1.208-0.19-1.766-0.566
			c-2.284-1.537-4.169-5.52-3.234-9.274c0.737-2.957,1.882-3.451,2.274-3.533l21.563-8.416c0.996-0.657,2.079-1.005,3.136-1.005
			c1.96,0,3.59,1.178,4.358,3.151c0.394,1.011,0.842,1.838,1.203,2.504c0.484,0.893,0.834,1.537,0.816,2.148
			c-0.025,0.878-0.773,5.292-1.014,6.265c-0.071,0.285-0.304,0.468-0.593,0.468c-0.203,0-0.386-0.09-0.62-0.203
			c-0.422-0.207-1.097-0.488-1.79-0.316c-1.629,0.403-3.476,0.86-6.497,1.878c-7.979,2.688-14.128,5.298-14.189,5.324
			c-0.228,0.098-0.515,0.282-0.82,0.478C37.896,64.774,36.944,65.384,35.836,65.384z M33.292,53.014
			c0.017,0-0.833,0.248-1.463,2.776c-0.829,3.325,0.814,6.835,2.813,8.18c0.392,0.264,0.783,0.393,1.195,0.393
			c0.81,0,1.588-0.499,2.275-0.938c0.341-0.218,0.663-0.424,0.969-0.556c0.063-0.027,6.249-2.652,14.265-5.354
			c3.062-1.031,4.93-1.493,6.578-1.901c0.922-0.227,1.853,0.087,2.359,0.329c0.298-1.471,0.863-4.927,0.881-5.579
			c0.01-0.336-0.316-0.937-0.693-1.633c-0.375-0.689-0.84-1.549-1.256-2.619c-0.619-1.59-1.86-2.501-3.406-2.501
			c-0.87,0-1.774,0.299-2.614,0.863l-0.099,0.052L33.292,53.014L33.292,53.014z"/>
	</g>
	<g>
		<path fill="#FFFFFF" d="M63.574,64.854c0,0,2.972-2.349,1.932-5.555c-0.599-1.848-2.109-2.442-3.717-2.908
			c-1.607-0.466-10.784,2.233-12.63,3.021c-1.846,0.789-7.09,2.903-8.484,3.414c-1.394,0.511-3.74,1.379-3.741,3.521
			c-0.001,2.141,1.429,5.996,5.584,6.495C46.675,73.34,60.894,66.492,63.574,64.854z"/>
		<path fill="#626466" d="M42.99,73.38c-0.233-0.011-0.368-0.01-0.532-0.029c-4.398-0.528-6.036-4.576-6.035-7.003
			c0-2.509,2.652-3.479,4.076-4c1.416-0.519,6.685-2.646,8.459-3.404c1.683-0.72,9.671-3.116,12.32-3.116
			c0.268,0,0.482,0.023,0.653,0.073c1.607,0.466,3.379,1.14,4.061,3.241c1.137,3.505-1.968,6.009-2.101,6.113
			C61.1,66.965,47.744,73.38,42.99,73.38z M61.278,56.849c-2.312,0-10.14,2.275-11.918,3.035c-1.783,0.761-7.083,2.9-8.509,3.424
			c-1.273,0.466-3.405,1.245-3.405,3.04c-0.001,2.077,1.392,5.539,5.134,5.987c3.979,0.475,18.042-6.275,20.728-7.917
			c0.059-0.052,2.628-2.139,1.712-4.961c-0.528-1.628-1.896-2.147-3.373-2.575C61.604,56.87,61.499,56.849,61.278,56.849z"/>
	</g>
	<g>
		<path fill="#FFFFFF" d="M40.887,74.995c0,0-1.403,5.812,6.157,5.308c7.56-0.506,10.637-3.46,12.747-5.88
			c2.111-2.42,3.319-9.463,1.498-8.332c-5.354,3.326-17.819,6.912-17.819,6.912S40.982,73.687,40.887,74.995z"/>
		<path fill="#626466" d="M46.147,80.845c-2.296,0-3.957-0.631-4.935-1.873c-1.371-1.741-0.845-4.001-0.821-4.097
			c0.104-1.539,2.654-2.285,2.944-2.365c0.118-0.034,12.453-3.604,17.685-6.853c0.6-0.372,1.204-0.189,1.471,0.401
			c0.67,1.475-0.536,6.66-2.314,8.7c-2.491,2.855-5.801,5.566-13.099,6.054C46.752,80.834,46.441,80.845,46.147,80.845z
			 M61.583,66.512c-0.008,0.004-0.016,0.008-0.024,0.014c-5.352,3.324-17.436,6.821-17.947,6.969
			c-0.704,0.194-2.163,0.824-2.215,1.537c-0.017,0.101-0.442,1.969,0.623,3.314c0.884,1.116,2.513,1.615,4.99,1.446
			c7.271-0.485,10.211-3.199,12.396-5.705C61.068,72.182,61.999,67.375,61.583,66.512z"/>
	</g>
	<g>
		
			<line fill="none" stroke="#FFFFFF" stroke-width="0.25" stroke-linejoin="round" stroke-miterlimit="10" x1="34.208" y1="28.595" x2="32.453" y2="33.028"/>
		
			<line fill="none" stroke="#FFFFFF" stroke-width="0.25" stroke-linejoin="round" stroke-miterlimit="10" x1="34.705" y1="29.744" x2="32.951" y2="34.177"/>
		
			<line fill="none" stroke="#FFFFFF" stroke-width="0.25" stroke-linejoin="round" stroke-miterlimit="10" x1="35.203" y1="30.894" x2="33.448" y2="35.325"/>
		
			<line fill="none" stroke="#FFFFFF" stroke-width="0.25" stroke-linejoin="round" stroke-miterlimit="10" x1="35.7" y1="32.042" x2="33.946" y2="36.475"/>
		
			<line fill="none" stroke="#FFFFFF" stroke-width="0.25" stroke-linejoin="round" stroke-miterlimit="10" x1="36.198" y1="33.191" x2="34.443" y2="37.623"/>
	</g>
	<g>
		
			<line fill="none" stroke="#FFFFFF" stroke-width="0.25" stroke-linejoin="round" stroke-miterlimit="10" x1="57.483" y1="77.802" x2="55.729" y2="82.235"/>
		
			<line fill="none" stroke="#FFFFFF" stroke-width="0.25" stroke-linejoin="round" stroke-miterlimit="10" x1="57.98" y1="78.951" x2="56.226" y2="83.384"/>
		
			<line fill="none" stroke="#FFFFFF" stroke-width="0.25" stroke-linejoin="round" stroke-miterlimit="10" x1="58.478" y1="80.101" x2="56.724" y2="84.533"/>
		
			<line fill="none" stroke="#FFFFFF" stroke-width="0.25" stroke-linejoin="round" stroke-miterlimit="10" x1="58.975" y1="81.249" x2="57.22" y2="85.682"/>
		
			<line fill="none" stroke="#FFFFFF" stroke-width="0.25" stroke-linejoin="round" stroke-miterlimit="10" x1="59.473" y1="82.398" x2="57.718" y2="86.83"/>
	</g>
	<g>
		
			<line fill="none" stroke="#626466" stroke-width="0.2215" stroke-miterlimit="10" x1="50.925" y1="35.892" x2="47.361" y2="39.059"/>
		
			<line fill="none" stroke="#626466" stroke-width="0.2215" stroke-miterlimit="10" x1="50.852" y1="37.141" x2="47.288" y2="40.308"/>
		
			<line fill="none" stroke="#626466" stroke-width="0.2215" stroke-miterlimit="10" x1="50.778" y1="38.391" x2="47.214" y2="41.557"/>
		
			<line fill="none" stroke="#626466" stroke-width="0.2215" stroke-miterlimit="10" x1="50.704" y1="39.64" x2="47.14" y2="42.807"/>
		
			<line fill="none" stroke="#626466" stroke-width="0.2215" stroke-miterlimit="10" x1="50.63" y1="40.89" x2="47.067" y2="44.056"/>
	</g>
	<g>
		
			<line fill="none" stroke="#626466" stroke-width="0.2215" stroke-miterlimit="10" x1="59.83" y1="58.179" x2="56.266" y2="61.346"/>
		
			<line fill="none" stroke="#626466" stroke-width="0.2215" stroke-miterlimit="10" x1="59.756" y1="59.429" x2="56.192" y2="62.595"/>
		
			<line fill="none" stroke="#626466" stroke-width="0.2215" stroke-miterlimit="10" x1="59.683" y1="60.678" x2="56.119" y2="63.844"/>
		
			<line fill="none" stroke="#626466" stroke-width="0.2215" stroke-miterlimit="10" x1="59.609" y1="61.928" x2="56.045" y2="65.094"/>
		
			<line fill="none" stroke="#626466" stroke-width="0.2215" stroke-miterlimit="10" x1="59.535" y1="63.177" x2="55.971" y2="66.343"/>
	</g>
	<g>
		
			<line fill="none" stroke="#626466" stroke-width="0.2215" stroke-miterlimit="10" x1="23.435" y1="49.53" x2="20.88" y2="53.556"/>
		
			<line fill="none" stroke="#626466" stroke-width="0.2215" stroke-miterlimit="10" x1="23.708" y1="50.752" x2="21.153" y2="54.776"/>
		
			<line fill="none" stroke="#626466" stroke-width="0.2215" stroke-miterlimit="10" x1="23.981" y1="51.974" x2="21.426" y2="55.998"/>
		
			<line fill="none" stroke="#626466" stroke-width="0.2215" stroke-miterlimit="10" x1="24.254" y1="53.195" x2="21.699" y2="57.22"/>
		
			<line fill="none" stroke="#626466" stroke-width="0.2215" stroke-miterlimit="10" x1="24.527" y1="54.417" x2="21.972" y2="58.441"/>
	</g>
</g>
</svg>
