<?xml version="1.0" encoding="utf-8"?>
<!-- Generator: Adobe Illustrator 15.0.0, SVG Export Plug-In . SVG Version: 6.00 Build 0)  -->
<!DOCTYPE svg PUBLIC "-//W3C//DTD SVG 1.1//EN" "http://www.w3.org/Graphics/SVG/1.1/DTD/svg11.dtd">
<svg version="1.1" id="图层_1" xmlns="http://www.w3.org/2000/svg" xmlns:xlink="http://www.w3.org/1999/xlink" x="0px" y="0px"
	 width="1533.543px" height="1533.545px" viewBox="83.622 83.621 1533.543 1533.545"
	 enable-background="new 83.622 83.621 1533.543 1533.545" xml:space="preserve">
<g>
	<path fill="#231815" d="M976.196,850.394c-21.832,0-43.779,21.946-43.779,43.72c0,22.155,21.947,43.813,43.779,43.813
		c33.095,0,54.733-21.657,54.733-43.813C1030.931,872.339,1009.291,850.394,976.196,850.394z"/>
	<path fill="#231815" d="M1216.849,850.394c-21.641,0-43.473,21.946-43.473,43.72c0,22.155,21.832,43.813,43.473,43.813
		c32.824,0,54.771-21.657,54.771-43.813C1271.62,872.339,1249.673,850.394,1216.849,850.394z"/>
	<path fill="#231815" d="M527.68,533.066c-32.748,0-65.88,21.617-65.88,54.574c0,32.784,33.132,54.73,65.88,54.73
		c32.787,0,54.58-21.946,54.58-54.73C582.26,554.685,560.467,533.066,527.68,533.066z"/>
	<path fill="#231815" d="M833.942,642.372c32.901,0,54.733-21.946,54.733-54.73c0-32.956-21.832-54.574-54.733-54.574
		c-32.824,0-65.766,21.617-65.766,54.574C768.178,620.426,801.118,642.372,833.942,642.372z"/>
	<path fill="#231815" d="M850.433,83.622c-423.264,0-766.811,343.348-766.811,766.771c0,423.424,343.546,766.771,766.811,766.771
		c423.341,0,766.732-343.348,766.732-766.771C1617.165,426.97,1273.771,83.622,850.433,83.622z M669.818,1091.334
		c-54.618,0-98.514-11.146-153.246-21.945l-152.939,76.715l43.702-131.656C297.868,937.926,232.256,839.21,232.256,719.105
		c0-208.177,197.026-372.117,437.563-372.117c215.092,0,403.585,130.925,441.482,307.22c-13.914-1.557-27.942-2.537-42.127-2.537
		c-207.865,0-371.988,155.08-371.988,346.25c0,31.766,4.957,62.415,13.49,91.684C697.146,1090.66,683.54,1091.334,669.818,1091.334z
		 M1315.208,1244.569l32.979,109.382l-120-65.741c-43.779,10.974-87.75,21.945-131.339,21.945
		c-208.172,0-372.104-142.263-372.104-317.499c0-174.932,163.933-317.481,372.104-317.481
		c196.527,0,371.646,142.551,371.646,317.481C1468.493,1091.334,1403.073,1178.732,1315.208,1244.569z"/>
</g>
</svg>
