<?xml version="1.0" encoding="utf-8"?>
<!-- Generator: Adobe Illustrator 15.0.0, SVG Export Plug-In . SVG Version: 6.00 Build 0) color="#231815" -->
<!DOCTYPE svg PUBLIC "-//W3C//DTD SVG 1.1//EN" "http://www.w3.org/Graphics/SVG/1.1/DTD/svg11.dtd">
<svg version="1.1" id="图层_1" xmlns="http://www.w3.org/2000/svg" xmlns:xlink="http://www.w3.org/1999/xlink" x="0px" y="0px"
	 width="1533.543px" height="1533.545px" viewBox="83.622 83.621 1533.543 1533.545"
	 enable-background="new 83.622 83.621 1533.543 1533.545" xml:space="preserve">
<g>
	<path fill="#dddddd" d="M716.548,955.523c-13.201,9.572-15.899,27.899-8.713,39.3c6.889,11.622,22.918,13,35.952,3.239
		c12.734-10.02,17.687-27.564,10.78-39.262C747.677,947.403,731.833,944.125,716.548,955.523z"/>
	<path fill="#dddddd" d="M618.839,982.046c-38.483,4.022-66.058,37.622-66.058,69.733c0,32.184,30.98,54.386,69.502,49.915
		c38.372-4.396,69.501-34.047,69.501-66.156C691.786,1003.354,663.039,977.874,618.839,982.046z"/>
	<path fill="#000" d="M850.506,83.622c-423.154,0-766.884,343.393-766.884,766.967c0,423.426,343.729,766.576,766.884,766.576
		c423.452,0,766.659-343.15,766.659-766.576C1617.165,427.015,1273.958,83.622,850.506,83.622z M1269.564,1042.913
		c-84.527,179.547-363.204,266.937-569.662,250.77c-196.273-15.421-448.625-80.646-474.689-318.229
		c0,0-13.777-107.617,90.484-246.859c0,0,149.987-209.57,324.72-269.356c174.844-59.545,195.193,41.217,195.193,100.725
		c-9.255,50.512-26.644,80.182,39.022,59.787c0,0,171.81-79.735,242.559-8.996c57.046,57.143,9.422,135.646,9.422,135.646
		s-23.684,26.242,25.021,35.724C1200.491,791.845,1354.091,863.031,1269.564,1042.913z M1100.102,546.738
		c-18.729,0-33.698-15.124-33.698-33.693c0-18.867,14.969-34.01,33.698-34.01c0,0,210.646-38.982,185.512,187.519
		c0,1.341-0.187,2.384-0.446,3.576c-2.42,16.019-16.496,28.329-33.104,28.329c-18.767,0-34.032-15.03-34.032-33.749
		C1218.029,664.709,1251.467,513.362,1100.102,546.738z M1450.104,731.875c0,0-20.672,48.694-69.355,24.87
		c-44.075-21.569-22.297-65.135-21.352-66.977c1.152-2.643,14.583-34.3,16.522-76.589c2.528-55.127-15.144-103.2-52.525-142.885
		c-40.895-43.414-93.946-66.779-157.683-69.447c-48.068-2.011-83.773,8.788-84.12,8.897c-26.334,8.32-54.423-6.28-62.742-32.61
		c-8.321-26.331,6.279-54.421,32.609-62.742c5.267-1.664,53.334-16.178,118.436-13.458c89.455,3.745,167.706,38.598,226.291,100.792
		c56.986,60.498,84.436,136.824,79.38,220.729C1471.887,683.511,1452.323,727.105,1450.104,731.875z"/>
	<path fill="#dddddd" d="M715.188,740.31c-204.985,9.406-370.67,119.258-370.67,256.265c0,136.857,165.685,239.67,370.67,230.134
		c205.137-9.313,371.174-137.827,371.174-274.61C1086.361,815.35,920.324,730.829,715.188,740.31z M854.824,1084.855
		c-62.762,81.096-186.982,120.654-307.609,55.355c-57.363-31.217-55.296-92.344-55.296-92.344S468.106,854.613,674.266,830.53
		C880.741,806.504,917.605,1003.8,854.824,1084.855z"/>
</g>
</svg>
