<?xml version="1.0" encoding="utf-8"?>
<!-- Generator: Adobe Illustrator 15.0.0, SVG Export Plug-In . SVG Version: 6.00 Build 0)  -->
<!DOCTYPE svg PUBLIC "-//W3C//DTD SVG 1.1//EN" "http://www.w3.org/Graphics/SVG/1.1/DTD/svg11.dtd">
<svg version="1.1" id="Layer_1" xmlns="http://www.w3.org/2000/svg" xmlns:xlink="http://www.w3.org/1999/xlink" x="0px" y="0px"
	 width="42.52px" height="42.52px" viewBox="0 0 42.52 42.52" enable-background="new 0 0 42.52 42.52" xml:space="preserve">
<g>
	<g>
		<path fill="#000" d="M21.26,42.52C9.537,42.52,0,32.983,0,21.26C0,9.537,9.537,0,21.26,0c11.722,0,21.26,9.537,21.26,21.26
			C42.52,32.983,32.982,42.52,21.26,42.52z M21.26,0.591C9.863,0.591,0.591,9.863,0.591,21.26c0,11.396,9.272,20.668,20.668,20.668
			c11.396,0,20.668-9.271,20.668-20.668C41.928,9.863,32.656,0.591,21.26,0.591z"/>
	</g>
	<path fill="#ddd" d="M28.247,20.796c0.455-1.408,1.02-3.935-1.284-4.677c-2.441-0.787-6.043,1.2-6.043,1.2
		c0.497-1.531,0.621-3.933-0.952-4.596c-1.573-0.661-4.967,0.208-8.279,3.23s-6.155,7.532-5.162,11.256
		c0.994,3.727,6.693,6.504,12.903,6.213c6.209-0.289,12.501-3.766,12.833-7.865C32.593,21.459,28.247,20.796,28.247,20.796z"/>
	
		<ellipse transform="matrix(0.1106 0.9939 -0.9939 0.1106 41.7693 4.7554)" fill="#000" cx="18.228" cy="25.716" rx="5.9" ry="9.004"/>
	
		<ellipse transform="matrix(0.9939 -0.1105 0.1105 0.9939 -2.7939 2.1092)" fill="#ddd" cx="17.627" cy="26.254" rx="4.859" ry="4.272"/>
	<path fill="#ddd" d="M17.763,26.733c0.195,0.816-0.373,1.65-1.271,1.867s-1.783-0.27-1.98-1.086
		c-0.196-0.814,0.374-1.65,1.271-1.867C16.68,25.434,17.567,25.918,17.763,26.733z"/>
	
		<ellipse transform="matrix(0.9725 -0.2331 0.2331 0.9725 -5.4429 5.0444)" fill="#000" cx="18.621" cy="25.55" rx="0.616" ry="0.559"/>
	<g>
		<g>
			<path fill="#ddd" d="M30.786,19.653c-0.178,0-0.358-0.051-0.518-0.158c-0.428-0.287-0.543-0.866-0.257-1.293
				c0.227-0.339,0.346-0.733,0.346-1.143c0-1.136-0.923-2.059-2.059-2.059c-0.277,0-0.549,0.053-0.802,0.16
				c-0.475,0.202-1.021-0.021-1.222-0.496c-0.2-0.474,0.022-1.021,0.496-1.222c0.485-0.204,0.998-0.309,1.527-0.309
				c2.164,0,3.924,1.761,3.924,3.926c0,0.779-0.228,1.533-0.66,2.178C31.382,19.507,31.087,19.653,30.786,19.653z"/>
		</g>
	</g>
	<g>
		<g>
			<path fill="#ddd" d="M34.772,20.563c-0.115,0-0.232-0.021-0.344-0.066c-0.479-0.19-0.714-0.732-0.522-1.21
				c0.281-0.709,0.425-1.458,0.425-2.227c0-3.327-2.706-6.033-6.032-6.033c-0.599,0-1.188,0.088-1.754,0.259
				c-0.493,0.15-1.014-0.128-1.164-0.621c-0.148-0.492,0.129-1.013,0.622-1.163c0.741-0.224,1.514-0.339,2.296-0.339
				c4.354,0,7.896,3.542,7.896,7.897c0,1.006-0.188,1.987-0.556,2.915C35.493,20.341,35.142,20.563,34.772,20.563z"/>
		</g>
	</g>
</g>
</svg>
