<?xml version="1.0" encoding="utf-8"?>
<!-- Generator: Adobe Illustrator 15.0.0, SVG Export Plug-In . SVG Version: 6.00 Build 0)  -->
<!DOCTYPE svg PUBLIC "-//W3C//DTD SVG 1.1//EN" "http://www.w3.org/Graphics/SVG/1.1/DTD/svg11.dtd">
<svg version="1.1" id="Layer_1" xmlns="http://www.w3.org/2000/svg" xmlns:xlink="http://www.w3.org/1999/xlink" x="0px" y="0px"
	 width="42.52px" height="42.52px" viewBox="0 0 42.52 42.52" enable-background="new 0 0 42.52 42.52" xml:space="preserve">
<g>
	<path fill="#B09E8D" d="M21.26,42.52C9.537,42.52,0,32.984,0,21.261S9.537,0,21.26,0c11.722,0,21.26,9.538,21.26,21.261
		S32.982,42.52,21.26,42.52z M21.26,0.599c-11.393,0-20.661,9.269-20.661,20.662c0,11.392,9.269,20.661,20.661,20.661
		c11.393,0,20.662-9.269,20.662-20.661C41.921,9.868,32.653,0.599,21.26,0.599z"/>
</g>
<g>
	<g>
		<g>
			<path fill="#83746B" d="M17.694,9.975c-0.126,0-0.248-0.069-0.312-0.189l-1.356-2.561C15.933,7.052,16,6.837,16.172,6.746
				c0.174-0.091,0.389-0.025,0.48,0.148l1.356,2.561c0.091,0.173,0.025,0.387-0.147,0.479C17.807,9.961,17.751,9.975,17.694,9.975z"
				/>
		</g>
	</g>
	<g>
		<g>
			<path fill="#83746B" d="M24.723,9.975c0.127,0,0.252-0.069,0.314-0.189l1.356-2.561c0.092-0.173,0.025-0.388-0.147-0.479
				c-0.172-0.091-0.387-0.025-0.479,0.148l-1.355,2.561c-0.092,0.173-0.025,0.387,0.148,0.479
				C24.613,9.961,24.669,9.975,24.723,9.975z"/>
		</g>
	</g>
	<g>
		<path fill="#83746B" d="M29.362,15.848c-0.356-4.164-3.845-7.433-8.102-7.433c-4.256,0-7.746,3.27-8.104,7.433H29.362z"/>
	</g>
	<g>
		<path fill="#83746B" d="M13.174,16.55v11.868c0,0.822,0.62,1.489,1.382,1.489h13.355c0.764,0,1.382-0.667,1.382-1.489V16.55
			H13.174z"/>
	</g>
	<g>
		<path fill="#83746B" d="M12.573,25.304c0,1.019-0.81,1.843-1.808,1.843l0,0c-0.998,0-1.808-0.824-1.808-1.843V18.04
			c0-1.017,0.81-1.841,1.808-1.841l0,0c0.998,0,1.808,0.824,1.808,1.841V25.304z"/>
	</g>
	<g>
		<path fill="#83746B" d="M20.155,33.992c0,1.018-0.808,1.841-1.809,1.841l0,0c-0.998,0-1.806-0.823-1.806-1.841v-7.264
			c0-1.018,0.808-1.841,1.806-1.841l0,0c1,0,1.809,0.823,1.809,1.841V33.992z"/>
	</g>
	<g>
		<path fill="#83746B" d="M26.03,33.992c0,1.018-0.809,1.841-1.808,1.841l0,0c-0.998,0-1.808-0.823-1.808-1.841v-7.264
			c0-1.018,0.81-1.841,1.808-1.841l0,0c0.999,0,1.808,0.823,1.808,1.841V33.992z"/>
	</g>
	<g>
		<path fill="#83746B" d="M33.563,25.304c0,1.019-0.811,1.843-1.808,1.843l0,0c-0.998,0-1.809-0.824-1.809-1.843V18.04
			c0-1.017,0.811-1.841,1.809-1.841l0,0c0.997,0,1.808,0.824,1.808,1.841V25.304z"/>
	</g>
	<g>
		<circle fill="#F6E8DA" cx="17.545" cy="12.333" r="0.754"/>
	</g>
	<g>
		<path fill="#F6E8DA" d="M25.679,12.333c0,0.416-0.34,0.753-0.753,0.753c-0.417,0-0.755-0.337-0.755-0.753
			c0-0.417,0.338-0.754,0.755-0.754C25.339,11.579,25.679,11.916,25.679,12.333z"/>
	</g>
</g>
<g>
	<g>
		<path fill="#D3B192" d="M22.082,24.664h-1.238c-0.548-0.033-1.547-0.373-1.547-1.418v-0.722c0-1.224,1.046-1.547,1.599-1.547
			h2.216v3.661h-0.617v-3.042h-1.599c-0.099,0-0.98,0.035-0.98,0.928v0.722c0,0.733,0.909,0.798,0.948,0.8h1.219V24.664z"/>
	</g>
</g>
</svg>
