<?xml version="1.0" encoding="utf-8"?>
<!-- Generator: Adobe Illustrator 15.0.0, SVG Export Plug-In . SVG Version: 6.00 Build 0)  -->
<!DOCTYPE svg PUBLIC "-//W3C//DTD SVG 1.1//EN" "http://www.w3.org/Graphics/SVG/1.1/DTD/svg11.dtd">
<svg version="1.1" id="Layer_1" xmlns="http://www.w3.org/2000/svg" xmlns:xlink="http://www.w3.org/1999/xlink" x="0px" y="0px"
	 width="42.52px" height="42.52px" viewBox="0 0 42.52 42.52" enable-background="new 0 0 42.52 42.52" xml:space="preserve">
<g>
	<path fill="#B09E8D" d="M21.259,42.521C9.537,42.521,0,32.984,0,21.261C0,9.538,9.537,0,21.259,0
		C32.983,0,42.52,9.538,42.52,21.261C42.52,32.984,32.983,42.521,21.259,42.521z M21.259,0.599
		c-11.393,0-20.661,9.269-20.661,20.663c0,11.393,9.268,20.661,20.661,20.661c11.392,0,20.661-9.269,20.661-20.661
		C41.92,9.868,32.651,0.599,21.259,0.599z"/>
</g>
<g>
	<g>
		<path fill="#C75165" d="M21.186,13.816c-0.113,0-0.228-0.031-0.329-0.1c-0.273-0.182-0.346-0.552-0.164-0.824
			c0.145-0.215,0.22-0.467,0.22-0.728c0-0.723-0.588-1.311-1.311-1.311c-0.177,0-0.35,0.034-0.511,0.102
			c-0.303,0.129-0.65-0.014-0.778-0.315c-0.127-0.302,0.014-0.649,0.316-0.778c0.308-0.13,0.637-0.197,0.973-0.197
			c1.377,0,2.499,1.121,2.499,2.5c0,0.497-0.145,0.977-0.42,1.388C21.566,13.724,21.377,13.816,21.186,13.816z"/>
	</g>
</g>
<g>
	<g>
		<path fill="#C75165" d="M23.725,14.397c-0.074,0-0.148-0.014-0.221-0.043c-0.305-0.121-0.453-0.466-0.332-0.771
			c0.18-0.451,0.271-0.929,0.271-1.418c0-2.118-1.724-3.841-3.842-3.841c-0.381,0-0.757,0.055-1.117,0.164
			c-0.314,0.096-0.646-0.082-0.741-0.395c-0.094-0.314,0.082-0.646,0.396-0.741c0.473-0.144,0.964-0.216,1.462-0.216
			c2.773,0,5.029,2.256,5.029,5.029c0,0.642-0.119,1.265-0.355,1.858C24.184,14.254,23.961,14.397,23.725,14.397z"/>
	</g>
</g>
<g>
	<path fill="#83746B" d="M31.737,19.659H20.539c-0.798,0-1.447,0.647-1.447,1.447v6.353c0,0.8,0.648,1.446,1.447,1.446h0.87
		l-2.948,3.151l5.76-3.151h7.516c0.801,0,1.447-0.646,1.447-1.446v-6.353C33.184,20.306,32.538,19.659,31.737,19.659z"/>
</g>
<g>
	<g>
		<circle fill="#D2B199" cx="22.733" cy="24.173" r="1.028"/>
	</g>
	<g>
		<circle fill="#D2B199" cx="26.226" cy="24.173" r="1.028"/>
	</g>
	<g>
		<circle fill="#D2B199" cx="29.722" cy="24.173" r="1.028"/>
	</g>
</g>
<g>
	<path fill="#83746B" d="M13.667,22.048v-4.766h1.706c0,0,1.182-0.088,1.182-1.945s0-4.332,0-4.332S16.488,9.68,15.045,9.68h-1.662
		c0,0-3.849,1.056-4.047,12.368H9.334c0,0.001,0,0.003,0,0.005c0,0,0,0.002,0,0.003h0.001c0.198,11.314,4.047,12.369,4.047,12.369
		h1.662c1.443,0,1.509-1.325,1.509-1.325s0-2.477,0-4.332c0-1.858-1.182-1.946-1.182-1.946h-1.706v-4.765V22.048z"/>
</g>
</svg>
