<?xml version="1.0" encoding="utf-8"?>
<!-- Generator: Adobe Illustrator 15.0.0, SVG Export Plug-In . SVG Version: 6.00 Build 0)  -->
<!DOCTYPE svg PUBLIC "-//W3C//DTD SVG 1.1//EN" "http://www.w3.org/Graphics/SVG/1.1/DTD/svg11.dtd">
<svg version="1.1" id="Layer_1" xmlns="http://www.w3.org/2000/svg" xmlns:xlink="http://www.w3.org/1999/xlink" x="0px" y="0px"
	 width="42.52px" height="42.52px" viewBox="0 0 42.52 42.52" enable-background="new 0 0 42.52 42.52" xml:space="preserve">
<g>
	<path fill="#B09E8D" d="M21.261,42.52C9.537,42.52,0,32.983,0,21.26C0,9.537,9.537,0,21.261,0C32.983,0,42.52,9.537,42.52,21.26
		C42.52,32.983,32.983,42.52,21.261,42.52z M21.261,0.599C9.868,0.599,0.599,9.867,0.599,21.26c0,11.393,9.269,20.66,20.662,20.66
		c11.392,0,20.661-9.268,20.661-20.66C41.921,9.867,32.653,0.599,21.261,0.599z"/>
</g>
<g>
	<polygon fill="#83746B" points="33.369,17.778 21.26,10.619 9.151,17.778 21.26,24.174 	"/>
</g>
<g>
	<g>
		<g>
			<path fill="#C75165" d="M26.997,7.361h-1.565v0.991c0.295,0.147,0.503,0.448,0.503,0.801c0,0.495-0.404,0.896-0.901,0.896
				c-0.493,0-0.895-0.401-0.895-0.896c0-0.353,0.206-0.654,0.501-0.801V7.361h-2.883v0.991c0.296,0.147,0.503,0.448,0.503,0.801
				c0,0.495-0.402,0.896-0.898,0.896c-0.494,0-0.896-0.401-0.896-0.896c0-0.353,0.203-0.654,0.501-0.801V7.361h-2.883v0.991
				c0.297,0.147,0.503,0.448,0.503,0.801c0,0.495-0.403,0.896-0.898,0.896S16.79,9.648,16.79,9.153c0-0.353,0.206-0.654,0.501-0.801
				V7.361h-1.766c-0.937,0-1.696,0.759-1.696,1.695v13.906c0,0.938,0.76,1.697,1.696,1.697h11.472c0.936,0,1.694-0.76,1.694-1.697
				V9.056C28.691,8.12,27.932,7.361,26.997,7.361z"/>
		</g>
	</g>
	<g>
		<path fill="#F6E8DA" d="M27.809,23.139c0,1.021-0.758,1.85-1.695,1.85h-9.626c-0.935,0-1.694-0.828-1.694-1.85V12.778
			c0-1.021,0.759-1.849,1.694-1.849h9.626c0.938,0,1.695,0.829,1.695,1.849V23.139z"/>
	</g>
	<g>
		
			<line fill="none" stroke="#796160" stroke-width="0.3127" stroke-miterlimit="10" x1="17.37" y1="12.971" x2="25.358" y2="12.971"/>
		
			<line fill="none" stroke="#796160" stroke-width="0.3127" stroke-miterlimit="10" x1="17.37" y1="14.528" x2="25.358" y2="14.528"/>
		
			<line fill="none" stroke="#796160" stroke-width="0.3127" stroke-miterlimit="10" x1="17.37" y1="16.085" x2="25.358" y2="16.085"/>
		
			<line fill="none" stroke="#796160" stroke-width="0.3127" stroke-miterlimit="10" x1="17.37" y1="17.642" x2="25.358" y2="17.642"/>
		
			<line fill="none" stroke="#796160" stroke-width="0.3127" stroke-miterlimit="10" x1="17.37" y1="19.199" x2="25.358" y2="19.199"/>
	</g>
</g>
<g>
	<g>
		<path fill="#83746B" d="M9.118,19.126v9.884c0,0.33,0.006,1.738,1.375,1.676l9.819-6.1L9.118,19.126z"/>
	</g>
	<g>
		<path fill="#83746B" d="M22.208,24.586l9.82,6.1c0.843-0.104,1.375-0.801,1.375-1.676v-9.884L22.208,24.586z"/>
	</g>
	<g>
		<path fill="#83746B" d="M10.492,30.686c0.108,0.021,0.221,0.033,0.336,0.033h20.864c0.115,0,0.226-0.012,0.336-0.033L21.26,24.999
			L10.492,30.686z"/>
	</g>
</g>
</svg>
