<?xml version="1.0" encoding="utf-8"?>
<!-- Generator: Adobe Illustrator 15.0.0, SVG Export Plug-In . SVG Version: 6.00 Build 0)  -->
<!DOCTYPE svg PUBLIC "-//W3C//DTD SVG 1.1//EN" "http://www.w3.org/Graphics/SVG/1.1/DTD/svg11.dtd">
<svg version="1.1" id="Layer_1" xmlns="http://www.w3.org/2000/svg" xmlns:xlink="http://www.w3.org/1999/xlink" x="0px" y="0px"
	 width="42.52px" height="42.52px" viewBox="0 0 42.52 42.52" enable-background="new 0 0 42.52 42.52" xml:space="preserve">
<g>
	<path fill="#B09E8D" d="M21.259,42.52C9.537,42.52,0,32.982,0,21.26C0,9.537,9.537,0,21.259,0C32.983,0,42.52,9.537,42.52,21.26
		C42.52,32.982,32.983,42.52,21.259,42.52z M21.259,0.599c-11.392,0-20.66,9.269-20.66,20.661c0,11.392,9.268,20.662,20.66,20.662
		s20.663-9.27,20.663-20.662C41.921,9.867,32.651,0.599,21.259,0.599z"/>
</g>
<g>
	<g>
		<path fill="#83746B" d="M27.637,32.35c0,0.295-0.238,0.533-0.531,0.533H10.392c-0.293,0-0.533-0.238-0.533-0.533V8.3
			c0-0.293,0.24-0.533,0.533-0.533h16.714c0.293,0,0.531,0.24,0.531,0.533V32.35z"/>
	</g>
	<g>
		<rect x="10.847" y="10.62" fill="#F6E8DA" width="15.804" height="19.63"/>
	</g>
	<g>
		<circle fill="#F6E8DA" cx="18.749" cy="31.567" r="0.764"/>
	</g>
	<g>
		<circle fill="#F6E8DA" cx="18.748" cy="9.065" r="0.276"/>
	</g>
</g>
<g>
	<g>
		<path fill="#83746B" d="M31.959,35.362c0,0.541-0.441,0.98-0.988,0.98h-6.65c-0.545,0-0.988-0.439-0.988-0.98V19.599
			c0-0.541,0.443-0.98,0.988-0.98h6.65c0.547,0,0.988,0.439,0.988,0.98V35.362z"/>
	</g>
	<g>
		<path fill="#F6E8DA" d="M31.768,35.131c0,0.525-0.424,0.953-0.947,0.953h-6.377c-0.523,0-0.947-0.428-0.947-0.953v-15.3
			c0-0.525,0.424-0.953,0.947-0.953h6.377c0.523,0,0.947,0.428,0.947,0.953V35.131z"/>
	</g>
	<g>
		<path fill="#816B67" d="M31.301,33.374c0,0.418-0.377,0.756-0.842,0.756h-5.654c-0.465,0-0.84-0.338-0.84-0.756V21.22
			c0-0.418,0.375-0.758,0.84-0.758h5.654c0.465,0,0.842,0.34,0.842,0.758V33.374z"/>
	</g>
	<g>
		<path fill="#83746B" d="M23.336,21.558c0,0.055-0.025,0.1-0.057,0.1l0,0c-0.031,0-0.059-0.045-0.059-0.1V20.94
			c0-0.055,0.027-0.098,0.059-0.098l0,0c0.031,0,0.057,0.043,0.057,0.098V21.558z"/>
	</g>
	<g>
		<path fill="#83746B" d="M23.329,23.651c0,0.031-0.025,0.057-0.057,0.057l0,0c-0.033,0-0.059-0.025-0.059-0.057v-1.244
			c0-0.031,0.025-0.059,0.059-0.059l0,0c0.031,0,0.057,0.027,0.057,0.059V23.651z"/>
	</g>
	<g>
		<path fill="#83746B" d="M32.057,23.749c0,0.033-0.027,0.061-0.059,0.061l0,0c-0.033,0-0.059-0.027-0.059-0.061v-1.242
			c0-0.031,0.025-0.057,0.059-0.057l0,0c0.031,0,0.059,0.025,0.059,0.057V23.749z"/>
	</g>
	<g>
		<path fill="#83746B" d="M23.329,25.309c0,0.035-0.025,0.059-0.057,0.059l0,0c-0.033,0-0.059-0.023-0.059-0.059v-1.242
			c0-0.031,0.025-0.059,0.059-0.059l0,0c0.031,0,0.057,0.027,0.057,0.059V25.309z"/>
	</g>
	<g>
		<path fill="#83746B" d="M28.358,19.925c0,0.043-0.035,0.078-0.078,0.078h-1.217c-0.043,0-0.078-0.035-0.078-0.078l0,0
			c0-0.041,0.035-0.078,0.078-0.078h1.217C28.323,19.847,28.358,19.884,28.358,19.925L28.358,19.925z"/>
	</g>
	<g>
		<path fill="#83746B" d="M27.782,19.333c0,0.061-0.049,0.109-0.111,0.109l0,0c-0.059,0-0.107-0.049-0.107-0.109l0,0
			c0-0.061,0.049-0.109,0.107-0.109l0,0C27.733,19.224,27.782,19.272,27.782,19.333L27.782,19.333z"/>
	</g>
	<g>
		<path fill="#83746B" d="M26.409,19.911c0,0.086-0.07,0.154-0.156,0.154l0,0c-0.086,0-0.156-0.068-0.156-0.154l0,0
			c0-0.088,0.07-0.156,0.156-0.156l0,0C26.338,19.755,26.409,19.823,26.409,19.911L26.409,19.911z"/>
	</g>
	<g>
		<path fill="#796160" d="M27.67,35.885c-0.383,0-0.695-0.313-0.695-0.697c0-0.383,0.313-0.695,0.695-0.695
			c0.385,0,0.697,0.313,0.697,0.695C28.368,35.573,28.055,35.885,27.67,35.885z M27.67,34.7c-0.27,0-0.488,0.219-0.488,0.488
			c0,0.271,0.219,0.49,0.488,0.49c0.271,0,0.49-0.219,0.49-0.49C28.161,34.918,27.942,34.7,27.67,34.7z"/>
	</g>
</g>
<g>
	<g>
		<path fill="#C75165" d="M20.032,16.546c0,0-1.215,0.176-1.205,1.525C18.827,18.071,20.063,18.009,20.032,16.546z"/>
	</g>
	<g>
		<path fill="#C75165" d="M21.276,18.569c0,0-0.82,0.508-0.674,1.391c0.145,0.883,0.852,1.121,0.852,1.121s-0.262,0.748-0.654,1.193
			c-0.395,0.447-0.758,0.529-1.131,0.373c-0.375-0.154-0.842-0.229-1.236-0.031s-0.82,0.209-1.318-0.382
			c-0.498-0.592-0.943-1.744-0.818-2.678c0.123-0.934,0.705-1.463,1.193-1.547s1.162,0.197,1.422,0.219
			c0.26,0.02,0.84-0.303,1.297-0.26C20.665,18.009,21.028,18.29,21.276,18.569z"/>
	</g>
</g>
</svg>
