<?xml version="1.0" encoding="utf-8"?>
<!-- Generator: Adobe Illustrator 15.0.0, SVG Export Plug-In . SVG Version: 6.00 Build 0)  -->
<!DOCTYPE svg PUBLIC "-//W3C//DTD SVG 1.1//EN" "http://www.w3.org/Graphics/SVG/1.1/DTD/svg11.dtd">
<svg version="1.1" id="Layer_1" xmlns="http://www.w3.org/2000/svg" xmlns:xlink="http://www.w3.org/1999/xlink" x="0px" y="0px"
	 width="42.52px" height="42.52px" viewBox="0 0 42.52 42.52" enable-background="new 0 0 42.52 42.52" xml:space="preserve">
<g>
	<g>
		<path fill="#B09E8D" d="M21.259,42.52C9.536,42.52,0,32.983,0,21.26C0,9.537,9.536,0,21.259,0C32.982,0,42.52,9.537,42.52,21.26
			C42.52,32.983,32.982,42.52,21.259,42.52z M21.259,0.599c-11.392,0-20.66,9.269-20.66,20.662c0,11.393,9.268,20.66,20.66,20.66
			c11.393,0,20.663-9.268,20.663-20.66C41.921,9.867,32.652,0.599,21.259,0.599z"/>
	</g>
	<circle fill="#83746B" cx="13.35" cy="15.129" r="3.333"/>
	<circle fill="#83746B" cx="29.168" cy="15.129" r="3.333"/>
	<path fill="#83746B" d="M29.11,26.631h7.404c-1.051-4.408-3.939-7.581-7.344-7.581c-2.015,0-3.843,1.114-5.223,2.932
		C25.979,22.77,27.764,24.411,29.11,26.631z"/>
	<path fill="#F6E8DA" d="M29.712,31.323c-1.215-5.09-4.545-8.75-8.476-8.75c-3.934,0-7.265,3.66-8.477,8.75H29.712z"/>
	<circle fill="#F6E8DA" cx="21.235" cy="17.667" r="3.846"/>
	<polygon fill="#C75165" points="22.185,22.573 21.552,23.899 21.015,23.899 20.378,22.573 	"/>
	<polygon fill="#C75165" points="20.378,29.395 21.01,24.606 21.548,24.606 22.185,29.395 21.229,31.342 	"/>
	<path fill="#83746B" d="M18.56,21.967c-1.377-1.808-3.201-2.917-5.21-2.917c-3.405,0-6.292,3.173-7.343,7.581h7.355
		C14.714,24.397,16.513,22.749,18.56,21.967z"/>
</g>
</svg>
