<?xml version="1.0" encoding="utf-8"?>
<!-- Generator: Adobe Illustrator 15.0.0, SVG Export Plug-In . SVG Version: 6.00 Build 0)  -->
<!DOCTYPE svg PUBLIC "-//W3C//DTD SVG 1.1//EN" "http://www.w3.org/Graphics/SVG/1.1/DTD/svg11.dtd">
<svg version="1.1" id="Layer_1" xmlns="http://www.w3.org/2000/svg" xmlns:xlink="http://www.w3.org/1999/xlink" x="0px" y="0px"
	 width="42.52px" height="42.52px" viewBox="0 0 42.52 42.52" enable-background="new 0 0 42.52 42.52" xml:space="preserve">
<g>
	<path fill="#B09E8D" d="M21.258,42.52C9.537,42.52,0,32.983,0,21.261C0,9.538,9.537,0,21.258,0C32.983,0,42.52,9.538,42.52,21.261
		C42.52,32.983,32.983,42.52,21.258,42.52z M21.258,0.599c-11.392,0-20.66,9.269-20.66,20.662c0,11.392,9.268,20.66,20.66,20.66
		c11.393,0,20.662-9.268,20.662-20.66C41.92,9.867,32.651,0.599,21.258,0.599z"/>
</g>
<g>
	<path fill="#83746B" d="M19.595,19.254c-0.299,0.182-0.65,0.291-1.026,0.291c-1.092,0-1.976-0.885-1.976-1.976
		s0.884-1.976,1.976-1.976c0.376,0,0.727,0.107,1.026,0.291v-2.898h-8.666c-0.496,0-0.896,0.4-0.896,0.896v8.379h3.441
		c-0.363,0.289-0.596,0.734-0.596,1.234c0,0.875,0.708,1.58,1.579,1.58c0.875,0,1.582-0.705,1.582-1.58
		c0-0.5-0.234-0.945-0.598-1.234h4.153V19.254z"/>
</g>
<g>
	<path fill="#83746B" d="M20.774,26.68c-0.479,0-0.906,0.227-1.179,0.58v-4.211H16.62c0.029,0.145,0.045,0.295,0.045,0.445
		c0,1.219-0.987,2.207-2.207,2.207c-1.218,0-2.206-0.988-2.206-2.207c0-0.15,0.016-0.301,0.044-0.445h-2.263v8.639
		c0,0.494,0.399,0.896,0.896,0.896h7.77c0.497,0,0.896-0.402,0.896-0.896v-2.605c0.273,0.352,0.699,0.58,1.179,0.58
		c0.822,0,1.491-0.67,1.491-1.492S21.596,26.68,20.774,26.68z"/>
</g>
<g>
	<path fill="#83746B" d="M24.032,21.844c0,0.481,0.227,0.905,0.578,1.178H20.4v2.975c0.145-0.029,0.294-0.045,0.447-0.045
		c1.217,0,2.206,0.988,2.206,2.207s-0.989,2.205-2.206,2.205c-0.152,0-0.302-0.016-0.447-0.045v2.266h8.639
		c0.494,0,0.895-0.402,0.895-0.896v-7.771c0-0.494-0.4-0.895-0.895-0.895h-2.605c0.352-0.273,0.578-0.697,0.578-1.178
		c0-0.823-0.666-1.49-1.488-1.49C24.698,20.354,24.032,21.021,24.032,21.844z"/>
</g>
<g>
	<path fill="#C75165" d="M22.645,13.698c0.426,0.218,0.908,0.21,1.313,0.021l-1.656,3.227l2.648,1.359
		c0.039-0.142,0.094-0.281,0.162-0.417c0.557-1.084,1.887-1.512,2.971-0.956s1.512,1.887,0.955,2.971
		c-0.07,0.136-0.15,0.261-0.242,0.376l2.014,1.033l3.945-7.685c0.227-0.438,0.051-0.979-0.389-1.205l-6.912-3.55
		c-0.441-0.226-0.98-0.052-1.207,0.388l-1.455,2.837c-0.084-0.438-0.357-0.833-0.785-1.053c-0.732-0.376-1.63-0.087-2.006,0.646
		C21.624,12.423,21.913,13.322,22.645,13.698z"/>
</g>
</svg>
