<?xml version="1.0" encoding="utf-8"?>
<!-- Generator: Adobe Illustrator 15.0.0, SVG Export Plug-In . SVG Version: 6.00 Build 0)  -->
<!DOCTYPE svg PUBLIC "-//W3C//DTD SVG 1.1//EN" "http://www.w3.org/Graphics/SVG/1.1/DTD/svg11.dtd">
<svg version="1.1" id="Layer_1" xmlns="http://www.w3.org/2000/svg" xmlns:xlink="http://www.w3.org/1999/xlink" x="0px" y="0px"
	 width="42.52px" height="42.52px" viewBox="0 0 42.52 42.52" enable-background="new 0 0 42.52 42.52" xml:space="preserve">
<g>
	<path fill="#B09E8D" d="M21.259,42.519C9.537,42.519,0,32.983,0,21.26S9.537,0,21.259,0C32.983,0,42.52,9.538,42.52,21.26
		S32.983,42.519,21.259,42.519z M21.259,0.599C9.867,0.599,0.599,9.867,0.599,21.26c0,11.392,9.268,20.66,20.661,20.66
		c11.392,0,20.661-9.269,20.661-20.66C41.92,9.867,32.651,0.599,21.259,0.599z"/>
</g>
<g>
	<g>
		<path fill="#83746B" d="M35.553,29.076c0,1.618-1.313,2.929-2.928,2.929H9.896c-1.617,0-2.929-1.311-2.929-2.929V12.688
			c0-1.617,1.312-2.928,2.929-2.928h22.729c1.615,0,2.928,1.311,2.928,2.928V29.076z"/>
	</g>
	<g>
		<rect x="8.578" y="11.672" fill="#F6E8DA" width="11.373" height="18.421"/>
	</g>
	<g>
		<rect x="20.557" y="11.672" fill="#F6E8DA" width="11.374" height="18.421"/>
	</g>
	<g>
		
			<line fill="none" stroke="#C75165" stroke-width="0.4481" stroke-miterlimit="10" x1="10.713" y1="14.29" x2="18.464" y2="14.29"/>
		
			<line fill="none" stroke="#C75165" stroke-width="0.4481" stroke-miterlimit="10" x1="10.713" y1="16.487" x2="18.464" y2="16.487"/>
		
			<line fill="none" stroke="#C75165" stroke-width="0.4481" stroke-miterlimit="10" x1="10.713" y1="18.685" x2="18.464" y2="18.685"/>
		
			<line fill="none" stroke="#C75165" stroke-width="0.4481" stroke-miterlimit="10" x1="10.713" y1="20.883" x2="18.464" y2="20.883"/>
		
			<line fill="none" stroke="#C75165" stroke-width="0.4481" stroke-miterlimit="10" x1="10.713" y1="23.081" x2="18.464" y2="23.081"/>
		
			<line fill="none" stroke="#C75165" stroke-width="0.4481" stroke-miterlimit="10" x1="10.713" y1="25.278" x2="18.464" y2="25.278"/>
		
			<line fill="none" stroke="#C75165" stroke-width="0.4481" stroke-miterlimit="10" x1="10.713" y1="27.475" x2="18.464" y2="27.475"/>
	</g>
	<g>
		
			<line fill="none" stroke="#C75165" stroke-width="0.4481" stroke-miterlimit="10" x1="22.473" y1="14.29" x2="30.223" y2="14.29"/>
		
			<line fill="none" stroke="#C75165" stroke-width="0.4481" stroke-miterlimit="10" x1="22.473" y1="16.375" x2="30.223" y2="16.375"/>
		
			<line fill="none" stroke="#C75165" stroke-width="0.4481" stroke-miterlimit="10" x1="22.473" y1="18.459" x2="30.223" y2="18.459"/>
		
			<line fill="none" stroke="#C75165" stroke-width="0.4481" stroke-miterlimit="10" x1="22.473" y1="20.544" x2="30.223" y2="20.544"/>
		
			<line fill="none" stroke="#C75165" stroke-width="0.4481" stroke-miterlimit="10" x1="22.473" y1="22.628" x2="30.223" y2="22.628"/>
	</g>
	<g>
		<circle fill="#D2B199" cx="33.741" cy="20.731" r="1.107"/>
	</g>
	<g>
		<polygon fill="#D2B199" points="28.379,11.651 31.93,11.651 31.93,15.416 		"/>
	</g>
	<g>
		<polygon fill="#C75165" points="28.379,11.651 28.379,15.416 31.93,15.416 		"/>
	</g>
</g>
<g>
	<g>
		<path fill="#796160" d="M29.477,38.134L29.477,38.134c-1.42,0-2.289-0.853-3.131-1.678l-0.102-0.099
			c-0.875-0.851-2.322-1.145-2.904-1.231c-1.056-0.161-1.333-0.962-1.333-1.364c-0.026-0.356,0.07-1.357,1.578-1.858
			c0.248-0.082,0.516-0.125,0.797-0.13c-0.648-1.804-1.831-5.086-1.94-5.406c-0.071-0.204-0.272-0.919,0.083-1.593
			c0.21-0.396,0.562-0.673,1.019-0.798c0.15-0.041,0.301-0.062,0.447-0.062c0.971,0,1.48,0.854,1.631,1.36l0.471,1.177
			c0.404-0.205,0.918-0.258,1.342-0.115c0.088,0.029,0.17,0.066,0.25,0.11c0.135-0.127,0.295-0.229,0.471-0.294
			c0.627-0.237,1.34-0.074,1.783,0.359c0.123-0.08,0.262-0.142,0.414-0.18c0.139-0.035,0.279-0.053,0.416-0.053
			c0.834,0,1.352,0.638,1.525,1.015l0.092,0.235c1.113,2.862,1.672,4.924,1.658,6.125c-0.02,2.182-1.373,3.813-3.619,4.359
			C30.098,38.094,29.78,38.134,29.477,38.134z M23.454,33.672c0.02,0.009,0.053,0.019,0.102,0.025
			c0.893,0.133,2.564,0.522,3.697,1.626l0.105,0.101c0.824,0.809,1.328,1.266,2.119,1.266l0,0c0.188,0,0.391-0.026,0.605-0.079
			c0.932-0.227,2.498-0.914,2.518-2.97c0.008-0.7-0.258-2.236-1.563-5.587l-0.076-0.203c0,0.004,0,0.005,0,0.005
			c-0.006,0-0.064-0.084-0.139-0.117l0.32,1.076l-0.289,1.98l-1.371-1.452l-0.551-1.81c0.012,0.021-0.055-0.051-0.158-0.051
			c-0.004,0-0.01,0-0.014,0.001l0.418,1.371l-0.291,2l-1.369-1.469L27.02,27.75c-0.021-0.026-0.037-0.039-0.045-0.042
			c-0.061,0-0.105,0.002-0.145,0.009l0.463,1.287l-0.451,3.215l-2.584-6.47c-0.063-0.187-0.188-0.389-0.268-0.389
			c-0.16,0.037-0.178,0.07-0.188,0.09c-0.051,0.095-0.049,0.295,0.004,0.447c0.152,0.44,2.355,6.561,2.355,6.561l0.563,1.559
			L25.2,33.367l0,0c0,0-0.729-0.231-1.162-0.092C23.77,33.365,23.485,33.513,23.454,33.672z"/>
	</g>
	<g>
		<path fill="#F6E8DA" d="M31.637,27.598c0,0-0.348-0.755-1.109-0.563c-0.303,0.076-0.467,0.321-0.486,0.604l0.004,0.01l0.359,1.218
			l-0.051,0.348l-0.23-0.244l-0.5-1.647c-0.135-0.376-0.637-0.711-1.217-0.493c-0.281,0.105-0.439,0.396-0.434,0.554l0.467,1.528
			l-0.051,0.35l-0.229-0.246l-0.482-1.585c-0.104-0.166-0.248-0.331-0.473-0.407c-0.506-0.168-1.227,0.158-1.16,0.646l0.508,1.411
			l-0.049,0.347l-1.576-3.945c0,0-0.311-1.049-1.193-0.808c-0.77,0.211-0.764,1.02-0.611,1.459c0.152,0.442,2.361,6.569,2.361,6.569
			s-0.879-0.374-1.672-0.112c-0.793,0.263-1.117,0.697-1.084,1.173c0,0,0,0.54,0.719,0.649c0.717,0.107,2.295,0.45,3.301,1.43
			c1.002,0.979,1.846,1.877,3.506,1.472c1.648-0.401,3.047-1.538,3.066-3.665C33.342,31.788,31.741,27.89,31.637,27.598z"/>
	</g>
</g>
</svg>
