<?xml version="1.0" encoding="utf-8"?>
<!-- Generator: Adobe Illustrator 15.0.0, SVG Export Plug-In . SVG Version: 6.00 Build 0)  -->
<!DOCTYPE svg PUBLIC "-//W3C//DTD SVG 1.1//EN" "http://www.w3.org/Graphics/SVG/1.1/DTD/svg11.dtd">
<svg version="1.1" id="Layer_1" xmlns="http://www.w3.org/2000/svg" xmlns:xlink="http://www.w3.org/1999/xlink" x="0px" y="0px"
	 width="42.52px" height="42.52px" viewBox="0 0 42.52 42.52" enable-background="new 0 0 42.52 42.52" xml:space="preserve">
<g>
	<path fill="#B09E8D" d="M21.261,42.519C9.537,42.519,0,32.983,0,21.26C0,9.537,9.537,0,21.261,0C32.983,0,42.52,9.537,42.52,21.26
		C42.52,32.983,32.983,42.519,21.261,42.519z M21.261,0.599C9.868,0.599,0.599,9.867,0.599,21.26c0,11.392,9.269,20.66,20.662,20.66
		c11.392,0,20.661-9.269,20.661-20.66C41.921,9.867,32.653,0.599,21.261,0.599z"/>
</g>
<g>
	<g>
		<path fill="#83746B" d="M33.579,27.312c-0.002,1.355-1.097,2.452-2.451,2.452H11.39c-1.353,0-2.45-1.097-2.45-2.452V15.644
			c0-1.354,1.098-2.451,2.45-2.451h19.739c1.354,0,2.45,1.097,2.45,2.451V27.312z"/>
	</g>
	<g>
		<rect x="8.939" y="16.449" fill="#D2B199" width="24.64" height="2.619"/>
	</g>
	<g>
		<rect x="11.314" y="21.286" fill="#D2B199" width="3.654" height="3.139"/>
	</g>
</g>
<g>
	<path fill="#FFFFFF" d="M11.531,25.222h0.344c0.117,0,0.201,0.031,0.252,0.094c0.031,0.039,0.087,0.173,0.168,0.4l0.576,1.615
		l0.619-1.732c0.057-0.16,0.121-0.267,0.189-0.318c0.053-0.04,0.127-0.06,0.223-0.059h0.332v2.666h-0.355v-2.359l-0.875,2.359
		h-0.289l-0.828-2.344v2.344h-0.355V25.222z"/>
	<path fill="#FFFFFF" d="M15.121,27.109l-0.088-0.213v0.377c0,0.095,0.015,0.165,0.045,0.211c0.069,0.103,0.207,0.154,0.414,0.154
		h0.867c-0.013,0.067-0.029,0.114-0.047,0.141c-0.049,0.071-0.125,0.107-0.229,0.107h-0.688c-0.259,0-0.443-0.044-0.553-0.133
		c-0.111-0.089-0.166-0.231-0.166-0.43v-0.545c0-0.266,0.095-0.452,0.285-0.561c0.123-0.069,0.309-0.104,0.561-0.104
		c0.285,0,0.49,0.047,0.613,0.141c0.104,0.078,0.17,0.199,0.199,0.363c0.017,0.099,0.025,0.218,0.025,0.357
		c0,0.026-0.001,0.07-0.004,0.133H15.121z M15.033,26.861h0.984c0.001-0.187-0.024-0.308-0.076-0.363
		c-0.064-0.069-0.199-0.104-0.404-0.104c-0.163,0-0.282,0.022-0.357,0.068c-0.055,0.031-0.096,0.089-0.125,0.174
		c-0.014,0.043-0.021,0.083-0.021,0.119V26.861z"/>
	<path fill="#FFFFFF" d="M17.051,26.285c0.064-0.118,0.159-0.178,0.285-0.178h0.41c0.142,0,0.252,0.057,0.332,0.17
		c0.063-0.113,0.156-0.17,0.281-0.17h0.51c0.279,0,0.418,0.192,0.418,0.576v1.211h-0.355v-1.217c0-0.109-0.011-0.184-0.033-0.223
		c-0.039-0.066-0.104-0.1-0.193-0.1h-0.59c0.034,0.082,0.051,0.194,0.051,0.336v1.203h-0.355v-1.211
		c0-0.108-0.011-0.182-0.033-0.221c-0.039-0.066-0.115-0.1-0.229-0.1h-0.498v1.531h-0.355v-1.785h0.355V26.285z"/>
	<path fill="#FFFFFF" d="M19.963,26.394v1.484h-0.355v-2.643h0.355v1.045c0.066-0.09,0.156-0.135,0.268-0.135h0.496
		c0.22,0,0.377,0.065,0.471,0.197c0.069,0.097,0.104,0.267,0.104,0.512v0.291c0,0.292-0.047,0.485-0.143,0.582
		c-0.099,0.101-0.252,0.15-0.461,0.15h-0.613L19.99,27.63h0.641c0.084,0,0.156-0.024,0.213-0.074c0.066-0.06,0.1-0.208,0.1-0.443
		v-0.309c0-0.149-0.028-0.257-0.084-0.32c-0.052-0.06-0.144-0.09-0.275-0.09H19.963z"/>
	<path fill="#FFFFFF" d="M22.08,27.109l-0.088-0.213v0.377c0,0.095,0.015,0.165,0.045,0.211c0.069,0.103,0.207,0.154,0.414,0.154
		h0.868c-0.014,0.067-0.029,0.114-0.047,0.141c-0.05,0.071-0.126,0.107-0.229,0.107h-0.688c-0.259,0-0.443-0.044-0.553-0.133
		c-0.111-0.089-0.166-0.231-0.166-0.43v-0.545c0-0.266,0.095-0.452,0.285-0.561c0.123-0.069,0.309-0.104,0.561-0.104
		c0.286,0,0.49,0.047,0.614,0.141c0.104,0.078,0.17,0.199,0.199,0.363c0.017,0.099,0.025,0.218,0.025,0.357
		c0,0.026-0.002,0.07-0.004,0.133H22.08z M21.992,26.861h0.985c0.001-0.187-0.024-0.308-0.076-0.363
		c-0.064-0.069-0.199-0.104-0.405-0.104c-0.163,0-0.282,0.022-0.357,0.068c-0.055,0.031-0.096,0.089-0.125,0.174
		c-0.014,0.043-0.021,0.083-0.021,0.119V26.861z"/>
	<path fill="#FFFFFF" d="M24.053,26.449c0.162-0.151,0.373-0.273,0.631-0.367v0.371c-0.191,0.048-0.338,0.097-0.439,0.146
		c-0.051,0.024-0.115,0.063-0.191,0.117v1.17h-0.355v-1.775h0.355V26.449z"/>
	<path fill="#FFFFFF" d="M25.059,27.638h0.959c0.125,0,0.209-0.017,0.252-0.049s0.064-0.1,0.064-0.201s-0.008-0.171-0.023-0.207
		c-0.02-0.047-0.088-0.07-0.205-0.07h-0.588c-0.197,0-0.322-0.034-0.377-0.104c-0.055-0.067-0.082-0.176-0.082-0.324
		c0-0.11,0.003-0.192,0.01-0.244c0.01-0.085,0.047-0.158,0.109-0.221c0.071-0.071,0.205-0.107,0.402-0.107h0.758
		c0.122,0,0.208,0.036,0.258,0.107c0.021,0.031,0.04,0.078,0.055,0.141h-0.922c-0.15,0-0.246,0.024-0.287,0.072
		c-0.035,0.04-0.053,0.101-0.053,0.182c0,0.11,0.015,0.18,0.045,0.207c0.032,0.028,0.105,0.043,0.219,0.043h0.617
		c0.154,0,0.26,0.034,0.314,0.104c0.053,0.067,0.08,0.173,0.08,0.314v0.037v0.018v0.074c0,0.146-0.024,0.255-0.072,0.328
		c-0.065,0.099-0.206,0.148-0.422,0.148h-0.803c-0.12,0-0.205-0.036-0.254-0.107C25.091,27.747,25.073,27.7,25.059,27.638z"/>
	<path fill="#FFFFFF" d="M27.397,26.347c0.063-0.112,0.156-0.168,0.283-0.168h0.592c0.279,0,0.42,0.188,0.42,0.566v1.143h-0.355
		v-1.15c0-0.105-0.012-0.177-0.035-0.215c-0.039-0.063-0.104-0.096-0.195-0.096h-0.709v1.461h-0.355v-2.666h0.355V26.347z"/>
	<path fill="#FFFFFF" d="M29.571,25.302v0.332h-0.355v-0.332H29.571z M29.571,27.876h-0.355V26.08h0.355V27.876z"/>
	<path fill="#FFFFFF" d="M30.133,26.117h0.883c0.216,0,0.378,0.032,0.486,0.096c0.182,0.108,0.273,0.308,0.273,0.598
		c0,0.19-0.011,0.335-0.031,0.434c-0.02,0.094-0.065,0.181-0.137,0.26c-0.107,0.116-0.295,0.174-0.563,0.174h-0.434l-0.096-0.248
		h0.523c0.139,0,0.236-0.029,0.293-0.088s0.086-0.163,0.088-0.314l0.002-0.184c0.002-0.319-0.139-0.479-0.424-0.479h-0.51v2.174
		h-0.355V26.117z"/>
</g>
</svg>
