<?xml version="1.0" encoding="utf-8"?>
<!-- Generator: Adobe Illustrator 15.0.0, SVG Export Plug-In . SVG Version: 6.00 Build 0)  -->
<!DOCTYPE svg PUBLIC "-//W3C//DTD SVG 1.1//EN" "http://www.w3.org/Graphics/SVG/1.1/DTD/svg11.dtd">
<svg version="1.1" id="Layer_1" xmlns="http://www.w3.org/2000/svg" xmlns:xlink="http://www.w3.org/1999/xlink" x="0px" y="0px"
	 width="42.52px" height="42.52px" viewBox="0 0 42.52 42.52" enable-background="new 0 0 42.52 42.52" xml:space="preserve">
<g>
	<g>
		<path fill="#B09E8D" d="M21.261,42.52C9.537,42.52,0,32.983,0,21.26C0,9.537,9.537,0,21.261,0C32.983,0,42.52,9.537,42.52,21.26
			C42.52,32.983,32.983,42.52,21.261,42.52z M21.261,0.599C9.868,0.599,0.599,9.867,0.599,21.26c0,11.393,9.269,20.66,20.662,20.66
			c11.392,0,20.661-9.268,20.661-20.66C41.921,9.867,32.653,0.599,21.261,0.599z"/>
	</g>
	<path fill="#83746B" d="M19.18,9.578c-6.332,0-11.467,4.228-11.467,9.444c0,3.056,1.771,5.768,4.506,7.492
		c-0.219,0.469-1.261,2.777-0.87,3.219c0.405,0.457,2.956-1.727,3.31-2.033c1.388,0.49,2.915,0.766,4.521,0.766
		c6.334,0,11.47-4.229,11.47-9.443C30.65,13.806,25.514,9.578,19.18,9.578z M15.437,17.741c-0.857,0-1.554-0.696-1.554-1.554
		c0-0.858,0.696-1.554,1.554-1.554c0.858,0,1.554,0.696,1.554,1.554C16.991,17.045,16.295,17.741,15.437,17.741z M23.368,18.068
		c-0.857,0-1.552-0.696-1.552-1.554c0-0.856,0.695-1.553,1.552-1.553c0.859,0,1.554,0.696,1.554,1.553
		C24.921,17.372,24.227,18.068,23.368,18.068z"/>
	<path fill="#D2B199" d="M34.807,26.801c0-4.18-4.115-7.569-9.193-7.569c-5.076,0-9.192,3.389-9.192,7.569s4.116,7.57,9.192,7.57
		c1.289,0,2.514-0.221,3.626-0.613c0.283,0.244,2.326,1.994,2.651,1.631c0.314-0.355-0.522-2.207-0.695-2.582
		C33.387,31.422,34.807,29.25,34.807,26.801z"/>
	<g>
		<g>
			<circle fill="#F6E8DA" cx="28.617" cy="24.53" r="1.246"/>
			<circle fill="#F6E8DA" cx="22.259" cy="24.792" r="1.244"/>
		</g>
	</g>
</g>
</svg>
